G04 EAGLE Gerber RS-274X export*
G75*
%MOMM*%
%FSLAX34Y34*%
%LPD*%
%INTop Silkscreen*%
%IPPOS*%
%AMOC8*
5,1,8,0,0,1.08239X$1,22.5*%
G01*
%ADD10C,0.152400*%
%ADD11C,0.254000*%
%ADD12C,0.203200*%
%ADD13C,0.127000*%
%ADD14C,0.101600*%


D10*
X51562Y231902D02*
X51562Y248158D01*
X56078Y248158D01*
X56209Y248156D01*
X56341Y248150D01*
X56472Y248141D01*
X56602Y248127D01*
X56733Y248110D01*
X56862Y248089D01*
X56991Y248065D01*
X57119Y248036D01*
X57247Y248004D01*
X57373Y247968D01*
X57498Y247929D01*
X57623Y247886D01*
X57745Y247839D01*
X57867Y247789D01*
X57987Y247735D01*
X58105Y247678D01*
X58221Y247617D01*
X58336Y247553D01*
X58449Y247486D01*
X58560Y247415D01*
X58668Y247341D01*
X58775Y247264D01*
X58879Y247184D01*
X58981Y247101D01*
X59080Y247016D01*
X59177Y246927D01*
X59271Y246835D01*
X59363Y246741D01*
X59452Y246644D01*
X59537Y246545D01*
X59620Y246443D01*
X59700Y246339D01*
X59777Y246232D01*
X59851Y246124D01*
X59922Y246013D01*
X59989Y245900D01*
X60053Y245785D01*
X60114Y245669D01*
X60171Y245551D01*
X60225Y245431D01*
X60275Y245309D01*
X60322Y245187D01*
X60365Y245062D01*
X60404Y244937D01*
X60440Y244811D01*
X60472Y244683D01*
X60501Y244555D01*
X60525Y244426D01*
X60546Y244297D01*
X60563Y244166D01*
X60577Y244036D01*
X60586Y243905D01*
X60592Y243773D01*
X60594Y243642D01*
X60593Y243642D02*
X60593Y236418D01*
X60594Y236418D02*
X60592Y236287D01*
X60586Y236155D01*
X60577Y236024D01*
X60563Y235894D01*
X60546Y235763D01*
X60525Y235634D01*
X60501Y235505D01*
X60472Y235377D01*
X60440Y235249D01*
X60404Y235123D01*
X60365Y234998D01*
X60322Y234873D01*
X60275Y234751D01*
X60225Y234629D01*
X60171Y234509D01*
X60114Y234391D01*
X60053Y234275D01*
X59989Y234160D01*
X59922Y234047D01*
X59851Y233936D01*
X59777Y233828D01*
X59700Y233721D01*
X59620Y233617D01*
X59537Y233515D01*
X59452Y233416D01*
X59363Y233319D01*
X59271Y233225D01*
X59177Y233133D01*
X59080Y233044D01*
X58981Y232959D01*
X58879Y232876D01*
X58775Y232796D01*
X58668Y232719D01*
X58560Y232645D01*
X58449Y232574D01*
X58336Y232507D01*
X58221Y232443D01*
X58105Y232382D01*
X57987Y232325D01*
X57867Y232271D01*
X57745Y232221D01*
X57623Y232174D01*
X57498Y232131D01*
X57373Y232092D01*
X57247Y232056D01*
X57119Y232024D01*
X56991Y231995D01*
X56862Y231971D01*
X56732Y231950D01*
X56602Y231933D01*
X56472Y231919D01*
X56341Y231910D01*
X56209Y231904D01*
X56078Y231902D01*
X51562Y231902D01*
X70285Y231902D02*
X74800Y231902D01*
X70285Y231902D02*
X70184Y231904D01*
X70083Y231910D01*
X69982Y231919D01*
X69881Y231932D01*
X69781Y231949D01*
X69682Y231970D01*
X69584Y231994D01*
X69487Y232022D01*
X69390Y232054D01*
X69295Y232089D01*
X69202Y232128D01*
X69110Y232170D01*
X69019Y232216D01*
X68931Y232265D01*
X68844Y232317D01*
X68759Y232373D01*
X68676Y232431D01*
X68596Y232493D01*
X68518Y232558D01*
X68442Y232625D01*
X68369Y232695D01*
X68299Y232768D01*
X68232Y232844D01*
X68167Y232922D01*
X68105Y233002D01*
X68047Y233085D01*
X67991Y233170D01*
X67939Y233257D01*
X67890Y233345D01*
X67844Y233436D01*
X67802Y233528D01*
X67763Y233621D01*
X67728Y233716D01*
X67696Y233813D01*
X67668Y233910D01*
X67644Y234008D01*
X67623Y234107D01*
X67606Y234207D01*
X67593Y234308D01*
X67584Y234409D01*
X67578Y234510D01*
X67576Y234611D01*
X67575Y234611D02*
X67575Y239127D01*
X67576Y239127D02*
X67578Y239246D01*
X67584Y239366D01*
X67594Y239485D01*
X67608Y239603D01*
X67625Y239722D01*
X67647Y239839D01*
X67672Y239956D01*
X67702Y240071D01*
X67735Y240186D01*
X67772Y240300D01*
X67812Y240412D01*
X67857Y240523D01*
X67905Y240632D01*
X67956Y240740D01*
X68011Y240846D01*
X68070Y240950D01*
X68132Y241052D01*
X68197Y241152D01*
X68266Y241250D01*
X68338Y241346D01*
X68413Y241439D01*
X68490Y241529D01*
X68571Y241617D01*
X68655Y241702D01*
X68742Y241784D01*
X68831Y241864D01*
X68923Y241940D01*
X69017Y242014D01*
X69114Y242084D01*
X69212Y242151D01*
X69313Y242215D01*
X69417Y242275D01*
X69522Y242332D01*
X69629Y242385D01*
X69737Y242435D01*
X69847Y242481D01*
X69959Y242523D01*
X70072Y242562D01*
X70186Y242597D01*
X70301Y242628D01*
X70418Y242656D01*
X70535Y242679D01*
X70652Y242699D01*
X70771Y242715D01*
X70890Y242727D01*
X71009Y242735D01*
X71128Y242739D01*
X71248Y242739D01*
X71367Y242735D01*
X71486Y242727D01*
X71605Y242715D01*
X71724Y242699D01*
X71841Y242679D01*
X71958Y242656D01*
X72075Y242628D01*
X72190Y242597D01*
X72304Y242562D01*
X72417Y242523D01*
X72529Y242481D01*
X72639Y242435D01*
X72747Y242385D01*
X72854Y242332D01*
X72959Y242275D01*
X73063Y242215D01*
X73164Y242151D01*
X73262Y242084D01*
X73359Y242014D01*
X73453Y241940D01*
X73545Y241864D01*
X73634Y241784D01*
X73721Y241702D01*
X73805Y241617D01*
X73886Y241529D01*
X73963Y241439D01*
X74038Y241346D01*
X74110Y241250D01*
X74179Y241152D01*
X74244Y241052D01*
X74306Y240950D01*
X74365Y240846D01*
X74420Y240740D01*
X74471Y240632D01*
X74519Y240523D01*
X74564Y240412D01*
X74604Y240300D01*
X74641Y240186D01*
X74674Y240071D01*
X74704Y239956D01*
X74729Y239839D01*
X74751Y239722D01*
X74768Y239603D01*
X74782Y239485D01*
X74792Y239366D01*
X74798Y239246D01*
X74800Y239127D01*
X74800Y237321D01*
X67575Y237321D01*
X81728Y231902D02*
X81728Y242739D01*
X87147Y242739D01*
X87147Y240933D01*
X94774Y231902D02*
X99289Y231902D01*
X94774Y231902D02*
X94673Y231904D01*
X94572Y231910D01*
X94471Y231919D01*
X94370Y231932D01*
X94270Y231949D01*
X94171Y231970D01*
X94073Y231994D01*
X93976Y232022D01*
X93879Y232054D01*
X93784Y232089D01*
X93691Y232128D01*
X93599Y232170D01*
X93508Y232216D01*
X93420Y232265D01*
X93333Y232317D01*
X93248Y232373D01*
X93165Y232431D01*
X93085Y232493D01*
X93007Y232558D01*
X92931Y232625D01*
X92858Y232695D01*
X92788Y232768D01*
X92721Y232844D01*
X92656Y232922D01*
X92594Y233002D01*
X92536Y233085D01*
X92480Y233170D01*
X92428Y233257D01*
X92379Y233345D01*
X92333Y233436D01*
X92291Y233528D01*
X92252Y233621D01*
X92217Y233716D01*
X92185Y233813D01*
X92157Y233910D01*
X92133Y234008D01*
X92112Y234107D01*
X92095Y234207D01*
X92082Y234308D01*
X92073Y234409D01*
X92067Y234510D01*
X92065Y234611D01*
X92064Y234611D02*
X92064Y239127D01*
X92065Y239127D02*
X92067Y239246D01*
X92073Y239366D01*
X92083Y239485D01*
X92097Y239603D01*
X92114Y239722D01*
X92136Y239839D01*
X92161Y239956D01*
X92191Y240071D01*
X92224Y240186D01*
X92261Y240300D01*
X92301Y240412D01*
X92346Y240523D01*
X92394Y240632D01*
X92445Y240740D01*
X92500Y240846D01*
X92559Y240950D01*
X92621Y241052D01*
X92686Y241152D01*
X92755Y241250D01*
X92827Y241346D01*
X92902Y241439D01*
X92979Y241529D01*
X93060Y241617D01*
X93144Y241702D01*
X93231Y241784D01*
X93320Y241864D01*
X93412Y241940D01*
X93506Y242014D01*
X93603Y242084D01*
X93701Y242151D01*
X93802Y242215D01*
X93906Y242275D01*
X94011Y242332D01*
X94118Y242385D01*
X94226Y242435D01*
X94336Y242481D01*
X94448Y242523D01*
X94561Y242562D01*
X94675Y242597D01*
X94790Y242628D01*
X94907Y242656D01*
X95024Y242679D01*
X95141Y242699D01*
X95260Y242715D01*
X95379Y242727D01*
X95498Y242735D01*
X95617Y242739D01*
X95737Y242739D01*
X95856Y242735D01*
X95975Y242727D01*
X96094Y242715D01*
X96213Y242699D01*
X96330Y242679D01*
X96447Y242656D01*
X96564Y242628D01*
X96679Y242597D01*
X96793Y242562D01*
X96906Y242523D01*
X97018Y242481D01*
X97128Y242435D01*
X97236Y242385D01*
X97343Y242332D01*
X97448Y242275D01*
X97552Y242215D01*
X97653Y242151D01*
X97751Y242084D01*
X97848Y242014D01*
X97942Y241940D01*
X98034Y241864D01*
X98123Y241784D01*
X98210Y241702D01*
X98294Y241617D01*
X98375Y241529D01*
X98452Y241439D01*
X98527Y241346D01*
X98599Y241250D01*
X98668Y241152D01*
X98733Y241052D01*
X98795Y240950D01*
X98854Y240846D01*
X98909Y240740D01*
X98960Y240632D01*
X99008Y240523D01*
X99053Y240412D01*
X99093Y240300D01*
X99130Y240186D01*
X99163Y240071D01*
X99193Y239956D01*
X99218Y239839D01*
X99240Y239722D01*
X99257Y239603D01*
X99271Y239485D01*
X99281Y239366D01*
X99287Y239246D01*
X99289Y239127D01*
X99289Y237321D01*
X92064Y237321D01*
X106301Y231902D02*
X106301Y248158D01*
X113526Y242739D02*
X106301Y237321D01*
X109462Y239578D02*
X113526Y231902D01*
X131207Y231902D02*
X134819Y231902D01*
X131207Y231902D02*
X131089Y231904D01*
X130971Y231910D01*
X130853Y231919D01*
X130736Y231933D01*
X130619Y231950D01*
X130502Y231971D01*
X130387Y231996D01*
X130272Y232025D01*
X130158Y232058D01*
X130046Y232094D01*
X129935Y232134D01*
X129825Y232177D01*
X129716Y232224D01*
X129609Y232274D01*
X129504Y232329D01*
X129401Y232386D01*
X129300Y232447D01*
X129200Y232511D01*
X129103Y232578D01*
X129008Y232648D01*
X128916Y232722D01*
X128825Y232798D01*
X128738Y232878D01*
X128653Y232960D01*
X128571Y233045D01*
X128491Y233132D01*
X128415Y233223D01*
X128341Y233315D01*
X128271Y233410D01*
X128204Y233507D01*
X128140Y233607D01*
X128079Y233708D01*
X128022Y233811D01*
X127967Y233916D01*
X127917Y234023D01*
X127870Y234132D01*
X127827Y234242D01*
X127787Y234353D01*
X127751Y234465D01*
X127718Y234579D01*
X127689Y234694D01*
X127664Y234809D01*
X127643Y234926D01*
X127626Y235043D01*
X127612Y235160D01*
X127603Y235278D01*
X127597Y235396D01*
X127595Y235514D01*
X127594Y235514D02*
X127594Y244546D01*
X127595Y244546D02*
X127597Y244664D01*
X127603Y244782D01*
X127612Y244900D01*
X127626Y245017D01*
X127643Y245134D01*
X127664Y245251D01*
X127689Y245366D01*
X127718Y245481D01*
X127751Y245595D01*
X127787Y245707D01*
X127827Y245818D01*
X127870Y245928D01*
X127917Y246037D01*
X127967Y246144D01*
X128021Y246249D01*
X128079Y246352D01*
X128140Y246453D01*
X128204Y246553D01*
X128271Y246650D01*
X128341Y246745D01*
X128415Y246837D01*
X128491Y246928D01*
X128571Y247015D01*
X128653Y247100D01*
X128738Y247182D01*
X128825Y247262D01*
X128916Y247338D01*
X129008Y247412D01*
X129103Y247482D01*
X129200Y247549D01*
X129300Y247613D01*
X129401Y247674D01*
X129504Y247731D01*
X129609Y247785D01*
X129716Y247836D01*
X129825Y247883D01*
X129935Y247926D01*
X130046Y247966D01*
X130158Y248002D01*
X130272Y248035D01*
X130387Y248064D01*
X130502Y248089D01*
X130619Y248110D01*
X130736Y248127D01*
X130853Y248141D01*
X130971Y248150D01*
X131089Y248156D01*
X131207Y248158D01*
X134819Y248158D01*
X143609Y238224D02*
X147673Y238224D01*
X143609Y238224D02*
X143497Y238222D01*
X143386Y238216D01*
X143275Y238206D01*
X143164Y238193D01*
X143054Y238175D01*
X142945Y238153D01*
X142836Y238128D01*
X142728Y238099D01*
X142622Y238066D01*
X142516Y238029D01*
X142412Y237989D01*
X142310Y237945D01*
X142209Y237897D01*
X142110Y237846D01*
X142012Y237791D01*
X141917Y237733D01*
X141824Y237672D01*
X141733Y237607D01*
X141644Y237539D01*
X141558Y237468D01*
X141475Y237395D01*
X141394Y237318D01*
X141315Y237238D01*
X141240Y237156D01*
X141168Y237071D01*
X141098Y236984D01*
X141032Y236894D01*
X140969Y236802D01*
X140909Y236707D01*
X140853Y236611D01*
X140800Y236513D01*
X140751Y236413D01*
X140705Y236311D01*
X140663Y236208D01*
X140624Y236103D01*
X140589Y235997D01*
X140558Y235890D01*
X140531Y235782D01*
X140507Y235673D01*
X140488Y235563D01*
X140472Y235453D01*
X140460Y235342D01*
X140452Y235230D01*
X140448Y235119D01*
X140448Y235007D01*
X140452Y234896D01*
X140460Y234784D01*
X140472Y234673D01*
X140488Y234563D01*
X140507Y234453D01*
X140531Y234344D01*
X140558Y234236D01*
X140589Y234129D01*
X140624Y234023D01*
X140663Y233918D01*
X140705Y233815D01*
X140751Y233713D01*
X140800Y233613D01*
X140853Y233515D01*
X140909Y233419D01*
X140969Y233324D01*
X141032Y233232D01*
X141098Y233142D01*
X141168Y233055D01*
X141240Y232970D01*
X141315Y232888D01*
X141394Y232808D01*
X141475Y232731D01*
X141558Y232658D01*
X141644Y232587D01*
X141733Y232519D01*
X141824Y232454D01*
X141917Y232393D01*
X142012Y232335D01*
X142110Y232280D01*
X142209Y232229D01*
X142310Y232181D01*
X142412Y232137D01*
X142516Y232097D01*
X142622Y232060D01*
X142728Y232027D01*
X142836Y231998D01*
X142945Y231973D01*
X143054Y231951D01*
X143164Y231933D01*
X143275Y231920D01*
X143386Y231910D01*
X143497Y231904D01*
X143609Y231902D01*
X147673Y231902D01*
X147673Y240030D01*
X147672Y240030D02*
X147670Y240131D01*
X147664Y240232D01*
X147655Y240333D01*
X147642Y240434D01*
X147625Y240534D01*
X147604Y240633D01*
X147580Y240731D01*
X147552Y240828D01*
X147520Y240925D01*
X147485Y241020D01*
X147446Y241113D01*
X147404Y241205D01*
X147358Y241296D01*
X147309Y241385D01*
X147257Y241471D01*
X147201Y241556D01*
X147143Y241639D01*
X147081Y241719D01*
X147016Y241797D01*
X146949Y241873D01*
X146879Y241946D01*
X146806Y242016D01*
X146730Y242083D01*
X146652Y242148D01*
X146572Y242210D01*
X146489Y242268D01*
X146404Y242324D01*
X146318Y242376D01*
X146229Y242425D01*
X146138Y242471D01*
X146046Y242513D01*
X145953Y242552D01*
X145858Y242587D01*
X145761Y242619D01*
X145664Y242647D01*
X145566Y242671D01*
X145467Y242692D01*
X145367Y242709D01*
X145266Y242722D01*
X145165Y242731D01*
X145064Y242737D01*
X144963Y242739D01*
X141351Y242739D01*
X154589Y239127D02*
X154589Y235514D01*
X154590Y239127D02*
X154592Y239246D01*
X154598Y239366D01*
X154608Y239485D01*
X154622Y239603D01*
X154639Y239722D01*
X154661Y239839D01*
X154686Y239956D01*
X154716Y240071D01*
X154749Y240186D01*
X154786Y240300D01*
X154826Y240412D01*
X154871Y240523D01*
X154919Y240632D01*
X154970Y240740D01*
X155025Y240846D01*
X155084Y240950D01*
X155146Y241052D01*
X155211Y241152D01*
X155280Y241250D01*
X155352Y241346D01*
X155427Y241439D01*
X155504Y241529D01*
X155585Y241617D01*
X155669Y241702D01*
X155756Y241784D01*
X155845Y241864D01*
X155937Y241940D01*
X156031Y242014D01*
X156128Y242084D01*
X156226Y242151D01*
X156327Y242215D01*
X156431Y242275D01*
X156536Y242332D01*
X156643Y242385D01*
X156751Y242435D01*
X156861Y242481D01*
X156973Y242523D01*
X157086Y242562D01*
X157200Y242597D01*
X157315Y242628D01*
X157432Y242656D01*
X157549Y242679D01*
X157666Y242699D01*
X157785Y242715D01*
X157904Y242727D01*
X158023Y242735D01*
X158142Y242739D01*
X158262Y242739D01*
X158381Y242735D01*
X158500Y242727D01*
X158619Y242715D01*
X158738Y242699D01*
X158855Y242679D01*
X158972Y242656D01*
X159089Y242628D01*
X159204Y242597D01*
X159318Y242562D01*
X159431Y242523D01*
X159543Y242481D01*
X159653Y242435D01*
X159761Y242385D01*
X159868Y242332D01*
X159973Y242275D01*
X160077Y242215D01*
X160178Y242151D01*
X160276Y242084D01*
X160373Y242014D01*
X160467Y241940D01*
X160559Y241864D01*
X160648Y241784D01*
X160735Y241702D01*
X160819Y241617D01*
X160900Y241529D01*
X160977Y241439D01*
X161052Y241346D01*
X161124Y241250D01*
X161193Y241152D01*
X161258Y241052D01*
X161320Y240950D01*
X161379Y240846D01*
X161434Y240740D01*
X161485Y240632D01*
X161533Y240523D01*
X161578Y240412D01*
X161618Y240300D01*
X161655Y240186D01*
X161688Y240071D01*
X161718Y239956D01*
X161743Y239839D01*
X161765Y239722D01*
X161782Y239603D01*
X161796Y239485D01*
X161806Y239366D01*
X161812Y239246D01*
X161814Y239127D01*
X161814Y235514D01*
X161812Y235395D01*
X161806Y235275D01*
X161796Y235156D01*
X161782Y235038D01*
X161765Y234919D01*
X161743Y234802D01*
X161718Y234685D01*
X161688Y234570D01*
X161655Y234455D01*
X161618Y234341D01*
X161578Y234229D01*
X161533Y234118D01*
X161485Y234009D01*
X161434Y233901D01*
X161379Y233795D01*
X161320Y233691D01*
X161258Y233589D01*
X161193Y233489D01*
X161124Y233391D01*
X161052Y233295D01*
X160977Y233202D01*
X160900Y233112D01*
X160819Y233024D01*
X160735Y232939D01*
X160648Y232857D01*
X160559Y232777D01*
X160467Y232701D01*
X160373Y232627D01*
X160276Y232557D01*
X160178Y232490D01*
X160077Y232426D01*
X159973Y232366D01*
X159868Y232309D01*
X159761Y232256D01*
X159653Y232206D01*
X159543Y232160D01*
X159431Y232118D01*
X159318Y232079D01*
X159204Y232044D01*
X159089Y232013D01*
X158972Y231985D01*
X158855Y231962D01*
X158738Y231942D01*
X158619Y231926D01*
X158500Y231914D01*
X158381Y231906D01*
X158262Y231902D01*
X158142Y231902D01*
X158023Y231906D01*
X157904Y231914D01*
X157785Y231926D01*
X157666Y231942D01*
X157549Y231962D01*
X157432Y231985D01*
X157315Y232013D01*
X157200Y232044D01*
X157086Y232079D01*
X156973Y232118D01*
X156861Y232160D01*
X156751Y232206D01*
X156643Y232256D01*
X156536Y232309D01*
X156431Y232366D01*
X156327Y232426D01*
X156226Y232490D01*
X156128Y232557D01*
X156031Y232627D01*
X155937Y232701D01*
X155845Y232777D01*
X155756Y232857D01*
X155669Y232939D01*
X155585Y233024D01*
X155504Y233112D01*
X155427Y233202D01*
X155352Y233295D01*
X155280Y233391D01*
X155211Y233489D01*
X155146Y233589D01*
X155084Y233691D01*
X155025Y233795D01*
X154970Y233901D01*
X154919Y234009D01*
X154871Y234118D01*
X154826Y234229D01*
X154786Y234341D01*
X154749Y234455D01*
X154716Y234570D01*
X154686Y234685D01*
X154661Y234802D01*
X154639Y234919D01*
X154622Y235038D01*
X154608Y235156D01*
X154598Y235275D01*
X154592Y235395D01*
X154590Y235514D01*
X58787Y205232D02*
X51562Y205232D01*
X51562Y221488D01*
X58787Y221488D01*
X56981Y214263D02*
X51562Y214263D01*
X64656Y207941D02*
X64656Y221488D01*
X64656Y207941D02*
X64658Y207840D01*
X64664Y207739D01*
X64673Y207638D01*
X64686Y207537D01*
X64703Y207437D01*
X64724Y207338D01*
X64748Y207240D01*
X64776Y207143D01*
X64808Y207046D01*
X64843Y206951D01*
X64882Y206858D01*
X64924Y206766D01*
X64970Y206675D01*
X65019Y206587D01*
X65071Y206500D01*
X65127Y206415D01*
X65185Y206332D01*
X65247Y206252D01*
X65312Y206174D01*
X65379Y206098D01*
X65449Y206025D01*
X65522Y205955D01*
X65598Y205888D01*
X65676Y205823D01*
X65756Y205761D01*
X65839Y205703D01*
X65924Y205647D01*
X66011Y205595D01*
X66099Y205546D01*
X66190Y205500D01*
X66282Y205458D01*
X66375Y205419D01*
X66470Y205384D01*
X66567Y205352D01*
X66664Y205324D01*
X66762Y205300D01*
X66861Y205279D01*
X66961Y205262D01*
X67062Y205249D01*
X67163Y205240D01*
X67264Y205234D01*
X67365Y205232D01*
X75465Y205232D02*
X79981Y205232D01*
X75465Y205232D02*
X75364Y205234D01*
X75263Y205240D01*
X75162Y205249D01*
X75061Y205262D01*
X74961Y205279D01*
X74862Y205300D01*
X74764Y205324D01*
X74667Y205352D01*
X74570Y205384D01*
X74475Y205419D01*
X74382Y205458D01*
X74290Y205500D01*
X74199Y205546D01*
X74111Y205595D01*
X74024Y205647D01*
X73939Y205703D01*
X73856Y205761D01*
X73776Y205823D01*
X73698Y205888D01*
X73622Y205955D01*
X73549Y206025D01*
X73479Y206098D01*
X73412Y206174D01*
X73347Y206252D01*
X73285Y206332D01*
X73227Y206415D01*
X73171Y206500D01*
X73119Y206587D01*
X73070Y206675D01*
X73024Y206766D01*
X72982Y206858D01*
X72943Y206951D01*
X72908Y207046D01*
X72876Y207143D01*
X72848Y207240D01*
X72824Y207338D01*
X72803Y207437D01*
X72786Y207537D01*
X72773Y207638D01*
X72764Y207739D01*
X72758Y207840D01*
X72756Y207941D01*
X72756Y212457D01*
X72758Y212576D01*
X72764Y212696D01*
X72774Y212815D01*
X72788Y212933D01*
X72805Y213052D01*
X72827Y213169D01*
X72852Y213286D01*
X72882Y213401D01*
X72915Y213516D01*
X72952Y213630D01*
X72992Y213742D01*
X73037Y213853D01*
X73085Y213962D01*
X73136Y214070D01*
X73191Y214176D01*
X73250Y214280D01*
X73312Y214382D01*
X73377Y214482D01*
X73446Y214580D01*
X73518Y214676D01*
X73593Y214769D01*
X73670Y214859D01*
X73751Y214947D01*
X73835Y215032D01*
X73922Y215114D01*
X74011Y215194D01*
X74103Y215270D01*
X74197Y215344D01*
X74294Y215414D01*
X74392Y215481D01*
X74493Y215545D01*
X74597Y215605D01*
X74702Y215662D01*
X74809Y215715D01*
X74917Y215765D01*
X75027Y215811D01*
X75139Y215853D01*
X75252Y215892D01*
X75366Y215927D01*
X75481Y215958D01*
X75598Y215986D01*
X75715Y216009D01*
X75832Y216029D01*
X75951Y216045D01*
X76070Y216057D01*
X76189Y216065D01*
X76308Y216069D01*
X76428Y216069D01*
X76547Y216065D01*
X76666Y216057D01*
X76785Y216045D01*
X76904Y216029D01*
X77021Y216009D01*
X77138Y215986D01*
X77255Y215958D01*
X77370Y215927D01*
X77484Y215892D01*
X77597Y215853D01*
X77709Y215811D01*
X77819Y215765D01*
X77927Y215715D01*
X78034Y215662D01*
X78139Y215605D01*
X78243Y215545D01*
X78344Y215481D01*
X78442Y215414D01*
X78539Y215344D01*
X78633Y215270D01*
X78725Y215194D01*
X78814Y215114D01*
X78901Y215032D01*
X78985Y214947D01*
X79066Y214859D01*
X79143Y214769D01*
X79218Y214676D01*
X79290Y214580D01*
X79359Y214482D01*
X79424Y214382D01*
X79486Y214280D01*
X79545Y214176D01*
X79600Y214070D01*
X79651Y213962D01*
X79699Y213853D01*
X79744Y213742D01*
X79784Y213630D01*
X79821Y213516D01*
X79854Y213401D01*
X79884Y213286D01*
X79909Y213169D01*
X79931Y213052D01*
X79948Y212933D01*
X79962Y212815D01*
X79972Y212696D01*
X79978Y212576D01*
X79980Y212457D01*
X79981Y212457D02*
X79981Y210651D01*
X72756Y210651D01*
X89030Y205232D02*
X92642Y205232D01*
X89030Y205232D02*
X88929Y205234D01*
X88828Y205240D01*
X88727Y205249D01*
X88626Y205262D01*
X88526Y205279D01*
X88427Y205300D01*
X88329Y205324D01*
X88232Y205352D01*
X88135Y205384D01*
X88040Y205419D01*
X87947Y205458D01*
X87855Y205500D01*
X87764Y205546D01*
X87676Y205595D01*
X87589Y205647D01*
X87504Y205703D01*
X87421Y205761D01*
X87341Y205823D01*
X87263Y205888D01*
X87187Y205955D01*
X87114Y206025D01*
X87044Y206098D01*
X86977Y206174D01*
X86912Y206252D01*
X86850Y206332D01*
X86792Y206415D01*
X86736Y206500D01*
X86684Y206587D01*
X86635Y206675D01*
X86589Y206766D01*
X86547Y206858D01*
X86508Y206951D01*
X86473Y207046D01*
X86441Y207143D01*
X86413Y207240D01*
X86389Y207338D01*
X86368Y207437D01*
X86351Y207537D01*
X86338Y207638D01*
X86329Y207739D01*
X86323Y207840D01*
X86321Y207941D01*
X86321Y213360D01*
X86323Y213461D01*
X86329Y213562D01*
X86338Y213663D01*
X86351Y213764D01*
X86368Y213864D01*
X86389Y213963D01*
X86413Y214061D01*
X86441Y214158D01*
X86473Y214255D01*
X86508Y214350D01*
X86547Y214443D01*
X86589Y214535D01*
X86635Y214626D01*
X86684Y214715D01*
X86736Y214801D01*
X86792Y214886D01*
X86850Y214969D01*
X86912Y215049D01*
X86977Y215127D01*
X87044Y215203D01*
X87114Y215276D01*
X87187Y215346D01*
X87263Y215413D01*
X87341Y215478D01*
X87421Y215540D01*
X87504Y215598D01*
X87589Y215654D01*
X87676Y215706D01*
X87764Y215755D01*
X87855Y215801D01*
X87947Y215843D01*
X88040Y215882D01*
X88135Y215917D01*
X88232Y215949D01*
X88329Y215977D01*
X88427Y216001D01*
X88526Y216022D01*
X88626Y216039D01*
X88727Y216052D01*
X88828Y216061D01*
X88929Y216067D01*
X89030Y216069D01*
X92642Y216069D01*
X96990Y216069D02*
X102408Y216069D01*
X98796Y221488D02*
X98796Y207941D01*
X98798Y207840D01*
X98804Y207739D01*
X98813Y207638D01*
X98826Y207537D01*
X98843Y207437D01*
X98864Y207338D01*
X98888Y207240D01*
X98916Y207143D01*
X98948Y207046D01*
X98983Y206951D01*
X99022Y206858D01*
X99064Y206766D01*
X99110Y206675D01*
X99159Y206587D01*
X99211Y206500D01*
X99267Y206415D01*
X99325Y206332D01*
X99387Y206252D01*
X99452Y206174D01*
X99519Y206098D01*
X99589Y206025D01*
X99662Y205955D01*
X99738Y205888D01*
X99816Y205823D01*
X99896Y205761D01*
X99979Y205703D01*
X100064Y205647D01*
X100151Y205595D01*
X100239Y205546D01*
X100330Y205500D01*
X100422Y205458D01*
X100515Y205419D01*
X100610Y205384D01*
X100707Y205352D01*
X100804Y205324D01*
X100902Y205300D01*
X101001Y205279D01*
X101101Y205262D01*
X101202Y205249D01*
X101303Y205240D01*
X101404Y205234D01*
X101505Y205232D01*
X102408Y205232D01*
X108793Y205232D02*
X108793Y216069D01*
X114211Y216069D01*
X114211Y214263D01*
X119129Y212457D02*
X119129Y208844D01*
X119129Y212457D02*
X119131Y212576D01*
X119137Y212696D01*
X119147Y212815D01*
X119161Y212933D01*
X119178Y213052D01*
X119200Y213169D01*
X119225Y213286D01*
X119255Y213401D01*
X119288Y213516D01*
X119325Y213630D01*
X119365Y213742D01*
X119410Y213853D01*
X119458Y213962D01*
X119509Y214070D01*
X119564Y214176D01*
X119623Y214280D01*
X119685Y214382D01*
X119750Y214482D01*
X119819Y214580D01*
X119891Y214676D01*
X119966Y214769D01*
X120043Y214859D01*
X120124Y214947D01*
X120208Y215032D01*
X120295Y215114D01*
X120384Y215194D01*
X120476Y215270D01*
X120570Y215344D01*
X120667Y215414D01*
X120765Y215481D01*
X120866Y215545D01*
X120970Y215605D01*
X121075Y215662D01*
X121182Y215715D01*
X121290Y215765D01*
X121400Y215811D01*
X121512Y215853D01*
X121625Y215892D01*
X121739Y215927D01*
X121854Y215958D01*
X121971Y215986D01*
X122088Y216009D01*
X122205Y216029D01*
X122324Y216045D01*
X122443Y216057D01*
X122562Y216065D01*
X122681Y216069D01*
X122801Y216069D01*
X122920Y216065D01*
X123039Y216057D01*
X123158Y216045D01*
X123277Y216029D01*
X123394Y216009D01*
X123511Y215986D01*
X123628Y215958D01*
X123743Y215927D01*
X123857Y215892D01*
X123970Y215853D01*
X124082Y215811D01*
X124192Y215765D01*
X124300Y215715D01*
X124407Y215662D01*
X124512Y215605D01*
X124616Y215545D01*
X124717Y215481D01*
X124815Y215414D01*
X124912Y215344D01*
X125006Y215270D01*
X125098Y215194D01*
X125187Y215114D01*
X125274Y215032D01*
X125358Y214947D01*
X125439Y214859D01*
X125516Y214769D01*
X125591Y214676D01*
X125663Y214580D01*
X125732Y214482D01*
X125797Y214382D01*
X125859Y214280D01*
X125918Y214176D01*
X125973Y214070D01*
X126024Y213962D01*
X126072Y213853D01*
X126117Y213742D01*
X126157Y213630D01*
X126194Y213516D01*
X126227Y213401D01*
X126257Y213286D01*
X126282Y213169D01*
X126304Y213052D01*
X126321Y212933D01*
X126335Y212815D01*
X126345Y212696D01*
X126351Y212576D01*
X126353Y212457D01*
X126353Y208844D01*
X126351Y208725D01*
X126345Y208605D01*
X126335Y208486D01*
X126321Y208368D01*
X126304Y208249D01*
X126282Y208132D01*
X126257Y208015D01*
X126227Y207900D01*
X126194Y207785D01*
X126157Y207671D01*
X126117Y207559D01*
X126072Y207448D01*
X126024Y207339D01*
X125973Y207231D01*
X125918Y207125D01*
X125859Y207021D01*
X125797Y206919D01*
X125732Y206819D01*
X125663Y206721D01*
X125591Y206625D01*
X125516Y206532D01*
X125439Y206442D01*
X125358Y206354D01*
X125274Y206269D01*
X125187Y206187D01*
X125098Y206107D01*
X125006Y206031D01*
X124912Y205957D01*
X124815Y205887D01*
X124717Y205820D01*
X124616Y205756D01*
X124512Y205696D01*
X124407Y205639D01*
X124300Y205586D01*
X124192Y205536D01*
X124082Y205490D01*
X123970Y205448D01*
X123857Y205409D01*
X123743Y205374D01*
X123628Y205343D01*
X123511Y205315D01*
X123394Y205292D01*
X123277Y205272D01*
X123158Y205256D01*
X123039Y205244D01*
X122920Y205236D01*
X122801Y205232D01*
X122681Y205232D01*
X122562Y205236D01*
X122443Y205244D01*
X122324Y205256D01*
X122205Y205272D01*
X122088Y205292D01*
X121971Y205315D01*
X121854Y205343D01*
X121739Y205374D01*
X121625Y205409D01*
X121512Y205448D01*
X121400Y205490D01*
X121290Y205536D01*
X121182Y205586D01*
X121075Y205639D01*
X120970Y205696D01*
X120866Y205756D01*
X120765Y205820D01*
X120667Y205887D01*
X120570Y205957D01*
X120476Y206031D01*
X120384Y206107D01*
X120295Y206187D01*
X120208Y206269D01*
X120124Y206354D01*
X120043Y206442D01*
X119966Y206532D01*
X119891Y206625D01*
X119819Y206721D01*
X119750Y206819D01*
X119685Y206919D01*
X119623Y207021D01*
X119564Y207125D01*
X119509Y207231D01*
X119458Y207339D01*
X119410Y207448D01*
X119365Y207559D01*
X119325Y207671D01*
X119288Y207785D01*
X119255Y207900D01*
X119225Y208015D01*
X119200Y208132D01*
X119178Y208249D01*
X119161Y208368D01*
X119147Y208486D01*
X119137Y208605D01*
X119131Y208725D01*
X119129Y208844D01*
X133197Y205232D02*
X133197Y216069D01*
X137712Y216069D01*
X137816Y216067D01*
X137919Y216061D01*
X138023Y216051D01*
X138126Y216037D01*
X138228Y216019D01*
X138329Y215998D01*
X138430Y215972D01*
X138529Y215943D01*
X138628Y215910D01*
X138725Y215873D01*
X138820Y215832D01*
X138914Y215788D01*
X139006Y215740D01*
X139096Y215689D01*
X139185Y215634D01*
X139271Y215576D01*
X139354Y215514D01*
X139436Y215450D01*
X139514Y215382D01*
X139590Y215312D01*
X139664Y215239D01*
X139734Y215162D01*
X139802Y215084D01*
X139866Y215002D01*
X139928Y214919D01*
X139986Y214833D01*
X140041Y214744D01*
X140092Y214654D01*
X140140Y214562D01*
X140184Y214468D01*
X140225Y214373D01*
X140262Y214276D01*
X140295Y214177D01*
X140324Y214078D01*
X140350Y213977D01*
X140371Y213876D01*
X140389Y213774D01*
X140403Y213671D01*
X140413Y213567D01*
X140419Y213464D01*
X140421Y213360D01*
X140422Y213360D02*
X140422Y205232D01*
X147230Y205232D02*
X147230Y216069D01*
X146778Y220585D02*
X146778Y221488D01*
X147681Y221488D01*
X147681Y220585D01*
X146778Y220585D01*
X156244Y205232D02*
X159857Y205232D01*
X156244Y205232D02*
X156143Y205234D01*
X156042Y205240D01*
X155941Y205249D01*
X155840Y205262D01*
X155740Y205279D01*
X155641Y205300D01*
X155543Y205324D01*
X155446Y205352D01*
X155349Y205384D01*
X155254Y205419D01*
X155161Y205458D01*
X155069Y205500D01*
X154978Y205546D01*
X154890Y205595D01*
X154803Y205647D01*
X154718Y205703D01*
X154635Y205761D01*
X154555Y205823D01*
X154477Y205888D01*
X154401Y205955D01*
X154328Y206025D01*
X154258Y206098D01*
X154191Y206174D01*
X154126Y206252D01*
X154064Y206332D01*
X154006Y206415D01*
X153950Y206500D01*
X153898Y206587D01*
X153849Y206675D01*
X153803Y206766D01*
X153761Y206858D01*
X153722Y206951D01*
X153687Y207046D01*
X153655Y207143D01*
X153627Y207240D01*
X153603Y207338D01*
X153582Y207437D01*
X153565Y207537D01*
X153552Y207638D01*
X153543Y207739D01*
X153537Y207840D01*
X153535Y207941D01*
X153535Y213360D01*
X153537Y213461D01*
X153543Y213562D01*
X153552Y213663D01*
X153565Y213764D01*
X153582Y213864D01*
X153603Y213963D01*
X153627Y214061D01*
X153655Y214158D01*
X153687Y214255D01*
X153722Y214350D01*
X153761Y214443D01*
X153803Y214535D01*
X153849Y214626D01*
X153898Y214715D01*
X153950Y214801D01*
X154006Y214886D01*
X154064Y214969D01*
X154126Y215049D01*
X154191Y215127D01*
X154258Y215203D01*
X154328Y215276D01*
X154401Y215346D01*
X154477Y215413D01*
X154555Y215478D01*
X154635Y215540D01*
X154718Y215598D01*
X154803Y215654D01*
X154890Y215706D01*
X154978Y215755D01*
X155069Y215801D01*
X155161Y215843D01*
X155254Y215882D01*
X155349Y215917D01*
X155446Y215949D01*
X155543Y215977D01*
X155641Y216001D01*
X155740Y216022D01*
X155840Y216039D01*
X155941Y216052D01*
X156042Y216061D01*
X156143Y216067D01*
X156244Y216069D01*
X159857Y216069D01*
X174709Y221488D02*
X174709Y205232D01*
X174709Y221488D02*
X179224Y221488D01*
X179357Y221486D01*
X179489Y221480D01*
X179621Y221470D01*
X179753Y221457D01*
X179885Y221439D01*
X180015Y221418D01*
X180146Y221393D01*
X180275Y221364D01*
X180403Y221331D01*
X180531Y221295D01*
X180657Y221255D01*
X180782Y221211D01*
X180906Y221163D01*
X181028Y221112D01*
X181149Y221057D01*
X181268Y220999D01*
X181386Y220937D01*
X181501Y220872D01*
X181615Y220803D01*
X181726Y220732D01*
X181835Y220656D01*
X181942Y220578D01*
X182047Y220497D01*
X182149Y220412D01*
X182249Y220325D01*
X182346Y220235D01*
X182441Y220142D01*
X182532Y220046D01*
X182621Y219948D01*
X182707Y219847D01*
X182790Y219743D01*
X182870Y219637D01*
X182946Y219529D01*
X183020Y219419D01*
X183090Y219306D01*
X183157Y219192D01*
X183220Y219075D01*
X183280Y218957D01*
X183337Y218837D01*
X183390Y218715D01*
X183439Y218592D01*
X183485Y218468D01*
X183527Y218342D01*
X183565Y218215D01*
X183600Y218087D01*
X183631Y217958D01*
X183658Y217829D01*
X183681Y217698D01*
X183701Y217567D01*
X183716Y217435D01*
X183728Y217303D01*
X183736Y217171D01*
X183740Y217038D01*
X183740Y216906D01*
X183736Y216773D01*
X183728Y216641D01*
X183716Y216509D01*
X183701Y216377D01*
X183681Y216246D01*
X183658Y216115D01*
X183631Y215986D01*
X183600Y215857D01*
X183565Y215729D01*
X183527Y215602D01*
X183485Y215476D01*
X183439Y215352D01*
X183390Y215229D01*
X183337Y215107D01*
X183280Y214987D01*
X183220Y214869D01*
X183157Y214752D01*
X183090Y214638D01*
X183020Y214525D01*
X182946Y214415D01*
X182870Y214307D01*
X182790Y214201D01*
X182707Y214097D01*
X182621Y213996D01*
X182532Y213898D01*
X182441Y213802D01*
X182346Y213709D01*
X182249Y213619D01*
X182149Y213532D01*
X182047Y213447D01*
X181942Y213366D01*
X181835Y213288D01*
X181726Y213212D01*
X181615Y213141D01*
X181501Y213072D01*
X181386Y213007D01*
X181268Y212945D01*
X181149Y212887D01*
X181028Y212832D01*
X180906Y212781D01*
X180782Y212733D01*
X180657Y212689D01*
X180531Y212649D01*
X180403Y212613D01*
X180275Y212580D01*
X180146Y212551D01*
X180015Y212526D01*
X179885Y212505D01*
X179753Y212487D01*
X179621Y212474D01*
X179489Y212464D01*
X179357Y212458D01*
X179224Y212456D01*
X179224Y212457D02*
X174709Y212457D01*
X189434Y216069D02*
X189434Y205232D01*
X188983Y220585D02*
X188983Y221488D01*
X189886Y221488D01*
X189886Y220585D01*
X188983Y220585D01*
X198809Y211554D02*
X202873Y211554D01*
X198809Y211554D02*
X198697Y211552D01*
X198586Y211546D01*
X198475Y211536D01*
X198364Y211523D01*
X198254Y211505D01*
X198145Y211483D01*
X198036Y211458D01*
X197928Y211429D01*
X197822Y211396D01*
X197716Y211359D01*
X197612Y211319D01*
X197510Y211275D01*
X197409Y211227D01*
X197310Y211176D01*
X197212Y211121D01*
X197117Y211063D01*
X197024Y211002D01*
X196933Y210937D01*
X196844Y210869D01*
X196758Y210798D01*
X196675Y210725D01*
X196594Y210648D01*
X196515Y210568D01*
X196440Y210486D01*
X196368Y210401D01*
X196298Y210314D01*
X196232Y210224D01*
X196169Y210132D01*
X196109Y210037D01*
X196053Y209941D01*
X196000Y209843D01*
X195951Y209743D01*
X195905Y209641D01*
X195863Y209538D01*
X195824Y209433D01*
X195789Y209327D01*
X195758Y209220D01*
X195731Y209112D01*
X195707Y209003D01*
X195688Y208893D01*
X195672Y208783D01*
X195660Y208672D01*
X195652Y208560D01*
X195648Y208449D01*
X195648Y208337D01*
X195652Y208226D01*
X195660Y208114D01*
X195672Y208003D01*
X195688Y207893D01*
X195707Y207783D01*
X195731Y207674D01*
X195758Y207566D01*
X195789Y207459D01*
X195824Y207353D01*
X195863Y207248D01*
X195905Y207145D01*
X195951Y207043D01*
X196000Y206943D01*
X196053Y206845D01*
X196109Y206749D01*
X196169Y206654D01*
X196232Y206562D01*
X196298Y206472D01*
X196368Y206385D01*
X196440Y206300D01*
X196515Y206218D01*
X196594Y206138D01*
X196675Y206061D01*
X196758Y205988D01*
X196844Y205917D01*
X196933Y205849D01*
X197024Y205784D01*
X197117Y205723D01*
X197212Y205665D01*
X197310Y205610D01*
X197409Y205559D01*
X197510Y205511D01*
X197612Y205467D01*
X197716Y205427D01*
X197822Y205390D01*
X197928Y205357D01*
X198036Y205328D01*
X198145Y205303D01*
X198254Y205281D01*
X198364Y205263D01*
X198475Y205250D01*
X198586Y205240D01*
X198697Y205234D01*
X198809Y205232D01*
X202873Y205232D01*
X202873Y213360D01*
X202871Y213461D01*
X202865Y213562D01*
X202856Y213663D01*
X202843Y213764D01*
X202826Y213864D01*
X202805Y213963D01*
X202781Y214061D01*
X202753Y214158D01*
X202721Y214255D01*
X202686Y214350D01*
X202647Y214443D01*
X202605Y214535D01*
X202559Y214626D01*
X202510Y214715D01*
X202458Y214801D01*
X202402Y214886D01*
X202344Y214969D01*
X202282Y215049D01*
X202217Y215127D01*
X202150Y215203D01*
X202080Y215276D01*
X202007Y215346D01*
X201931Y215413D01*
X201853Y215478D01*
X201773Y215540D01*
X201690Y215598D01*
X201605Y215654D01*
X201519Y215706D01*
X201430Y215755D01*
X201339Y215801D01*
X201247Y215843D01*
X201154Y215882D01*
X201059Y215917D01*
X200962Y215949D01*
X200865Y215977D01*
X200767Y216001D01*
X200668Y216022D01*
X200568Y216039D01*
X200467Y216052D01*
X200366Y216061D01*
X200265Y216067D01*
X200164Y216069D01*
X196551Y216069D01*
X210311Y216069D02*
X210311Y205232D01*
X210311Y216069D02*
X214826Y216069D01*
X214930Y216067D01*
X215033Y216061D01*
X215137Y216051D01*
X215240Y216037D01*
X215342Y216019D01*
X215443Y215998D01*
X215544Y215972D01*
X215643Y215943D01*
X215742Y215910D01*
X215839Y215873D01*
X215934Y215832D01*
X216028Y215788D01*
X216120Y215740D01*
X216210Y215689D01*
X216299Y215634D01*
X216385Y215576D01*
X216468Y215514D01*
X216550Y215450D01*
X216628Y215382D01*
X216704Y215312D01*
X216778Y215239D01*
X216848Y215162D01*
X216916Y215084D01*
X216980Y215002D01*
X217042Y214919D01*
X217100Y214833D01*
X217155Y214744D01*
X217206Y214654D01*
X217254Y214562D01*
X217298Y214468D01*
X217339Y214373D01*
X217376Y214276D01*
X217409Y214177D01*
X217438Y214078D01*
X217464Y213977D01*
X217485Y213876D01*
X217503Y213774D01*
X217517Y213671D01*
X217527Y213567D01*
X217533Y213464D01*
X217535Y213360D01*
X217536Y213360D02*
X217536Y205232D01*
X224379Y208844D02*
X224379Y212457D01*
X224381Y212576D01*
X224387Y212696D01*
X224397Y212815D01*
X224411Y212933D01*
X224428Y213052D01*
X224450Y213169D01*
X224475Y213286D01*
X224505Y213401D01*
X224538Y213516D01*
X224575Y213630D01*
X224615Y213742D01*
X224660Y213853D01*
X224708Y213962D01*
X224759Y214070D01*
X224814Y214176D01*
X224873Y214280D01*
X224935Y214382D01*
X225000Y214482D01*
X225069Y214580D01*
X225141Y214676D01*
X225216Y214769D01*
X225293Y214859D01*
X225374Y214947D01*
X225458Y215032D01*
X225545Y215114D01*
X225634Y215194D01*
X225726Y215270D01*
X225820Y215344D01*
X225917Y215414D01*
X226015Y215481D01*
X226116Y215545D01*
X226220Y215605D01*
X226325Y215662D01*
X226432Y215715D01*
X226540Y215765D01*
X226650Y215811D01*
X226762Y215853D01*
X226875Y215892D01*
X226989Y215927D01*
X227104Y215958D01*
X227221Y215986D01*
X227338Y216009D01*
X227455Y216029D01*
X227574Y216045D01*
X227693Y216057D01*
X227812Y216065D01*
X227931Y216069D01*
X228051Y216069D01*
X228170Y216065D01*
X228289Y216057D01*
X228408Y216045D01*
X228527Y216029D01*
X228644Y216009D01*
X228761Y215986D01*
X228878Y215958D01*
X228993Y215927D01*
X229107Y215892D01*
X229220Y215853D01*
X229332Y215811D01*
X229442Y215765D01*
X229550Y215715D01*
X229657Y215662D01*
X229762Y215605D01*
X229866Y215545D01*
X229967Y215481D01*
X230065Y215414D01*
X230162Y215344D01*
X230256Y215270D01*
X230348Y215194D01*
X230437Y215114D01*
X230524Y215032D01*
X230608Y214947D01*
X230689Y214859D01*
X230766Y214769D01*
X230841Y214676D01*
X230913Y214580D01*
X230982Y214482D01*
X231047Y214382D01*
X231109Y214280D01*
X231168Y214176D01*
X231223Y214070D01*
X231274Y213962D01*
X231322Y213853D01*
X231367Y213742D01*
X231407Y213630D01*
X231444Y213516D01*
X231477Y213401D01*
X231507Y213286D01*
X231532Y213169D01*
X231554Y213052D01*
X231571Y212933D01*
X231585Y212815D01*
X231595Y212696D01*
X231601Y212576D01*
X231603Y212457D01*
X231604Y212457D02*
X231604Y208844D01*
X231603Y208844D02*
X231601Y208725D01*
X231595Y208605D01*
X231585Y208486D01*
X231571Y208368D01*
X231554Y208249D01*
X231532Y208132D01*
X231507Y208015D01*
X231477Y207900D01*
X231444Y207785D01*
X231407Y207671D01*
X231367Y207559D01*
X231322Y207448D01*
X231274Y207339D01*
X231223Y207231D01*
X231168Y207125D01*
X231109Y207021D01*
X231047Y206919D01*
X230982Y206819D01*
X230913Y206721D01*
X230841Y206625D01*
X230766Y206532D01*
X230689Y206442D01*
X230608Y206354D01*
X230524Y206269D01*
X230437Y206187D01*
X230348Y206107D01*
X230256Y206031D01*
X230162Y205957D01*
X230065Y205887D01*
X229967Y205820D01*
X229866Y205756D01*
X229762Y205696D01*
X229657Y205639D01*
X229550Y205586D01*
X229442Y205536D01*
X229332Y205490D01*
X229220Y205448D01*
X229107Y205409D01*
X228993Y205374D01*
X228878Y205343D01*
X228761Y205315D01*
X228644Y205292D01*
X228527Y205272D01*
X228408Y205256D01*
X228289Y205244D01*
X228170Y205236D01*
X228051Y205232D01*
X227931Y205232D01*
X227812Y205236D01*
X227693Y205244D01*
X227574Y205256D01*
X227455Y205272D01*
X227338Y205292D01*
X227221Y205315D01*
X227104Y205343D01*
X226989Y205374D01*
X226875Y205409D01*
X226762Y205448D01*
X226650Y205490D01*
X226540Y205536D01*
X226432Y205586D01*
X226325Y205639D01*
X226220Y205696D01*
X226116Y205756D01*
X226015Y205820D01*
X225917Y205887D01*
X225820Y205957D01*
X225726Y206031D01*
X225634Y206107D01*
X225545Y206187D01*
X225458Y206269D01*
X225374Y206354D01*
X225293Y206442D01*
X225216Y206532D01*
X225141Y206625D01*
X225069Y206721D01*
X225000Y206819D01*
X224935Y206919D01*
X224873Y207021D01*
X224814Y207125D01*
X224759Y207231D01*
X224708Y207339D01*
X224660Y207448D01*
X224615Y207559D01*
X224575Y207671D01*
X224538Y207785D01*
X224505Y207900D01*
X224475Y208015D01*
X224450Y208132D01*
X224428Y208249D01*
X224411Y208368D01*
X224397Y208486D01*
X224387Y208605D01*
X224381Y208725D01*
X224379Y208844D01*
D11*
X120650Y317500D02*
X107950Y317500D01*
X158750Y317500D02*
X171450Y317500D01*
X165100Y311150D02*
X165100Y323850D01*
D10*
X182880Y317500D02*
X190500Y309880D01*
X190500Y274320D01*
X182880Y266700D01*
X96520Y266700D01*
X88900Y274320D01*
X88900Y309880D01*
X96520Y317500D01*
D12*
X131657Y316907D02*
X135213Y316907D01*
X131657Y316907D02*
X131562Y316909D01*
X131466Y316915D01*
X131371Y316924D01*
X131277Y316938D01*
X131183Y316955D01*
X131090Y316976D01*
X130997Y317001D01*
X130906Y317029D01*
X130816Y317061D01*
X130728Y317097D01*
X130641Y317136D01*
X130555Y317179D01*
X130471Y317225D01*
X130390Y317274D01*
X130310Y317327D01*
X130233Y317383D01*
X130157Y317441D01*
X130085Y317503D01*
X130015Y317568D01*
X129947Y317636D01*
X129882Y317706D01*
X129820Y317778D01*
X129762Y317854D01*
X129706Y317931D01*
X129653Y318011D01*
X129604Y318093D01*
X129558Y318176D01*
X129515Y318262D01*
X129476Y318349D01*
X129440Y318437D01*
X129408Y318527D01*
X129380Y318618D01*
X129355Y318711D01*
X129334Y318804D01*
X129317Y318898D01*
X129303Y318992D01*
X129294Y319087D01*
X129288Y319183D01*
X129286Y319278D01*
X129286Y319871D01*
X129288Y319978D01*
X129294Y320085D01*
X129303Y320191D01*
X129317Y320297D01*
X129334Y320403D01*
X129355Y320508D01*
X129380Y320612D01*
X129409Y320715D01*
X129441Y320817D01*
X129477Y320918D01*
X129517Y321017D01*
X129560Y321115D01*
X129607Y321211D01*
X129657Y321306D01*
X129710Y321399D01*
X129767Y321489D01*
X129827Y321578D01*
X129890Y321664D01*
X129956Y321748D01*
X130026Y321830D01*
X130098Y321909D01*
X130173Y321985D01*
X130251Y322059D01*
X130331Y322129D01*
X130414Y322197D01*
X130499Y322262D01*
X130586Y322323D01*
X130676Y322382D01*
X130768Y322437D01*
X130861Y322489D01*
X130957Y322537D01*
X131054Y322582D01*
X131152Y322624D01*
X131252Y322661D01*
X131354Y322696D01*
X131456Y322726D01*
X131560Y322753D01*
X131664Y322776D01*
X131770Y322795D01*
X131876Y322810D01*
X131982Y322822D01*
X132089Y322830D01*
X132196Y322834D01*
X132302Y322834D01*
X132409Y322830D01*
X132516Y322822D01*
X132622Y322810D01*
X132728Y322795D01*
X132834Y322776D01*
X132938Y322753D01*
X133042Y322726D01*
X133144Y322696D01*
X133246Y322661D01*
X133346Y322624D01*
X133444Y322582D01*
X133541Y322537D01*
X133637Y322489D01*
X133731Y322437D01*
X133822Y322382D01*
X133912Y322323D01*
X133999Y322262D01*
X134084Y322197D01*
X134167Y322129D01*
X134247Y322059D01*
X134325Y321985D01*
X134400Y321909D01*
X134472Y321830D01*
X134542Y321748D01*
X134608Y321664D01*
X134671Y321578D01*
X134731Y321489D01*
X134788Y321399D01*
X134841Y321306D01*
X134891Y321211D01*
X134938Y321115D01*
X134981Y321017D01*
X135021Y320918D01*
X135057Y320817D01*
X135089Y320715D01*
X135118Y320612D01*
X135143Y320508D01*
X135164Y320403D01*
X135181Y320297D01*
X135195Y320191D01*
X135204Y320085D01*
X135210Y319978D01*
X135212Y319871D01*
X135213Y319871D02*
X135213Y316907D01*
X135212Y316907D02*
X135210Y316772D01*
X135204Y316636D01*
X135195Y316501D01*
X135181Y316367D01*
X135164Y316232D01*
X135143Y316099D01*
X135118Y315965D01*
X135089Y315833D01*
X135056Y315702D01*
X135020Y315571D01*
X134980Y315442D01*
X134936Y315314D01*
X134889Y315187D01*
X134838Y315061D01*
X134784Y314938D01*
X134726Y314815D01*
X134664Y314695D01*
X134599Y314576D01*
X134531Y314459D01*
X134459Y314344D01*
X134385Y314231D01*
X134307Y314120D01*
X134225Y314012D01*
X134141Y313906D01*
X134054Y313802D01*
X133964Y313701D01*
X133871Y313603D01*
X133775Y313507D01*
X133677Y313414D01*
X133576Y313324D01*
X133472Y313237D01*
X133366Y313153D01*
X133258Y313071D01*
X133147Y312993D01*
X133034Y312919D01*
X132919Y312847D01*
X132802Y312779D01*
X132683Y312714D01*
X132563Y312652D01*
X132440Y312594D01*
X132317Y312540D01*
X132191Y312489D01*
X132064Y312442D01*
X131936Y312398D01*
X131807Y312358D01*
X131676Y312322D01*
X131545Y312289D01*
X131413Y312260D01*
X131279Y312235D01*
X131146Y312214D01*
X131011Y312197D01*
X130877Y312183D01*
X130742Y312174D01*
X130606Y312168D01*
X130471Y312166D01*
X143679Y312166D02*
X140123Y322834D01*
X147235Y322834D02*
X143679Y312166D01*
D13*
X118110Y337185D02*
X114935Y337185D01*
X118110Y337185D02*
X118221Y337183D01*
X118331Y337177D01*
X118442Y337168D01*
X118552Y337154D01*
X118661Y337137D01*
X118770Y337116D01*
X118878Y337091D01*
X118985Y337062D01*
X119091Y337030D01*
X119196Y336994D01*
X119299Y336954D01*
X119401Y336911D01*
X119502Y336864D01*
X119601Y336813D01*
X119698Y336760D01*
X119792Y336703D01*
X119885Y336642D01*
X119976Y336579D01*
X120065Y336512D01*
X120151Y336442D01*
X120234Y336369D01*
X120316Y336294D01*
X120394Y336216D01*
X120469Y336134D01*
X120542Y336051D01*
X120612Y335965D01*
X120679Y335876D01*
X120742Y335785D01*
X120803Y335692D01*
X120860Y335597D01*
X120913Y335501D01*
X120964Y335402D01*
X121011Y335301D01*
X121054Y335199D01*
X121094Y335096D01*
X121130Y334991D01*
X121162Y334885D01*
X121191Y334778D01*
X121216Y334670D01*
X121237Y334561D01*
X121254Y334452D01*
X121268Y334342D01*
X121277Y334231D01*
X121283Y334121D01*
X121285Y334010D01*
X121283Y333899D01*
X121277Y333789D01*
X121268Y333678D01*
X121254Y333568D01*
X121237Y333459D01*
X121216Y333350D01*
X121191Y333242D01*
X121162Y333135D01*
X121130Y333029D01*
X121094Y332924D01*
X121054Y332821D01*
X121011Y332719D01*
X120964Y332618D01*
X120913Y332519D01*
X120860Y332422D01*
X120803Y332328D01*
X120742Y332235D01*
X120679Y332144D01*
X120612Y332055D01*
X120542Y331969D01*
X120469Y331886D01*
X120394Y331804D01*
X120316Y331726D01*
X120234Y331651D01*
X120151Y331578D01*
X120065Y331508D01*
X119976Y331441D01*
X119885Y331378D01*
X119792Y331317D01*
X119697Y331260D01*
X119601Y331207D01*
X119502Y331156D01*
X119401Y331109D01*
X119299Y331066D01*
X119196Y331026D01*
X119091Y330990D01*
X118985Y330958D01*
X118878Y330929D01*
X118770Y330904D01*
X118661Y330883D01*
X118552Y330866D01*
X118442Y330852D01*
X118331Y330843D01*
X118221Y330837D01*
X118110Y330835D01*
X114935Y330835D01*
X114935Y342265D01*
X118110Y342265D01*
X118210Y342263D01*
X118309Y342257D01*
X118409Y342247D01*
X118507Y342234D01*
X118606Y342216D01*
X118703Y342195D01*
X118799Y342170D01*
X118895Y342141D01*
X118989Y342108D01*
X119082Y342072D01*
X119173Y342032D01*
X119263Y341988D01*
X119351Y341941D01*
X119437Y341891D01*
X119521Y341837D01*
X119603Y341780D01*
X119682Y341720D01*
X119760Y341656D01*
X119834Y341590D01*
X119906Y341521D01*
X119975Y341449D01*
X120041Y341375D01*
X120105Y341297D01*
X120165Y341218D01*
X120222Y341136D01*
X120276Y341052D01*
X120326Y340966D01*
X120373Y340878D01*
X120417Y340788D01*
X120457Y340697D01*
X120493Y340604D01*
X120526Y340510D01*
X120555Y340414D01*
X120580Y340318D01*
X120601Y340221D01*
X120619Y340122D01*
X120632Y340024D01*
X120642Y339924D01*
X120648Y339825D01*
X120650Y339725D01*
X120648Y339625D01*
X120642Y339526D01*
X120632Y339426D01*
X120619Y339328D01*
X120601Y339229D01*
X120580Y339132D01*
X120555Y339036D01*
X120526Y338940D01*
X120493Y338846D01*
X120457Y338753D01*
X120417Y338662D01*
X120373Y338572D01*
X120326Y338484D01*
X120276Y338398D01*
X120222Y338314D01*
X120165Y338232D01*
X120105Y338153D01*
X120041Y338075D01*
X119975Y338001D01*
X119906Y337929D01*
X119834Y337860D01*
X119760Y337794D01*
X119682Y337730D01*
X119603Y337670D01*
X119521Y337613D01*
X119437Y337559D01*
X119351Y337509D01*
X119263Y337462D01*
X119173Y337418D01*
X119082Y337378D01*
X118989Y337342D01*
X118895Y337309D01*
X118799Y337280D01*
X118703Y337255D01*
X118606Y337234D01*
X118507Y337216D01*
X118409Y337203D01*
X118309Y337193D01*
X118210Y337187D01*
X118110Y337185D01*
X125159Y330835D02*
X128969Y342265D01*
X132779Y330835D01*
X131826Y333693D02*
X126111Y333693D01*
X139637Y330835D02*
X139637Y342265D01*
X136462Y342265D02*
X142812Y342265D01*
X149543Y342265D02*
X149543Y330835D01*
X146368Y342265D02*
X152718Y342265D01*
D14*
X774192Y179136D02*
X774192Y176539D01*
X774190Y176440D01*
X774184Y176340D01*
X774175Y176241D01*
X774162Y176143D01*
X774145Y176045D01*
X774124Y175947D01*
X774099Y175851D01*
X774071Y175756D01*
X774039Y175662D01*
X774004Y175569D01*
X773965Y175477D01*
X773922Y175387D01*
X773877Y175299D01*
X773827Y175212D01*
X773775Y175128D01*
X773719Y175045D01*
X773661Y174965D01*
X773599Y174887D01*
X773534Y174812D01*
X773466Y174739D01*
X773396Y174669D01*
X773323Y174601D01*
X773248Y174536D01*
X773170Y174474D01*
X773090Y174416D01*
X773007Y174360D01*
X772923Y174308D01*
X772836Y174258D01*
X772748Y174213D01*
X772658Y174170D01*
X772566Y174131D01*
X772473Y174096D01*
X772379Y174064D01*
X772284Y174036D01*
X772188Y174011D01*
X772090Y173990D01*
X771992Y173973D01*
X771894Y173960D01*
X771795Y173951D01*
X771695Y173945D01*
X771596Y173943D01*
X765104Y173943D01*
X765104Y173942D02*
X765005Y173944D01*
X764905Y173950D01*
X764806Y173959D01*
X764708Y173972D01*
X764610Y173990D01*
X764512Y174010D01*
X764416Y174035D01*
X764320Y174063D01*
X764226Y174095D01*
X764133Y174130D01*
X764042Y174169D01*
X763952Y174212D01*
X763863Y174257D01*
X763777Y174307D01*
X763692Y174359D01*
X763610Y174415D01*
X763530Y174474D01*
X763452Y174535D01*
X763376Y174600D01*
X763303Y174668D01*
X763233Y174738D01*
X763165Y174811D01*
X763100Y174887D01*
X763039Y174965D01*
X762980Y175045D01*
X762924Y175127D01*
X762872Y175212D01*
X762823Y175298D01*
X762777Y175387D01*
X762734Y175477D01*
X762695Y175568D01*
X762660Y175661D01*
X762628Y175755D01*
X762600Y175851D01*
X762575Y175947D01*
X762555Y176045D01*
X762537Y176143D01*
X762524Y176241D01*
X762515Y176340D01*
X762509Y176439D01*
X762507Y176539D01*
X762508Y176539D02*
X762508Y179136D01*
X765104Y183501D02*
X762508Y186746D01*
X774192Y186746D01*
X774192Y183501D02*
X774192Y189992D01*
D11*
X349250Y209550D02*
X336550Y209550D01*
X342900Y215900D02*
X342900Y203200D01*
D10*
X310896Y241300D02*
X310917Y243020D01*
X310980Y244740D01*
X311086Y246457D01*
X311234Y248171D01*
X311423Y249881D01*
X311655Y251586D01*
X311928Y253285D01*
X312243Y254977D01*
X312599Y256660D01*
X312997Y258334D01*
X313435Y259998D01*
X313915Y261650D01*
X314434Y263290D01*
X314994Y264917D01*
X315593Y266530D01*
X316232Y268128D01*
X316910Y269709D01*
X317627Y271273D01*
X318381Y272820D01*
X319174Y274347D01*
X320003Y275854D01*
X320870Y277341D01*
X321772Y278805D01*
X322711Y280248D01*
X323684Y281666D01*
X324692Y283061D01*
X325734Y284430D01*
X326809Y285774D01*
X327917Y287090D01*
X329056Y288379D01*
X330227Y289640D01*
X331429Y290871D01*
X332660Y292073D01*
X333921Y293244D01*
X335210Y294383D01*
X336526Y295491D01*
X337870Y296566D01*
X339239Y297608D01*
X340634Y298616D01*
X342052Y299589D01*
X343495Y300528D01*
X344959Y301430D01*
X346446Y302297D01*
X347953Y303126D01*
X349480Y303919D01*
X351027Y304673D01*
X352591Y305390D01*
X354172Y306068D01*
X355770Y306707D01*
X357383Y307306D01*
X359010Y307866D01*
X360650Y308385D01*
X362302Y308865D01*
X363966Y309303D01*
X365640Y309701D01*
X367323Y310057D01*
X369015Y310372D01*
X370714Y310645D01*
X372419Y310877D01*
X374129Y311066D01*
X375843Y311214D01*
X377560Y311320D01*
X379280Y311383D01*
X381000Y311404D01*
X382720Y311383D01*
X384440Y311320D01*
X386157Y311214D01*
X387871Y311066D01*
X389581Y310877D01*
X391286Y310645D01*
X392985Y310372D01*
X394677Y310057D01*
X396360Y309701D01*
X398034Y309303D01*
X399698Y308865D01*
X401350Y308385D01*
X402990Y307866D01*
X404617Y307306D01*
X406230Y306707D01*
X407828Y306068D01*
X409409Y305390D01*
X410973Y304673D01*
X412520Y303919D01*
X414047Y303126D01*
X415554Y302297D01*
X417041Y301430D01*
X418505Y300528D01*
X419948Y299589D01*
X421366Y298616D01*
X422761Y297608D01*
X424130Y296566D01*
X425474Y295491D01*
X426790Y294383D01*
X428079Y293244D01*
X429340Y292073D01*
X430571Y290871D01*
X431773Y289640D01*
X432944Y288379D01*
X434083Y287090D01*
X435191Y285774D01*
X436266Y284430D01*
X437308Y283061D01*
X438316Y281666D01*
X439289Y280248D01*
X440228Y278805D01*
X441130Y277341D01*
X441997Y275854D01*
X442826Y274347D01*
X443619Y272820D01*
X444373Y271273D01*
X445090Y269709D01*
X445768Y268128D01*
X446407Y266530D01*
X447006Y264917D01*
X447566Y263290D01*
X448085Y261650D01*
X448565Y259998D01*
X449003Y258334D01*
X449401Y256660D01*
X449757Y254977D01*
X450072Y253285D01*
X450345Y251586D01*
X450577Y249881D01*
X450766Y248171D01*
X450914Y246457D01*
X451020Y244740D01*
X451083Y243020D01*
X451104Y241300D01*
X451083Y239580D01*
X451020Y237860D01*
X450914Y236143D01*
X450766Y234429D01*
X450577Y232719D01*
X450345Y231014D01*
X450072Y229315D01*
X449757Y227623D01*
X449401Y225940D01*
X449003Y224266D01*
X448565Y222602D01*
X448085Y220950D01*
X447566Y219310D01*
X447006Y217683D01*
X446407Y216070D01*
X445768Y214472D01*
X445090Y212891D01*
X444373Y211327D01*
X443619Y209780D01*
X442826Y208253D01*
X441997Y206746D01*
X441130Y205259D01*
X440228Y203795D01*
X439289Y202352D01*
X438316Y200934D01*
X437308Y199539D01*
X436266Y198170D01*
X435191Y196826D01*
X434083Y195510D01*
X432944Y194221D01*
X431773Y192960D01*
X430571Y191729D01*
X429340Y190527D01*
X428079Y189356D01*
X426790Y188217D01*
X425474Y187109D01*
X424130Y186034D01*
X422761Y184992D01*
X421366Y183984D01*
X419948Y183011D01*
X418505Y182072D01*
X417041Y181170D01*
X415554Y180303D01*
X414047Y179474D01*
X412520Y178681D01*
X410973Y177927D01*
X409409Y177210D01*
X407828Y176532D01*
X406230Y175893D01*
X404617Y175294D01*
X402990Y174734D01*
X401350Y174215D01*
X399698Y173735D01*
X398034Y173297D01*
X396360Y172899D01*
X394677Y172543D01*
X392985Y172228D01*
X391286Y171955D01*
X389581Y171723D01*
X387871Y171534D01*
X386157Y171386D01*
X384440Y171280D01*
X382720Y171217D01*
X381000Y171196D01*
X379280Y171217D01*
X377560Y171280D01*
X375843Y171386D01*
X374129Y171534D01*
X372419Y171723D01*
X370714Y171955D01*
X369015Y172228D01*
X367323Y172543D01*
X365640Y172899D01*
X363966Y173297D01*
X362302Y173735D01*
X360650Y174215D01*
X359010Y174734D01*
X357383Y175294D01*
X355770Y175893D01*
X354172Y176532D01*
X352591Y177210D01*
X351027Y177927D01*
X349480Y178681D01*
X347953Y179474D01*
X346446Y180303D01*
X344959Y181170D01*
X343495Y182072D01*
X342052Y183011D01*
X340634Y183984D01*
X339239Y184992D01*
X337870Y186034D01*
X336526Y187109D01*
X335210Y188217D01*
X333921Y189356D01*
X332660Y190527D01*
X331429Y191729D01*
X330227Y192960D01*
X329056Y194221D01*
X327917Y195510D01*
X326809Y196826D01*
X325734Y198170D01*
X324692Y199539D01*
X323684Y200934D01*
X322711Y202352D01*
X321772Y203795D01*
X320870Y205259D01*
X320003Y206746D01*
X319174Y208253D01*
X318381Y209780D01*
X317627Y211327D01*
X316910Y212891D01*
X316232Y214472D01*
X315593Y216070D01*
X314994Y217683D01*
X314434Y219310D01*
X313915Y220950D01*
X313435Y222602D01*
X312997Y224266D01*
X312599Y225940D01*
X312243Y227623D01*
X311928Y229315D01*
X311655Y231014D01*
X311423Y232719D01*
X311234Y234429D01*
X311086Y236143D01*
X310980Y237860D01*
X310917Y239580D01*
X310896Y241300D01*
X300990Y241300D02*
X301014Y243264D01*
X301086Y245226D01*
X301207Y247186D01*
X301375Y249142D01*
X301592Y251094D01*
X301856Y253040D01*
X302168Y254979D01*
X302527Y256909D01*
X302934Y258830D01*
X303388Y260741D01*
X303888Y262640D01*
X304435Y264526D01*
X305028Y266398D01*
X305667Y268255D01*
X306351Y270095D01*
X307080Y271919D01*
X307854Y273723D01*
X308672Y275509D01*
X309533Y277273D01*
X310437Y279016D01*
X311384Y280737D01*
X312373Y282433D01*
X313403Y284105D01*
X314474Y285751D01*
X315585Y287370D01*
X316735Y288962D01*
X317924Y290525D01*
X319151Y292058D01*
X320416Y293560D01*
X321717Y295031D01*
X323053Y296470D01*
X324424Y297876D01*
X325830Y299247D01*
X327269Y300583D01*
X328740Y301884D01*
X330242Y303149D01*
X331775Y304376D01*
X333338Y305565D01*
X334930Y306715D01*
X336549Y307826D01*
X338195Y308897D01*
X339867Y309927D01*
X341563Y310916D01*
X343284Y311863D01*
X345027Y312767D01*
X346791Y313628D01*
X348577Y314446D01*
X350381Y315220D01*
X352205Y315949D01*
X354045Y316633D01*
X355902Y317272D01*
X357774Y317865D01*
X359660Y318412D01*
X361559Y318912D01*
X363470Y319366D01*
X365391Y319773D01*
X367321Y320132D01*
X369260Y320444D01*
X371206Y320708D01*
X373158Y320925D01*
X375114Y321093D01*
X377074Y321214D01*
X379036Y321286D01*
X381000Y321310D01*
X382964Y321286D01*
X384926Y321214D01*
X386886Y321093D01*
X388842Y320925D01*
X390794Y320708D01*
X392740Y320444D01*
X394679Y320132D01*
X396609Y319773D01*
X398530Y319366D01*
X400441Y318912D01*
X402340Y318412D01*
X404226Y317865D01*
X406098Y317272D01*
X407955Y316633D01*
X409795Y315949D01*
X411619Y315220D01*
X413423Y314446D01*
X415209Y313628D01*
X416973Y312767D01*
X418716Y311863D01*
X420437Y310916D01*
X422133Y309927D01*
X423805Y308897D01*
X425451Y307826D01*
X427070Y306715D01*
X428662Y305565D01*
X430225Y304376D01*
X431758Y303149D01*
X433260Y301884D01*
X434731Y300583D01*
X436170Y299247D01*
X437576Y297876D01*
X438947Y296470D01*
X440283Y295031D01*
X441584Y293560D01*
X442849Y292058D01*
X444076Y290525D01*
X445265Y288962D01*
X446415Y287370D01*
X447526Y285751D01*
X448597Y284105D01*
X449627Y282433D01*
X450616Y280737D01*
X451563Y279016D01*
X452467Y277273D01*
X453328Y275509D01*
X454146Y273723D01*
X454920Y271919D01*
X455649Y270095D01*
X456333Y268255D01*
X456972Y266398D01*
X457565Y264526D01*
X458112Y262640D01*
X458612Y260741D01*
X459066Y258830D01*
X459473Y256909D01*
X459832Y254979D01*
X460144Y253040D01*
X460408Y251094D01*
X460625Y249142D01*
X460793Y247186D01*
X460914Y245226D01*
X460986Y243264D01*
X461010Y241300D01*
X460986Y239336D01*
X460914Y237374D01*
X460793Y235414D01*
X460625Y233458D01*
X460408Y231506D01*
X460144Y229560D01*
X459832Y227621D01*
X459473Y225691D01*
X459066Y223770D01*
X458612Y221859D01*
X458112Y219960D01*
X457565Y218074D01*
X456972Y216202D01*
X456333Y214345D01*
X455649Y212505D01*
X454920Y210681D01*
X454146Y208877D01*
X453328Y207091D01*
X452467Y205327D01*
X451563Y203584D01*
X450616Y201863D01*
X449627Y200167D01*
X448597Y198495D01*
X447526Y196849D01*
X446415Y195230D01*
X445265Y193638D01*
X444076Y192075D01*
X442849Y190542D01*
X441584Y189040D01*
X440283Y187569D01*
X438947Y186130D01*
X437576Y184724D01*
X436170Y183353D01*
X434731Y182017D01*
X433260Y180716D01*
X431758Y179451D01*
X430225Y178224D01*
X428662Y177035D01*
X427070Y175885D01*
X425451Y174774D01*
X423805Y173703D01*
X422133Y172673D01*
X420437Y171684D01*
X418716Y170737D01*
X416973Y169833D01*
X415209Y168972D01*
X413423Y168154D01*
X411619Y167380D01*
X409795Y166651D01*
X407955Y165967D01*
X406098Y165328D01*
X404226Y164735D01*
X402340Y164188D01*
X400441Y163688D01*
X398530Y163234D01*
X396609Y162827D01*
X394679Y162468D01*
X392740Y162156D01*
X390794Y161892D01*
X388842Y161675D01*
X386886Y161507D01*
X384926Y161386D01*
X382964Y161314D01*
X381000Y161290D01*
X379036Y161314D01*
X377074Y161386D01*
X375114Y161507D01*
X373158Y161675D01*
X371206Y161892D01*
X369260Y162156D01*
X367321Y162468D01*
X365391Y162827D01*
X363470Y163234D01*
X361559Y163688D01*
X359660Y164188D01*
X357774Y164735D01*
X355902Y165328D01*
X354045Y165967D01*
X352205Y166651D01*
X350381Y167380D01*
X348577Y168154D01*
X346791Y168972D01*
X345027Y169833D01*
X343284Y170737D01*
X341563Y171684D01*
X339867Y172673D01*
X338195Y173703D01*
X336549Y174774D01*
X334930Y175885D01*
X333338Y177035D01*
X331775Y178224D01*
X330242Y179451D01*
X328740Y180716D01*
X327269Y182017D01*
X325830Y183353D01*
X324424Y184724D01*
X323053Y186130D01*
X321717Y187569D01*
X320416Y189040D01*
X319151Y190542D01*
X317924Y192075D01*
X316735Y193638D01*
X315585Y195230D01*
X314474Y196849D01*
X313403Y198495D01*
X312373Y200167D01*
X311384Y201863D01*
X310437Y203584D01*
X309533Y205327D01*
X308672Y207091D01*
X307854Y208877D01*
X307080Y210681D01*
X306351Y212505D01*
X305667Y214345D01*
X305028Y216202D01*
X304435Y218074D01*
X303888Y219960D01*
X303388Y221859D01*
X302934Y223770D01*
X302527Y225691D01*
X302168Y227621D01*
X301856Y229560D01*
X301592Y231506D01*
X301375Y233458D01*
X301207Y235414D01*
X301086Y237374D01*
X301014Y239336D01*
X300990Y241300D01*
X368300Y241300D02*
X368304Y241612D01*
X368315Y241923D01*
X368334Y242234D01*
X368361Y242545D01*
X368396Y242855D01*
X368437Y243163D01*
X368487Y243471D01*
X368544Y243778D01*
X368609Y244083D01*
X368681Y244386D01*
X368760Y244687D01*
X368847Y244987D01*
X368941Y245284D01*
X369042Y245579D01*
X369151Y245871D01*
X369267Y246160D01*
X369390Y246447D01*
X369519Y246730D01*
X369656Y247010D01*
X369800Y247287D01*
X369950Y247560D01*
X370107Y247829D01*
X370270Y248094D01*
X370440Y248356D01*
X370617Y248613D01*
X370799Y248865D01*
X370988Y249113D01*
X371183Y249357D01*
X371383Y249595D01*
X371590Y249829D01*
X371802Y250057D01*
X372020Y250280D01*
X372243Y250498D01*
X372471Y250710D01*
X372705Y250917D01*
X372943Y251117D01*
X373187Y251312D01*
X373435Y251501D01*
X373687Y251683D01*
X373944Y251860D01*
X374206Y252030D01*
X374471Y252193D01*
X374740Y252350D01*
X375013Y252500D01*
X375290Y252644D01*
X375570Y252781D01*
X375853Y252910D01*
X376140Y253033D01*
X376429Y253149D01*
X376721Y253258D01*
X377016Y253359D01*
X377313Y253453D01*
X377613Y253540D01*
X377914Y253619D01*
X378217Y253691D01*
X378522Y253756D01*
X378829Y253813D01*
X379137Y253863D01*
X379445Y253904D01*
X379755Y253939D01*
X380066Y253966D01*
X380377Y253985D01*
X380688Y253996D01*
X381000Y254000D01*
X381312Y253996D01*
X381623Y253985D01*
X381934Y253966D01*
X382245Y253939D01*
X382555Y253904D01*
X382863Y253863D01*
X383171Y253813D01*
X383478Y253756D01*
X383783Y253691D01*
X384086Y253619D01*
X384387Y253540D01*
X384687Y253453D01*
X384984Y253359D01*
X385279Y253258D01*
X385571Y253149D01*
X385860Y253033D01*
X386147Y252910D01*
X386430Y252781D01*
X386710Y252644D01*
X386987Y252500D01*
X387260Y252350D01*
X387529Y252193D01*
X387794Y252030D01*
X388056Y251860D01*
X388313Y251683D01*
X388565Y251501D01*
X388813Y251312D01*
X389057Y251117D01*
X389295Y250917D01*
X389529Y250710D01*
X389757Y250498D01*
X389980Y250280D01*
X390198Y250057D01*
X390410Y249829D01*
X390617Y249595D01*
X390817Y249357D01*
X391012Y249113D01*
X391201Y248865D01*
X391383Y248613D01*
X391560Y248356D01*
X391730Y248094D01*
X391893Y247829D01*
X392050Y247560D01*
X392200Y247287D01*
X392344Y247010D01*
X392481Y246730D01*
X392610Y246447D01*
X392733Y246160D01*
X392849Y245871D01*
X392958Y245579D01*
X393059Y245284D01*
X393153Y244987D01*
X393240Y244687D01*
X393319Y244386D01*
X393391Y244083D01*
X393456Y243778D01*
X393513Y243471D01*
X393563Y243163D01*
X393604Y242855D01*
X393639Y242545D01*
X393666Y242234D01*
X393685Y241923D01*
X393696Y241612D01*
X393700Y241300D01*
X393696Y240988D01*
X393685Y240677D01*
X393666Y240366D01*
X393639Y240055D01*
X393604Y239745D01*
X393563Y239437D01*
X393513Y239129D01*
X393456Y238822D01*
X393391Y238517D01*
X393319Y238214D01*
X393240Y237913D01*
X393153Y237613D01*
X393059Y237316D01*
X392958Y237021D01*
X392849Y236729D01*
X392733Y236440D01*
X392610Y236153D01*
X392481Y235870D01*
X392344Y235590D01*
X392200Y235313D01*
X392050Y235040D01*
X391893Y234771D01*
X391730Y234506D01*
X391560Y234244D01*
X391383Y233987D01*
X391201Y233735D01*
X391012Y233487D01*
X390817Y233243D01*
X390617Y233005D01*
X390410Y232771D01*
X390198Y232543D01*
X389980Y232320D01*
X389757Y232102D01*
X389529Y231890D01*
X389295Y231683D01*
X389057Y231483D01*
X388813Y231288D01*
X388565Y231099D01*
X388313Y230917D01*
X388056Y230740D01*
X387794Y230570D01*
X387529Y230407D01*
X387260Y230250D01*
X386987Y230100D01*
X386710Y229956D01*
X386430Y229819D01*
X386147Y229690D01*
X385860Y229567D01*
X385571Y229451D01*
X385279Y229342D01*
X384984Y229241D01*
X384687Y229147D01*
X384387Y229060D01*
X384086Y228981D01*
X383783Y228909D01*
X383478Y228844D01*
X383171Y228787D01*
X382863Y228737D01*
X382555Y228696D01*
X382245Y228661D01*
X381934Y228634D01*
X381623Y228615D01*
X381312Y228604D01*
X381000Y228600D01*
X380688Y228604D01*
X380377Y228615D01*
X380066Y228634D01*
X379755Y228661D01*
X379445Y228696D01*
X379137Y228737D01*
X378829Y228787D01*
X378522Y228844D01*
X378217Y228909D01*
X377914Y228981D01*
X377613Y229060D01*
X377313Y229147D01*
X377016Y229241D01*
X376721Y229342D01*
X376429Y229451D01*
X376140Y229567D01*
X375853Y229690D01*
X375570Y229819D01*
X375290Y229956D01*
X375013Y230100D01*
X374740Y230250D01*
X374471Y230407D01*
X374206Y230570D01*
X373944Y230740D01*
X373687Y230917D01*
X373435Y231099D01*
X373187Y231288D01*
X372943Y231483D01*
X372705Y231683D01*
X372471Y231890D01*
X372243Y232102D01*
X372020Y232320D01*
X371802Y232543D01*
X371590Y232771D01*
X371383Y233005D01*
X371183Y233243D01*
X370988Y233487D01*
X370799Y233735D01*
X370617Y233987D01*
X370440Y234244D01*
X370270Y234506D01*
X370107Y234771D01*
X369950Y235040D01*
X369800Y235313D01*
X369656Y235590D01*
X369519Y235870D01*
X369390Y236153D01*
X369267Y236440D01*
X369151Y236729D01*
X369042Y237021D01*
X368941Y237316D01*
X368847Y237613D01*
X368760Y237913D01*
X368681Y238214D01*
X368609Y238517D01*
X368544Y238822D01*
X368487Y239129D01*
X368437Y239437D01*
X368396Y239745D01*
X368361Y240055D01*
X368334Y240366D01*
X368315Y240677D01*
X368304Y240988D01*
X368300Y241300D01*
X330200Y209550D02*
X330204Y209862D01*
X330215Y210173D01*
X330234Y210484D01*
X330261Y210795D01*
X330296Y211105D01*
X330337Y211413D01*
X330387Y211721D01*
X330444Y212028D01*
X330509Y212333D01*
X330581Y212636D01*
X330660Y212937D01*
X330747Y213237D01*
X330841Y213534D01*
X330942Y213829D01*
X331051Y214121D01*
X331167Y214410D01*
X331290Y214697D01*
X331419Y214980D01*
X331556Y215260D01*
X331700Y215537D01*
X331850Y215810D01*
X332007Y216079D01*
X332170Y216344D01*
X332340Y216606D01*
X332517Y216863D01*
X332699Y217115D01*
X332888Y217363D01*
X333083Y217607D01*
X333283Y217845D01*
X333490Y218079D01*
X333702Y218307D01*
X333920Y218530D01*
X334143Y218748D01*
X334371Y218960D01*
X334605Y219167D01*
X334843Y219367D01*
X335087Y219562D01*
X335335Y219751D01*
X335587Y219933D01*
X335844Y220110D01*
X336106Y220280D01*
X336371Y220443D01*
X336640Y220600D01*
X336913Y220750D01*
X337190Y220894D01*
X337470Y221031D01*
X337753Y221160D01*
X338040Y221283D01*
X338329Y221399D01*
X338621Y221508D01*
X338916Y221609D01*
X339213Y221703D01*
X339513Y221790D01*
X339814Y221869D01*
X340117Y221941D01*
X340422Y222006D01*
X340729Y222063D01*
X341037Y222113D01*
X341345Y222154D01*
X341655Y222189D01*
X341966Y222216D01*
X342277Y222235D01*
X342588Y222246D01*
X342900Y222250D01*
X343212Y222246D01*
X343523Y222235D01*
X343834Y222216D01*
X344145Y222189D01*
X344455Y222154D01*
X344763Y222113D01*
X345071Y222063D01*
X345378Y222006D01*
X345683Y221941D01*
X345986Y221869D01*
X346287Y221790D01*
X346587Y221703D01*
X346884Y221609D01*
X347179Y221508D01*
X347471Y221399D01*
X347760Y221283D01*
X348047Y221160D01*
X348330Y221031D01*
X348610Y220894D01*
X348887Y220750D01*
X349160Y220600D01*
X349429Y220443D01*
X349694Y220280D01*
X349956Y220110D01*
X350213Y219933D01*
X350465Y219751D01*
X350713Y219562D01*
X350957Y219367D01*
X351195Y219167D01*
X351429Y218960D01*
X351657Y218748D01*
X351880Y218530D01*
X352098Y218307D01*
X352310Y218079D01*
X352517Y217845D01*
X352717Y217607D01*
X352912Y217363D01*
X353101Y217115D01*
X353283Y216863D01*
X353460Y216606D01*
X353630Y216344D01*
X353793Y216079D01*
X353950Y215810D01*
X354100Y215537D01*
X354244Y215260D01*
X354381Y214980D01*
X354510Y214697D01*
X354633Y214410D01*
X354749Y214121D01*
X354858Y213829D01*
X354959Y213534D01*
X355053Y213237D01*
X355140Y212937D01*
X355219Y212636D01*
X355291Y212333D01*
X355356Y212028D01*
X355413Y211721D01*
X355463Y211413D01*
X355504Y211105D01*
X355539Y210795D01*
X355566Y210484D01*
X355585Y210173D01*
X355596Y209862D01*
X355600Y209550D01*
X355596Y209238D01*
X355585Y208927D01*
X355566Y208616D01*
X355539Y208305D01*
X355504Y207995D01*
X355463Y207687D01*
X355413Y207379D01*
X355356Y207072D01*
X355291Y206767D01*
X355219Y206464D01*
X355140Y206163D01*
X355053Y205863D01*
X354959Y205566D01*
X354858Y205271D01*
X354749Y204979D01*
X354633Y204690D01*
X354510Y204403D01*
X354381Y204120D01*
X354244Y203840D01*
X354100Y203563D01*
X353950Y203290D01*
X353793Y203021D01*
X353630Y202756D01*
X353460Y202494D01*
X353283Y202237D01*
X353101Y201985D01*
X352912Y201737D01*
X352717Y201493D01*
X352517Y201255D01*
X352310Y201021D01*
X352098Y200793D01*
X351880Y200570D01*
X351657Y200352D01*
X351429Y200140D01*
X351195Y199933D01*
X350957Y199733D01*
X350713Y199538D01*
X350465Y199349D01*
X350213Y199167D01*
X349956Y198990D01*
X349694Y198820D01*
X349429Y198657D01*
X349160Y198500D01*
X348887Y198350D01*
X348610Y198206D01*
X348330Y198069D01*
X348047Y197940D01*
X347760Y197817D01*
X347471Y197701D01*
X347179Y197592D01*
X346884Y197491D01*
X346587Y197397D01*
X346287Y197310D01*
X345986Y197231D01*
X345683Y197159D01*
X345378Y197094D01*
X345071Y197037D01*
X344763Y196987D01*
X344455Y196946D01*
X344145Y196911D01*
X343834Y196884D01*
X343523Y196865D01*
X343212Y196854D01*
X342900Y196850D01*
X342588Y196854D01*
X342277Y196865D01*
X341966Y196884D01*
X341655Y196911D01*
X341345Y196946D01*
X341037Y196987D01*
X340729Y197037D01*
X340422Y197094D01*
X340117Y197159D01*
X339814Y197231D01*
X339513Y197310D01*
X339213Y197397D01*
X338916Y197491D01*
X338621Y197592D01*
X338329Y197701D01*
X338040Y197817D01*
X337753Y197940D01*
X337470Y198069D01*
X337190Y198206D01*
X336913Y198350D01*
X336640Y198500D01*
X336371Y198657D01*
X336106Y198820D01*
X335844Y198990D01*
X335587Y199167D01*
X335335Y199349D01*
X335087Y199538D01*
X334843Y199733D01*
X334605Y199933D01*
X334371Y200140D01*
X334143Y200352D01*
X333920Y200570D01*
X333702Y200793D01*
X333490Y201021D01*
X333283Y201255D01*
X333083Y201493D01*
X332888Y201737D01*
X332699Y201985D01*
X332517Y202237D01*
X332340Y202494D01*
X332170Y202756D01*
X332007Y203021D01*
X331850Y203290D01*
X331700Y203563D01*
X331556Y203840D01*
X331419Y204120D01*
X331290Y204403D01*
X331167Y204690D01*
X331051Y204979D01*
X330942Y205271D01*
X330841Y205566D01*
X330747Y205863D01*
X330660Y206163D01*
X330581Y206464D01*
X330509Y206767D01*
X330444Y207072D01*
X330387Y207379D01*
X330337Y207687D01*
X330296Y207995D01*
X330261Y208305D01*
X330234Y208616D01*
X330215Y208927D01*
X330204Y209238D01*
X330200Y209550D01*
D13*
X309397Y170815D02*
X309397Y159385D01*
X314477Y159385D01*
X322326Y159385D02*
X322426Y159387D01*
X322525Y159393D01*
X322625Y159403D01*
X322723Y159416D01*
X322822Y159434D01*
X322919Y159455D01*
X323015Y159480D01*
X323111Y159509D01*
X323205Y159542D01*
X323298Y159578D01*
X323389Y159618D01*
X323479Y159662D01*
X323567Y159709D01*
X323653Y159759D01*
X323737Y159813D01*
X323819Y159870D01*
X323898Y159930D01*
X323976Y159994D01*
X324050Y160060D01*
X324122Y160129D01*
X324191Y160201D01*
X324257Y160275D01*
X324321Y160353D01*
X324381Y160432D01*
X324438Y160514D01*
X324492Y160598D01*
X324542Y160684D01*
X324589Y160772D01*
X324633Y160862D01*
X324673Y160953D01*
X324709Y161046D01*
X324742Y161140D01*
X324771Y161236D01*
X324796Y161332D01*
X324817Y161429D01*
X324835Y161528D01*
X324848Y161626D01*
X324858Y161726D01*
X324864Y161825D01*
X324866Y161925D01*
X322326Y159385D02*
X322185Y159387D01*
X322044Y159392D01*
X321903Y159402D01*
X321762Y159415D01*
X321622Y159431D01*
X321482Y159452D01*
X321343Y159476D01*
X321204Y159504D01*
X321067Y159535D01*
X320930Y159570D01*
X320794Y159608D01*
X320659Y159650D01*
X320526Y159696D01*
X320393Y159745D01*
X320262Y159798D01*
X320133Y159854D01*
X320004Y159913D01*
X319878Y159976D01*
X319753Y160042D01*
X319630Y160111D01*
X319509Y160184D01*
X319390Y160260D01*
X319272Y160339D01*
X319157Y160420D01*
X319045Y160505D01*
X318934Y160593D01*
X318826Y160684D01*
X318720Y160777D01*
X318617Y160874D01*
X318516Y160973D01*
X318834Y168275D02*
X318836Y168375D01*
X318842Y168474D01*
X318852Y168574D01*
X318865Y168672D01*
X318883Y168771D01*
X318904Y168868D01*
X318929Y168964D01*
X318958Y169060D01*
X318991Y169154D01*
X319027Y169247D01*
X319067Y169338D01*
X319111Y169428D01*
X319158Y169516D01*
X319208Y169602D01*
X319262Y169686D01*
X319319Y169768D01*
X319379Y169847D01*
X319443Y169925D01*
X319509Y169999D01*
X319578Y170071D01*
X319650Y170140D01*
X319724Y170206D01*
X319802Y170270D01*
X319881Y170330D01*
X319963Y170387D01*
X320047Y170441D01*
X320133Y170491D01*
X320221Y170538D01*
X320311Y170582D01*
X320402Y170622D01*
X320495Y170658D01*
X320589Y170691D01*
X320685Y170720D01*
X320781Y170745D01*
X320878Y170766D01*
X320977Y170784D01*
X321075Y170797D01*
X321175Y170807D01*
X321274Y170813D01*
X321374Y170815D01*
X321374Y170816D02*
X321507Y170814D01*
X321640Y170809D01*
X321773Y170799D01*
X321906Y170786D01*
X322038Y170769D01*
X322170Y170749D01*
X322301Y170725D01*
X322431Y170697D01*
X322561Y170666D01*
X322689Y170631D01*
X322817Y170592D01*
X322943Y170550D01*
X323068Y170504D01*
X323192Y170455D01*
X323315Y170403D01*
X323436Y170347D01*
X323555Y170287D01*
X323673Y170225D01*
X323788Y170159D01*
X323902Y170090D01*
X324014Y170017D01*
X324124Y169942D01*
X324232Y169863D01*
X320103Y166052D02*
X320019Y166104D01*
X319936Y166159D01*
X319856Y166218D01*
X319778Y166279D01*
X319703Y166343D01*
X319630Y166411D01*
X319559Y166481D01*
X319492Y166553D01*
X319427Y166628D01*
X319365Y166706D01*
X319306Y166786D01*
X319250Y166868D01*
X319198Y166952D01*
X319149Y167038D01*
X319103Y167126D01*
X319060Y167216D01*
X319021Y167307D01*
X318986Y167400D01*
X318954Y167494D01*
X318926Y167589D01*
X318901Y167685D01*
X318881Y167782D01*
X318863Y167880D01*
X318850Y167978D01*
X318841Y168077D01*
X318835Y168176D01*
X318833Y168275D01*
X323596Y164148D02*
X323680Y164096D01*
X323763Y164041D01*
X323843Y163982D01*
X323921Y163921D01*
X323996Y163857D01*
X324069Y163789D01*
X324140Y163719D01*
X324207Y163647D01*
X324272Y163572D01*
X324334Y163494D01*
X324393Y163414D01*
X324449Y163332D01*
X324501Y163248D01*
X324550Y163162D01*
X324596Y163074D01*
X324639Y162984D01*
X324678Y162893D01*
X324713Y162800D01*
X324745Y162706D01*
X324773Y162611D01*
X324798Y162515D01*
X324818Y162418D01*
X324836Y162320D01*
X324849Y162222D01*
X324858Y162123D01*
X324864Y162024D01*
X324866Y161925D01*
X323596Y164148D02*
X320104Y166053D01*
X329565Y168275D02*
X332740Y170815D01*
X332740Y159385D01*
X329565Y159385D02*
X335915Y159385D01*
D14*
X480004Y210058D02*
X485196Y210058D01*
X480004Y210058D02*
X479891Y210060D01*
X479778Y210066D01*
X479665Y210076D01*
X479552Y210090D01*
X479440Y210107D01*
X479329Y210129D01*
X479219Y210154D01*
X479109Y210184D01*
X479001Y210217D01*
X478894Y210254D01*
X478788Y210294D01*
X478684Y210339D01*
X478581Y210387D01*
X478480Y210438D01*
X478381Y210493D01*
X478284Y210551D01*
X478189Y210613D01*
X478096Y210678D01*
X478006Y210746D01*
X477918Y210817D01*
X477832Y210892D01*
X477749Y210969D01*
X477669Y211049D01*
X477592Y211132D01*
X477517Y211218D01*
X477446Y211306D01*
X477378Y211396D01*
X477313Y211489D01*
X477251Y211584D01*
X477193Y211681D01*
X477138Y211780D01*
X477087Y211881D01*
X477039Y211984D01*
X476994Y212088D01*
X476954Y212194D01*
X476917Y212301D01*
X476884Y212409D01*
X476854Y212519D01*
X476829Y212629D01*
X476807Y212740D01*
X476790Y212852D01*
X476776Y212965D01*
X476766Y213078D01*
X476760Y213191D01*
X476758Y213304D01*
X476760Y213417D01*
X476766Y213530D01*
X476776Y213643D01*
X476790Y213756D01*
X476807Y213868D01*
X476829Y213979D01*
X476854Y214089D01*
X476884Y214199D01*
X476917Y214307D01*
X476954Y214414D01*
X476994Y214520D01*
X477039Y214624D01*
X477087Y214727D01*
X477138Y214828D01*
X477193Y214927D01*
X477251Y215024D01*
X477313Y215119D01*
X477378Y215212D01*
X477446Y215302D01*
X477517Y215390D01*
X477592Y215476D01*
X477669Y215559D01*
X477749Y215639D01*
X477832Y215716D01*
X477918Y215791D01*
X478006Y215862D01*
X478096Y215930D01*
X478189Y215995D01*
X478284Y216057D01*
X478381Y216115D01*
X478480Y216170D01*
X478581Y216221D01*
X478684Y216269D01*
X478788Y216314D01*
X478894Y216354D01*
X479001Y216391D01*
X479109Y216424D01*
X479219Y216454D01*
X479329Y216479D01*
X479440Y216501D01*
X479552Y216518D01*
X479665Y216532D01*
X479778Y216542D01*
X479891Y216548D01*
X480004Y216550D01*
X480004Y216549D02*
X485196Y216549D01*
X485196Y216550D02*
X485309Y216548D01*
X485422Y216542D01*
X485535Y216532D01*
X485648Y216518D01*
X485760Y216501D01*
X485871Y216479D01*
X485981Y216454D01*
X486091Y216424D01*
X486199Y216391D01*
X486306Y216354D01*
X486412Y216314D01*
X486516Y216269D01*
X486619Y216221D01*
X486720Y216170D01*
X486819Y216115D01*
X486916Y216057D01*
X487011Y215995D01*
X487104Y215930D01*
X487194Y215862D01*
X487282Y215791D01*
X487368Y215716D01*
X487451Y215639D01*
X487531Y215559D01*
X487608Y215476D01*
X487683Y215390D01*
X487754Y215302D01*
X487822Y215212D01*
X487887Y215119D01*
X487949Y215024D01*
X488007Y214927D01*
X488062Y214828D01*
X488113Y214727D01*
X488161Y214624D01*
X488206Y214520D01*
X488246Y214414D01*
X488283Y214307D01*
X488316Y214199D01*
X488346Y214089D01*
X488371Y213979D01*
X488393Y213868D01*
X488410Y213756D01*
X488424Y213643D01*
X488434Y213530D01*
X488440Y213417D01*
X488442Y213304D01*
X488440Y213191D01*
X488434Y213078D01*
X488424Y212965D01*
X488410Y212852D01*
X488393Y212740D01*
X488371Y212629D01*
X488346Y212519D01*
X488316Y212409D01*
X488283Y212301D01*
X488246Y212194D01*
X488206Y212088D01*
X488161Y211984D01*
X488113Y211881D01*
X488062Y211780D01*
X488007Y211681D01*
X487949Y211584D01*
X487887Y211489D01*
X487822Y211396D01*
X487754Y211306D01*
X487683Y211218D01*
X487608Y211132D01*
X487531Y211049D01*
X487451Y210969D01*
X487368Y210892D01*
X487282Y210817D01*
X487194Y210746D01*
X487104Y210678D01*
X487011Y210613D01*
X486916Y210551D01*
X486819Y210493D01*
X486720Y210438D01*
X486619Y210387D01*
X486516Y210339D01*
X486412Y210294D01*
X486306Y210254D01*
X486199Y210217D01*
X486091Y210184D01*
X485981Y210154D01*
X485871Y210129D01*
X485760Y210107D01*
X485648Y210090D01*
X485535Y210076D01*
X485422Y210066D01*
X485309Y210060D01*
X485196Y210058D01*
X485846Y215251D02*
X488442Y217847D01*
X479354Y221202D02*
X476758Y224447D01*
X488442Y224447D01*
X488442Y221202D02*
X488442Y227693D01*
X548065Y202692D02*
X548065Y191008D01*
X548065Y202692D02*
X551310Y202692D01*
X551423Y202690D01*
X551536Y202684D01*
X551649Y202674D01*
X551762Y202660D01*
X551874Y202643D01*
X551985Y202621D01*
X552095Y202596D01*
X552205Y202566D01*
X552313Y202533D01*
X552420Y202496D01*
X552526Y202456D01*
X552630Y202411D01*
X552733Y202363D01*
X552834Y202312D01*
X552933Y202257D01*
X553030Y202199D01*
X553125Y202137D01*
X553218Y202072D01*
X553308Y202004D01*
X553396Y201933D01*
X553482Y201858D01*
X553565Y201781D01*
X553645Y201701D01*
X553722Y201618D01*
X553797Y201532D01*
X553868Y201444D01*
X553936Y201354D01*
X554001Y201261D01*
X554063Y201166D01*
X554121Y201069D01*
X554176Y200970D01*
X554227Y200869D01*
X554275Y200766D01*
X554320Y200662D01*
X554360Y200556D01*
X554397Y200449D01*
X554430Y200341D01*
X554460Y200231D01*
X554485Y200121D01*
X554507Y200010D01*
X554524Y199898D01*
X554538Y199785D01*
X554548Y199672D01*
X554554Y199559D01*
X554556Y199446D01*
X554554Y199333D01*
X554548Y199220D01*
X554538Y199107D01*
X554524Y198994D01*
X554507Y198882D01*
X554485Y198771D01*
X554460Y198661D01*
X554430Y198551D01*
X554397Y198443D01*
X554360Y198336D01*
X554320Y198230D01*
X554275Y198126D01*
X554227Y198023D01*
X554176Y197922D01*
X554121Y197823D01*
X554063Y197726D01*
X554001Y197631D01*
X553936Y197538D01*
X553868Y197448D01*
X553797Y197360D01*
X553722Y197274D01*
X553645Y197191D01*
X553565Y197111D01*
X553482Y197034D01*
X553396Y196959D01*
X553308Y196888D01*
X553218Y196820D01*
X553125Y196755D01*
X553030Y196693D01*
X552933Y196635D01*
X552834Y196580D01*
X552733Y196529D01*
X552630Y196481D01*
X552526Y196436D01*
X552420Y196396D01*
X552313Y196359D01*
X552205Y196326D01*
X552095Y196296D01*
X551985Y196271D01*
X551874Y196249D01*
X551762Y196232D01*
X551649Y196218D01*
X551536Y196208D01*
X551423Y196202D01*
X551310Y196200D01*
X551310Y196201D02*
X548065Y196201D01*
X551959Y196201D02*
X554556Y191008D01*
X559421Y200096D02*
X562666Y202692D01*
X562666Y191008D01*
X559421Y191008D02*
X565912Y191008D01*
X570851Y196850D02*
X570854Y197080D01*
X570862Y197310D01*
X570876Y197539D01*
X570895Y197768D01*
X570920Y197997D01*
X570950Y198224D01*
X570985Y198452D01*
X571026Y198678D01*
X571072Y198903D01*
X571124Y199127D01*
X571181Y199349D01*
X571243Y199571D01*
X571311Y199790D01*
X571384Y200008D01*
X571462Y200225D01*
X571545Y200439D01*
X571633Y200651D01*
X571726Y200861D01*
X571825Y201069D01*
X571824Y201069D02*
X571857Y201159D01*
X571893Y201248D01*
X571933Y201336D01*
X571977Y201421D01*
X572024Y201505D01*
X572074Y201587D01*
X572128Y201667D01*
X572184Y201744D01*
X572244Y201820D01*
X572307Y201893D01*
X572372Y201963D01*
X572441Y202031D01*
X572512Y202095D01*
X572585Y202157D01*
X572661Y202216D01*
X572739Y202272D01*
X572820Y202325D01*
X572902Y202374D01*
X572986Y202420D01*
X573073Y202463D01*
X573160Y202502D01*
X573250Y202538D01*
X573340Y202570D01*
X573432Y202598D01*
X573525Y202623D01*
X573619Y202644D01*
X573713Y202661D01*
X573808Y202675D01*
X573904Y202684D01*
X574000Y202690D01*
X574096Y202692D01*
X574192Y202690D01*
X574288Y202684D01*
X574384Y202675D01*
X574479Y202661D01*
X574573Y202644D01*
X574667Y202623D01*
X574760Y202598D01*
X574852Y202570D01*
X574942Y202538D01*
X575032Y202502D01*
X575119Y202463D01*
X575206Y202420D01*
X575290Y202374D01*
X575372Y202325D01*
X575453Y202272D01*
X575531Y202216D01*
X575607Y202157D01*
X575680Y202095D01*
X575751Y202031D01*
X575820Y201963D01*
X575885Y201893D01*
X575948Y201820D01*
X576008Y201744D01*
X576064Y201667D01*
X576118Y201587D01*
X576168Y201505D01*
X576215Y201421D01*
X576259Y201336D01*
X576299Y201248D01*
X576335Y201159D01*
X576368Y201069D01*
X576369Y201069D02*
X576468Y200862D01*
X576561Y200652D01*
X576649Y200439D01*
X576732Y200225D01*
X576810Y200009D01*
X576883Y199791D01*
X576951Y199571D01*
X577013Y199350D01*
X577070Y199127D01*
X577122Y198903D01*
X577168Y198678D01*
X577209Y198452D01*
X577244Y198225D01*
X577274Y197997D01*
X577299Y197768D01*
X577318Y197539D01*
X577332Y197310D01*
X577340Y197080D01*
X577343Y196850D01*
X570851Y196850D02*
X570854Y196620D01*
X570862Y196390D01*
X570876Y196161D01*
X570895Y195932D01*
X570920Y195703D01*
X570950Y195475D01*
X570985Y195248D01*
X571026Y195022D01*
X571072Y194797D01*
X571124Y194573D01*
X571181Y194350D01*
X571243Y194129D01*
X571311Y193909D01*
X571384Y193691D01*
X571462Y193475D01*
X571545Y193261D01*
X571633Y193049D01*
X571726Y192838D01*
X571825Y192631D01*
X571824Y192631D02*
X571857Y192541D01*
X571893Y192452D01*
X571934Y192364D01*
X571977Y192279D01*
X572024Y192195D01*
X572074Y192113D01*
X572128Y192033D01*
X572184Y191956D01*
X572244Y191880D01*
X572307Y191807D01*
X572372Y191737D01*
X572441Y191669D01*
X572512Y191605D01*
X572585Y191543D01*
X572661Y191484D01*
X572739Y191428D01*
X572820Y191375D01*
X572902Y191326D01*
X572986Y191280D01*
X573073Y191237D01*
X573160Y191198D01*
X573250Y191162D01*
X573340Y191130D01*
X573432Y191102D01*
X573525Y191077D01*
X573619Y191056D01*
X573713Y191039D01*
X573808Y191025D01*
X573904Y191016D01*
X574000Y191010D01*
X574096Y191008D01*
X576368Y192631D02*
X576467Y192838D01*
X576560Y193049D01*
X576648Y193261D01*
X576731Y193475D01*
X576809Y193691D01*
X576882Y193909D01*
X576950Y194129D01*
X577012Y194350D01*
X577069Y194573D01*
X577121Y194797D01*
X577167Y195022D01*
X577208Y195248D01*
X577243Y195475D01*
X577273Y195703D01*
X577298Y195932D01*
X577317Y196161D01*
X577331Y196390D01*
X577339Y196620D01*
X577342Y196850D01*
X576368Y192631D02*
X576335Y192541D01*
X576299Y192452D01*
X576259Y192364D01*
X576215Y192279D01*
X576168Y192195D01*
X576118Y192113D01*
X576064Y192033D01*
X576008Y191956D01*
X575948Y191880D01*
X575885Y191807D01*
X575820Y191737D01*
X575751Y191669D01*
X575680Y191605D01*
X575607Y191543D01*
X575531Y191484D01*
X575453Y191428D01*
X575372Y191375D01*
X575290Y191326D01*
X575206Y191280D01*
X575119Y191237D01*
X575032Y191198D01*
X574942Y191162D01*
X574852Y191130D01*
X574760Y191102D01*
X574667Y191077D01*
X574573Y191056D01*
X574479Y191039D01*
X574384Y191025D01*
X574288Y191016D01*
X574192Y191010D01*
X574096Y191008D01*
X571500Y193604D02*
X576693Y200096D01*
X927608Y44958D02*
X939292Y44958D01*
X927608Y44958D02*
X927608Y48204D01*
X927610Y48317D01*
X927616Y48430D01*
X927626Y48543D01*
X927640Y48656D01*
X927657Y48768D01*
X927679Y48879D01*
X927704Y48989D01*
X927734Y49099D01*
X927767Y49207D01*
X927804Y49314D01*
X927844Y49420D01*
X927889Y49524D01*
X927937Y49627D01*
X927988Y49728D01*
X928043Y49827D01*
X928101Y49924D01*
X928163Y50019D01*
X928228Y50112D01*
X928296Y50202D01*
X928367Y50290D01*
X928442Y50376D01*
X928519Y50459D01*
X928599Y50539D01*
X928682Y50616D01*
X928768Y50691D01*
X928856Y50762D01*
X928946Y50830D01*
X929039Y50895D01*
X929134Y50957D01*
X929231Y51015D01*
X929330Y51070D01*
X929431Y51121D01*
X929534Y51169D01*
X929638Y51214D01*
X929744Y51254D01*
X929851Y51291D01*
X929959Y51324D01*
X930069Y51354D01*
X930179Y51379D01*
X930290Y51401D01*
X930402Y51418D01*
X930515Y51432D01*
X930628Y51442D01*
X930741Y51448D01*
X930854Y51450D01*
X930967Y51448D01*
X931080Y51442D01*
X931193Y51432D01*
X931306Y51418D01*
X931418Y51401D01*
X931529Y51379D01*
X931639Y51354D01*
X931749Y51324D01*
X931857Y51291D01*
X931964Y51254D01*
X932070Y51214D01*
X932174Y51169D01*
X932277Y51121D01*
X932378Y51070D01*
X932477Y51015D01*
X932574Y50957D01*
X932669Y50895D01*
X932762Y50830D01*
X932852Y50762D01*
X932940Y50691D01*
X933026Y50616D01*
X933109Y50539D01*
X933189Y50459D01*
X933266Y50376D01*
X933341Y50290D01*
X933412Y50202D01*
X933480Y50112D01*
X933545Y50019D01*
X933607Y49924D01*
X933665Y49827D01*
X933720Y49728D01*
X933771Y49627D01*
X933819Y49524D01*
X933864Y49420D01*
X933904Y49314D01*
X933941Y49207D01*
X933974Y49099D01*
X934004Y48989D01*
X934029Y48879D01*
X934051Y48768D01*
X934068Y48656D01*
X934082Y48543D01*
X934092Y48430D01*
X934098Y48317D01*
X934100Y48204D01*
X934099Y48204D02*
X934099Y44958D01*
X934099Y48853D02*
X939292Y51449D01*
X934099Y58911D02*
X934099Y62805D01*
X934099Y58911D02*
X934097Y58812D01*
X934091Y58712D01*
X934082Y58613D01*
X934069Y58515D01*
X934052Y58417D01*
X934031Y58319D01*
X934006Y58223D01*
X933978Y58128D01*
X933946Y58034D01*
X933911Y57941D01*
X933872Y57849D01*
X933829Y57759D01*
X933784Y57671D01*
X933734Y57584D01*
X933682Y57500D01*
X933626Y57417D01*
X933568Y57337D01*
X933506Y57259D01*
X933441Y57184D01*
X933373Y57111D01*
X933303Y57041D01*
X933230Y56973D01*
X933155Y56908D01*
X933077Y56846D01*
X932997Y56788D01*
X932914Y56732D01*
X932830Y56680D01*
X932743Y56630D01*
X932655Y56585D01*
X932565Y56542D01*
X932473Y56503D01*
X932380Y56468D01*
X932286Y56436D01*
X932191Y56408D01*
X932095Y56383D01*
X931997Y56362D01*
X931899Y56345D01*
X931801Y56332D01*
X931702Y56323D01*
X931602Y56317D01*
X931503Y56315D01*
X931503Y56314D02*
X930854Y56314D01*
X930741Y56316D01*
X930628Y56322D01*
X930515Y56332D01*
X930402Y56346D01*
X930290Y56363D01*
X930179Y56385D01*
X930069Y56410D01*
X929959Y56440D01*
X929851Y56473D01*
X929744Y56510D01*
X929638Y56550D01*
X929534Y56595D01*
X929431Y56643D01*
X929330Y56694D01*
X929231Y56749D01*
X929134Y56807D01*
X929039Y56869D01*
X928946Y56934D01*
X928856Y57002D01*
X928768Y57073D01*
X928682Y57148D01*
X928599Y57225D01*
X928519Y57305D01*
X928442Y57388D01*
X928367Y57474D01*
X928296Y57562D01*
X928228Y57652D01*
X928163Y57745D01*
X928101Y57840D01*
X928043Y57937D01*
X927988Y58036D01*
X927937Y58137D01*
X927889Y58240D01*
X927844Y58344D01*
X927804Y58450D01*
X927767Y58557D01*
X927734Y58665D01*
X927704Y58775D01*
X927679Y58885D01*
X927657Y58996D01*
X927640Y59108D01*
X927626Y59221D01*
X927616Y59334D01*
X927610Y59447D01*
X927608Y59560D01*
X927610Y59673D01*
X927616Y59786D01*
X927626Y59899D01*
X927640Y60012D01*
X927657Y60124D01*
X927679Y60235D01*
X927704Y60345D01*
X927734Y60455D01*
X927767Y60563D01*
X927804Y60670D01*
X927844Y60776D01*
X927889Y60880D01*
X927937Y60983D01*
X927988Y61084D01*
X928043Y61183D01*
X928101Y61280D01*
X928163Y61375D01*
X928228Y61468D01*
X928296Y61558D01*
X928367Y61646D01*
X928442Y61732D01*
X928519Y61815D01*
X928599Y61895D01*
X928682Y61972D01*
X928768Y62047D01*
X928856Y62118D01*
X928946Y62186D01*
X929039Y62251D01*
X929134Y62313D01*
X929231Y62371D01*
X929330Y62426D01*
X929431Y62477D01*
X929534Y62525D01*
X929638Y62570D01*
X929744Y62610D01*
X929851Y62647D01*
X929959Y62680D01*
X930069Y62710D01*
X930179Y62735D01*
X930290Y62757D01*
X930402Y62774D01*
X930515Y62788D01*
X930628Y62798D01*
X930741Y62804D01*
X930854Y62806D01*
X930854Y62805D02*
X934099Y62805D01*
X934099Y62806D02*
X934242Y62804D01*
X934385Y62798D01*
X934528Y62788D01*
X934670Y62774D01*
X934812Y62757D01*
X934954Y62735D01*
X935095Y62710D01*
X935235Y62680D01*
X935374Y62647D01*
X935512Y62610D01*
X935649Y62569D01*
X935785Y62525D01*
X935920Y62476D01*
X936053Y62424D01*
X936185Y62369D01*
X936315Y62309D01*
X936444Y62246D01*
X936571Y62180D01*
X936696Y62110D01*
X936818Y62037D01*
X936939Y61960D01*
X937058Y61880D01*
X937174Y61797D01*
X937289Y61711D01*
X937400Y61622D01*
X937510Y61529D01*
X937616Y61434D01*
X937720Y61335D01*
X937821Y61234D01*
X937920Y61130D01*
X938015Y61024D01*
X938108Y60914D01*
X938197Y60803D01*
X938283Y60688D01*
X938366Y60572D01*
X938446Y60453D01*
X938523Y60332D01*
X938596Y60210D01*
X938666Y60085D01*
X938732Y59958D01*
X938795Y59829D01*
X938855Y59699D01*
X938910Y59567D01*
X938962Y59434D01*
X939011Y59299D01*
X939055Y59163D01*
X939096Y59026D01*
X939133Y58888D01*
X939166Y58749D01*
X939196Y58609D01*
X939221Y58468D01*
X939243Y58326D01*
X939260Y58184D01*
X939274Y58042D01*
X939284Y57899D01*
X939290Y57756D01*
X939292Y57613D01*
X121158Y64008D02*
X121158Y75692D01*
X124404Y75692D01*
X124517Y75690D01*
X124630Y75684D01*
X124743Y75674D01*
X124856Y75660D01*
X124968Y75643D01*
X125079Y75621D01*
X125189Y75596D01*
X125299Y75566D01*
X125407Y75533D01*
X125514Y75496D01*
X125620Y75456D01*
X125724Y75411D01*
X125827Y75363D01*
X125928Y75312D01*
X126027Y75257D01*
X126124Y75199D01*
X126219Y75137D01*
X126312Y75072D01*
X126402Y75004D01*
X126490Y74933D01*
X126576Y74858D01*
X126659Y74781D01*
X126739Y74701D01*
X126816Y74618D01*
X126891Y74532D01*
X126962Y74444D01*
X127030Y74354D01*
X127095Y74261D01*
X127157Y74166D01*
X127215Y74069D01*
X127270Y73970D01*
X127321Y73869D01*
X127369Y73766D01*
X127414Y73662D01*
X127454Y73556D01*
X127491Y73449D01*
X127524Y73341D01*
X127554Y73231D01*
X127579Y73121D01*
X127601Y73010D01*
X127618Y72898D01*
X127632Y72785D01*
X127642Y72672D01*
X127648Y72559D01*
X127650Y72446D01*
X127648Y72333D01*
X127642Y72220D01*
X127632Y72107D01*
X127618Y71994D01*
X127601Y71882D01*
X127579Y71771D01*
X127554Y71661D01*
X127524Y71551D01*
X127491Y71443D01*
X127454Y71336D01*
X127414Y71230D01*
X127369Y71126D01*
X127321Y71023D01*
X127270Y70922D01*
X127215Y70823D01*
X127157Y70726D01*
X127095Y70631D01*
X127030Y70538D01*
X126962Y70448D01*
X126891Y70360D01*
X126816Y70274D01*
X126739Y70191D01*
X126659Y70111D01*
X126576Y70034D01*
X126490Y69959D01*
X126402Y69888D01*
X126312Y69820D01*
X126219Y69755D01*
X126124Y69693D01*
X126027Y69635D01*
X125928Y69580D01*
X125827Y69529D01*
X125724Y69481D01*
X125620Y69436D01*
X125514Y69396D01*
X125407Y69359D01*
X125299Y69326D01*
X125189Y69296D01*
X125079Y69271D01*
X124968Y69249D01*
X124856Y69232D01*
X124743Y69218D01*
X124630Y69208D01*
X124517Y69202D01*
X124404Y69200D01*
X124404Y69201D02*
X121158Y69201D01*
X125053Y69201D02*
X127649Y64008D01*
X132514Y73096D02*
X135760Y75692D01*
X135760Y64008D01*
X139005Y64008D02*
X132514Y64008D01*
X222758Y64008D02*
X222758Y75692D01*
X226004Y75692D01*
X226117Y75690D01*
X226230Y75684D01*
X226343Y75674D01*
X226456Y75660D01*
X226568Y75643D01*
X226679Y75621D01*
X226789Y75596D01*
X226899Y75566D01*
X227007Y75533D01*
X227114Y75496D01*
X227220Y75456D01*
X227324Y75411D01*
X227427Y75363D01*
X227528Y75312D01*
X227627Y75257D01*
X227724Y75199D01*
X227819Y75137D01*
X227912Y75072D01*
X228002Y75004D01*
X228090Y74933D01*
X228176Y74858D01*
X228259Y74781D01*
X228339Y74701D01*
X228416Y74618D01*
X228491Y74532D01*
X228562Y74444D01*
X228630Y74354D01*
X228695Y74261D01*
X228757Y74166D01*
X228815Y74069D01*
X228870Y73970D01*
X228921Y73869D01*
X228969Y73766D01*
X229014Y73662D01*
X229054Y73556D01*
X229091Y73449D01*
X229124Y73341D01*
X229154Y73231D01*
X229179Y73121D01*
X229201Y73010D01*
X229218Y72898D01*
X229232Y72785D01*
X229242Y72672D01*
X229248Y72559D01*
X229250Y72446D01*
X229248Y72333D01*
X229242Y72220D01*
X229232Y72107D01*
X229218Y71994D01*
X229201Y71882D01*
X229179Y71771D01*
X229154Y71661D01*
X229124Y71551D01*
X229091Y71443D01*
X229054Y71336D01*
X229014Y71230D01*
X228969Y71126D01*
X228921Y71023D01*
X228870Y70922D01*
X228815Y70823D01*
X228757Y70726D01*
X228695Y70631D01*
X228630Y70538D01*
X228562Y70448D01*
X228491Y70360D01*
X228416Y70274D01*
X228339Y70191D01*
X228259Y70111D01*
X228176Y70034D01*
X228090Y69959D01*
X228002Y69888D01*
X227912Y69820D01*
X227819Y69755D01*
X227724Y69693D01*
X227627Y69635D01*
X227528Y69580D01*
X227427Y69529D01*
X227324Y69481D01*
X227220Y69436D01*
X227114Y69396D01*
X227007Y69359D01*
X226899Y69326D01*
X226789Y69296D01*
X226679Y69271D01*
X226568Y69249D01*
X226456Y69232D01*
X226343Y69218D01*
X226230Y69208D01*
X226117Y69202D01*
X226004Y69200D01*
X226004Y69201D02*
X222758Y69201D01*
X226653Y69201D02*
X229249Y64008D01*
X240605Y72771D02*
X240603Y72878D01*
X240597Y72984D01*
X240587Y73090D01*
X240574Y73196D01*
X240556Y73302D01*
X240535Y73406D01*
X240510Y73510D01*
X240481Y73613D01*
X240449Y73714D01*
X240412Y73814D01*
X240372Y73913D01*
X240329Y74011D01*
X240282Y74107D01*
X240231Y74201D01*
X240177Y74293D01*
X240120Y74383D01*
X240060Y74471D01*
X239996Y74556D01*
X239929Y74639D01*
X239859Y74720D01*
X239787Y74798D01*
X239711Y74874D01*
X239633Y74946D01*
X239552Y75016D01*
X239469Y75083D01*
X239384Y75147D01*
X239296Y75207D01*
X239206Y75264D01*
X239114Y75318D01*
X239020Y75369D01*
X238924Y75416D01*
X238826Y75459D01*
X238727Y75499D01*
X238627Y75536D01*
X238526Y75568D01*
X238423Y75597D01*
X238319Y75622D01*
X238215Y75643D01*
X238109Y75661D01*
X238003Y75674D01*
X237897Y75684D01*
X237791Y75690D01*
X237684Y75692D01*
X237563Y75690D01*
X237442Y75684D01*
X237322Y75674D01*
X237201Y75661D01*
X237082Y75643D01*
X236962Y75622D01*
X236844Y75597D01*
X236727Y75568D01*
X236610Y75535D01*
X236495Y75499D01*
X236381Y75458D01*
X236268Y75415D01*
X236156Y75367D01*
X236047Y75316D01*
X235939Y75261D01*
X235832Y75203D01*
X235728Y75142D01*
X235626Y75077D01*
X235526Y75009D01*
X235428Y74938D01*
X235332Y74864D01*
X235239Y74787D01*
X235149Y74706D01*
X235061Y74623D01*
X234976Y74537D01*
X234893Y74448D01*
X234814Y74357D01*
X234737Y74263D01*
X234664Y74167D01*
X234594Y74069D01*
X234527Y73968D01*
X234463Y73865D01*
X234403Y73760D01*
X234346Y73653D01*
X234292Y73545D01*
X234242Y73435D01*
X234196Y73323D01*
X234153Y73210D01*
X234114Y73095D01*
X239632Y70499D02*
X239711Y70576D01*
X239787Y70657D01*
X239860Y70740D01*
X239930Y70825D01*
X239997Y70913D01*
X240061Y71003D01*
X240121Y71095D01*
X240178Y71190D01*
X240232Y71286D01*
X240283Y71384D01*
X240330Y71484D01*
X240374Y71586D01*
X240414Y71689D01*
X240450Y71793D01*
X240482Y71899D01*
X240511Y72005D01*
X240536Y72113D01*
X240558Y72221D01*
X240575Y72331D01*
X240589Y72440D01*
X240598Y72550D01*
X240604Y72661D01*
X240606Y72771D01*
X239632Y70499D02*
X234114Y64008D01*
X240605Y64008D01*
X324358Y64008D02*
X324358Y75692D01*
X327604Y75692D01*
X327717Y75690D01*
X327830Y75684D01*
X327943Y75674D01*
X328056Y75660D01*
X328168Y75643D01*
X328279Y75621D01*
X328389Y75596D01*
X328499Y75566D01*
X328607Y75533D01*
X328714Y75496D01*
X328820Y75456D01*
X328924Y75411D01*
X329027Y75363D01*
X329128Y75312D01*
X329227Y75257D01*
X329324Y75199D01*
X329419Y75137D01*
X329512Y75072D01*
X329602Y75004D01*
X329690Y74933D01*
X329776Y74858D01*
X329859Y74781D01*
X329939Y74701D01*
X330016Y74618D01*
X330091Y74532D01*
X330162Y74444D01*
X330230Y74354D01*
X330295Y74261D01*
X330357Y74166D01*
X330415Y74069D01*
X330470Y73970D01*
X330521Y73869D01*
X330569Y73766D01*
X330614Y73662D01*
X330654Y73556D01*
X330691Y73449D01*
X330724Y73341D01*
X330754Y73231D01*
X330779Y73121D01*
X330801Y73010D01*
X330818Y72898D01*
X330832Y72785D01*
X330842Y72672D01*
X330848Y72559D01*
X330850Y72446D01*
X330848Y72333D01*
X330842Y72220D01*
X330832Y72107D01*
X330818Y71994D01*
X330801Y71882D01*
X330779Y71771D01*
X330754Y71661D01*
X330724Y71551D01*
X330691Y71443D01*
X330654Y71336D01*
X330614Y71230D01*
X330569Y71126D01*
X330521Y71023D01*
X330470Y70922D01*
X330415Y70823D01*
X330357Y70726D01*
X330295Y70631D01*
X330230Y70538D01*
X330162Y70448D01*
X330091Y70360D01*
X330016Y70274D01*
X329939Y70191D01*
X329859Y70111D01*
X329776Y70034D01*
X329690Y69959D01*
X329602Y69888D01*
X329512Y69820D01*
X329419Y69755D01*
X329324Y69693D01*
X329227Y69635D01*
X329128Y69580D01*
X329027Y69529D01*
X328924Y69481D01*
X328820Y69436D01*
X328714Y69396D01*
X328607Y69359D01*
X328499Y69326D01*
X328389Y69296D01*
X328279Y69271D01*
X328168Y69249D01*
X328056Y69232D01*
X327943Y69218D01*
X327830Y69208D01*
X327717Y69202D01*
X327604Y69200D01*
X327604Y69201D02*
X324358Y69201D01*
X328253Y69201D02*
X330849Y64008D01*
X335714Y64008D02*
X338960Y64008D01*
X339073Y64010D01*
X339186Y64016D01*
X339299Y64026D01*
X339412Y64040D01*
X339524Y64057D01*
X339635Y64079D01*
X339745Y64104D01*
X339855Y64134D01*
X339963Y64167D01*
X340070Y64204D01*
X340176Y64244D01*
X340280Y64289D01*
X340383Y64337D01*
X340484Y64388D01*
X340583Y64443D01*
X340680Y64501D01*
X340775Y64563D01*
X340868Y64628D01*
X340958Y64696D01*
X341046Y64767D01*
X341132Y64842D01*
X341215Y64919D01*
X341295Y64999D01*
X341372Y65082D01*
X341447Y65168D01*
X341518Y65256D01*
X341586Y65346D01*
X341651Y65439D01*
X341713Y65534D01*
X341771Y65631D01*
X341826Y65730D01*
X341877Y65831D01*
X341925Y65934D01*
X341970Y66038D01*
X342010Y66144D01*
X342047Y66251D01*
X342080Y66359D01*
X342110Y66469D01*
X342135Y66579D01*
X342157Y66690D01*
X342174Y66802D01*
X342188Y66915D01*
X342198Y67028D01*
X342204Y67141D01*
X342206Y67254D01*
X342204Y67367D01*
X342198Y67480D01*
X342188Y67593D01*
X342174Y67706D01*
X342157Y67818D01*
X342135Y67929D01*
X342110Y68039D01*
X342080Y68149D01*
X342047Y68257D01*
X342010Y68364D01*
X341970Y68470D01*
X341925Y68574D01*
X341877Y68677D01*
X341826Y68778D01*
X341771Y68877D01*
X341713Y68974D01*
X341651Y69069D01*
X341586Y69162D01*
X341518Y69252D01*
X341447Y69340D01*
X341372Y69426D01*
X341295Y69509D01*
X341215Y69589D01*
X341132Y69666D01*
X341046Y69741D01*
X340958Y69812D01*
X340868Y69880D01*
X340775Y69945D01*
X340680Y70007D01*
X340583Y70065D01*
X340484Y70120D01*
X340383Y70171D01*
X340280Y70219D01*
X340176Y70264D01*
X340070Y70304D01*
X339963Y70341D01*
X339855Y70374D01*
X339745Y70404D01*
X339635Y70429D01*
X339524Y70451D01*
X339412Y70468D01*
X339299Y70482D01*
X339186Y70492D01*
X339073Y70498D01*
X338960Y70500D01*
X339609Y75692D02*
X335714Y75692D01*
X339609Y75692D02*
X339710Y75690D01*
X339810Y75684D01*
X339910Y75674D01*
X340010Y75661D01*
X340109Y75643D01*
X340208Y75622D01*
X340305Y75597D01*
X340402Y75568D01*
X340497Y75535D01*
X340591Y75499D01*
X340683Y75459D01*
X340774Y75416D01*
X340863Y75369D01*
X340950Y75319D01*
X341036Y75265D01*
X341119Y75208D01*
X341199Y75148D01*
X341278Y75085D01*
X341354Y75018D01*
X341427Y74949D01*
X341497Y74877D01*
X341565Y74803D01*
X341630Y74726D01*
X341691Y74646D01*
X341750Y74564D01*
X341805Y74480D01*
X341857Y74394D01*
X341906Y74306D01*
X341951Y74216D01*
X341993Y74124D01*
X342031Y74031D01*
X342065Y73936D01*
X342096Y73841D01*
X342123Y73744D01*
X342146Y73646D01*
X342166Y73547D01*
X342181Y73447D01*
X342193Y73347D01*
X342201Y73247D01*
X342205Y73146D01*
X342205Y73046D01*
X342201Y72945D01*
X342193Y72845D01*
X342181Y72745D01*
X342166Y72645D01*
X342146Y72546D01*
X342123Y72448D01*
X342096Y72351D01*
X342065Y72256D01*
X342031Y72161D01*
X341993Y72068D01*
X341951Y71976D01*
X341906Y71886D01*
X341857Y71798D01*
X341805Y71712D01*
X341750Y71628D01*
X341691Y71546D01*
X341630Y71466D01*
X341565Y71389D01*
X341497Y71315D01*
X341427Y71243D01*
X341354Y71174D01*
X341278Y71107D01*
X341199Y71044D01*
X341119Y70984D01*
X341036Y70927D01*
X340950Y70873D01*
X340863Y70823D01*
X340774Y70776D01*
X340683Y70733D01*
X340591Y70693D01*
X340497Y70657D01*
X340402Y70624D01*
X340305Y70595D01*
X340208Y70570D01*
X340109Y70549D01*
X340010Y70531D01*
X339910Y70518D01*
X339810Y70508D01*
X339710Y70502D01*
X339609Y70500D01*
X339609Y70499D02*
X337013Y70499D01*
X438658Y75692D02*
X438658Y64008D01*
X438658Y75692D02*
X441904Y75692D01*
X442017Y75690D01*
X442130Y75684D01*
X442243Y75674D01*
X442356Y75660D01*
X442468Y75643D01*
X442579Y75621D01*
X442689Y75596D01*
X442799Y75566D01*
X442907Y75533D01*
X443014Y75496D01*
X443120Y75456D01*
X443224Y75411D01*
X443327Y75363D01*
X443428Y75312D01*
X443527Y75257D01*
X443624Y75199D01*
X443719Y75137D01*
X443812Y75072D01*
X443902Y75004D01*
X443990Y74933D01*
X444076Y74858D01*
X444159Y74781D01*
X444239Y74701D01*
X444316Y74618D01*
X444391Y74532D01*
X444462Y74444D01*
X444530Y74354D01*
X444595Y74261D01*
X444657Y74166D01*
X444715Y74069D01*
X444770Y73970D01*
X444821Y73869D01*
X444869Y73766D01*
X444914Y73662D01*
X444954Y73556D01*
X444991Y73449D01*
X445024Y73341D01*
X445054Y73231D01*
X445079Y73121D01*
X445101Y73010D01*
X445118Y72898D01*
X445132Y72785D01*
X445142Y72672D01*
X445148Y72559D01*
X445150Y72446D01*
X445148Y72333D01*
X445142Y72220D01*
X445132Y72107D01*
X445118Y71994D01*
X445101Y71882D01*
X445079Y71771D01*
X445054Y71661D01*
X445024Y71551D01*
X444991Y71443D01*
X444954Y71336D01*
X444914Y71230D01*
X444869Y71126D01*
X444821Y71023D01*
X444770Y70922D01*
X444715Y70823D01*
X444657Y70726D01*
X444595Y70631D01*
X444530Y70538D01*
X444462Y70448D01*
X444391Y70360D01*
X444316Y70274D01*
X444239Y70191D01*
X444159Y70111D01*
X444076Y70034D01*
X443990Y69959D01*
X443902Y69888D01*
X443812Y69820D01*
X443719Y69755D01*
X443624Y69693D01*
X443527Y69635D01*
X443428Y69580D01*
X443327Y69529D01*
X443224Y69481D01*
X443120Y69436D01*
X443014Y69396D01*
X442907Y69359D01*
X442799Y69326D01*
X442689Y69296D01*
X442579Y69271D01*
X442468Y69249D01*
X442356Y69232D01*
X442243Y69218D01*
X442130Y69208D01*
X442017Y69202D01*
X441904Y69200D01*
X441904Y69201D02*
X438658Y69201D01*
X442553Y69201D02*
X445149Y64008D01*
X450014Y66604D02*
X452611Y75692D01*
X450014Y66604D02*
X456505Y66604D01*
X454558Y69201D02*
X454558Y64008D01*
X552958Y64008D02*
X552958Y75692D01*
X556204Y75692D01*
X556317Y75690D01*
X556430Y75684D01*
X556543Y75674D01*
X556656Y75660D01*
X556768Y75643D01*
X556879Y75621D01*
X556989Y75596D01*
X557099Y75566D01*
X557207Y75533D01*
X557314Y75496D01*
X557420Y75456D01*
X557524Y75411D01*
X557627Y75363D01*
X557728Y75312D01*
X557827Y75257D01*
X557924Y75199D01*
X558019Y75137D01*
X558112Y75072D01*
X558202Y75004D01*
X558290Y74933D01*
X558376Y74858D01*
X558459Y74781D01*
X558539Y74701D01*
X558616Y74618D01*
X558691Y74532D01*
X558762Y74444D01*
X558830Y74354D01*
X558895Y74261D01*
X558957Y74166D01*
X559015Y74069D01*
X559070Y73970D01*
X559121Y73869D01*
X559169Y73766D01*
X559214Y73662D01*
X559254Y73556D01*
X559291Y73449D01*
X559324Y73341D01*
X559354Y73231D01*
X559379Y73121D01*
X559401Y73010D01*
X559418Y72898D01*
X559432Y72785D01*
X559442Y72672D01*
X559448Y72559D01*
X559450Y72446D01*
X559448Y72333D01*
X559442Y72220D01*
X559432Y72107D01*
X559418Y71994D01*
X559401Y71882D01*
X559379Y71771D01*
X559354Y71661D01*
X559324Y71551D01*
X559291Y71443D01*
X559254Y71336D01*
X559214Y71230D01*
X559169Y71126D01*
X559121Y71023D01*
X559070Y70922D01*
X559015Y70823D01*
X558957Y70726D01*
X558895Y70631D01*
X558830Y70538D01*
X558762Y70448D01*
X558691Y70360D01*
X558616Y70274D01*
X558539Y70191D01*
X558459Y70111D01*
X558376Y70034D01*
X558290Y69959D01*
X558202Y69888D01*
X558112Y69820D01*
X558019Y69755D01*
X557924Y69693D01*
X557827Y69635D01*
X557728Y69580D01*
X557627Y69529D01*
X557524Y69481D01*
X557420Y69436D01*
X557314Y69396D01*
X557207Y69359D01*
X557099Y69326D01*
X556989Y69296D01*
X556879Y69271D01*
X556768Y69249D01*
X556656Y69232D01*
X556543Y69218D01*
X556430Y69208D01*
X556317Y69202D01*
X556204Y69200D01*
X556204Y69201D02*
X552958Y69201D01*
X556853Y69201D02*
X559449Y64008D01*
X564314Y64008D02*
X568209Y64008D01*
X568308Y64010D01*
X568408Y64016D01*
X568507Y64025D01*
X568605Y64038D01*
X568703Y64055D01*
X568801Y64076D01*
X568897Y64101D01*
X568992Y64129D01*
X569086Y64161D01*
X569179Y64196D01*
X569271Y64235D01*
X569361Y64278D01*
X569449Y64323D01*
X569536Y64373D01*
X569620Y64425D01*
X569703Y64481D01*
X569783Y64539D01*
X569861Y64601D01*
X569936Y64666D01*
X570009Y64734D01*
X570079Y64804D01*
X570147Y64877D01*
X570212Y64952D01*
X570274Y65030D01*
X570332Y65110D01*
X570388Y65193D01*
X570440Y65277D01*
X570490Y65364D01*
X570535Y65452D01*
X570578Y65542D01*
X570617Y65634D01*
X570652Y65727D01*
X570684Y65821D01*
X570712Y65916D01*
X570737Y66012D01*
X570758Y66110D01*
X570775Y66208D01*
X570788Y66306D01*
X570797Y66405D01*
X570803Y66505D01*
X570805Y66604D01*
X570805Y67903D01*
X570803Y68002D01*
X570797Y68102D01*
X570788Y68201D01*
X570775Y68299D01*
X570758Y68397D01*
X570737Y68495D01*
X570712Y68591D01*
X570684Y68686D01*
X570652Y68780D01*
X570617Y68873D01*
X570578Y68965D01*
X570535Y69055D01*
X570490Y69143D01*
X570440Y69230D01*
X570388Y69314D01*
X570332Y69397D01*
X570274Y69477D01*
X570212Y69555D01*
X570147Y69630D01*
X570079Y69703D01*
X570009Y69773D01*
X569936Y69841D01*
X569861Y69906D01*
X569783Y69968D01*
X569703Y70026D01*
X569620Y70082D01*
X569536Y70134D01*
X569449Y70184D01*
X569361Y70229D01*
X569271Y70272D01*
X569179Y70311D01*
X569086Y70346D01*
X568992Y70378D01*
X568897Y70406D01*
X568801Y70431D01*
X568703Y70452D01*
X568605Y70469D01*
X568507Y70482D01*
X568408Y70491D01*
X568308Y70497D01*
X568209Y70499D01*
X564314Y70499D01*
X564314Y75692D01*
X570805Y75692D01*
X667258Y75692D02*
X667258Y64008D01*
X667258Y75692D02*
X670504Y75692D01*
X670617Y75690D01*
X670730Y75684D01*
X670843Y75674D01*
X670956Y75660D01*
X671068Y75643D01*
X671179Y75621D01*
X671289Y75596D01*
X671399Y75566D01*
X671507Y75533D01*
X671614Y75496D01*
X671720Y75456D01*
X671824Y75411D01*
X671927Y75363D01*
X672028Y75312D01*
X672127Y75257D01*
X672224Y75199D01*
X672319Y75137D01*
X672412Y75072D01*
X672502Y75004D01*
X672590Y74933D01*
X672676Y74858D01*
X672759Y74781D01*
X672839Y74701D01*
X672916Y74618D01*
X672991Y74532D01*
X673062Y74444D01*
X673130Y74354D01*
X673195Y74261D01*
X673257Y74166D01*
X673315Y74069D01*
X673370Y73970D01*
X673421Y73869D01*
X673469Y73766D01*
X673514Y73662D01*
X673554Y73556D01*
X673591Y73449D01*
X673624Y73341D01*
X673654Y73231D01*
X673679Y73121D01*
X673701Y73010D01*
X673718Y72898D01*
X673732Y72785D01*
X673742Y72672D01*
X673748Y72559D01*
X673750Y72446D01*
X673748Y72333D01*
X673742Y72220D01*
X673732Y72107D01*
X673718Y71994D01*
X673701Y71882D01*
X673679Y71771D01*
X673654Y71661D01*
X673624Y71551D01*
X673591Y71443D01*
X673554Y71336D01*
X673514Y71230D01*
X673469Y71126D01*
X673421Y71023D01*
X673370Y70922D01*
X673315Y70823D01*
X673257Y70726D01*
X673195Y70631D01*
X673130Y70538D01*
X673062Y70448D01*
X672991Y70360D01*
X672916Y70274D01*
X672839Y70191D01*
X672759Y70111D01*
X672676Y70034D01*
X672590Y69959D01*
X672502Y69888D01*
X672412Y69820D01*
X672319Y69755D01*
X672224Y69693D01*
X672127Y69635D01*
X672028Y69580D01*
X671927Y69529D01*
X671824Y69481D01*
X671720Y69436D01*
X671614Y69396D01*
X671507Y69359D01*
X671399Y69326D01*
X671289Y69296D01*
X671179Y69271D01*
X671068Y69249D01*
X670956Y69232D01*
X670843Y69218D01*
X670730Y69208D01*
X670617Y69202D01*
X670504Y69200D01*
X670504Y69201D02*
X667258Y69201D01*
X671153Y69201D02*
X673749Y64008D01*
X678614Y70499D02*
X682509Y70499D01*
X682608Y70497D01*
X682708Y70491D01*
X682807Y70482D01*
X682905Y70469D01*
X683003Y70452D01*
X683101Y70431D01*
X683197Y70406D01*
X683292Y70378D01*
X683386Y70346D01*
X683479Y70311D01*
X683571Y70272D01*
X683661Y70229D01*
X683749Y70184D01*
X683836Y70134D01*
X683920Y70082D01*
X684003Y70026D01*
X684083Y69968D01*
X684161Y69906D01*
X684236Y69841D01*
X684309Y69773D01*
X684379Y69703D01*
X684447Y69630D01*
X684512Y69555D01*
X684574Y69477D01*
X684632Y69397D01*
X684688Y69314D01*
X684740Y69230D01*
X684790Y69143D01*
X684835Y69055D01*
X684878Y68965D01*
X684917Y68873D01*
X684952Y68780D01*
X684984Y68686D01*
X685012Y68591D01*
X685037Y68495D01*
X685058Y68397D01*
X685075Y68299D01*
X685088Y68201D01*
X685097Y68102D01*
X685103Y68002D01*
X685105Y67903D01*
X685105Y67254D01*
X685106Y67254D02*
X685104Y67141D01*
X685098Y67028D01*
X685088Y66915D01*
X685074Y66802D01*
X685057Y66690D01*
X685035Y66579D01*
X685010Y66469D01*
X684980Y66359D01*
X684947Y66251D01*
X684910Y66144D01*
X684870Y66038D01*
X684825Y65934D01*
X684777Y65831D01*
X684726Y65730D01*
X684671Y65631D01*
X684613Y65534D01*
X684551Y65439D01*
X684486Y65346D01*
X684418Y65256D01*
X684347Y65168D01*
X684272Y65082D01*
X684195Y64999D01*
X684115Y64919D01*
X684032Y64842D01*
X683946Y64767D01*
X683858Y64696D01*
X683768Y64628D01*
X683675Y64563D01*
X683580Y64501D01*
X683483Y64443D01*
X683384Y64388D01*
X683283Y64337D01*
X683180Y64289D01*
X683076Y64244D01*
X682970Y64204D01*
X682863Y64167D01*
X682755Y64134D01*
X682645Y64104D01*
X682535Y64079D01*
X682424Y64057D01*
X682312Y64040D01*
X682199Y64026D01*
X682086Y64016D01*
X681973Y64010D01*
X681860Y64008D01*
X681747Y64010D01*
X681634Y64016D01*
X681521Y64026D01*
X681408Y64040D01*
X681296Y64057D01*
X681185Y64079D01*
X681075Y64104D01*
X680965Y64134D01*
X680857Y64167D01*
X680750Y64204D01*
X680644Y64244D01*
X680540Y64289D01*
X680437Y64337D01*
X680336Y64388D01*
X680237Y64443D01*
X680140Y64501D01*
X680045Y64563D01*
X679952Y64628D01*
X679862Y64696D01*
X679774Y64767D01*
X679688Y64842D01*
X679605Y64919D01*
X679525Y64999D01*
X679448Y65082D01*
X679373Y65168D01*
X679302Y65256D01*
X679234Y65346D01*
X679169Y65439D01*
X679107Y65534D01*
X679049Y65631D01*
X678994Y65730D01*
X678943Y65831D01*
X678895Y65934D01*
X678850Y66038D01*
X678810Y66144D01*
X678773Y66251D01*
X678740Y66359D01*
X678710Y66469D01*
X678685Y66579D01*
X678663Y66690D01*
X678646Y66802D01*
X678632Y66915D01*
X678622Y67028D01*
X678616Y67141D01*
X678614Y67254D01*
X678614Y70499D01*
X678616Y70642D01*
X678622Y70785D01*
X678632Y70928D01*
X678646Y71070D01*
X678663Y71212D01*
X678685Y71354D01*
X678710Y71495D01*
X678740Y71635D01*
X678773Y71774D01*
X678810Y71912D01*
X678851Y72049D01*
X678895Y72185D01*
X678944Y72320D01*
X678996Y72453D01*
X679051Y72585D01*
X679111Y72715D01*
X679174Y72844D01*
X679240Y72971D01*
X679310Y73095D01*
X679383Y73218D01*
X679460Y73339D01*
X679540Y73458D01*
X679623Y73574D01*
X679709Y73689D01*
X679798Y73800D01*
X679891Y73910D01*
X679986Y74016D01*
X680085Y74120D01*
X680186Y74221D01*
X680290Y74320D01*
X680396Y74415D01*
X680506Y74508D01*
X680617Y74597D01*
X680732Y74683D01*
X680848Y74766D01*
X680967Y74846D01*
X681088Y74923D01*
X681210Y74996D01*
X681335Y75066D01*
X681462Y75132D01*
X681591Y75195D01*
X681721Y75255D01*
X681853Y75310D01*
X681986Y75362D01*
X682121Y75411D01*
X682257Y75455D01*
X682394Y75496D01*
X682532Y75533D01*
X682671Y75566D01*
X682811Y75596D01*
X682952Y75621D01*
X683094Y75643D01*
X683236Y75660D01*
X683378Y75674D01*
X683521Y75684D01*
X683664Y75690D01*
X683807Y75692D01*
X768858Y75692D02*
X768858Y64008D01*
X768858Y75692D02*
X772104Y75692D01*
X772217Y75690D01*
X772330Y75684D01*
X772443Y75674D01*
X772556Y75660D01*
X772668Y75643D01*
X772779Y75621D01*
X772889Y75596D01*
X772999Y75566D01*
X773107Y75533D01*
X773214Y75496D01*
X773320Y75456D01*
X773424Y75411D01*
X773527Y75363D01*
X773628Y75312D01*
X773727Y75257D01*
X773824Y75199D01*
X773919Y75137D01*
X774012Y75072D01*
X774102Y75004D01*
X774190Y74933D01*
X774276Y74858D01*
X774359Y74781D01*
X774439Y74701D01*
X774516Y74618D01*
X774591Y74532D01*
X774662Y74444D01*
X774730Y74354D01*
X774795Y74261D01*
X774857Y74166D01*
X774915Y74069D01*
X774970Y73970D01*
X775021Y73869D01*
X775069Y73766D01*
X775114Y73662D01*
X775154Y73556D01*
X775191Y73449D01*
X775224Y73341D01*
X775254Y73231D01*
X775279Y73121D01*
X775301Y73010D01*
X775318Y72898D01*
X775332Y72785D01*
X775342Y72672D01*
X775348Y72559D01*
X775350Y72446D01*
X775348Y72333D01*
X775342Y72220D01*
X775332Y72107D01*
X775318Y71994D01*
X775301Y71882D01*
X775279Y71771D01*
X775254Y71661D01*
X775224Y71551D01*
X775191Y71443D01*
X775154Y71336D01*
X775114Y71230D01*
X775069Y71126D01*
X775021Y71023D01*
X774970Y70922D01*
X774915Y70823D01*
X774857Y70726D01*
X774795Y70631D01*
X774730Y70538D01*
X774662Y70448D01*
X774591Y70360D01*
X774516Y70274D01*
X774439Y70191D01*
X774359Y70111D01*
X774276Y70034D01*
X774190Y69959D01*
X774102Y69888D01*
X774012Y69820D01*
X773919Y69755D01*
X773824Y69693D01*
X773727Y69635D01*
X773628Y69580D01*
X773527Y69529D01*
X773424Y69481D01*
X773320Y69436D01*
X773214Y69396D01*
X773107Y69359D01*
X772999Y69326D01*
X772889Y69296D01*
X772779Y69271D01*
X772668Y69249D01*
X772556Y69232D01*
X772443Y69218D01*
X772330Y69208D01*
X772217Y69202D01*
X772104Y69200D01*
X772104Y69201D02*
X768858Y69201D01*
X772753Y69201D02*
X775349Y64008D01*
X780214Y74394D02*
X780214Y75692D01*
X786705Y75692D01*
X783460Y64008D01*
X870458Y64008D02*
X870458Y75692D01*
X873704Y75692D01*
X873817Y75690D01*
X873930Y75684D01*
X874043Y75674D01*
X874156Y75660D01*
X874268Y75643D01*
X874379Y75621D01*
X874489Y75596D01*
X874599Y75566D01*
X874707Y75533D01*
X874814Y75496D01*
X874920Y75456D01*
X875024Y75411D01*
X875127Y75363D01*
X875228Y75312D01*
X875327Y75257D01*
X875424Y75199D01*
X875519Y75137D01*
X875612Y75072D01*
X875702Y75004D01*
X875790Y74933D01*
X875876Y74858D01*
X875959Y74781D01*
X876039Y74701D01*
X876116Y74618D01*
X876191Y74532D01*
X876262Y74444D01*
X876330Y74354D01*
X876395Y74261D01*
X876457Y74166D01*
X876515Y74069D01*
X876570Y73970D01*
X876621Y73869D01*
X876669Y73766D01*
X876714Y73662D01*
X876754Y73556D01*
X876791Y73449D01*
X876824Y73341D01*
X876854Y73231D01*
X876879Y73121D01*
X876901Y73010D01*
X876918Y72898D01*
X876932Y72785D01*
X876942Y72672D01*
X876948Y72559D01*
X876950Y72446D01*
X876948Y72333D01*
X876942Y72220D01*
X876932Y72107D01*
X876918Y71994D01*
X876901Y71882D01*
X876879Y71771D01*
X876854Y71661D01*
X876824Y71551D01*
X876791Y71443D01*
X876754Y71336D01*
X876714Y71230D01*
X876669Y71126D01*
X876621Y71023D01*
X876570Y70922D01*
X876515Y70823D01*
X876457Y70726D01*
X876395Y70631D01*
X876330Y70538D01*
X876262Y70448D01*
X876191Y70360D01*
X876116Y70274D01*
X876039Y70191D01*
X875959Y70111D01*
X875876Y70034D01*
X875790Y69959D01*
X875702Y69888D01*
X875612Y69820D01*
X875519Y69755D01*
X875424Y69693D01*
X875327Y69635D01*
X875228Y69580D01*
X875127Y69529D01*
X875024Y69481D01*
X874920Y69436D01*
X874814Y69396D01*
X874707Y69359D01*
X874599Y69326D01*
X874489Y69296D01*
X874379Y69271D01*
X874268Y69249D01*
X874156Y69232D01*
X874043Y69218D01*
X873930Y69208D01*
X873817Y69202D01*
X873704Y69200D01*
X873704Y69201D02*
X870458Y69201D01*
X874353Y69201D02*
X876949Y64008D01*
X881814Y67254D02*
X881816Y67367D01*
X881822Y67480D01*
X881832Y67593D01*
X881846Y67706D01*
X881863Y67818D01*
X881885Y67929D01*
X881910Y68039D01*
X881940Y68149D01*
X881973Y68257D01*
X882010Y68364D01*
X882050Y68470D01*
X882095Y68574D01*
X882143Y68677D01*
X882194Y68778D01*
X882249Y68877D01*
X882307Y68974D01*
X882369Y69069D01*
X882434Y69162D01*
X882502Y69252D01*
X882573Y69340D01*
X882648Y69426D01*
X882725Y69509D01*
X882805Y69589D01*
X882888Y69666D01*
X882974Y69741D01*
X883062Y69812D01*
X883152Y69880D01*
X883245Y69945D01*
X883340Y70007D01*
X883437Y70065D01*
X883536Y70120D01*
X883637Y70171D01*
X883740Y70219D01*
X883844Y70264D01*
X883950Y70304D01*
X884057Y70341D01*
X884165Y70374D01*
X884275Y70404D01*
X884385Y70429D01*
X884496Y70451D01*
X884608Y70468D01*
X884721Y70482D01*
X884834Y70492D01*
X884947Y70498D01*
X885060Y70500D01*
X885173Y70498D01*
X885286Y70492D01*
X885399Y70482D01*
X885512Y70468D01*
X885624Y70451D01*
X885735Y70429D01*
X885845Y70404D01*
X885955Y70374D01*
X886063Y70341D01*
X886170Y70304D01*
X886276Y70264D01*
X886380Y70219D01*
X886483Y70171D01*
X886584Y70120D01*
X886683Y70065D01*
X886780Y70007D01*
X886875Y69945D01*
X886968Y69880D01*
X887058Y69812D01*
X887146Y69741D01*
X887232Y69666D01*
X887315Y69589D01*
X887395Y69509D01*
X887472Y69426D01*
X887547Y69340D01*
X887618Y69252D01*
X887686Y69162D01*
X887751Y69069D01*
X887813Y68974D01*
X887871Y68877D01*
X887926Y68778D01*
X887977Y68677D01*
X888025Y68574D01*
X888070Y68470D01*
X888110Y68364D01*
X888147Y68257D01*
X888180Y68149D01*
X888210Y68039D01*
X888235Y67929D01*
X888257Y67818D01*
X888274Y67706D01*
X888288Y67593D01*
X888298Y67480D01*
X888304Y67367D01*
X888306Y67254D01*
X888304Y67141D01*
X888298Y67028D01*
X888288Y66915D01*
X888274Y66802D01*
X888257Y66690D01*
X888235Y66579D01*
X888210Y66469D01*
X888180Y66359D01*
X888147Y66251D01*
X888110Y66144D01*
X888070Y66038D01*
X888025Y65934D01*
X887977Y65831D01*
X887926Y65730D01*
X887871Y65631D01*
X887813Y65534D01*
X887751Y65439D01*
X887686Y65346D01*
X887618Y65256D01*
X887547Y65168D01*
X887472Y65082D01*
X887395Y64999D01*
X887315Y64919D01*
X887232Y64842D01*
X887146Y64767D01*
X887058Y64696D01*
X886968Y64628D01*
X886875Y64563D01*
X886780Y64501D01*
X886683Y64443D01*
X886584Y64388D01*
X886483Y64337D01*
X886380Y64289D01*
X886276Y64244D01*
X886170Y64204D01*
X886063Y64167D01*
X885955Y64134D01*
X885845Y64104D01*
X885735Y64079D01*
X885624Y64057D01*
X885512Y64040D01*
X885399Y64026D01*
X885286Y64016D01*
X885173Y64010D01*
X885060Y64008D01*
X884947Y64010D01*
X884834Y64016D01*
X884721Y64026D01*
X884608Y64040D01*
X884496Y64057D01*
X884385Y64079D01*
X884275Y64104D01*
X884165Y64134D01*
X884057Y64167D01*
X883950Y64204D01*
X883844Y64244D01*
X883740Y64289D01*
X883637Y64337D01*
X883536Y64388D01*
X883437Y64443D01*
X883340Y64501D01*
X883245Y64563D01*
X883152Y64628D01*
X883062Y64696D01*
X882974Y64767D01*
X882888Y64842D01*
X882805Y64919D01*
X882725Y64999D01*
X882648Y65082D01*
X882573Y65168D01*
X882502Y65256D01*
X882434Y65346D01*
X882369Y65439D01*
X882307Y65534D01*
X882249Y65631D01*
X882194Y65730D01*
X882143Y65831D01*
X882095Y65934D01*
X882050Y66038D01*
X882010Y66144D01*
X881973Y66251D01*
X881940Y66359D01*
X881910Y66469D01*
X881885Y66579D01*
X881863Y66690D01*
X881846Y66802D01*
X881832Y66915D01*
X881822Y67028D01*
X881816Y67141D01*
X881814Y67254D01*
X882464Y73096D02*
X882466Y73197D01*
X882472Y73297D01*
X882482Y73397D01*
X882495Y73497D01*
X882513Y73596D01*
X882534Y73695D01*
X882559Y73792D01*
X882588Y73889D01*
X882621Y73984D01*
X882657Y74078D01*
X882697Y74170D01*
X882740Y74261D01*
X882787Y74350D01*
X882837Y74437D01*
X882891Y74523D01*
X882948Y74606D01*
X883008Y74686D01*
X883071Y74765D01*
X883138Y74841D01*
X883207Y74914D01*
X883279Y74984D01*
X883353Y75052D01*
X883430Y75117D01*
X883510Y75178D01*
X883592Y75237D01*
X883676Y75292D01*
X883762Y75344D01*
X883850Y75393D01*
X883940Y75438D01*
X884032Y75480D01*
X884125Y75518D01*
X884220Y75552D01*
X884315Y75583D01*
X884412Y75610D01*
X884510Y75633D01*
X884609Y75653D01*
X884709Y75668D01*
X884809Y75680D01*
X884909Y75688D01*
X885010Y75692D01*
X885110Y75692D01*
X885211Y75688D01*
X885311Y75680D01*
X885411Y75668D01*
X885511Y75653D01*
X885610Y75633D01*
X885708Y75610D01*
X885805Y75583D01*
X885900Y75552D01*
X885995Y75518D01*
X886088Y75480D01*
X886180Y75438D01*
X886270Y75393D01*
X886358Y75344D01*
X886444Y75292D01*
X886528Y75237D01*
X886610Y75178D01*
X886690Y75117D01*
X886767Y75052D01*
X886841Y74984D01*
X886913Y74914D01*
X886982Y74841D01*
X887049Y74765D01*
X887112Y74686D01*
X887172Y74606D01*
X887229Y74523D01*
X887283Y74437D01*
X887333Y74350D01*
X887380Y74261D01*
X887423Y74170D01*
X887463Y74078D01*
X887499Y73984D01*
X887532Y73889D01*
X887561Y73792D01*
X887586Y73695D01*
X887607Y73596D01*
X887625Y73497D01*
X887638Y73397D01*
X887648Y73297D01*
X887654Y73197D01*
X887656Y73096D01*
X887654Y72995D01*
X887648Y72895D01*
X887638Y72795D01*
X887625Y72695D01*
X887607Y72596D01*
X887586Y72497D01*
X887561Y72400D01*
X887532Y72303D01*
X887499Y72208D01*
X887463Y72114D01*
X887423Y72022D01*
X887380Y71931D01*
X887333Y71842D01*
X887283Y71755D01*
X887229Y71669D01*
X887172Y71586D01*
X887112Y71506D01*
X887049Y71427D01*
X886982Y71351D01*
X886913Y71278D01*
X886841Y71208D01*
X886767Y71140D01*
X886690Y71075D01*
X886610Y71014D01*
X886528Y70955D01*
X886444Y70900D01*
X886358Y70848D01*
X886270Y70799D01*
X886180Y70754D01*
X886088Y70712D01*
X885995Y70674D01*
X885900Y70640D01*
X885805Y70609D01*
X885708Y70582D01*
X885610Y70559D01*
X885511Y70539D01*
X885411Y70524D01*
X885311Y70512D01*
X885211Y70504D01*
X885110Y70500D01*
X885010Y70500D01*
X884909Y70504D01*
X884809Y70512D01*
X884709Y70524D01*
X884609Y70539D01*
X884510Y70559D01*
X884412Y70582D01*
X884315Y70609D01*
X884220Y70640D01*
X884125Y70674D01*
X884032Y70712D01*
X883940Y70754D01*
X883850Y70799D01*
X883762Y70848D01*
X883676Y70900D01*
X883592Y70955D01*
X883510Y71014D01*
X883430Y71075D01*
X883353Y71140D01*
X883279Y71208D01*
X883207Y71278D01*
X883138Y71351D01*
X883071Y71427D01*
X883008Y71506D01*
X882948Y71586D01*
X882891Y71669D01*
X882837Y71755D01*
X882787Y71842D01*
X882740Y71931D01*
X882697Y72022D01*
X882657Y72114D01*
X882621Y72208D01*
X882588Y72303D01*
X882559Y72400D01*
X882534Y72497D01*
X882513Y72596D01*
X882495Y72695D01*
X882482Y72795D01*
X882472Y72895D01*
X882466Y72995D01*
X882464Y73096D01*
D12*
X131600Y144300D02*
X71600Y144300D01*
X71600Y84300D01*
X131600Y84300D01*
X131600Y144300D01*
X84100Y114300D02*
X84105Y114729D01*
X84121Y115159D01*
X84147Y115587D01*
X84184Y116015D01*
X84232Y116442D01*
X84289Y116868D01*
X84358Y117292D01*
X84436Y117714D01*
X84525Y118134D01*
X84624Y118552D01*
X84734Y118967D01*
X84854Y119380D01*
X84983Y119789D01*
X85123Y120196D01*
X85273Y120598D01*
X85432Y120997D01*
X85601Y121392D01*
X85780Y121782D01*
X85969Y122168D01*
X86166Y122549D01*
X86373Y122926D01*
X86590Y123297D01*
X86815Y123662D01*
X87049Y124022D01*
X87292Y124377D01*
X87544Y124725D01*
X87804Y125067D01*
X88072Y125402D01*
X88349Y125731D01*
X88633Y126052D01*
X88926Y126367D01*
X89226Y126674D01*
X89533Y126974D01*
X89848Y127267D01*
X90169Y127551D01*
X90498Y127828D01*
X90833Y128096D01*
X91175Y128356D01*
X91523Y128608D01*
X91878Y128851D01*
X92238Y129085D01*
X92603Y129310D01*
X92974Y129527D01*
X93351Y129734D01*
X93732Y129931D01*
X94118Y130120D01*
X94508Y130299D01*
X94903Y130468D01*
X95302Y130627D01*
X95704Y130777D01*
X96111Y130917D01*
X96520Y131046D01*
X96933Y131166D01*
X97348Y131276D01*
X97766Y131375D01*
X98186Y131464D01*
X98608Y131542D01*
X99032Y131611D01*
X99458Y131668D01*
X99885Y131716D01*
X100313Y131753D01*
X100741Y131779D01*
X101171Y131795D01*
X101600Y131800D01*
X102029Y131795D01*
X102459Y131779D01*
X102887Y131753D01*
X103315Y131716D01*
X103742Y131668D01*
X104168Y131611D01*
X104592Y131542D01*
X105014Y131464D01*
X105434Y131375D01*
X105852Y131276D01*
X106267Y131166D01*
X106680Y131046D01*
X107089Y130917D01*
X107496Y130777D01*
X107898Y130627D01*
X108297Y130468D01*
X108692Y130299D01*
X109082Y130120D01*
X109468Y129931D01*
X109849Y129734D01*
X110226Y129527D01*
X110597Y129310D01*
X110962Y129085D01*
X111322Y128851D01*
X111677Y128608D01*
X112025Y128356D01*
X112367Y128096D01*
X112702Y127828D01*
X113031Y127551D01*
X113352Y127267D01*
X113667Y126974D01*
X113974Y126674D01*
X114274Y126367D01*
X114567Y126052D01*
X114851Y125731D01*
X115128Y125402D01*
X115396Y125067D01*
X115656Y124725D01*
X115908Y124377D01*
X116151Y124022D01*
X116385Y123662D01*
X116610Y123297D01*
X116827Y122926D01*
X117034Y122549D01*
X117231Y122168D01*
X117420Y121782D01*
X117599Y121392D01*
X117768Y120997D01*
X117927Y120598D01*
X118077Y120196D01*
X118217Y119789D01*
X118346Y119380D01*
X118466Y118967D01*
X118576Y118552D01*
X118675Y118134D01*
X118764Y117714D01*
X118842Y117292D01*
X118911Y116868D01*
X118968Y116442D01*
X119016Y116015D01*
X119053Y115587D01*
X119079Y115159D01*
X119095Y114729D01*
X119100Y114300D01*
X119095Y113871D01*
X119079Y113441D01*
X119053Y113013D01*
X119016Y112585D01*
X118968Y112158D01*
X118911Y111732D01*
X118842Y111308D01*
X118764Y110886D01*
X118675Y110466D01*
X118576Y110048D01*
X118466Y109633D01*
X118346Y109220D01*
X118217Y108811D01*
X118077Y108404D01*
X117927Y108002D01*
X117768Y107603D01*
X117599Y107208D01*
X117420Y106818D01*
X117231Y106432D01*
X117034Y106051D01*
X116827Y105674D01*
X116610Y105303D01*
X116385Y104938D01*
X116151Y104578D01*
X115908Y104223D01*
X115656Y103875D01*
X115396Y103533D01*
X115128Y103198D01*
X114851Y102869D01*
X114567Y102548D01*
X114274Y102233D01*
X113974Y101926D01*
X113667Y101626D01*
X113352Y101333D01*
X113031Y101049D01*
X112702Y100772D01*
X112367Y100504D01*
X112025Y100244D01*
X111677Y99992D01*
X111322Y99749D01*
X110962Y99515D01*
X110597Y99290D01*
X110226Y99073D01*
X109849Y98866D01*
X109468Y98669D01*
X109082Y98480D01*
X108692Y98301D01*
X108297Y98132D01*
X107898Y97973D01*
X107496Y97823D01*
X107089Y97683D01*
X106680Y97554D01*
X106267Y97434D01*
X105852Y97324D01*
X105434Y97225D01*
X105014Y97136D01*
X104592Y97058D01*
X104168Y96989D01*
X103742Y96932D01*
X103315Y96884D01*
X102887Y96847D01*
X102459Y96821D01*
X102029Y96805D01*
X101600Y96800D01*
X101171Y96805D01*
X100741Y96821D01*
X100313Y96847D01*
X99885Y96884D01*
X99458Y96932D01*
X99032Y96989D01*
X98608Y97058D01*
X98186Y97136D01*
X97766Y97225D01*
X97348Y97324D01*
X96933Y97434D01*
X96520Y97554D01*
X96111Y97683D01*
X95704Y97823D01*
X95302Y97973D01*
X94903Y98132D01*
X94508Y98301D01*
X94118Y98480D01*
X93732Y98669D01*
X93351Y98866D01*
X92974Y99073D01*
X92603Y99290D01*
X92238Y99515D01*
X91878Y99749D01*
X91523Y99992D01*
X91175Y100244D01*
X90833Y100504D01*
X90498Y100772D01*
X90169Y101049D01*
X89848Y101333D01*
X89533Y101626D01*
X89226Y101926D01*
X88926Y102233D01*
X88633Y102548D01*
X88349Y102869D01*
X88072Y103198D01*
X87804Y103533D01*
X87544Y103875D01*
X87292Y104223D01*
X87049Y104578D01*
X86815Y104938D01*
X86590Y105303D01*
X86373Y105674D01*
X86166Y106051D01*
X85969Y106432D01*
X85780Y106818D01*
X85601Y107208D01*
X85432Y107603D01*
X85273Y108002D01*
X85123Y108404D01*
X84983Y108811D01*
X84854Y109220D01*
X84734Y109633D01*
X84624Y110048D01*
X84525Y110466D01*
X84436Y110886D01*
X84358Y111308D01*
X84289Y111732D01*
X84232Y112158D01*
X84184Y112585D01*
X84147Y113013D01*
X84121Y113441D01*
X84105Y113871D01*
X84100Y114300D01*
D13*
X96814Y78161D02*
X96812Y78096D01*
X96806Y78032D01*
X96796Y77968D01*
X96783Y77904D01*
X96765Y77842D01*
X96744Y77781D01*
X96720Y77721D01*
X96691Y77663D01*
X96659Y77606D01*
X96624Y77552D01*
X96586Y77500D01*
X96544Y77450D01*
X96500Y77403D01*
X96453Y77359D01*
X96403Y77317D01*
X96351Y77279D01*
X96297Y77244D01*
X96240Y77212D01*
X96182Y77183D01*
X96122Y77159D01*
X96061Y77138D01*
X95999Y77120D01*
X95935Y77107D01*
X95871Y77097D01*
X95807Y77091D01*
X95742Y77089D01*
X95648Y77091D01*
X95554Y77097D01*
X95460Y77107D01*
X95367Y77120D01*
X95275Y77138D01*
X95183Y77159D01*
X95092Y77184D01*
X95002Y77213D01*
X94914Y77246D01*
X94827Y77282D01*
X94742Y77322D01*
X94658Y77365D01*
X94577Y77412D01*
X94497Y77462D01*
X94419Y77515D01*
X94344Y77572D01*
X94271Y77631D01*
X94201Y77694D01*
X94133Y77759D01*
X94267Y80843D02*
X94269Y80908D01*
X94275Y80972D01*
X94285Y81036D01*
X94298Y81100D01*
X94316Y81162D01*
X94337Y81223D01*
X94361Y81283D01*
X94390Y81341D01*
X94422Y81398D01*
X94457Y81452D01*
X94495Y81504D01*
X94537Y81554D01*
X94581Y81601D01*
X94628Y81645D01*
X94678Y81687D01*
X94730Y81725D01*
X94784Y81760D01*
X94841Y81792D01*
X94899Y81821D01*
X94959Y81845D01*
X95020Y81866D01*
X95082Y81884D01*
X95146Y81897D01*
X95210Y81907D01*
X95274Y81913D01*
X95339Y81915D01*
X95425Y81913D01*
X95511Y81908D01*
X95597Y81898D01*
X95682Y81885D01*
X95767Y81869D01*
X95851Y81849D01*
X95934Y81825D01*
X96016Y81798D01*
X96096Y81767D01*
X96176Y81733D01*
X96253Y81695D01*
X96329Y81654D01*
X96403Y81610D01*
X96475Y81563D01*
X96546Y81513D01*
X94803Y79905D02*
X94750Y79938D01*
X94699Y79975D01*
X94650Y80014D01*
X94603Y80056D01*
X94559Y80101D01*
X94518Y80148D01*
X94479Y80197D01*
X94443Y80249D01*
X94410Y80303D01*
X94381Y80358D01*
X94355Y80415D01*
X94332Y80474D01*
X94312Y80533D01*
X94296Y80594D01*
X94283Y80655D01*
X94274Y80718D01*
X94269Y80780D01*
X94267Y80843D01*
X96278Y79099D02*
X96331Y79066D01*
X96382Y79029D01*
X96431Y78990D01*
X96478Y78948D01*
X96522Y78903D01*
X96563Y78856D01*
X96602Y78807D01*
X96638Y78755D01*
X96671Y78701D01*
X96700Y78646D01*
X96726Y78589D01*
X96749Y78530D01*
X96769Y78471D01*
X96785Y78410D01*
X96798Y78349D01*
X96807Y78286D01*
X96812Y78224D01*
X96814Y78161D01*
X96278Y79100D02*
X94803Y79904D01*
X99364Y81915D02*
X100436Y77089D01*
X101509Y80306D01*
X102581Y77089D01*
X103653Y81915D01*
X106386Y80843D02*
X107726Y81915D01*
X107726Y77089D01*
X106386Y77089D02*
X109067Y77089D01*
D12*
X185900Y144300D02*
X245900Y144300D01*
X185900Y144300D02*
X185900Y84300D01*
X245900Y84300D01*
X245900Y144300D01*
X198400Y114300D02*
X198405Y114729D01*
X198421Y115159D01*
X198447Y115587D01*
X198484Y116015D01*
X198532Y116442D01*
X198589Y116868D01*
X198658Y117292D01*
X198736Y117714D01*
X198825Y118134D01*
X198924Y118552D01*
X199034Y118967D01*
X199154Y119380D01*
X199283Y119789D01*
X199423Y120196D01*
X199573Y120598D01*
X199732Y120997D01*
X199901Y121392D01*
X200080Y121782D01*
X200269Y122168D01*
X200466Y122549D01*
X200673Y122926D01*
X200890Y123297D01*
X201115Y123662D01*
X201349Y124022D01*
X201592Y124377D01*
X201844Y124725D01*
X202104Y125067D01*
X202372Y125402D01*
X202649Y125731D01*
X202933Y126052D01*
X203226Y126367D01*
X203526Y126674D01*
X203833Y126974D01*
X204148Y127267D01*
X204469Y127551D01*
X204798Y127828D01*
X205133Y128096D01*
X205475Y128356D01*
X205823Y128608D01*
X206178Y128851D01*
X206538Y129085D01*
X206903Y129310D01*
X207274Y129527D01*
X207651Y129734D01*
X208032Y129931D01*
X208418Y130120D01*
X208808Y130299D01*
X209203Y130468D01*
X209602Y130627D01*
X210004Y130777D01*
X210411Y130917D01*
X210820Y131046D01*
X211233Y131166D01*
X211648Y131276D01*
X212066Y131375D01*
X212486Y131464D01*
X212908Y131542D01*
X213332Y131611D01*
X213758Y131668D01*
X214185Y131716D01*
X214613Y131753D01*
X215041Y131779D01*
X215471Y131795D01*
X215900Y131800D01*
X216329Y131795D01*
X216759Y131779D01*
X217187Y131753D01*
X217615Y131716D01*
X218042Y131668D01*
X218468Y131611D01*
X218892Y131542D01*
X219314Y131464D01*
X219734Y131375D01*
X220152Y131276D01*
X220567Y131166D01*
X220980Y131046D01*
X221389Y130917D01*
X221796Y130777D01*
X222198Y130627D01*
X222597Y130468D01*
X222992Y130299D01*
X223382Y130120D01*
X223768Y129931D01*
X224149Y129734D01*
X224526Y129527D01*
X224897Y129310D01*
X225262Y129085D01*
X225622Y128851D01*
X225977Y128608D01*
X226325Y128356D01*
X226667Y128096D01*
X227002Y127828D01*
X227331Y127551D01*
X227652Y127267D01*
X227967Y126974D01*
X228274Y126674D01*
X228574Y126367D01*
X228867Y126052D01*
X229151Y125731D01*
X229428Y125402D01*
X229696Y125067D01*
X229956Y124725D01*
X230208Y124377D01*
X230451Y124022D01*
X230685Y123662D01*
X230910Y123297D01*
X231127Y122926D01*
X231334Y122549D01*
X231531Y122168D01*
X231720Y121782D01*
X231899Y121392D01*
X232068Y120997D01*
X232227Y120598D01*
X232377Y120196D01*
X232517Y119789D01*
X232646Y119380D01*
X232766Y118967D01*
X232876Y118552D01*
X232975Y118134D01*
X233064Y117714D01*
X233142Y117292D01*
X233211Y116868D01*
X233268Y116442D01*
X233316Y116015D01*
X233353Y115587D01*
X233379Y115159D01*
X233395Y114729D01*
X233400Y114300D01*
X233395Y113871D01*
X233379Y113441D01*
X233353Y113013D01*
X233316Y112585D01*
X233268Y112158D01*
X233211Y111732D01*
X233142Y111308D01*
X233064Y110886D01*
X232975Y110466D01*
X232876Y110048D01*
X232766Y109633D01*
X232646Y109220D01*
X232517Y108811D01*
X232377Y108404D01*
X232227Y108002D01*
X232068Y107603D01*
X231899Y107208D01*
X231720Y106818D01*
X231531Y106432D01*
X231334Y106051D01*
X231127Y105674D01*
X230910Y105303D01*
X230685Y104938D01*
X230451Y104578D01*
X230208Y104223D01*
X229956Y103875D01*
X229696Y103533D01*
X229428Y103198D01*
X229151Y102869D01*
X228867Y102548D01*
X228574Y102233D01*
X228274Y101926D01*
X227967Y101626D01*
X227652Y101333D01*
X227331Y101049D01*
X227002Y100772D01*
X226667Y100504D01*
X226325Y100244D01*
X225977Y99992D01*
X225622Y99749D01*
X225262Y99515D01*
X224897Y99290D01*
X224526Y99073D01*
X224149Y98866D01*
X223768Y98669D01*
X223382Y98480D01*
X222992Y98301D01*
X222597Y98132D01*
X222198Y97973D01*
X221796Y97823D01*
X221389Y97683D01*
X220980Y97554D01*
X220567Y97434D01*
X220152Y97324D01*
X219734Y97225D01*
X219314Y97136D01*
X218892Y97058D01*
X218468Y96989D01*
X218042Y96932D01*
X217615Y96884D01*
X217187Y96847D01*
X216759Y96821D01*
X216329Y96805D01*
X215900Y96800D01*
X215471Y96805D01*
X215041Y96821D01*
X214613Y96847D01*
X214185Y96884D01*
X213758Y96932D01*
X213332Y96989D01*
X212908Y97058D01*
X212486Y97136D01*
X212066Y97225D01*
X211648Y97324D01*
X211233Y97434D01*
X210820Y97554D01*
X210411Y97683D01*
X210004Y97823D01*
X209602Y97973D01*
X209203Y98132D01*
X208808Y98301D01*
X208418Y98480D01*
X208032Y98669D01*
X207651Y98866D01*
X207274Y99073D01*
X206903Y99290D01*
X206538Y99515D01*
X206178Y99749D01*
X205823Y99992D01*
X205475Y100244D01*
X205133Y100504D01*
X204798Y100772D01*
X204469Y101049D01*
X204148Y101333D01*
X203833Y101626D01*
X203526Y101926D01*
X203226Y102233D01*
X202933Y102548D01*
X202649Y102869D01*
X202372Y103198D01*
X202104Y103533D01*
X201844Y103875D01*
X201592Y104223D01*
X201349Y104578D01*
X201115Y104938D01*
X200890Y105303D01*
X200673Y105674D01*
X200466Y106051D01*
X200269Y106432D01*
X200080Y106818D01*
X199901Y107208D01*
X199732Y107603D01*
X199573Y108002D01*
X199423Y108404D01*
X199283Y108811D01*
X199154Y109220D01*
X199034Y109633D01*
X198924Y110048D01*
X198825Y110466D01*
X198736Y110886D01*
X198658Y111308D01*
X198589Y111732D01*
X198532Y112158D01*
X198484Y112585D01*
X198447Y113013D01*
X198421Y113441D01*
X198405Y113871D01*
X198400Y114300D01*
D13*
X211114Y78161D02*
X211112Y78096D01*
X211106Y78032D01*
X211096Y77968D01*
X211083Y77904D01*
X211065Y77842D01*
X211044Y77781D01*
X211020Y77721D01*
X210991Y77663D01*
X210959Y77606D01*
X210924Y77552D01*
X210886Y77500D01*
X210844Y77450D01*
X210800Y77403D01*
X210753Y77359D01*
X210703Y77317D01*
X210651Y77279D01*
X210597Y77244D01*
X210540Y77212D01*
X210482Y77183D01*
X210422Y77159D01*
X210361Y77138D01*
X210299Y77120D01*
X210235Y77107D01*
X210171Y77097D01*
X210107Y77091D01*
X210042Y77089D01*
X209948Y77091D01*
X209854Y77097D01*
X209760Y77107D01*
X209667Y77120D01*
X209575Y77138D01*
X209483Y77159D01*
X209392Y77184D01*
X209302Y77213D01*
X209214Y77246D01*
X209127Y77282D01*
X209042Y77322D01*
X208958Y77365D01*
X208877Y77412D01*
X208797Y77462D01*
X208719Y77515D01*
X208644Y77572D01*
X208571Y77631D01*
X208501Y77694D01*
X208433Y77759D01*
X208567Y80843D02*
X208569Y80908D01*
X208575Y80972D01*
X208585Y81036D01*
X208598Y81100D01*
X208616Y81162D01*
X208637Y81223D01*
X208661Y81283D01*
X208690Y81341D01*
X208722Y81398D01*
X208757Y81452D01*
X208795Y81504D01*
X208837Y81554D01*
X208881Y81601D01*
X208928Y81645D01*
X208978Y81687D01*
X209030Y81725D01*
X209084Y81760D01*
X209141Y81792D01*
X209199Y81821D01*
X209259Y81845D01*
X209320Y81866D01*
X209382Y81884D01*
X209446Y81897D01*
X209510Y81907D01*
X209574Y81913D01*
X209639Y81915D01*
X209725Y81913D01*
X209811Y81908D01*
X209897Y81898D01*
X209982Y81885D01*
X210067Y81869D01*
X210151Y81849D01*
X210234Y81825D01*
X210316Y81798D01*
X210396Y81767D01*
X210476Y81733D01*
X210553Y81695D01*
X210629Y81654D01*
X210703Y81610D01*
X210775Y81563D01*
X210846Y81513D01*
X209103Y79905D02*
X209050Y79938D01*
X208999Y79975D01*
X208950Y80014D01*
X208903Y80056D01*
X208859Y80101D01*
X208818Y80148D01*
X208779Y80197D01*
X208743Y80249D01*
X208710Y80303D01*
X208681Y80358D01*
X208655Y80415D01*
X208632Y80474D01*
X208612Y80533D01*
X208596Y80594D01*
X208583Y80655D01*
X208574Y80718D01*
X208569Y80780D01*
X208567Y80843D01*
X210578Y79099D02*
X210631Y79066D01*
X210682Y79029D01*
X210731Y78990D01*
X210778Y78948D01*
X210822Y78903D01*
X210863Y78856D01*
X210902Y78807D01*
X210938Y78755D01*
X210971Y78701D01*
X211000Y78646D01*
X211026Y78589D01*
X211049Y78530D01*
X211069Y78471D01*
X211085Y78410D01*
X211098Y78349D01*
X211107Y78286D01*
X211112Y78224D01*
X211114Y78161D01*
X210578Y79100D02*
X209103Y79904D01*
X213664Y81915D02*
X214736Y77089D01*
X215809Y80306D01*
X216881Y77089D01*
X217953Y81915D01*
X222161Y81915D02*
X222229Y81913D01*
X222296Y81907D01*
X222363Y81898D01*
X222430Y81885D01*
X222495Y81868D01*
X222560Y81847D01*
X222623Y81823D01*
X222685Y81795D01*
X222745Y81764D01*
X222803Y81730D01*
X222859Y81692D01*
X222914Y81652D01*
X222965Y81608D01*
X223014Y81561D01*
X223061Y81512D01*
X223105Y81461D01*
X223145Y81406D01*
X223183Y81350D01*
X223217Y81292D01*
X223248Y81232D01*
X223276Y81170D01*
X223300Y81107D01*
X223321Y81042D01*
X223338Y80977D01*
X223351Y80910D01*
X223360Y80843D01*
X223366Y80776D01*
X223368Y80708D01*
X222161Y81915D02*
X222083Y81913D01*
X222005Y81907D01*
X221928Y81897D01*
X221851Y81884D01*
X221775Y81866D01*
X221700Y81845D01*
X221626Y81820D01*
X221554Y81791D01*
X221483Y81759D01*
X221414Y81723D01*
X221346Y81684D01*
X221281Y81641D01*
X221218Y81595D01*
X221157Y81546D01*
X221099Y81494D01*
X221044Y81439D01*
X220991Y81382D01*
X220942Y81322D01*
X220895Y81259D01*
X220852Y81195D01*
X220812Y81128D01*
X220775Y81059D01*
X220742Y80988D01*
X220712Y80916D01*
X220686Y80843D01*
X222965Y79770D02*
X223014Y79819D01*
X223061Y79871D01*
X223104Y79926D01*
X223145Y79983D01*
X223183Y80042D01*
X223217Y80103D01*
X223248Y80166D01*
X223276Y80230D01*
X223300Y80296D01*
X223320Y80362D01*
X223337Y80430D01*
X223350Y80499D01*
X223359Y80568D01*
X223365Y80638D01*
X223367Y80708D01*
X222965Y79770D02*
X220686Y77089D01*
X223367Y77089D01*
D12*
X300200Y144300D02*
X360200Y144300D01*
X300200Y144300D02*
X300200Y84300D01*
X360200Y84300D01*
X360200Y144300D01*
X312700Y114300D02*
X312705Y114729D01*
X312721Y115159D01*
X312747Y115587D01*
X312784Y116015D01*
X312832Y116442D01*
X312889Y116868D01*
X312958Y117292D01*
X313036Y117714D01*
X313125Y118134D01*
X313224Y118552D01*
X313334Y118967D01*
X313454Y119380D01*
X313583Y119789D01*
X313723Y120196D01*
X313873Y120598D01*
X314032Y120997D01*
X314201Y121392D01*
X314380Y121782D01*
X314569Y122168D01*
X314766Y122549D01*
X314973Y122926D01*
X315190Y123297D01*
X315415Y123662D01*
X315649Y124022D01*
X315892Y124377D01*
X316144Y124725D01*
X316404Y125067D01*
X316672Y125402D01*
X316949Y125731D01*
X317233Y126052D01*
X317526Y126367D01*
X317826Y126674D01*
X318133Y126974D01*
X318448Y127267D01*
X318769Y127551D01*
X319098Y127828D01*
X319433Y128096D01*
X319775Y128356D01*
X320123Y128608D01*
X320478Y128851D01*
X320838Y129085D01*
X321203Y129310D01*
X321574Y129527D01*
X321951Y129734D01*
X322332Y129931D01*
X322718Y130120D01*
X323108Y130299D01*
X323503Y130468D01*
X323902Y130627D01*
X324304Y130777D01*
X324711Y130917D01*
X325120Y131046D01*
X325533Y131166D01*
X325948Y131276D01*
X326366Y131375D01*
X326786Y131464D01*
X327208Y131542D01*
X327632Y131611D01*
X328058Y131668D01*
X328485Y131716D01*
X328913Y131753D01*
X329341Y131779D01*
X329771Y131795D01*
X330200Y131800D01*
X330629Y131795D01*
X331059Y131779D01*
X331487Y131753D01*
X331915Y131716D01*
X332342Y131668D01*
X332768Y131611D01*
X333192Y131542D01*
X333614Y131464D01*
X334034Y131375D01*
X334452Y131276D01*
X334867Y131166D01*
X335280Y131046D01*
X335689Y130917D01*
X336096Y130777D01*
X336498Y130627D01*
X336897Y130468D01*
X337292Y130299D01*
X337682Y130120D01*
X338068Y129931D01*
X338449Y129734D01*
X338826Y129527D01*
X339197Y129310D01*
X339562Y129085D01*
X339922Y128851D01*
X340277Y128608D01*
X340625Y128356D01*
X340967Y128096D01*
X341302Y127828D01*
X341631Y127551D01*
X341952Y127267D01*
X342267Y126974D01*
X342574Y126674D01*
X342874Y126367D01*
X343167Y126052D01*
X343451Y125731D01*
X343728Y125402D01*
X343996Y125067D01*
X344256Y124725D01*
X344508Y124377D01*
X344751Y124022D01*
X344985Y123662D01*
X345210Y123297D01*
X345427Y122926D01*
X345634Y122549D01*
X345831Y122168D01*
X346020Y121782D01*
X346199Y121392D01*
X346368Y120997D01*
X346527Y120598D01*
X346677Y120196D01*
X346817Y119789D01*
X346946Y119380D01*
X347066Y118967D01*
X347176Y118552D01*
X347275Y118134D01*
X347364Y117714D01*
X347442Y117292D01*
X347511Y116868D01*
X347568Y116442D01*
X347616Y116015D01*
X347653Y115587D01*
X347679Y115159D01*
X347695Y114729D01*
X347700Y114300D01*
X347695Y113871D01*
X347679Y113441D01*
X347653Y113013D01*
X347616Y112585D01*
X347568Y112158D01*
X347511Y111732D01*
X347442Y111308D01*
X347364Y110886D01*
X347275Y110466D01*
X347176Y110048D01*
X347066Y109633D01*
X346946Y109220D01*
X346817Y108811D01*
X346677Y108404D01*
X346527Y108002D01*
X346368Y107603D01*
X346199Y107208D01*
X346020Y106818D01*
X345831Y106432D01*
X345634Y106051D01*
X345427Y105674D01*
X345210Y105303D01*
X344985Y104938D01*
X344751Y104578D01*
X344508Y104223D01*
X344256Y103875D01*
X343996Y103533D01*
X343728Y103198D01*
X343451Y102869D01*
X343167Y102548D01*
X342874Y102233D01*
X342574Y101926D01*
X342267Y101626D01*
X341952Y101333D01*
X341631Y101049D01*
X341302Y100772D01*
X340967Y100504D01*
X340625Y100244D01*
X340277Y99992D01*
X339922Y99749D01*
X339562Y99515D01*
X339197Y99290D01*
X338826Y99073D01*
X338449Y98866D01*
X338068Y98669D01*
X337682Y98480D01*
X337292Y98301D01*
X336897Y98132D01*
X336498Y97973D01*
X336096Y97823D01*
X335689Y97683D01*
X335280Y97554D01*
X334867Y97434D01*
X334452Y97324D01*
X334034Y97225D01*
X333614Y97136D01*
X333192Y97058D01*
X332768Y96989D01*
X332342Y96932D01*
X331915Y96884D01*
X331487Y96847D01*
X331059Y96821D01*
X330629Y96805D01*
X330200Y96800D01*
X329771Y96805D01*
X329341Y96821D01*
X328913Y96847D01*
X328485Y96884D01*
X328058Y96932D01*
X327632Y96989D01*
X327208Y97058D01*
X326786Y97136D01*
X326366Y97225D01*
X325948Y97324D01*
X325533Y97434D01*
X325120Y97554D01*
X324711Y97683D01*
X324304Y97823D01*
X323902Y97973D01*
X323503Y98132D01*
X323108Y98301D01*
X322718Y98480D01*
X322332Y98669D01*
X321951Y98866D01*
X321574Y99073D01*
X321203Y99290D01*
X320838Y99515D01*
X320478Y99749D01*
X320123Y99992D01*
X319775Y100244D01*
X319433Y100504D01*
X319098Y100772D01*
X318769Y101049D01*
X318448Y101333D01*
X318133Y101626D01*
X317826Y101926D01*
X317526Y102233D01*
X317233Y102548D01*
X316949Y102869D01*
X316672Y103198D01*
X316404Y103533D01*
X316144Y103875D01*
X315892Y104223D01*
X315649Y104578D01*
X315415Y104938D01*
X315190Y105303D01*
X314973Y105674D01*
X314766Y106051D01*
X314569Y106432D01*
X314380Y106818D01*
X314201Y107208D01*
X314032Y107603D01*
X313873Y108002D01*
X313723Y108404D01*
X313583Y108811D01*
X313454Y109220D01*
X313334Y109633D01*
X313224Y110048D01*
X313125Y110466D01*
X313036Y110886D01*
X312958Y111308D01*
X312889Y111732D01*
X312832Y112158D01*
X312784Y112585D01*
X312747Y113013D01*
X312721Y113441D01*
X312705Y113871D01*
X312700Y114300D01*
D13*
X325414Y78161D02*
X325412Y78096D01*
X325406Y78032D01*
X325396Y77968D01*
X325383Y77904D01*
X325365Y77842D01*
X325344Y77781D01*
X325320Y77721D01*
X325291Y77663D01*
X325259Y77606D01*
X325224Y77552D01*
X325186Y77500D01*
X325144Y77450D01*
X325100Y77403D01*
X325053Y77359D01*
X325003Y77317D01*
X324951Y77279D01*
X324897Y77244D01*
X324840Y77212D01*
X324782Y77183D01*
X324722Y77159D01*
X324661Y77138D01*
X324599Y77120D01*
X324535Y77107D01*
X324471Y77097D01*
X324407Y77091D01*
X324342Y77089D01*
X324248Y77091D01*
X324154Y77097D01*
X324060Y77107D01*
X323967Y77120D01*
X323875Y77138D01*
X323783Y77159D01*
X323692Y77184D01*
X323602Y77213D01*
X323514Y77246D01*
X323427Y77282D01*
X323342Y77322D01*
X323258Y77365D01*
X323177Y77412D01*
X323097Y77462D01*
X323019Y77515D01*
X322944Y77572D01*
X322871Y77631D01*
X322801Y77694D01*
X322733Y77759D01*
X322867Y80843D02*
X322869Y80908D01*
X322875Y80972D01*
X322885Y81036D01*
X322898Y81100D01*
X322916Y81162D01*
X322937Y81223D01*
X322961Y81283D01*
X322990Y81341D01*
X323022Y81398D01*
X323057Y81452D01*
X323095Y81504D01*
X323137Y81554D01*
X323181Y81601D01*
X323228Y81645D01*
X323278Y81687D01*
X323330Y81725D01*
X323384Y81760D01*
X323441Y81792D01*
X323499Y81821D01*
X323559Y81845D01*
X323620Y81866D01*
X323682Y81884D01*
X323746Y81897D01*
X323810Y81907D01*
X323874Y81913D01*
X323939Y81915D01*
X324025Y81913D01*
X324111Y81908D01*
X324197Y81898D01*
X324282Y81885D01*
X324367Y81869D01*
X324451Y81849D01*
X324534Y81825D01*
X324616Y81798D01*
X324696Y81767D01*
X324776Y81733D01*
X324853Y81695D01*
X324929Y81654D01*
X325003Y81610D01*
X325075Y81563D01*
X325146Y81513D01*
X323403Y79905D02*
X323350Y79938D01*
X323299Y79975D01*
X323250Y80014D01*
X323203Y80056D01*
X323159Y80101D01*
X323118Y80148D01*
X323079Y80197D01*
X323043Y80249D01*
X323010Y80303D01*
X322981Y80358D01*
X322955Y80415D01*
X322932Y80474D01*
X322912Y80533D01*
X322896Y80594D01*
X322883Y80655D01*
X322874Y80718D01*
X322869Y80780D01*
X322867Y80843D01*
X324878Y79099D02*
X324931Y79066D01*
X324982Y79029D01*
X325031Y78990D01*
X325078Y78948D01*
X325122Y78903D01*
X325163Y78856D01*
X325202Y78807D01*
X325238Y78755D01*
X325271Y78701D01*
X325300Y78646D01*
X325326Y78589D01*
X325349Y78530D01*
X325369Y78471D01*
X325385Y78410D01*
X325398Y78349D01*
X325407Y78286D01*
X325412Y78224D01*
X325414Y78161D01*
X324878Y79100D02*
X323403Y79904D01*
X327964Y81915D02*
X329036Y77089D01*
X330109Y80306D01*
X331181Y77089D01*
X332253Y81915D01*
X334986Y77089D02*
X336326Y77089D01*
X336397Y77091D01*
X336469Y77097D01*
X336539Y77106D01*
X336609Y77119D01*
X336679Y77136D01*
X336747Y77157D01*
X336814Y77181D01*
X336880Y77209D01*
X336944Y77240D01*
X337007Y77275D01*
X337067Y77313D01*
X337126Y77354D01*
X337182Y77398D01*
X337236Y77445D01*
X337287Y77494D01*
X337335Y77547D01*
X337381Y77602D01*
X337423Y77659D01*
X337463Y77719D01*
X337499Y77780D01*
X337532Y77844D01*
X337561Y77909D01*
X337587Y77975D01*
X337610Y78043D01*
X337629Y78112D01*
X337644Y78182D01*
X337655Y78252D01*
X337663Y78323D01*
X337667Y78394D01*
X337667Y78466D01*
X337663Y78537D01*
X337655Y78608D01*
X337644Y78678D01*
X337629Y78748D01*
X337610Y78817D01*
X337587Y78885D01*
X337561Y78951D01*
X337532Y79016D01*
X337499Y79080D01*
X337463Y79141D01*
X337423Y79201D01*
X337381Y79258D01*
X337335Y79313D01*
X337287Y79366D01*
X337236Y79415D01*
X337182Y79462D01*
X337126Y79506D01*
X337067Y79547D01*
X337007Y79585D01*
X336944Y79620D01*
X336880Y79651D01*
X336814Y79679D01*
X336747Y79703D01*
X336679Y79724D01*
X336609Y79741D01*
X336539Y79754D01*
X336469Y79763D01*
X336397Y79769D01*
X336326Y79771D01*
X336595Y81915D02*
X334986Y81915D01*
X336595Y81915D02*
X336660Y81913D01*
X336724Y81907D01*
X336788Y81897D01*
X336852Y81884D01*
X336914Y81866D01*
X336975Y81845D01*
X337035Y81821D01*
X337093Y81792D01*
X337150Y81760D01*
X337204Y81725D01*
X337256Y81687D01*
X337306Y81645D01*
X337353Y81601D01*
X337397Y81554D01*
X337439Y81504D01*
X337477Y81452D01*
X337512Y81398D01*
X337544Y81341D01*
X337573Y81283D01*
X337597Y81223D01*
X337618Y81162D01*
X337636Y81100D01*
X337649Y81036D01*
X337659Y80972D01*
X337665Y80908D01*
X337667Y80843D01*
X337665Y80778D01*
X337659Y80714D01*
X337649Y80650D01*
X337636Y80586D01*
X337618Y80524D01*
X337597Y80463D01*
X337573Y80403D01*
X337544Y80345D01*
X337512Y80288D01*
X337477Y80234D01*
X337439Y80182D01*
X337397Y80132D01*
X337353Y80085D01*
X337306Y80041D01*
X337256Y79999D01*
X337204Y79961D01*
X337150Y79926D01*
X337093Y79894D01*
X337035Y79865D01*
X336975Y79841D01*
X336914Y79820D01*
X336852Y79802D01*
X336788Y79789D01*
X336724Y79779D01*
X336660Y79773D01*
X336595Y79771D01*
X336595Y79770D02*
X335522Y79770D01*
D12*
X414500Y144300D02*
X474500Y144300D01*
X414500Y144300D02*
X414500Y84300D01*
X474500Y84300D01*
X474500Y144300D01*
X427000Y114300D02*
X427005Y114729D01*
X427021Y115159D01*
X427047Y115587D01*
X427084Y116015D01*
X427132Y116442D01*
X427189Y116868D01*
X427258Y117292D01*
X427336Y117714D01*
X427425Y118134D01*
X427524Y118552D01*
X427634Y118967D01*
X427754Y119380D01*
X427883Y119789D01*
X428023Y120196D01*
X428173Y120598D01*
X428332Y120997D01*
X428501Y121392D01*
X428680Y121782D01*
X428869Y122168D01*
X429066Y122549D01*
X429273Y122926D01*
X429490Y123297D01*
X429715Y123662D01*
X429949Y124022D01*
X430192Y124377D01*
X430444Y124725D01*
X430704Y125067D01*
X430972Y125402D01*
X431249Y125731D01*
X431533Y126052D01*
X431826Y126367D01*
X432126Y126674D01*
X432433Y126974D01*
X432748Y127267D01*
X433069Y127551D01*
X433398Y127828D01*
X433733Y128096D01*
X434075Y128356D01*
X434423Y128608D01*
X434778Y128851D01*
X435138Y129085D01*
X435503Y129310D01*
X435874Y129527D01*
X436251Y129734D01*
X436632Y129931D01*
X437018Y130120D01*
X437408Y130299D01*
X437803Y130468D01*
X438202Y130627D01*
X438604Y130777D01*
X439011Y130917D01*
X439420Y131046D01*
X439833Y131166D01*
X440248Y131276D01*
X440666Y131375D01*
X441086Y131464D01*
X441508Y131542D01*
X441932Y131611D01*
X442358Y131668D01*
X442785Y131716D01*
X443213Y131753D01*
X443641Y131779D01*
X444071Y131795D01*
X444500Y131800D01*
X444929Y131795D01*
X445359Y131779D01*
X445787Y131753D01*
X446215Y131716D01*
X446642Y131668D01*
X447068Y131611D01*
X447492Y131542D01*
X447914Y131464D01*
X448334Y131375D01*
X448752Y131276D01*
X449167Y131166D01*
X449580Y131046D01*
X449989Y130917D01*
X450396Y130777D01*
X450798Y130627D01*
X451197Y130468D01*
X451592Y130299D01*
X451982Y130120D01*
X452368Y129931D01*
X452749Y129734D01*
X453126Y129527D01*
X453497Y129310D01*
X453862Y129085D01*
X454222Y128851D01*
X454577Y128608D01*
X454925Y128356D01*
X455267Y128096D01*
X455602Y127828D01*
X455931Y127551D01*
X456252Y127267D01*
X456567Y126974D01*
X456874Y126674D01*
X457174Y126367D01*
X457467Y126052D01*
X457751Y125731D01*
X458028Y125402D01*
X458296Y125067D01*
X458556Y124725D01*
X458808Y124377D01*
X459051Y124022D01*
X459285Y123662D01*
X459510Y123297D01*
X459727Y122926D01*
X459934Y122549D01*
X460131Y122168D01*
X460320Y121782D01*
X460499Y121392D01*
X460668Y120997D01*
X460827Y120598D01*
X460977Y120196D01*
X461117Y119789D01*
X461246Y119380D01*
X461366Y118967D01*
X461476Y118552D01*
X461575Y118134D01*
X461664Y117714D01*
X461742Y117292D01*
X461811Y116868D01*
X461868Y116442D01*
X461916Y116015D01*
X461953Y115587D01*
X461979Y115159D01*
X461995Y114729D01*
X462000Y114300D01*
X461995Y113871D01*
X461979Y113441D01*
X461953Y113013D01*
X461916Y112585D01*
X461868Y112158D01*
X461811Y111732D01*
X461742Y111308D01*
X461664Y110886D01*
X461575Y110466D01*
X461476Y110048D01*
X461366Y109633D01*
X461246Y109220D01*
X461117Y108811D01*
X460977Y108404D01*
X460827Y108002D01*
X460668Y107603D01*
X460499Y107208D01*
X460320Y106818D01*
X460131Y106432D01*
X459934Y106051D01*
X459727Y105674D01*
X459510Y105303D01*
X459285Y104938D01*
X459051Y104578D01*
X458808Y104223D01*
X458556Y103875D01*
X458296Y103533D01*
X458028Y103198D01*
X457751Y102869D01*
X457467Y102548D01*
X457174Y102233D01*
X456874Y101926D01*
X456567Y101626D01*
X456252Y101333D01*
X455931Y101049D01*
X455602Y100772D01*
X455267Y100504D01*
X454925Y100244D01*
X454577Y99992D01*
X454222Y99749D01*
X453862Y99515D01*
X453497Y99290D01*
X453126Y99073D01*
X452749Y98866D01*
X452368Y98669D01*
X451982Y98480D01*
X451592Y98301D01*
X451197Y98132D01*
X450798Y97973D01*
X450396Y97823D01*
X449989Y97683D01*
X449580Y97554D01*
X449167Y97434D01*
X448752Y97324D01*
X448334Y97225D01*
X447914Y97136D01*
X447492Y97058D01*
X447068Y96989D01*
X446642Y96932D01*
X446215Y96884D01*
X445787Y96847D01*
X445359Y96821D01*
X444929Y96805D01*
X444500Y96800D01*
X444071Y96805D01*
X443641Y96821D01*
X443213Y96847D01*
X442785Y96884D01*
X442358Y96932D01*
X441932Y96989D01*
X441508Y97058D01*
X441086Y97136D01*
X440666Y97225D01*
X440248Y97324D01*
X439833Y97434D01*
X439420Y97554D01*
X439011Y97683D01*
X438604Y97823D01*
X438202Y97973D01*
X437803Y98132D01*
X437408Y98301D01*
X437018Y98480D01*
X436632Y98669D01*
X436251Y98866D01*
X435874Y99073D01*
X435503Y99290D01*
X435138Y99515D01*
X434778Y99749D01*
X434423Y99992D01*
X434075Y100244D01*
X433733Y100504D01*
X433398Y100772D01*
X433069Y101049D01*
X432748Y101333D01*
X432433Y101626D01*
X432126Y101926D01*
X431826Y102233D01*
X431533Y102548D01*
X431249Y102869D01*
X430972Y103198D01*
X430704Y103533D01*
X430444Y103875D01*
X430192Y104223D01*
X429949Y104578D01*
X429715Y104938D01*
X429490Y105303D01*
X429273Y105674D01*
X429066Y106051D01*
X428869Y106432D01*
X428680Y106818D01*
X428501Y107208D01*
X428332Y107603D01*
X428173Y108002D01*
X428023Y108404D01*
X427883Y108811D01*
X427754Y109220D01*
X427634Y109633D01*
X427524Y110048D01*
X427425Y110466D01*
X427336Y110886D01*
X427258Y111308D01*
X427189Y111732D01*
X427132Y112158D01*
X427084Y112585D01*
X427047Y113013D01*
X427021Y113441D01*
X427005Y113871D01*
X427000Y114300D01*
D13*
X439714Y78161D02*
X439712Y78096D01*
X439706Y78032D01*
X439696Y77968D01*
X439683Y77904D01*
X439665Y77842D01*
X439644Y77781D01*
X439620Y77721D01*
X439591Y77663D01*
X439559Y77606D01*
X439524Y77552D01*
X439486Y77500D01*
X439444Y77450D01*
X439400Y77403D01*
X439353Y77359D01*
X439303Y77317D01*
X439251Y77279D01*
X439197Y77244D01*
X439140Y77212D01*
X439082Y77183D01*
X439022Y77159D01*
X438961Y77138D01*
X438899Y77120D01*
X438835Y77107D01*
X438771Y77097D01*
X438707Y77091D01*
X438642Y77089D01*
X438548Y77091D01*
X438454Y77097D01*
X438360Y77107D01*
X438267Y77120D01*
X438175Y77138D01*
X438083Y77159D01*
X437992Y77184D01*
X437902Y77213D01*
X437814Y77246D01*
X437727Y77282D01*
X437642Y77322D01*
X437558Y77365D01*
X437477Y77412D01*
X437397Y77462D01*
X437319Y77515D01*
X437244Y77572D01*
X437171Y77631D01*
X437101Y77694D01*
X437033Y77759D01*
X437167Y80843D02*
X437169Y80908D01*
X437175Y80972D01*
X437185Y81036D01*
X437198Y81100D01*
X437216Y81162D01*
X437237Y81223D01*
X437261Y81283D01*
X437290Y81341D01*
X437322Y81398D01*
X437357Y81452D01*
X437395Y81504D01*
X437437Y81554D01*
X437481Y81601D01*
X437528Y81645D01*
X437578Y81687D01*
X437630Y81725D01*
X437684Y81760D01*
X437741Y81792D01*
X437799Y81821D01*
X437859Y81845D01*
X437920Y81866D01*
X437982Y81884D01*
X438046Y81897D01*
X438110Y81907D01*
X438174Y81913D01*
X438239Y81915D01*
X438325Y81913D01*
X438411Y81908D01*
X438497Y81898D01*
X438582Y81885D01*
X438667Y81869D01*
X438751Y81849D01*
X438834Y81825D01*
X438916Y81798D01*
X438996Y81767D01*
X439076Y81733D01*
X439153Y81695D01*
X439229Y81654D01*
X439303Y81610D01*
X439375Y81563D01*
X439446Y81513D01*
X437703Y79905D02*
X437650Y79938D01*
X437599Y79975D01*
X437550Y80014D01*
X437503Y80056D01*
X437459Y80101D01*
X437418Y80148D01*
X437379Y80197D01*
X437343Y80249D01*
X437310Y80303D01*
X437281Y80358D01*
X437255Y80415D01*
X437232Y80474D01*
X437212Y80533D01*
X437196Y80594D01*
X437183Y80655D01*
X437174Y80718D01*
X437169Y80780D01*
X437167Y80843D01*
X439178Y79099D02*
X439231Y79066D01*
X439282Y79029D01*
X439331Y78990D01*
X439378Y78948D01*
X439422Y78903D01*
X439463Y78856D01*
X439502Y78807D01*
X439538Y78755D01*
X439571Y78701D01*
X439600Y78646D01*
X439626Y78589D01*
X439649Y78530D01*
X439669Y78471D01*
X439685Y78410D01*
X439698Y78349D01*
X439707Y78286D01*
X439712Y78224D01*
X439714Y78161D01*
X439178Y79100D02*
X437703Y79904D01*
X442264Y81915D02*
X443336Y77089D01*
X444409Y80306D01*
X445481Y77089D01*
X446553Y81915D01*
X450358Y81915D02*
X449286Y78161D01*
X451967Y78161D01*
X451163Y79234D02*
X451163Y77089D01*
D12*
X528800Y144300D02*
X588800Y144300D01*
X528800Y144300D02*
X528800Y84300D01*
X588800Y84300D01*
X588800Y144300D01*
X541300Y114300D02*
X541305Y114729D01*
X541321Y115159D01*
X541347Y115587D01*
X541384Y116015D01*
X541432Y116442D01*
X541489Y116868D01*
X541558Y117292D01*
X541636Y117714D01*
X541725Y118134D01*
X541824Y118552D01*
X541934Y118967D01*
X542054Y119380D01*
X542183Y119789D01*
X542323Y120196D01*
X542473Y120598D01*
X542632Y120997D01*
X542801Y121392D01*
X542980Y121782D01*
X543169Y122168D01*
X543366Y122549D01*
X543573Y122926D01*
X543790Y123297D01*
X544015Y123662D01*
X544249Y124022D01*
X544492Y124377D01*
X544744Y124725D01*
X545004Y125067D01*
X545272Y125402D01*
X545549Y125731D01*
X545833Y126052D01*
X546126Y126367D01*
X546426Y126674D01*
X546733Y126974D01*
X547048Y127267D01*
X547369Y127551D01*
X547698Y127828D01*
X548033Y128096D01*
X548375Y128356D01*
X548723Y128608D01*
X549078Y128851D01*
X549438Y129085D01*
X549803Y129310D01*
X550174Y129527D01*
X550551Y129734D01*
X550932Y129931D01*
X551318Y130120D01*
X551708Y130299D01*
X552103Y130468D01*
X552502Y130627D01*
X552904Y130777D01*
X553311Y130917D01*
X553720Y131046D01*
X554133Y131166D01*
X554548Y131276D01*
X554966Y131375D01*
X555386Y131464D01*
X555808Y131542D01*
X556232Y131611D01*
X556658Y131668D01*
X557085Y131716D01*
X557513Y131753D01*
X557941Y131779D01*
X558371Y131795D01*
X558800Y131800D01*
X559229Y131795D01*
X559659Y131779D01*
X560087Y131753D01*
X560515Y131716D01*
X560942Y131668D01*
X561368Y131611D01*
X561792Y131542D01*
X562214Y131464D01*
X562634Y131375D01*
X563052Y131276D01*
X563467Y131166D01*
X563880Y131046D01*
X564289Y130917D01*
X564696Y130777D01*
X565098Y130627D01*
X565497Y130468D01*
X565892Y130299D01*
X566282Y130120D01*
X566668Y129931D01*
X567049Y129734D01*
X567426Y129527D01*
X567797Y129310D01*
X568162Y129085D01*
X568522Y128851D01*
X568877Y128608D01*
X569225Y128356D01*
X569567Y128096D01*
X569902Y127828D01*
X570231Y127551D01*
X570552Y127267D01*
X570867Y126974D01*
X571174Y126674D01*
X571474Y126367D01*
X571767Y126052D01*
X572051Y125731D01*
X572328Y125402D01*
X572596Y125067D01*
X572856Y124725D01*
X573108Y124377D01*
X573351Y124022D01*
X573585Y123662D01*
X573810Y123297D01*
X574027Y122926D01*
X574234Y122549D01*
X574431Y122168D01*
X574620Y121782D01*
X574799Y121392D01*
X574968Y120997D01*
X575127Y120598D01*
X575277Y120196D01*
X575417Y119789D01*
X575546Y119380D01*
X575666Y118967D01*
X575776Y118552D01*
X575875Y118134D01*
X575964Y117714D01*
X576042Y117292D01*
X576111Y116868D01*
X576168Y116442D01*
X576216Y116015D01*
X576253Y115587D01*
X576279Y115159D01*
X576295Y114729D01*
X576300Y114300D01*
X576295Y113871D01*
X576279Y113441D01*
X576253Y113013D01*
X576216Y112585D01*
X576168Y112158D01*
X576111Y111732D01*
X576042Y111308D01*
X575964Y110886D01*
X575875Y110466D01*
X575776Y110048D01*
X575666Y109633D01*
X575546Y109220D01*
X575417Y108811D01*
X575277Y108404D01*
X575127Y108002D01*
X574968Y107603D01*
X574799Y107208D01*
X574620Y106818D01*
X574431Y106432D01*
X574234Y106051D01*
X574027Y105674D01*
X573810Y105303D01*
X573585Y104938D01*
X573351Y104578D01*
X573108Y104223D01*
X572856Y103875D01*
X572596Y103533D01*
X572328Y103198D01*
X572051Y102869D01*
X571767Y102548D01*
X571474Y102233D01*
X571174Y101926D01*
X570867Y101626D01*
X570552Y101333D01*
X570231Y101049D01*
X569902Y100772D01*
X569567Y100504D01*
X569225Y100244D01*
X568877Y99992D01*
X568522Y99749D01*
X568162Y99515D01*
X567797Y99290D01*
X567426Y99073D01*
X567049Y98866D01*
X566668Y98669D01*
X566282Y98480D01*
X565892Y98301D01*
X565497Y98132D01*
X565098Y97973D01*
X564696Y97823D01*
X564289Y97683D01*
X563880Y97554D01*
X563467Y97434D01*
X563052Y97324D01*
X562634Y97225D01*
X562214Y97136D01*
X561792Y97058D01*
X561368Y96989D01*
X560942Y96932D01*
X560515Y96884D01*
X560087Y96847D01*
X559659Y96821D01*
X559229Y96805D01*
X558800Y96800D01*
X558371Y96805D01*
X557941Y96821D01*
X557513Y96847D01*
X557085Y96884D01*
X556658Y96932D01*
X556232Y96989D01*
X555808Y97058D01*
X555386Y97136D01*
X554966Y97225D01*
X554548Y97324D01*
X554133Y97434D01*
X553720Y97554D01*
X553311Y97683D01*
X552904Y97823D01*
X552502Y97973D01*
X552103Y98132D01*
X551708Y98301D01*
X551318Y98480D01*
X550932Y98669D01*
X550551Y98866D01*
X550174Y99073D01*
X549803Y99290D01*
X549438Y99515D01*
X549078Y99749D01*
X548723Y99992D01*
X548375Y100244D01*
X548033Y100504D01*
X547698Y100772D01*
X547369Y101049D01*
X547048Y101333D01*
X546733Y101626D01*
X546426Y101926D01*
X546126Y102233D01*
X545833Y102548D01*
X545549Y102869D01*
X545272Y103198D01*
X545004Y103533D01*
X544744Y103875D01*
X544492Y104223D01*
X544249Y104578D01*
X544015Y104938D01*
X543790Y105303D01*
X543573Y105674D01*
X543366Y106051D01*
X543169Y106432D01*
X542980Y106818D01*
X542801Y107208D01*
X542632Y107603D01*
X542473Y108002D01*
X542323Y108404D01*
X542183Y108811D01*
X542054Y109220D01*
X541934Y109633D01*
X541824Y110048D01*
X541725Y110466D01*
X541636Y110886D01*
X541558Y111308D01*
X541489Y111732D01*
X541432Y112158D01*
X541384Y112585D01*
X541347Y113013D01*
X541321Y113441D01*
X541305Y113871D01*
X541300Y114300D01*
D13*
X554014Y78161D02*
X554012Y78096D01*
X554006Y78032D01*
X553996Y77968D01*
X553983Y77904D01*
X553965Y77842D01*
X553944Y77781D01*
X553920Y77721D01*
X553891Y77663D01*
X553859Y77606D01*
X553824Y77552D01*
X553786Y77500D01*
X553744Y77450D01*
X553700Y77403D01*
X553653Y77359D01*
X553603Y77317D01*
X553551Y77279D01*
X553497Y77244D01*
X553440Y77212D01*
X553382Y77183D01*
X553322Y77159D01*
X553261Y77138D01*
X553199Y77120D01*
X553135Y77107D01*
X553071Y77097D01*
X553007Y77091D01*
X552942Y77089D01*
X552848Y77091D01*
X552754Y77097D01*
X552660Y77107D01*
X552567Y77120D01*
X552475Y77138D01*
X552383Y77159D01*
X552292Y77184D01*
X552202Y77213D01*
X552114Y77246D01*
X552027Y77282D01*
X551942Y77322D01*
X551858Y77365D01*
X551777Y77412D01*
X551697Y77462D01*
X551619Y77515D01*
X551544Y77572D01*
X551471Y77631D01*
X551401Y77694D01*
X551333Y77759D01*
X551467Y80843D02*
X551469Y80908D01*
X551475Y80972D01*
X551485Y81036D01*
X551498Y81100D01*
X551516Y81162D01*
X551537Y81223D01*
X551561Y81283D01*
X551590Y81341D01*
X551622Y81398D01*
X551657Y81452D01*
X551695Y81504D01*
X551737Y81554D01*
X551781Y81601D01*
X551828Y81645D01*
X551878Y81687D01*
X551930Y81725D01*
X551984Y81760D01*
X552041Y81792D01*
X552099Y81821D01*
X552159Y81845D01*
X552220Y81866D01*
X552282Y81884D01*
X552346Y81897D01*
X552410Y81907D01*
X552474Y81913D01*
X552539Y81915D01*
X552625Y81913D01*
X552711Y81908D01*
X552797Y81898D01*
X552882Y81885D01*
X552967Y81869D01*
X553051Y81849D01*
X553134Y81825D01*
X553216Y81798D01*
X553296Y81767D01*
X553376Y81733D01*
X553453Y81695D01*
X553529Y81654D01*
X553603Y81610D01*
X553675Y81563D01*
X553746Y81513D01*
X552003Y79905D02*
X551950Y79938D01*
X551899Y79975D01*
X551850Y80014D01*
X551803Y80056D01*
X551759Y80101D01*
X551718Y80148D01*
X551679Y80197D01*
X551643Y80249D01*
X551610Y80303D01*
X551581Y80358D01*
X551555Y80415D01*
X551532Y80474D01*
X551512Y80533D01*
X551496Y80594D01*
X551483Y80655D01*
X551474Y80718D01*
X551469Y80780D01*
X551467Y80843D01*
X553478Y79099D02*
X553531Y79066D01*
X553582Y79029D01*
X553631Y78990D01*
X553678Y78948D01*
X553722Y78903D01*
X553763Y78856D01*
X553802Y78807D01*
X553838Y78755D01*
X553871Y78701D01*
X553900Y78646D01*
X553926Y78589D01*
X553949Y78530D01*
X553969Y78471D01*
X553985Y78410D01*
X553998Y78349D01*
X554007Y78286D01*
X554012Y78224D01*
X554014Y78161D01*
X553478Y79100D02*
X552003Y79904D01*
X556564Y81915D02*
X557636Y77089D01*
X558709Y80306D01*
X559781Y77089D01*
X560853Y81915D01*
X563586Y77089D02*
X565195Y77089D01*
X565260Y77091D01*
X565324Y77097D01*
X565388Y77107D01*
X565452Y77120D01*
X565514Y77138D01*
X565575Y77159D01*
X565635Y77183D01*
X565693Y77212D01*
X565750Y77244D01*
X565804Y77279D01*
X565856Y77317D01*
X565906Y77359D01*
X565953Y77403D01*
X565997Y77450D01*
X566039Y77500D01*
X566077Y77552D01*
X566112Y77606D01*
X566144Y77663D01*
X566173Y77721D01*
X566197Y77781D01*
X566218Y77842D01*
X566236Y77904D01*
X566249Y77968D01*
X566259Y78032D01*
X566265Y78096D01*
X566267Y78161D01*
X566267Y78698D01*
X566265Y78763D01*
X566259Y78827D01*
X566249Y78891D01*
X566236Y78955D01*
X566218Y79017D01*
X566197Y79078D01*
X566173Y79138D01*
X566144Y79196D01*
X566112Y79253D01*
X566077Y79307D01*
X566039Y79359D01*
X565997Y79409D01*
X565953Y79456D01*
X565906Y79500D01*
X565856Y79542D01*
X565804Y79580D01*
X565750Y79615D01*
X565693Y79647D01*
X565635Y79676D01*
X565575Y79700D01*
X565514Y79721D01*
X565452Y79739D01*
X565388Y79752D01*
X565324Y79762D01*
X565260Y79768D01*
X565195Y79770D01*
X563586Y79770D01*
X563586Y81915D01*
X566267Y81915D01*
D12*
X643100Y144300D02*
X703100Y144300D01*
X643100Y144300D02*
X643100Y84300D01*
X703100Y84300D01*
X703100Y144300D01*
X655600Y114300D02*
X655605Y114729D01*
X655621Y115159D01*
X655647Y115587D01*
X655684Y116015D01*
X655732Y116442D01*
X655789Y116868D01*
X655858Y117292D01*
X655936Y117714D01*
X656025Y118134D01*
X656124Y118552D01*
X656234Y118967D01*
X656354Y119380D01*
X656483Y119789D01*
X656623Y120196D01*
X656773Y120598D01*
X656932Y120997D01*
X657101Y121392D01*
X657280Y121782D01*
X657469Y122168D01*
X657666Y122549D01*
X657873Y122926D01*
X658090Y123297D01*
X658315Y123662D01*
X658549Y124022D01*
X658792Y124377D01*
X659044Y124725D01*
X659304Y125067D01*
X659572Y125402D01*
X659849Y125731D01*
X660133Y126052D01*
X660426Y126367D01*
X660726Y126674D01*
X661033Y126974D01*
X661348Y127267D01*
X661669Y127551D01*
X661998Y127828D01*
X662333Y128096D01*
X662675Y128356D01*
X663023Y128608D01*
X663378Y128851D01*
X663738Y129085D01*
X664103Y129310D01*
X664474Y129527D01*
X664851Y129734D01*
X665232Y129931D01*
X665618Y130120D01*
X666008Y130299D01*
X666403Y130468D01*
X666802Y130627D01*
X667204Y130777D01*
X667611Y130917D01*
X668020Y131046D01*
X668433Y131166D01*
X668848Y131276D01*
X669266Y131375D01*
X669686Y131464D01*
X670108Y131542D01*
X670532Y131611D01*
X670958Y131668D01*
X671385Y131716D01*
X671813Y131753D01*
X672241Y131779D01*
X672671Y131795D01*
X673100Y131800D01*
X673529Y131795D01*
X673959Y131779D01*
X674387Y131753D01*
X674815Y131716D01*
X675242Y131668D01*
X675668Y131611D01*
X676092Y131542D01*
X676514Y131464D01*
X676934Y131375D01*
X677352Y131276D01*
X677767Y131166D01*
X678180Y131046D01*
X678589Y130917D01*
X678996Y130777D01*
X679398Y130627D01*
X679797Y130468D01*
X680192Y130299D01*
X680582Y130120D01*
X680968Y129931D01*
X681349Y129734D01*
X681726Y129527D01*
X682097Y129310D01*
X682462Y129085D01*
X682822Y128851D01*
X683177Y128608D01*
X683525Y128356D01*
X683867Y128096D01*
X684202Y127828D01*
X684531Y127551D01*
X684852Y127267D01*
X685167Y126974D01*
X685474Y126674D01*
X685774Y126367D01*
X686067Y126052D01*
X686351Y125731D01*
X686628Y125402D01*
X686896Y125067D01*
X687156Y124725D01*
X687408Y124377D01*
X687651Y124022D01*
X687885Y123662D01*
X688110Y123297D01*
X688327Y122926D01*
X688534Y122549D01*
X688731Y122168D01*
X688920Y121782D01*
X689099Y121392D01*
X689268Y120997D01*
X689427Y120598D01*
X689577Y120196D01*
X689717Y119789D01*
X689846Y119380D01*
X689966Y118967D01*
X690076Y118552D01*
X690175Y118134D01*
X690264Y117714D01*
X690342Y117292D01*
X690411Y116868D01*
X690468Y116442D01*
X690516Y116015D01*
X690553Y115587D01*
X690579Y115159D01*
X690595Y114729D01*
X690600Y114300D01*
X690595Y113871D01*
X690579Y113441D01*
X690553Y113013D01*
X690516Y112585D01*
X690468Y112158D01*
X690411Y111732D01*
X690342Y111308D01*
X690264Y110886D01*
X690175Y110466D01*
X690076Y110048D01*
X689966Y109633D01*
X689846Y109220D01*
X689717Y108811D01*
X689577Y108404D01*
X689427Y108002D01*
X689268Y107603D01*
X689099Y107208D01*
X688920Y106818D01*
X688731Y106432D01*
X688534Y106051D01*
X688327Y105674D01*
X688110Y105303D01*
X687885Y104938D01*
X687651Y104578D01*
X687408Y104223D01*
X687156Y103875D01*
X686896Y103533D01*
X686628Y103198D01*
X686351Y102869D01*
X686067Y102548D01*
X685774Y102233D01*
X685474Y101926D01*
X685167Y101626D01*
X684852Y101333D01*
X684531Y101049D01*
X684202Y100772D01*
X683867Y100504D01*
X683525Y100244D01*
X683177Y99992D01*
X682822Y99749D01*
X682462Y99515D01*
X682097Y99290D01*
X681726Y99073D01*
X681349Y98866D01*
X680968Y98669D01*
X680582Y98480D01*
X680192Y98301D01*
X679797Y98132D01*
X679398Y97973D01*
X678996Y97823D01*
X678589Y97683D01*
X678180Y97554D01*
X677767Y97434D01*
X677352Y97324D01*
X676934Y97225D01*
X676514Y97136D01*
X676092Y97058D01*
X675668Y96989D01*
X675242Y96932D01*
X674815Y96884D01*
X674387Y96847D01*
X673959Y96821D01*
X673529Y96805D01*
X673100Y96800D01*
X672671Y96805D01*
X672241Y96821D01*
X671813Y96847D01*
X671385Y96884D01*
X670958Y96932D01*
X670532Y96989D01*
X670108Y97058D01*
X669686Y97136D01*
X669266Y97225D01*
X668848Y97324D01*
X668433Y97434D01*
X668020Y97554D01*
X667611Y97683D01*
X667204Y97823D01*
X666802Y97973D01*
X666403Y98132D01*
X666008Y98301D01*
X665618Y98480D01*
X665232Y98669D01*
X664851Y98866D01*
X664474Y99073D01*
X664103Y99290D01*
X663738Y99515D01*
X663378Y99749D01*
X663023Y99992D01*
X662675Y100244D01*
X662333Y100504D01*
X661998Y100772D01*
X661669Y101049D01*
X661348Y101333D01*
X661033Y101626D01*
X660726Y101926D01*
X660426Y102233D01*
X660133Y102548D01*
X659849Y102869D01*
X659572Y103198D01*
X659304Y103533D01*
X659044Y103875D01*
X658792Y104223D01*
X658549Y104578D01*
X658315Y104938D01*
X658090Y105303D01*
X657873Y105674D01*
X657666Y106051D01*
X657469Y106432D01*
X657280Y106818D01*
X657101Y107208D01*
X656932Y107603D01*
X656773Y108002D01*
X656623Y108404D01*
X656483Y108811D01*
X656354Y109220D01*
X656234Y109633D01*
X656124Y110048D01*
X656025Y110466D01*
X655936Y110886D01*
X655858Y111308D01*
X655789Y111732D01*
X655732Y112158D01*
X655684Y112585D01*
X655647Y113013D01*
X655621Y113441D01*
X655605Y113871D01*
X655600Y114300D01*
D13*
X668314Y78161D02*
X668312Y78096D01*
X668306Y78032D01*
X668296Y77968D01*
X668283Y77904D01*
X668265Y77842D01*
X668244Y77781D01*
X668220Y77721D01*
X668191Y77663D01*
X668159Y77606D01*
X668124Y77552D01*
X668086Y77500D01*
X668044Y77450D01*
X668000Y77403D01*
X667953Y77359D01*
X667903Y77317D01*
X667851Y77279D01*
X667797Y77244D01*
X667740Y77212D01*
X667682Y77183D01*
X667622Y77159D01*
X667561Y77138D01*
X667499Y77120D01*
X667435Y77107D01*
X667371Y77097D01*
X667307Y77091D01*
X667242Y77089D01*
X667148Y77091D01*
X667054Y77097D01*
X666960Y77107D01*
X666867Y77120D01*
X666775Y77138D01*
X666683Y77159D01*
X666592Y77184D01*
X666502Y77213D01*
X666414Y77246D01*
X666327Y77282D01*
X666242Y77322D01*
X666158Y77365D01*
X666077Y77412D01*
X665997Y77462D01*
X665919Y77515D01*
X665844Y77572D01*
X665771Y77631D01*
X665701Y77694D01*
X665633Y77759D01*
X665767Y80843D02*
X665769Y80908D01*
X665775Y80972D01*
X665785Y81036D01*
X665798Y81100D01*
X665816Y81162D01*
X665837Y81223D01*
X665861Y81283D01*
X665890Y81341D01*
X665922Y81398D01*
X665957Y81452D01*
X665995Y81504D01*
X666037Y81554D01*
X666081Y81601D01*
X666128Y81645D01*
X666178Y81687D01*
X666230Y81725D01*
X666284Y81760D01*
X666341Y81792D01*
X666399Y81821D01*
X666459Y81845D01*
X666520Y81866D01*
X666582Y81884D01*
X666646Y81897D01*
X666710Y81907D01*
X666774Y81913D01*
X666839Y81915D01*
X666925Y81913D01*
X667011Y81908D01*
X667097Y81898D01*
X667182Y81885D01*
X667267Y81869D01*
X667351Y81849D01*
X667434Y81825D01*
X667516Y81798D01*
X667596Y81767D01*
X667676Y81733D01*
X667753Y81695D01*
X667829Y81654D01*
X667903Y81610D01*
X667975Y81563D01*
X668046Y81513D01*
X666303Y79905D02*
X666250Y79938D01*
X666199Y79975D01*
X666150Y80014D01*
X666103Y80056D01*
X666059Y80101D01*
X666018Y80148D01*
X665979Y80197D01*
X665943Y80249D01*
X665910Y80303D01*
X665881Y80358D01*
X665855Y80415D01*
X665832Y80474D01*
X665812Y80533D01*
X665796Y80594D01*
X665783Y80655D01*
X665774Y80718D01*
X665769Y80780D01*
X665767Y80843D01*
X667778Y79099D02*
X667831Y79066D01*
X667882Y79029D01*
X667931Y78990D01*
X667978Y78948D01*
X668022Y78903D01*
X668063Y78856D01*
X668102Y78807D01*
X668138Y78755D01*
X668171Y78701D01*
X668200Y78646D01*
X668226Y78589D01*
X668249Y78530D01*
X668269Y78471D01*
X668285Y78410D01*
X668298Y78349D01*
X668307Y78286D01*
X668312Y78224D01*
X668314Y78161D01*
X667778Y79100D02*
X666303Y79904D01*
X670864Y81915D02*
X671936Y77089D01*
X673009Y80306D01*
X674081Y77089D01*
X675153Y81915D01*
X677886Y79770D02*
X679495Y79770D01*
X679560Y79768D01*
X679624Y79762D01*
X679688Y79752D01*
X679752Y79739D01*
X679814Y79721D01*
X679875Y79700D01*
X679935Y79676D01*
X679993Y79647D01*
X680050Y79615D01*
X680104Y79580D01*
X680156Y79542D01*
X680206Y79500D01*
X680253Y79456D01*
X680297Y79409D01*
X680339Y79359D01*
X680377Y79307D01*
X680412Y79253D01*
X680444Y79196D01*
X680473Y79138D01*
X680497Y79078D01*
X680518Y79017D01*
X680536Y78955D01*
X680549Y78891D01*
X680559Y78827D01*
X680565Y78763D01*
X680567Y78698D01*
X680567Y78430D01*
X680565Y78359D01*
X680559Y78287D01*
X680550Y78217D01*
X680537Y78147D01*
X680520Y78077D01*
X680499Y78009D01*
X680475Y77942D01*
X680447Y77876D01*
X680416Y77812D01*
X680381Y77749D01*
X680343Y77689D01*
X680302Y77630D01*
X680258Y77574D01*
X680211Y77520D01*
X680162Y77469D01*
X680109Y77421D01*
X680054Y77375D01*
X679997Y77333D01*
X679937Y77293D01*
X679876Y77257D01*
X679812Y77224D01*
X679747Y77195D01*
X679681Y77169D01*
X679613Y77146D01*
X679544Y77127D01*
X679474Y77112D01*
X679404Y77101D01*
X679333Y77093D01*
X679262Y77089D01*
X679190Y77089D01*
X679119Y77093D01*
X679048Y77101D01*
X678978Y77112D01*
X678908Y77127D01*
X678839Y77146D01*
X678771Y77169D01*
X678705Y77195D01*
X678640Y77224D01*
X678576Y77257D01*
X678515Y77293D01*
X678455Y77333D01*
X678398Y77375D01*
X678343Y77421D01*
X678290Y77469D01*
X678241Y77520D01*
X678194Y77574D01*
X678150Y77630D01*
X678109Y77689D01*
X678071Y77749D01*
X678036Y77812D01*
X678005Y77876D01*
X677977Y77942D01*
X677953Y78009D01*
X677932Y78077D01*
X677915Y78147D01*
X677902Y78217D01*
X677893Y78287D01*
X677887Y78359D01*
X677885Y78430D01*
X677886Y78430D02*
X677886Y79770D01*
X677888Y79861D01*
X677894Y79952D01*
X677903Y80042D01*
X677917Y80133D01*
X677934Y80222D01*
X677955Y80310D01*
X677980Y80398D01*
X678009Y80485D01*
X678041Y80570D01*
X678076Y80654D01*
X678116Y80736D01*
X678158Y80816D01*
X678204Y80895D01*
X678254Y80971D01*
X678306Y81045D01*
X678362Y81118D01*
X678421Y81187D01*
X678482Y81254D01*
X678547Y81319D01*
X678614Y81380D01*
X678683Y81439D01*
X678755Y81495D01*
X678830Y81547D01*
X678906Y81597D01*
X678985Y81643D01*
X679065Y81685D01*
X679147Y81725D01*
X679231Y81760D01*
X679316Y81792D01*
X679403Y81821D01*
X679490Y81846D01*
X679579Y81867D01*
X679668Y81884D01*
X679759Y81898D01*
X679849Y81907D01*
X679940Y81913D01*
X680031Y81915D01*
D12*
X757400Y144300D02*
X817400Y144300D01*
X757400Y144300D02*
X757400Y84300D01*
X817400Y84300D01*
X817400Y144300D01*
X769900Y114300D02*
X769905Y114729D01*
X769921Y115159D01*
X769947Y115587D01*
X769984Y116015D01*
X770032Y116442D01*
X770089Y116868D01*
X770158Y117292D01*
X770236Y117714D01*
X770325Y118134D01*
X770424Y118552D01*
X770534Y118967D01*
X770654Y119380D01*
X770783Y119789D01*
X770923Y120196D01*
X771073Y120598D01*
X771232Y120997D01*
X771401Y121392D01*
X771580Y121782D01*
X771769Y122168D01*
X771966Y122549D01*
X772173Y122926D01*
X772390Y123297D01*
X772615Y123662D01*
X772849Y124022D01*
X773092Y124377D01*
X773344Y124725D01*
X773604Y125067D01*
X773872Y125402D01*
X774149Y125731D01*
X774433Y126052D01*
X774726Y126367D01*
X775026Y126674D01*
X775333Y126974D01*
X775648Y127267D01*
X775969Y127551D01*
X776298Y127828D01*
X776633Y128096D01*
X776975Y128356D01*
X777323Y128608D01*
X777678Y128851D01*
X778038Y129085D01*
X778403Y129310D01*
X778774Y129527D01*
X779151Y129734D01*
X779532Y129931D01*
X779918Y130120D01*
X780308Y130299D01*
X780703Y130468D01*
X781102Y130627D01*
X781504Y130777D01*
X781911Y130917D01*
X782320Y131046D01*
X782733Y131166D01*
X783148Y131276D01*
X783566Y131375D01*
X783986Y131464D01*
X784408Y131542D01*
X784832Y131611D01*
X785258Y131668D01*
X785685Y131716D01*
X786113Y131753D01*
X786541Y131779D01*
X786971Y131795D01*
X787400Y131800D01*
X787829Y131795D01*
X788259Y131779D01*
X788687Y131753D01*
X789115Y131716D01*
X789542Y131668D01*
X789968Y131611D01*
X790392Y131542D01*
X790814Y131464D01*
X791234Y131375D01*
X791652Y131276D01*
X792067Y131166D01*
X792480Y131046D01*
X792889Y130917D01*
X793296Y130777D01*
X793698Y130627D01*
X794097Y130468D01*
X794492Y130299D01*
X794882Y130120D01*
X795268Y129931D01*
X795649Y129734D01*
X796026Y129527D01*
X796397Y129310D01*
X796762Y129085D01*
X797122Y128851D01*
X797477Y128608D01*
X797825Y128356D01*
X798167Y128096D01*
X798502Y127828D01*
X798831Y127551D01*
X799152Y127267D01*
X799467Y126974D01*
X799774Y126674D01*
X800074Y126367D01*
X800367Y126052D01*
X800651Y125731D01*
X800928Y125402D01*
X801196Y125067D01*
X801456Y124725D01*
X801708Y124377D01*
X801951Y124022D01*
X802185Y123662D01*
X802410Y123297D01*
X802627Y122926D01*
X802834Y122549D01*
X803031Y122168D01*
X803220Y121782D01*
X803399Y121392D01*
X803568Y120997D01*
X803727Y120598D01*
X803877Y120196D01*
X804017Y119789D01*
X804146Y119380D01*
X804266Y118967D01*
X804376Y118552D01*
X804475Y118134D01*
X804564Y117714D01*
X804642Y117292D01*
X804711Y116868D01*
X804768Y116442D01*
X804816Y116015D01*
X804853Y115587D01*
X804879Y115159D01*
X804895Y114729D01*
X804900Y114300D01*
X804895Y113871D01*
X804879Y113441D01*
X804853Y113013D01*
X804816Y112585D01*
X804768Y112158D01*
X804711Y111732D01*
X804642Y111308D01*
X804564Y110886D01*
X804475Y110466D01*
X804376Y110048D01*
X804266Y109633D01*
X804146Y109220D01*
X804017Y108811D01*
X803877Y108404D01*
X803727Y108002D01*
X803568Y107603D01*
X803399Y107208D01*
X803220Y106818D01*
X803031Y106432D01*
X802834Y106051D01*
X802627Y105674D01*
X802410Y105303D01*
X802185Y104938D01*
X801951Y104578D01*
X801708Y104223D01*
X801456Y103875D01*
X801196Y103533D01*
X800928Y103198D01*
X800651Y102869D01*
X800367Y102548D01*
X800074Y102233D01*
X799774Y101926D01*
X799467Y101626D01*
X799152Y101333D01*
X798831Y101049D01*
X798502Y100772D01*
X798167Y100504D01*
X797825Y100244D01*
X797477Y99992D01*
X797122Y99749D01*
X796762Y99515D01*
X796397Y99290D01*
X796026Y99073D01*
X795649Y98866D01*
X795268Y98669D01*
X794882Y98480D01*
X794492Y98301D01*
X794097Y98132D01*
X793698Y97973D01*
X793296Y97823D01*
X792889Y97683D01*
X792480Y97554D01*
X792067Y97434D01*
X791652Y97324D01*
X791234Y97225D01*
X790814Y97136D01*
X790392Y97058D01*
X789968Y96989D01*
X789542Y96932D01*
X789115Y96884D01*
X788687Y96847D01*
X788259Y96821D01*
X787829Y96805D01*
X787400Y96800D01*
X786971Y96805D01*
X786541Y96821D01*
X786113Y96847D01*
X785685Y96884D01*
X785258Y96932D01*
X784832Y96989D01*
X784408Y97058D01*
X783986Y97136D01*
X783566Y97225D01*
X783148Y97324D01*
X782733Y97434D01*
X782320Y97554D01*
X781911Y97683D01*
X781504Y97823D01*
X781102Y97973D01*
X780703Y98132D01*
X780308Y98301D01*
X779918Y98480D01*
X779532Y98669D01*
X779151Y98866D01*
X778774Y99073D01*
X778403Y99290D01*
X778038Y99515D01*
X777678Y99749D01*
X777323Y99992D01*
X776975Y100244D01*
X776633Y100504D01*
X776298Y100772D01*
X775969Y101049D01*
X775648Y101333D01*
X775333Y101626D01*
X775026Y101926D01*
X774726Y102233D01*
X774433Y102548D01*
X774149Y102869D01*
X773872Y103198D01*
X773604Y103533D01*
X773344Y103875D01*
X773092Y104223D01*
X772849Y104578D01*
X772615Y104938D01*
X772390Y105303D01*
X772173Y105674D01*
X771966Y106051D01*
X771769Y106432D01*
X771580Y106818D01*
X771401Y107208D01*
X771232Y107603D01*
X771073Y108002D01*
X770923Y108404D01*
X770783Y108811D01*
X770654Y109220D01*
X770534Y109633D01*
X770424Y110048D01*
X770325Y110466D01*
X770236Y110886D01*
X770158Y111308D01*
X770089Y111732D01*
X770032Y112158D01*
X769984Y112585D01*
X769947Y113013D01*
X769921Y113441D01*
X769905Y113871D01*
X769900Y114300D01*
D13*
X782614Y78161D02*
X782612Y78096D01*
X782606Y78032D01*
X782596Y77968D01*
X782583Y77904D01*
X782565Y77842D01*
X782544Y77781D01*
X782520Y77721D01*
X782491Y77663D01*
X782459Y77606D01*
X782424Y77552D01*
X782386Y77500D01*
X782344Y77450D01*
X782300Y77403D01*
X782253Y77359D01*
X782203Y77317D01*
X782151Y77279D01*
X782097Y77244D01*
X782040Y77212D01*
X781982Y77183D01*
X781922Y77159D01*
X781861Y77138D01*
X781799Y77120D01*
X781735Y77107D01*
X781671Y77097D01*
X781607Y77091D01*
X781542Y77089D01*
X781448Y77091D01*
X781354Y77097D01*
X781260Y77107D01*
X781167Y77120D01*
X781075Y77138D01*
X780983Y77159D01*
X780892Y77184D01*
X780802Y77213D01*
X780714Y77246D01*
X780627Y77282D01*
X780542Y77322D01*
X780458Y77365D01*
X780377Y77412D01*
X780297Y77462D01*
X780219Y77515D01*
X780144Y77572D01*
X780071Y77631D01*
X780001Y77694D01*
X779933Y77759D01*
X780067Y80843D02*
X780069Y80908D01*
X780075Y80972D01*
X780085Y81036D01*
X780098Y81100D01*
X780116Y81162D01*
X780137Y81223D01*
X780161Y81283D01*
X780190Y81341D01*
X780222Y81398D01*
X780257Y81452D01*
X780295Y81504D01*
X780337Y81554D01*
X780381Y81601D01*
X780428Y81645D01*
X780478Y81687D01*
X780530Y81725D01*
X780584Y81760D01*
X780641Y81792D01*
X780699Y81821D01*
X780759Y81845D01*
X780820Y81866D01*
X780882Y81884D01*
X780946Y81897D01*
X781010Y81907D01*
X781074Y81913D01*
X781139Y81915D01*
X781225Y81913D01*
X781311Y81908D01*
X781397Y81898D01*
X781482Y81885D01*
X781567Y81869D01*
X781651Y81849D01*
X781734Y81825D01*
X781816Y81798D01*
X781896Y81767D01*
X781976Y81733D01*
X782053Y81695D01*
X782129Y81654D01*
X782203Y81610D01*
X782275Y81563D01*
X782346Y81513D01*
X780603Y79905D02*
X780550Y79938D01*
X780499Y79975D01*
X780450Y80014D01*
X780403Y80056D01*
X780359Y80101D01*
X780318Y80148D01*
X780279Y80197D01*
X780243Y80249D01*
X780210Y80303D01*
X780181Y80358D01*
X780155Y80415D01*
X780132Y80474D01*
X780112Y80533D01*
X780096Y80594D01*
X780083Y80655D01*
X780074Y80718D01*
X780069Y80780D01*
X780067Y80843D01*
X782078Y79099D02*
X782131Y79066D01*
X782182Y79029D01*
X782231Y78990D01*
X782278Y78948D01*
X782322Y78903D01*
X782363Y78856D01*
X782402Y78807D01*
X782438Y78755D01*
X782471Y78701D01*
X782500Y78646D01*
X782526Y78589D01*
X782549Y78530D01*
X782569Y78471D01*
X782585Y78410D01*
X782598Y78349D01*
X782607Y78286D01*
X782612Y78224D01*
X782614Y78161D01*
X782078Y79100D02*
X780603Y79904D01*
X785164Y81915D02*
X786236Y77089D01*
X787309Y80306D01*
X788381Y77089D01*
X789453Y81915D01*
X792186Y81915D02*
X792186Y81379D01*
X792186Y81915D02*
X794867Y81915D01*
X793526Y77089D01*
D12*
X871700Y144300D02*
X931700Y144300D01*
X871700Y144300D02*
X871700Y84300D01*
X931700Y84300D01*
X931700Y144300D01*
X884200Y114300D02*
X884205Y114729D01*
X884221Y115159D01*
X884247Y115587D01*
X884284Y116015D01*
X884332Y116442D01*
X884389Y116868D01*
X884458Y117292D01*
X884536Y117714D01*
X884625Y118134D01*
X884724Y118552D01*
X884834Y118967D01*
X884954Y119380D01*
X885083Y119789D01*
X885223Y120196D01*
X885373Y120598D01*
X885532Y120997D01*
X885701Y121392D01*
X885880Y121782D01*
X886069Y122168D01*
X886266Y122549D01*
X886473Y122926D01*
X886690Y123297D01*
X886915Y123662D01*
X887149Y124022D01*
X887392Y124377D01*
X887644Y124725D01*
X887904Y125067D01*
X888172Y125402D01*
X888449Y125731D01*
X888733Y126052D01*
X889026Y126367D01*
X889326Y126674D01*
X889633Y126974D01*
X889948Y127267D01*
X890269Y127551D01*
X890598Y127828D01*
X890933Y128096D01*
X891275Y128356D01*
X891623Y128608D01*
X891978Y128851D01*
X892338Y129085D01*
X892703Y129310D01*
X893074Y129527D01*
X893451Y129734D01*
X893832Y129931D01*
X894218Y130120D01*
X894608Y130299D01*
X895003Y130468D01*
X895402Y130627D01*
X895804Y130777D01*
X896211Y130917D01*
X896620Y131046D01*
X897033Y131166D01*
X897448Y131276D01*
X897866Y131375D01*
X898286Y131464D01*
X898708Y131542D01*
X899132Y131611D01*
X899558Y131668D01*
X899985Y131716D01*
X900413Y131753D01*
X900841Y131779D01*
X901271Y131795D01*
X901700Y131800D01*
X902129Y131795D01*
X902559Y131779D01*
X902987Y131753D01*
X903415Y131716D01*
X903842Y131668D01*
X904268Y131611D01*
X904692Y131542D01*
X905114Y131464D01*
X905534Y131375D01*
X905952Y131276D01*
X906367Y131166D01*
X906780Y131046D01*
X907189Y130917D01*
X907596Y130777D01*
X907998Y130627D01*
X908397Y130468D01*
X908792Y130299D01*
X909182Y130120D01*
X909568Y129931D01*
X909949Y129734D01*
X910326Y129527D01*
X910697Y129310D01*
X911062Y129085D01*
X911422Y128851D01*
X911777Y128608D01*
X912125Y128356D01*
X912467Y128096D01*
X912802Y127828D01*
X913131Y127551D01*
X913452Y127267D01*
X913767Y126974D01*
X914074Y126674D01*
X914374Y126367D01*
X914667Y126052D01*
X914951Y125731D01*
X915228Y125402D01*
X915496Y125067D01*
X915756Y124725D01*
X916008Y124377D01*
X916251Y124022D01*
X916485Y123662D01*
X916710Y123297D01*
X916927Y122926D01*
X917134Y122549D01*
X917331Y122168D01*
X917520Y121782D01*
X917699Y121392D01*
X917868Y120997D01*
X918027Y120598D01*
X918177Y120196D01*
X918317Y119789D01*
X918446Y119380D01*
X918566Y118967D01*
X918676Y118552D01*
X918775Y118134D01*
X918864Y117714D01*
X918942Y117292D01*
X919011Y116868D01*
X919068Y116442D01*
X919116Y116015D01*
X919153Y115587D01*
X919179Y115159D01*
X919195Y114729D01*
X919200Y114300D01*
X919195Y113871D01*
X919179Y113441D01*
X919153Y113013D01*
X919116Y112585D01*
X919068Y112158D01*
X919011Y111732D01*
X918942Y111308D01*
X918864Y110886D01*
X918775Y110466D01*
X918676Y110048D01*
X918566Y109633D01*
X918446Y109220D01*
X918317Y108811D01*
X918177Y108404D01*
X918027Y108002D01*
X917868Y107603D01*
X917699Y107208D01*
X917520Y106818D01*
X917331Y106432D01*
X917134Y106051D01*
X916927Y105674D01*
X916710Y105303D01*
X916485Y104938D01*
X916251Y104578D01*
X916008Y104223D01*
X915756Y103875D01*
X915496Y103533D01*
X915228Y103198D01*
X914951Y102869D01*
X914667Y102548D01*
X914374Y102233D01*
X914074Y101926D01*
X913767Y101626D01*
X913452Y101333D01*
X913131Y101049D01*
X912802Y100772D01*
X912467Y100504D01*
X912125Y100244D01*
X911777Y99992D01*
X911422Y99749D01*
X911062Y99515D01*
X910697Y99290D01*
X910326Y99073D01*
X909949Y98866D01*
X909568Y98669D01*
X909182Y98480D01*
X908792Y98301D01*
X908397Y98132D01*
X907998Y97973D01*
X907596Y97823D01*
X907189Y97683D01*
X906780Y97554D01*
X906367Y97434D01*
X905952Y97324D01*
X905534Y97225D01*
X905114Y97136D01*
X904692Y97058D01*
X904268Y96989D01*
X903842Y96932D01*
X903415Y96884D01*
X902987Y96847D01*
X902559Y96821D01*
X902129Y96805D01*
X901700Y96800D01*
X901271Y96805D01*
X900841Y96821D01*
X900413Y96847D01*
X899985Y96884D01*
X899558Y96932D01*
X899132Y96989D01*
X898708Y97058D01*
X898286Y97136D01*
X897866Y97225D01*
X897448Y97324D01*
X897033Y97434D01*
X896620Y97554D01*
X896211Y97683D01*
X895804Y97823D01*
X895402Y97973D01*
X895003Y98132D01*
X894608Y98301D01*
X894218Y98480D01*
X893832Y98669D01*
X893451Y98866D01*
X893074Y99073D01*
X892703Y99290D01*
X892338Y99515D01*
X891978Y99749D01*
X891623Y99992D01*
X891275Y100244D01*
X890933Y100504D01*
X890598Y100772D01*
X890269Y101049D01*
X889948Y101333D01*
X889633Y101626D01*
X889326Y101926D01*
X889026Y102233D01*
X888733Y102548D01*
X888449Y102869D01*
X888172Y103198D01*
X887904Y103533D01*
X887644Y103875D01*
X887392Y104223D01*
X887149Y104578D01*
X886915Y104938D01*
X886690Y105303D01*
X886473Y105674D01*
X886266Y106051D01*
X886069Y106432D01*
X885880Y106818D01*
X885701Y107208D01*
X885532Y107603D01*
X885373Y108002D01*
X885223Y108404D01*
X885083Y108811D01*
X884954Y109220D01*
X884834Y109633D01*
X884724Y110048D01*
X884625Y110466D01*
X884536Y110886D01*
X884458Y111308D01*
X884389Y111732D01*
X884332Y112158D01*
X884284Y112585D01*
X884247Y113013D01*
X884221Y113441D01*
X884205Y113871D01*
X884200Y114300D01*
D13*
X896914Y78161D02*
X896912Y78096D01*
X896906Y78032D01*
X896896Y77968D01*
X896883Y77904D01*
X896865Y77842D01*
X896844Y77781D01*
X896820Y77721D01*
X896791Y77663D01*
X896759Y77606D01*
X896724Y77552D01*
X896686Y77500D01*
X896644Y77450D01*
X896600Y77403D01*
X896553Y77359D01*
X896503Y77317D01*
X896451Y77279D01*
X896397Y77244D01*
X896340Y77212D01*
X896282Y77183D01*
X896222Y77159D01*
X896161Y77138D01*
X896099Y77120D01*
X896035Y77107D01*
X895971Y77097D01*
X895907Y77091D01*
X895842Y77089D01*
X895748Y77091D01*
X895654Y77097D01*
X895560Y77107D01*
X895467Y77120D01*
X895375Y77138D01*
X895283Y77159D01*
X895192Y77184D01*
X895102Y77213D01*
X895014Y77246D01*
X894927Y77282D01*
X894842Y77322D01*
X894758Y77365D01*
X894677Y77412D01*
X894597Y77462D01*
X894519Y77515D01*
X894444Y77572D01*
X894371Y77631D01*
X894301Y77694D01*
X894233Y77759D01*
X894367Y80843D02*
X894369Y80908D01*
X894375Y80972D01*
X894385Y81036D01*
X894398Y81100D01*
X894416Y81162D01*
X894437Y81223D01*
X894461Y81283D01*
X894490Y81341D01*
X894522Y81398D01*
X894557Y81452D01*
X894595Y81504D01*
X894637Y81554D01*
X894681Y81601D01*
X894728Y81645D01*
X894778Y81687D01*
X894830Y81725D01*
X894884Y81760D01*
X894941Y81792D01*
X894999Y81821D01*
X895059Y81845D01*
X895120Y81866D01*
X895182Y81884D01*
X895246Y81897D01*
X895310Y81907D01*
X895374Y81913D01*
X895439Y81915D01*
X895525Y81913D01*
X895611Y81908D01*
X895697Y81898D01*
X895782Y81885D01*
X895867Y81869D01*
X895951Y81849D01*
X896034Y81825D01*
X896116Y81798D01*
X896196Y81767D01*
X896276Y81733D01*
X896353Y81695D01*
X896429Y81654D01*
X896503Y81610D01*
X896575Y81563D01*
X896646Y81513D01*
X894903Y79905D02*
X894850Y79938D01*
X894799Y79975D01*
X894750Y80014D01*
X894703Y80056D01*
X894659Y80101D01*
X894618Y80148D01*
X894579Y80197D01*
X894543Y80249D01*
X894510Y80303D01*
X894481Y80358D01*
X894455Y80415D01*
X894432Y80474D01*
X894412Y80533D01*
X894396Y80594D01*
X894383Y80655D01*
X894374Y80718D01*
X894369Y80780D01*
X894367Y80843D01*
X896378Y79099D02*
X896431Y79066D01*
X896482Y79029D01*
X896531Y78990D01*
X896578Y78948D01*
X896622Y78903D01*
X896663Y78856D01*
X896702Y78807D01*
X896738Y78755D01*
X896771Y78701D01*
X896800Y78646D01*
X896826Y78589D01*
X896849Y78530D01*
X896869Y78471D01*
X896885Y78410D01*
X896898Y78349D01*
X896907Y78286D01*
X896912Y78224D01*
X896914Y78161D01*
X896378Y79100D02*
X894903Y79904D01*
X899464Y81915D02*
X900536Y77089D01*
X901609Y80306D01*
X902681Y77089D01*
X903753Y81915D01*
X906485Y78430D02*
X906487Y78501D01*
X906493Y78573D01*
X906502Y78643D01*
X906515Y78713D01*
X906532Y78783D01*
X906553Y78851D01*
X906577Y78918D01*
X906605Y78984D01*
X906636Y79048D01*
X906671Y79111D01*
X906709Y79171D01*
X906750Y79230D01*
X906794Y79286D01*
X906841Y79340D01*
X906890Y79391D01*
X906943Y79439D01*
X906998Y79485D01*
X907055Y79527D01*
X907115Y79567D01*
X907176Y79603D01*
X907240Y79636D01*
X907305Y79665D01*
X907371Y79691D01*
X907439Y79714D01*
X907508Y79733D01*
X907578Y79748D01*
X907648Y79759D01*
X907719Y79767D01*
X907790Y79771D01*
X907862Y79771D01*
X907933Y79767D01*
X908004Y79759D01*
X908074Y79748D01*
X908144Y79733D01*
X908213Y79714D01*
X908281Y79691D01*
X908347Y79665D01*
X908412Y79636D01*
X908476Y79603D01*
X908537Y79567D01*
X908597Y79527D01*
X908654Y79485D01*
X908709Y79439D01*
X908762Y79391D01*
X908811Y79340D01*
X908858Y79286D01*
X908902Y79230D01*
X908943Y79171D01*
X908981Y79111D01*
X909016Y79048D01*
X909047Y78984D01*
X909075Y78918D01*
X909099Y78851D01*
X909120Y78783D01*
X909137Y78713D01*
X909150Y78643D01*
X909159Y78573D01*
X909165Y78501D01*
X909167Y78430D01*
X909165Y78359D01*
X909159Y78287D01*
X909150Y78217D01*
X909137Y78147D01*
X909120Y78077D01*
X909099Y78009D01*
X909075Y77942D01*
X909047Y77876D01*
X909016Y77812D01*
X908981Y77749D01*
X908943Y77689D01*
X908902Y77630D01*
X908858Y77574D01*
X908811Y77520D01*
X908762Y77469D01*
X908709Y77421D01*
X908654Y77375D01*
X908597Y77333D01*
X908537Y77293D01*
X908476Y77257D01*
X908412Y77224D01*
X908347Y77195D01*
X908281Y77169D01*
X908213Y77146D01*
X908144Y77127D01*
X908074Y77112D01*
X908004Y77101D01*
X907933Y77093D01*
X907862Y77089D01*
X907790Y77089D01*
X907719Y77093D01*
X907648Y77101D01*
X907578Y77112D01*
X907508Y77127D01*
X907439Y77146D01*
X907371Y77169D01*
X907305Y77195D01*
X907240Y77224D01*
X907176Y77257D01*
X907115Y77293D01*
X907055Y77333D01*
X906998Y77375D01*
X906943Y77421D01*
X906890Y77469D01*
X906841Y77520D01*
X906794Y77574D01*
X906750Y77630D01*
X906709Y77689D01*
X906671Y77749D01*
X906636Y77812D01*
X906605Y77876D01*
X906577Y77942D01*
X906553Y78009D01*
X906532Y78077D01*
X906515Y78147D01*
X906502Y78217D01*
X906493Y78287D01*
X906487Y78359D01*
X906485Y78430D01*
X906754Y80843D02*
X906756Y80908D01*
X906762Y80972D01*
X906772Y81036D01*
X906785Y81100D01*
X906803Y81162D01*
X906824Y81223D01*
X906848Y81283D01*
X906877Y81341D01*
X906909Y81398D01*
X906944Y81452D01*
X906982Y81504D01*
X907024Y81554D01*
X907068Y81601D01*
X907115Y81645D01*
X907165Y81687D01*
X907217Y81725D01*
X907271Y81760D01*
X907328Y81792D01*
X907386Y81821D01*
X907446Y81845D01*
X907507Y81866D01*
X907569Y81884D01*
X907633Y81897D01*
X907697Y81907D01*
X907761Y81913D01*
X907826Y81915D01*
X907891Y81913D01*
X907955Y81907D01*
X908019Y81897D01*
X908083Y81884D01*
X908145Y81866D01*
X908206Y81845D01*
X908266Y81821D01*
X908324Y81792D01*
X908381Y81760D01*
X908435Y81725D01*
X908487Y81687D01*
X908537Y81645D01*
X908584Y81601D01*
X908628Y81554D01*
X908670Y81504D01*
X908708Y81452D01*
X908743Y81398D01*
X908775Y81341D01*
X908804Y81283D01*
X908828Y81223D01*
X908849Y81162D01*
X908867Y81100D01*
X908880Y81036D01*
X908890Y80972D01*
X908896Y80908D01*
X908898Y80843D01*
X908896Y80778D01*
X908890Y80714D01*
X908880Y80650D01*
X908867Y80586D01*
X908849Y80524D01*
X908828Y80463D01*
X908804Y80403D01*
X908775Y80345D01*
X908743Y80288D01*
X908708Y80234D01*
X908670Y80182D01*
X908628Y80132D01*
X908584Y80085D01*
X908537Y80041D01*
X908487Y79999D01*
X908435Y79961D01*
X908381Y79926D01*
X908324Y79894D01*
X908266Y79865D01*
X908206Y79841D01*
X908145Y79820D01*
X908083Y79802D01*
X908019Y79789D01*
X907955Y79779D01*
X907891Y79773D01*
X907826Y79771D01*
X907761Y79773D01*
X907697Y79779D01*
X907633Y79789D01*
X907569Y79802D01*
X907507Y79820D01*
X907446Y79841D01*
X907386Y79865D01*
X907328Y79894D01*
X907271Y79926D01*
X907217Y79961D01*
X907165Y79999D01*
X907115Y80041D01*
X907068Y80085D01*
X907024Y80132D01*
X906982Y80182D01*
X906944Y80234D01*
X906909Y80288D01*
X906877Y80345D01*
X906848Y80403D01*
X906824Y80463D01*
X906803Y80524D01*
X906785Y80586D01*
X906772Y80650D01*
X906762Y80714D01*
X906756Y80778D01*
X906754Y80843D01*
D14*
X629158Y284424D02*
X629158Y292862D01*
X629158Y284424D02*
X629160Y284311D01*
X629166Y284198D01*
X629176Y284085D01*
X629190Y283972D01*
X629207Y283860D01*
X629229Y283749D01*
X629254Y283639D01*
X629284Y283529D01*
X629317Y283421D01*
X629354Y283314D01*
X629394Y283208D01*
X629439Y283104D01*
X629487Y283001D01*
X629538Y282900D01*
X629593Y282801D01*
X629651Y282704D01*
X629713Y282609D01*
X629778Y282516D01*
X629846Y282426D01*
X629917Y282338D01*
X629992Y282252D01*
X630069Y282169D01*
X630149Y282089D01*
X630232Y282012D01*
X630318Y281937D01*
X630406Y281866D01*
X630496Y281798D01*
X630589Y281733D01*
X630684Y281671D01*
X630781Y281613D01*
X630880Y281558D01*
X630981Y281507D01*
X631084Y281459D01*
X631188Y281414D01*
X631294Y281374D01*
X631401Y281337D01*
X631509Y281304D01*
X631619Y281274D01*
X631729Y281249D01*
X631840Y281227D01*
X631952Y281210D01*
X632065Y281196D01*
X632178Y281186D01*
X632291Y281180D01*
X632404Y281178D01*
X632517Y281180D01*
X632630Y281186D01*
X632743Y281196D01*
X632856Y281210D01*
X632968Y281227D01*
X633079Y281249D01*
X633189Y281274D01*
X633299Y281304D01*
X633407Y281337D01*
X633514Y281374D01*
X633620Y281414D01*
X633724Y281459D01*
X633827Y281507D01*
X633928Y281558D01*
X634027Y281613D01*
X634124Y281671D01*
X634219Y281733D01*
X634312Y281798D01*
X634402Y281866D01*
X634490Y281937D01*
X634576Y282012D01*
X634659Y282089D01*
X634739Y282169D01*
X634816Y282252D01*
X634891Y282338D01*
X634962Y282426D01*
X635030Y282516D01*
X635095Y282609D01*
X635157Y282704D01*
X635215Y282801D01*
X635270Y282900D01*
X635321Y283001D01*
X635369Y283104D01*
X635414Y283208D01*
X635454Y283314D01*
X635491Y283421D01*
X635524Y283529D01*
X635554Y283639D01*
X635579Y283749D01*
X635601Y283860D01*
X635618Y283972D01*
X635632Y284085D01*
X635642Y284198D01*
X635648Y284311D01*
X635650Y284424D01*
X635649Y284424D02*
X635649Y292862D01*
X640969Y290266D02*
X644215Y292862D01*
X644215Y281178D01*
X647460Y281178D02*
X640969Y281178D01*
X659139Y178308D02*
X661736Y178308D01*
X659139Y178308D02*
X659040Y178310D01*
X658940Y178316D01*
X658841Y178325D01*
X658743Y178338D01*
X658645Y178355D01*
X658547Y178376D01*
X658451Y178401D01*
X658356Y178429D01*
X658262Y178461D01*
X658169Y178496D01*
X658077Y178535D01*
X657987Y178578D01*
X657899Y178623D01*
X657812Y178673D01*
X657728Y178725D01*
X657645Y178781D01*
X657565Y178839D01*
X657487Y178901D01*
X657412Y178966D01*
X657339Y179034D01*
X657269Y179104D01*
X657201Y179177D01*
X657136Y179252D01*
X657074Y179330D01*
X657016Y179410D01*
X656960Y179493D01*
X656908Y179577D01*
X656858Y179664D01*
X656813Y179752D01*
X656770Y179842D01*
X656731Y179934D01*
X656696Y180027D01*
X656664Y180121D01*
X656636Y180216D01*
X656611Y180312D01*
X656590Y180410D01*
X656573Y180508D01*
X656560Y180606D01*
X656551Y180705D01*
X656545Y180805D01*
X656543Y180904D01*
X656543Y187396D01*
X656545Y187495D01*
X656551Y187595D01*
X656560Y187694D01*
X656573Y187792D01*
X656590Y187890D01*
X656611Y187988D01*
X656636Y188084D01*
X656664Y188179D01*
X656696Y188273D01*
X656731Y188366D01*
X656770Y188458D01*
X656813Y188548D01*
X656858Y188636D01*
X656908Y188723D01*
X656960Y188807D01*
X657016Y188890D01*
X657074Y188970D01*
X657136Y189048D01*
X657201Y189123D01*
X657269Y189196D01*
X657339Y189266D01*
X657412Y189334D01*
X657487Y189399D01*
X657565Y189461D01*
X657645Y189519D01*
X657728Y189575D01*
X657812Y189627D01*
X657899Y189677D01*
X657987Y189722D01*
X658077Y189765D01*
X658169Y189804D01*
X658261Y189839D01*
X658356Y189871D01*
X658451Y189899D01*
X658547Y189924D01*
X658645Y189945D01*
X658743Y189962D01*
X658841Y189975D01*
X658940Y189984D01*
X659040Y189990D01*
X659139Y189992D01*
X661736Y189992D01*
X669671Y189992D02*
X669778Y189990D01*
X669884Y189984D01*
X669990Y189974D01*
X670096Y189961D01*
X670202Y189943D01*
X670306Y189922D01*
X670410Y189897D01*
X670513Y189868D01*
X670614Y189836D01*
X670714Y189799D01*
X670813Y189759D01*
X670911Y189716D01*
X671007Y189669D01*
X671101Y189618D01*
X671193Y189564D01*
X671283Y189507D01*
X671371Y189447D01*
X671456Y189383D01*
X671539Y189316D01*
X671620Y189246D01*
X671698Y189174D01*
X671774Y189098D01*
X671846Y189020D01*
X671916Y188939D01*
X671983Y188856D01*
X672047Y188771D01*
X672107Y188683D01*
X672164Y188593D01*
X672218Y188501D01*
X672269Y188407D01*
X672316Y188311D01*
X672359Y188213D01*
X672399Y188114D01*
X672436Y188014D01*
X672468Y187913D01*
X672497Y187810D01*
X672522Y187706D01*
X672543Y187602D01*
X672561Y187496D01*
X672574Y187390D01*
X672584Y187284D01*
X672590Y187178D01*
X672592Y187071D01*
X669671Y189992D02*
X669550Y189990D01*
X669429Y189984D01*
X669309Y189974D01*
X669188Y189961D01*
X669069Y189943D01*
X668949Y189922D01*
X668831Y189897D01*
X668714Y189868D01*
X668597Y189835D01*
X668482Y189799D01*
X668368Y189758D01*
X668255Y189715D01*
X668143Y189667D01*
X668034Y189616D01*
X667926Y189561D01*
X667819Y189503D01*
X667715Y189442D01*
X667613Y189377D01*
X667513Y189309D01*
X667415Y189238D01*
X667319Y189164D01*
X667226Y189087D01*
X667136Y189006D01*
X667048Y188923D01*
X666963Y188837D01*
X666880Y188748D01*
X666801Y188657D01*
X666724Y188563D01*
X666651Y188467D01*
X666581Y188369D01*
X666514Y188268D01*
X666450Y188165D01*
X666390Y188060D01*
X666333Y187953D01*
X666279Y187845D01*
X666229Y187735D01*
X666183Y187623D01*
X666140Y187510D01*
X666101Y187395D01*
X671619Y184799D02*
X671698Y184876D01*
X671774Y184957D01*
X671847Y185040D01*
X671917Y185125D01*
X671984Y185213D01*
X672048Y185303D01*
X672108Y185395D01*
X672165Y185490D01*
X672219Y185586D01*
X672270Y185684D01*
X672317Y185784D01*
X672361Y185886D01*
X672401Y185989D01*
X672437Y186093D01*
X672469Y186199D01*
X672498Y186305D01*
X672523Y186413D01*
X672545Y186521D01*
X672562Y186631D01*
X672576Y186740D01*
X672585Y186850D01*
X672591Y186961D01*
X672593Y187071D01*
X671618Y184799D02*
X666101Y178308D01*
X672592Y178308D01*
M02*
