G04 EAGLE Gerber RS-274X export*
G75*
%MOMM*%
%FSLAX34Y34*%
%LPD*%
%INBottom Copper*%
%IPPOS*%
%AMOC8*
5,1,8,0,0,1.08239X$1,22.5*%
G01*
%ADD10P,3.409096X8X292.500000*%
%ADD11P,2.749271X8X202.500000*%
%ADD12C,0.914400*%

G36*
X976398Y10164D02*
X976398Y10164D01*
X976417Y10162D01*
X976519Y10184D01*
X976621Y10200D01*
X976638Y10210D01*
X976658Y10214D01*
X976747Y10267D01*
X976838Y10316D01*
X976852Y10330D01*
X976869Y10340D01*
X976936Y10419D01*
X977008Y10494D01*
X977016Y10512D01*
X977029Y10527D01*
X977068Y10623D01*
X977111Y10717D01*
X977113Y10737D01*
X977121Y10755D01*
X977139Y10922D01*
X977139Y331561D01*
X977128Y331632D01*
X977126Y331703D01*
X977108Y331752D01*
X977100Y331804D01*
X977066Y331867D01*
X977041Y331934D01*
X977009Y331975D01*
X976984Y332021D01*
X976932Y332070D01*
X976888Y332126D01*
X976844Y332155D01*
X976806Y332190D01*
X976741Y332221D01*
X976681Y332259D01*
X976630Y332272D01*
X976583Y332294D01*
X976512Y332302D01*
X976442Y332319D01*
X976390Y332315D01*
X976339Y332321D01*
X976268Y332306D01*
X976197Y332300D01*
X976149Y332280D01*
X976098Y332269D01*
X976037Y332232D01*
X975971Y332204D01*
X975915Y332159D01*
X975887Y332143D01*
X975872Y332125D01*
X975840Y332099D01*
X973788Y330047D01*
X968216Y327739D01*
X962184Y327739D01*
X956612Y330047D01*
X952347Y334312D01*
X950039Y339884D01*
X950039Y345916D01*
X952347Y351488D01*
X956612Y355753D01*
X958597Y356575D01*
X958680Y356626D01*
X958766Y356672D01*
X958784Y356690D01*
X958806Y356704D01*
X958868Y356780D01*
X958935Y356850D01*
X958946Y356874D01*
X958963Y356894D01*
X958998Y356985D01*
X959039Y357073D01*
X959042Y357099D01*
X959051Y357123D01*
X959055Y357221D01*
X959066Y357317D01*
X959060Y357343D01*
X959061Y357369D01*
X959034Y357463D01*
X959013Y357558D01*
X959000Y357580D01*
X958993Y357605D01*
X958937Y357685D01*
X958887Y357769D01*
X958867Y357786D01*
X958853Y357807D01*
X958774Y357866D01*
X958700Y357929D01*
X958676Y357939D01*
X958655Y357954D01*
X958563Y357984D01*
X958472Y358021D01*
X958440Y358024D01*
X958421Y358030D01*
X958388Y358030D01*
X958306Y358039D01*
X32294Y358039D01*
X32198Y358024D01*
X32101Y358014D01*
X32078Y358004D01*
X32052Y358000D01*
X31966Y357954D01*
X31877Y357914D01*
X31857Y357897D01*
X31834Y357884D01*
X31767Y357814D01*
X31696Y357748D01*
X31683Y357725D01*
X31665Y357706D01*
X31624Y357618D01*
X31577Y357532D01*
X31572Y357507D01*
X31561Y357483D01*
X31551Y357386D01*
X31533Y357290D01*
X31537Y357264D01*
X31534Y357239D01*
X31555Y357143D01*
X31569Y357047D01*
X31581Y357024D01*
X31587Y356998D01*
X31636Y356915D01*
X31681Y356828D01*
X31699Y356809D01*
X31713Y356787D01*
X31787Y356724D01*
X31856Y356656D01*
X31885Y356640D01*
X31900Y356627D01*
X31930Y356615D01*
X32003Y356575D01*
X33988Y355753D01*
X38253Y351488D01*
X40561Y345916D01*
X40561Y339884D01*
X38253Y334312D01*
X33988Y330047D01*
X28416Y327739D01*
X22384Y327739D01*
X16812Y330047D01*
X12547Y334312D01*
X11625Y336538D01*
X11574Y336621D01*
X11528Y336707D01*
X11510Y336725D01*
X11496Y336747D01*
X11420Y336810D01*
X11350Y336876D01*
X11326Y336887D01*
X11306Y336904D01*
X11215Y336939D01*
X11127Y336980D01*
X11101Y336983D01*
X11077Y336992D01*
X10979Y336996D01*
X10883Y337007D01*
X10857Y337002D01*
X10831Y337003D01*
X10737Y336976D01*
X10642Y336955D01*
X10620Y336941D01*
X10595Y336934D01*
X10515Y336879D01*
X10431Y336829D01*
X10414Y336809D01*
X10393Y336794D01*
X10334Y336716D01*
X10271Y336642D01*
X10261Y336618D01*
X10246Y336597D01*
X10216Y336504D01*
X10179Y336414D01*
X10176Y336381D01*
X10170Y336363D01*
X10170Y336330D01*
X10161Y336247D01*
X10161Y32053D01*
X10176Y31957D01*
X10186Y31860D01*
X10196Y31836D01*
X10200Y31810D01*
X10246Y31724D01*
X10286Y31635D01*
X10303Y31616D01*
X10316Y31593D01*
X10386Y31526D01*
X10452Y31454D01*
X10475Y31442D01*
X10494Y31424D01*
X10582Y31383D01*
X10668Y31336D01*
X10693Y31331D01*
X10717Y31320D01*
X10814Y31309D01*
X10910Y31292D01*
X10936Y31296D01*
X10961Y31293D01*
X11057Y31313D01*
X11153Y31328D01*
X11176Y31340D01*
X11202Y31345D01*
X11285Y31395D01*
X11372Y31439D01*
X11391Y31458D01*
X11413Y31471D01*
X11476Y31545D01*
X11544Y31615D01*
X11560Y31643D01*
X11573Y31658D01*
X11585Y31689D01*
X11625Y31762D01*
X12547Y33988D01*
X16812Y38253D01*
X22384Y40561D01*
X28416Y40561D01*
X33988Y38253D01*
X38253Y33988D01*
X40561Y28416D01*
X40561Y22384D01*
X38253Y16812D01*
X33988Y12547D01*
X31762Y11625D01*
X31679Y11574D01*
X31593Y11528D01*
X31575Y11510D01*
X31553Y11496D01*
X31490Y11420D01*
X31424Y11350D01*
X31413Y11326D01*
X31396Y11306D01*
X31361Y11215D01*
X31320Y11127D01*
X31317Y11101D01*
X31308Y11077D01*
X31304Y10979D01*
X31293Y10883D01*
X31298Y10857D01*
X31297Y10831D01*
X31324Y10737D01*
X31345Y10642D01*
X31359Y10620D01*
X31366Y10595D01*
X31421Y10515D01*
X31471Y10431D01*
X31491Y10414D01*
X31506Y10393D01*
X31584Y10334D01*
X31658Y10271D01*
X31682Y10261D01*
X31703Y10246D01*
X31796Y10216D01*
X31886Y10179D01*
X31919Y10176D01*
X31937Y10170D01*
X31970Y10170D01*
X32053Y10161D01*
X976378Y10161D01*
X976398Y10164D01*
G37*
%LPC*%
G36*
X157525Y273811D02*
X157525Y273811D01*
X146811Y284525D01*
X146811Y299675D01*
X157525Y310389D01*
X172675Y310389D01*
X183389Y299675D01*
X183389Y284525D01*
X172675Y273811D01*
X157525Y273811D01*
G37*
%LPD*%
%LPC*%
G36*
X336587Y226059D02*
X336587Y226059D01*
X327659Y234987D01*
X327659Y247613D01*
X336587Y256541D01*
X349213Y256541D01*
X358141Y247613D01*
X358141Y234987D01*
X349213Y226059D01*
X336587Y226059D01*
G37*
%LPD*%
%LPC*%
G36*
X412787Y226059D02*
X412787Y226059D01*
X403859Y234987D01*
X403859Y247613D01*
X412787Y256541D01*
X425413Y256541D01*
X434341Y247613D01*
X434341Y234987D01*
X425413Y226059D01*
X412787Y226059D01*
G37*
%LPD*%
%LPC*%
G36*
X115823Y293623D02*
X115823Y293623D01*
X115823Y310389D01*
X121875Y310389D01*
X132589Y299675D01*
X132589Y293623D01*
X115823Y293623D01*
G37*
%LPD*%
%LPC*%
G36*
X96011Y293623D02*
X96011Y293623D01*
X96011Y299675D01*
X106725Y310389D01*
X112777Y310389D01*
X112777Y293623D01*
X96011Y293623D01*
G37*
%LPD*%
%LPC*%
G36*
X115823Y273811D02*
X115823Y273811D01*
X115823Y290577D01*
X132589Y290577D01*
X132589Y284525D01*
X121875Y273811D01*
X115823Y273811D01*
G37*
%LPD*%
%LPC*%
G36*
X106725Y273811D02*
X106725Y273811D01*
X96011Y284525D01*
X96011Y290577D01*
X112777Y290577D01*
X112777Y273811D01*
X106725Y273811D01*
G37*
%LPD*%
%LPC*%
G36*
X114299Y292099D02*
X114299Y292099D01*
X114299Y292101D01*
X114301Y292101D01*
X114301Y292099D01*
X114299Y292099D01*
G37*
%LPD*%
D10*
X114300Y292100D03*
X165100Y292100D03*
D11*
X419100Y241300D03*
X342900Y241300D03*
D12*
X519113Y250825D03*
X636588Y203200D03*
X749300Y153988D03*
X620713Y284163D03*
M02*
