G04 EAGLE Gerber RS-274X export*
G75*
%MOMM*%
%FSLAX34Y34*%
%LPD*%
%INTop Copper*%
%IPPOS*%
%AMOC8*
5,1,8,0,0,1.08239X$1,22.5*%
G01*
%ADD10P,3.409096X8X292.500000*%
%ADD11R,1.500000X1.300000*%
%ADD12P,2.749271X8X202.500000*%
%ADD13R,1.400000X1.000000*%
%ADD14R,1.300000X1.500000*%
%ADD15R,1.550000X1.300000*%
%ADD16R,2.200000X0.600000*%
%ADD17C,0.304800*%
%ADD18C,0.914400*%

G36*
X976398Y10164D02*
X976398Y10164D01*
X976417Y10162D01*
X976519Y10184D01*
X976621Y10200D01*
X976638Y10210D01*
X976658Y10214D01*
X976747Y10267D01*
X976838Y10316D01*
X976852Y10330D01*
X976869Y10340D01*
X976936Y10419D01*
X977008Y10494D01*
X977016Y10512D01*
X977029Y10527D01*
X977068Y10623D01*
X977111Y10717D01*
X977113Y10737D01*
X977121Y10755D01*
X977139Y10922D01*
X977139Y331561D01*
X977128Y331632D01*
X977126Y331703D01*
X977108Y331752D01*
X977100Y331804D01*
X977066Y331867D01*
X977041Y331934D01*
X977009Y331975D01*
X976984Y332021D01*
X976932Y332070D01*
X976888Y332126D01*
X976844Y332155D01*
X976806Y332190D01*
X976741Y332221D01*
X976681Y332259D01*
X976630Y332272D01*
X976583Y332294D01*
X976512Y332302D01*
X976442Y332319D01*
X976390Y332315D01*
X976339Y332321D01*
X976268Y332306D01*
X976197Y332300D01*
X976149Y332280D01*
X976098Y332269D01*
X976037Y332232D01*
X975971Y332204D01*
X975915Y332159D01*
X975887Y332143D01*
X975872Y332125D01*
X975840Y332099D01*
X973788Y330047D01*
X968216Y327739D01*
X962184Y327739D01*
X956612Y330047D01*
X952347Y334312D01*
X950039Y339884D01*
X950039Y345916D01*
X952347Y351488D01*
X956612Y355753D01*
X958597Y356575D01*
X958680Y356626D01*
X958766Y356672D01*
X958784Y356690D01*
X958806Y356704D01*
X958868Y356780D01*
X958935Y356850D01*
X958946Y356874D01*
X958963Y356894D01*
X958998Y356985D01*
X959039Y357073D01*
X959042Y357099D01*
X959051Y357123D01*
X959055Y357221D01*
X959066Y357317D01*
X959060Y357343D01*
X959061Y357369D01*
X959034Y357463D01*
X959013Y357558D01*
X959000Y357580D01*
X958993Y357605D01*
X958937Y357685D01*
X958887Y357769D01*
X958867Y357786D01*
X958853Y357807D01*
X958774Y357866D01*
X958700Y357929D01*
X958676Y357939D01*
X958655Y357954D01*
X958563Y357984D01*
X958472Y358021D01*
X958440Y358024D01*
X958421Y358030D01*
X958388Y358030D01*
X958306Y358039D01*
X32294Y358039D01*
X32198Y358024D01*
X32101Y358014D01*
X32078Y358004D01*
X32052Y358000D01*
X31966Y357954D01*
X31877Y357914D01*
X31857Y357897D01*
X31834Y357884D01*
X31767Y357814D01*
X31696Y357748D01*
X31683Y357725D01*
X31665Y357706D01*
X31624Y357618D01*
X31577Y357532D01*
X31572Y357507D01*
X31561Y357483D01*
X31551Y357386D01*
X31533Y357290D01*
X31537Y357264D01*
X31534Y357239D01*
X31555Y357143D01*
X31569Y357047D01*
X31581Y357024D01*
X31587Y356998D01*
X31636Y356915D01*
X31681Y356828D01*
X31699Y356809D01*
X31713Y356787D01*
X31787Y356724D01*
X31856Y356656D01*
X31885Y356640D01*
X31900Y356627D01*
X31930Y356615D01*
X32003Y356575D01*
X33988Y355753D01*
X38253Y351488D01*
X40561Y345916D01*
X40561Y339884D01*
X38253Y334312D01*
X33988Y330047D01*
X28416Y327739D01*
X22384Y327739D01*
X16812Y330047D01*
X12547Y334312D01*
X11625Y336538D01*
X11574Y336621D01*
X11528Y336707D01*
X11510Y336725D01*
X11496Y336747D01*
X11420Y336810D01*
X11350Y336876D01*
X11326Y336887D01*
X11306Y336904D01*
X11215Y336939D01*
X11127Y336980D01*
X11101Y336983D01*
X11077Y336992D01*
X10979Y336996D01*
X10883Y337007D01*
X10857Y337002D01*
X10831Y337003D01*
X10737Y336976D01*
X10642Y336955D01*
X10620Y336941D01*
X10595Y336934D01*
X10515Y336879D01*
X10431Y336829D01*
X10414Y336809D01*
X10393Y336794D01*
X10334Y336716D01*
X10271Y336642D01*
X10261Y336618D01*
X10246Y336597D01*
X10216Y336504D01*
X10179Y336414D01*
X10176Y336381D01*
X10170Y336363D01*
X10170Y336330D01*
X10161Y336247D01*
X10161Y32053D01*
X10176Y31957D01*
X10186Y31860D01*
X10196Y31836D01*
X10200Y31810D01*
X10246Y31724D01*
X10286Y31635D01*
X10303Y31616D01*
X10316Y31593D01*
X10386Y31526D01*
X10452Y31454D01*
X10475Y31442D01*
X10494Y31424D01*
X10582Y31383D01*
X10668Y31336D01*
X10693Y31331D01*
X10717Y31320D01*
X10814Y31309D01*
X10910Y31292D01*
X10936Y31296D01*
X10961Y31293D01*
X11057Y31313D01*
X11153Y31328D01*
X11176Y31340D01*
X11202Y31345D01*
X11285Y31395D01*
X11372Y31439D01*
X11391Y31458D01*
X11413Y31471D01*
X11476Y31545D01*
X11544Y31615D01*
X11560Y31643D01*
X11573Y31658D01*
X11585Y31689D01*
X11625Y31762D01*
X12547Y33988D01*
X16812Y38253D01*
X22384Y40561D01*
X28416Y40561D01*
X33988Y38253D01*
X38253Y33988D01*
X40561Y28416D01*
X40561Y22384D01*
X38253Y16812D01*
X33988Y12547D01*
X31762Y11625D01*
X31679Y11574D01*
X31593Y11528D01*
X31575Y11510D01*
X31553Y11496D01*
X31490Y11420D01*
X31424Y11350D01*
X31413Y11326D01*
X31396Y11306D01*
X31361Y11215D01*
X31320Y11127D01*
X31317Y11101D01*
X31308Y11077D01*
X31304Y10979D01*
X31293Y10883D01*
X31298Y10857D01*
X31297Y10831D01*
X31324Y10737D01*
X31345Y10642D01*
X31359Y10620D01*
X31366Y10595D01*
X31421Y10515D01*
X31471Y10431D01*
X31491Y10414D01*
X31506Y10393D01*
X31584Y10334D01*
X31658Y10271D01*
X31682Y10261D01*
X31703Y10246D01*
X31796Y10216D01*
X31886Y10179D01*
X31919Y10176D01*
X31937Y10170D01*
X31970Y10170D01*
X32053Y10161D01*
X976378Y10161D01*
X976398Y10164D01*
G37*
%LPC*%
G36*
X866679Y30860D02*
X866679Y30860D01*
X864298Y33241D01*
X864298Y39998D01*
X864295Y40018D01*
X864297Y40037D01*
X864275Y40139D01*
X864258Y40241D01*
X864249Y40258D01*
X864244Y40278D01*
X864191Y40367D01*
X864143Y40458D01*
X864129Y40472D01*
X864118Y40489D01*
X864040Y40556D01*
X863965Y40628D01*
X863947Y40636D01*
X863931Y40649D01*
X863835Y40688D01*
X863742Y40731D01*
X863722Y40733D01*
X863703Y40741D01*
X863537Y40759D01*
X859248Y40759D01*
X857759Y42248D01*
X857759Y59352D01*
X859248Y60841D01*
X874352Y60841D01*
X875762Y59431D01*
X875778Y59420D01*
X875790Y59404D01*
X875878Y59348D01*
X875961Y59288D01*
X875980Y59282D01*
X875997Y59271D01*
X876098Y59246D01*
X876197Y59216D01*
X876216Y59216D01*
X876236Y59211D01*
X876339Y59219D01*
X876442Y59222D01*
X876461Y59229D01*
X876481Y59230D01*
X876576Y59271D01*
X876673Y59306D01*
X876689Y59319D01*
X876707Y59327D01*
X876838Y59431D01*
X878248Y60841D01*
X879412Y60841D01*
X879431Y60844D01*
X879451Y60842D01*
X879552Y60864D01*
X879654Y60880D01*
X879672Y60890D01*
X879691Y60894D01*
X879780Y60947D01*
X879872Y60996D01*
X879885Y61010D01*
X879902Y61020D01*
X879970Y61099D01*
X880041Y61174D01*
X880049Y61192D01*
X880062Y61207D01*
X880101Y61303D01*
X880145Y61397D01*
X880147Y61417D01*
X880154Y61435D01*
X880173Y61602D01*
X880173Y85662D01*
X880170Y85681D01*
X880172Y85701D01*
X880150Y85802D01*
X880133Y85904D01*
X880124Y85922D01*
X880119Y85941D01*
X880066Y86030D01*
X880018Y86122D01*
X880004Y86135D01*
X879993Y86152D01*
X879915Y86220D01*
X879840Y86291D01*
X879822Y86299D01*
X879806Y86312D01*
X879710Y86351D01*
X879617Y86395D01*
X879597Y86397D01*
X879578Y86404D01*
X879412Y86423D01*
X873002Y86423D01*
X872982Y86420D01*
X872963Y86422D01*
X872861Y86400D01*
X872759Y86383D01*
X872742Y86374D01*
X872722Y86369D01*
X872633Y86316D01*
X872542Y86268D01*
X872528Y86254D01*
X872511Y86243D01*
X872444Y86165D01*
X872372Y86090D01*
X872364Y86072D01*
X872351Y86056D01*
X872312Y85960D01*
X872269Y85867D01*
X872267Y85847D01*
X872259Y85828D01*
X872241Y85662D01*
X872241Y84248D01*
X870752Y82759D01*
X853148Y82759D01*
X852366Y83541D01*
X852350Y83553D01*
X852337Y83568D01*
X852250Y83624D01*
X852166Y83684D01*
X852147Y83690D01*
X852130Y83701D01*
X852030Y83726D01*
X851931Y83757D01*
X851911Y83756D01*
X851892Y83761D01*
X851789Y83753D01*
X851685Y83750D01*
X851666Y83744D01*
X851647Y83742D01*
X851552Y83702D01*
X851454Y83666D01*
X851439Y83654D01*
X851420Y83646D01*
X851289Y83541D01*
X839884Y72135D01*
X811624Y72135D01*
X811534Y72121D01*
X811443Y72113D01*
X811413Y72101D01*
X811381Y72096D01*
X811301Y72053D01*
X811217Y72017D01*
X811185Y71991D01*
X811164Y71980D01*
X811142Y71957D01*
X811086Y71912D01*
X793464Y54290D01*
X793411Y54216D01*
X793351Y54147D01*
X793339Y54117D01*
X793320Y54091D01*
X793293Y54004D01*
X793259Y53919D01*
X793255Y53878D01*
X793248Y53855D01*
X793249Y53823D01*
X793241Y53752D01*
X793241Y42248D01*
X791752Y40759D01*
X776648Y40759D01*
X775238Y42169D01*
X775222Y42180D01*
X775210Y42196D01*
X775122Y42252D01*
X775039Y42312D01*
X775020Y42318D01*
X775003Y42329D01*
X774902Y42354D01*
X774803Y42384D01*
X774784Y42384D01*
X774764Y42389D01*
X774661Y42381D01*
X774558Y42378D01*
X774539Y42371D01*
X774519Y42370D01*
X774424Y42329D01*
X774327Y42294D01*
X774311Y42281D01*
X774293Y42273D01*
X774162Y42169D01*
X772752Y40759D01*
X757648Y40759D01*
X756159Y42248D01*
X756159Y45974D01*
X756156Y45994D01*
X756158Y46013D01*
X756136Y46115D01*
X756120Y46217D01*
X756110Y46234D01*
X756106Y46254D01*
X756053Y46343D01*
X756004Y46434D01*
X755990Y46448D01*
X755980Y46465D01*
X755901Y46532D01*
X755826Y46604D01*
X755808Y46612D01*
X755793Y46625D01*
X755697Y46664D01*
X755603Y46707D01*
X755583Y46709D01*
X755565Y46717D01*
X755398Y46735D01*
X692402Y46735D01*
X692382Y46732D01*
X692363Y46734D01*
X692261Y46712D01*
X692159Y46696D01*
X692142Y46686D01*
X692122Y46682D01*
X692033Y46629D01*
X691942Y46580D01*
X691928Y46566D01*
X691911Y46556D01*
X691844Y46477D01*
X691772Y46402D01*
X691764Y46384D01*
X691751Y46369D01*
X691712Y46273D01*
X691669Y46179D01*
X691667Y46159D01*
X691659Y46141D01*
X691641Y45974D01*
X691641Y42248D01*
X690152Y40759D01*
X675048Y40759D01*
X673638Y42169D01*
X673622Y42180D01*
X673610Y42196D01*
X673522Y42252D01*
X673439Y42312D01*
X673420Y42318D01*
X673403Y42329D01*
X673302Y42354D01*
X673203Y42384D01*
X673184Y42384D01*
X673164Y42389D01*
X673061Y42381D01*
X672958Y42378D01*
X672939Y42371D01*
X672919Y42370D01*
X672824Y42329D01*
X672727Y42294D01*
X672711Y42281D01*
X672693Y42273D01*
X672562Y42169D01*
X671152Y40759D01*
X656048Y40759D01*
X654559Y42248D01*
X654559Y53752D01*
X654545Y53842D01*
X654537Y53933D01*
X654525Y53963D01*
X654520Y53995D01*
X654477Y54075D01*
X654441Y54159D01*
X654415Y54191D01*
X654404Y54212D01*
X654381Y54234D01*
X654336Y54290D01*
X626090Y82536D01*
X626016Y82589D01*
X625947Y82649D01*
X625917Y82661D01*
X625891Y82680D01*
X625804Y82707D01*
X625719Y82741D01*
X625678Y82745D01*
X625655Y82752D01*
X625623Y82751D01*
X625552Y82759D01*
X624548Y82759D01*
X623766Y83541D01*
X623750Y83553D01*
X623737Y83568D01*
X623650Y83624D01*
X623566Y83684D01*
X623547Y83690D01*
X623530Y83701D01*
X623430Y83726D01*
X623331Y83757D01*
X623311Y83756D01*
X623292Y83761D01*
X623189Y83753D01*
X623085Y83750D01*
X623066Y83744D01*
X623047Y83742D01*
X622952Y83702D01*
X622854Y83666D01*
X622839Y83654D01*
X622820Y83646D01*
X622689Y83541D01*
X611284Y72135D01*
X595724Y72135D01*
X595634Y72121D01*
X595543Y72113D01*
X595513Y72101D01*
X595481Y72096D01*
X595401Y72053D01*
X595317Y72017D01*
X595285Y71991D01*
X595264Y71980D01*
X595242Y71957D01*
X595186Y71912D01*
X577564Y54290D01*
X577511Y54216D01*
X577451Y54147D01*
X577439Y54117D01*
X577420Y54091D01*
X577393Y54004D01*
X577359Y53919D01*
X577355Y53878D01*
X577348Y53855D01*
X577349Y53823D01*
X577341Y53752D01*
X577341Y42248D01*
X575852Y40759D01*
X560748Y40759D01*
X559338Y42169D01*
X559322Y42180D01*
X559310Y42196D01*
X559222Y42252D01*
X559139Y42312D01*
X559120Y42318D01*
X559103Y42329D01*
X559002Y42354D01*
X558903Y42384D01*
X558884Y42384D01*
X558864Y42389D01*
X558761Y42381D01*
X558658Y42378D01*
X558639Y42371D01*
X558619Y42370D01*
X558524Y42329D01*
X558427Y42294D01*
X558411Y42281D01*
X558393Y42273D01*
X558262Y42169D01*
X556852Y40759D01*
X541748Y40759D01*
X540259Y42248D01*
X540259Y53752D01*
X540245Y53842D01*
X540237Y53933D01*
X540225Y53963D01*
X540220Y53995D01*
X540177Y54075D01*
X540141Y54159D01*
X540115Y54191D01*
X540104Y54212D01*
X540081Y54234D01*
X540036Y54290D01*
X511790Y82536D01*
X511716Y82589D01*
X511647Y82649D01*
X511617Y82661D01*
X511591Y82680D01*
X511504Y82707D01*
X511419Y82741D01*
X511378Y82745D01*
X511356Y82752D01*
X511323Y82751D01*
X511252Y82759D01*
X510248Y82759D01*
X509466Y83541D01*
X509450Y83553D01*
X509437Y83568D01*
X509350Y83624D01*
X509266Y83684D01*
X509247Y83690D01*
X509230Y83701D01*
X509130Y83726D01*
X509031Y83757D01*
X509011Y83756D01*
X508992Y83761D01*
X508889Y83753D01*
X508785Y83750D01*
X508766Y83744D01*
X508747Y83742D01*
X508652Y83702D01*
X508554Y83666D01*
X508539Y83654D01*
X508520Y83646D01*
X508389Y83541D01*
X499588Y74739D01*
X496984Y72135D01*
X481424Y72135D01*
X481334Y72121D01*
X481243Y72113D01*
X481213Y72101D01*
X481181Y72096D01*
X481101Y72053D01*
X481017Y72017D01*
X480985Y71991D01*
X480964Y71980D01*
X480942Y71957D01*
X480886Y71912D01*
X463264Y54290D01*
X463211Y54216D01*
X463151Y54147D01*
X463139Y54117D01*
X463120Y54091D01*
X463093Y54004D01*
X463059Y53919D01*
X463055Y53878D01*
X463048Y53855D01*
X463049Y53823D01*
X463041Y53752D01*
X463041Y42248D01*
X461552Y40759D01*
X446448Y40759D01*
X445038Y42169D01*
X445022Y42180D01*
X445010Y42196D01*
X444922Y42252D01*
X444839Y42312D01*
X444820Y42318D01*
X444803Y42329D01*
X444702Y42354D01*
X444603Y42384D01*
X444584Y42384D01*
X444564Y42389D01*
X444461Y42381D01*
X444358Y42378D01*
X444339Y42371D01*
X444319Y42370D01*
X444224Y42329D01*
X444127Y42294D01*
X444111Y42281D01*
X444093Y42273D01*
X443962Y42169D01*
X442552Y40759D01*
X427448Y40759D01*
X425959Y42248D01*
X425959Y53752D01*
X425945Y53842D01*
X425937Y53933D01*
X425925Y53963D01*
X425920Y53995D01*
X425877Y54075D01*
X425841Y54159D01*
X425815Y54191D01*
X425804Y54212D01*
X425781Y54234D01*
X425736Y54290D01*
X397490Y82536D01*
X397416Y82589D01*
X397347Y82649D01*
X397317Y82661D01*
X397291Y82680D01*
X397204Y82707D01*
X397119Y82741D01*
X397078Y82745D01*
X397056Y82752D01*
X397023Y82751D01*
X396952Y82759D01*
X395948Y82759D01*
X395166Y83541D01*
X395150Y83553D01*
X395137Y83568D01*
X395050Y83624D01*
X394966Y83684D01*
X394947Y83690D01*
X394930Y83701D01*
X394830Y83726D01*
X394731Y83757D01*
X394711Y83756D01*
X394692Y83761D01*
X394589Y83753D01*
X394485Y83750D01*
X394466Y83744D01*
X394447Y83742D01*
X394352Y83702D01*
X394254Y83666D01*
X394239Y83654D01*
X394220Y83646D01*
X394089Y83541D01*
X382684Y72135D01*
X367124Y72135D01*
X367034Y72121D01*
X366943Y72113D01*
X366913Y72101D01*
X366881Y72096D01*
X366801Y72053D01*
X366717Y72017D01*
X366685Y71991D01*
X366664Y71980D01*
X366642Y71957D01*
X366586Y71912D01*
X348964Y54290D01*
X348911Y54216D01*
X348851Y54147D01*
X348839Y54117D01*
X348820Y54091D01*
X348793Y54004D01*
X348759Y53919D01*
X348755Y53878D01*
X348748Y53855D01*
X348749Y53823D01*
X348741Y53752D01*
X348741Y42248D01*
X347252Y40759D01*
X332148Y40759D01*
X330738Y42169D01*
X330722Y42180D01*
X330710Y42196D01*
X330622Y42252D01*
X330539Y42312D01*
X330520Y42318D01*
X330503Y42329D01*
X330402Y42354D01*
X330303Y42384D01*
X330284Y42384D01*
X330264Y42389D01*
X330161Y42381D01*
X330058Y42378D01*
X330039Y42371D01*
X330019Y42370D01*
X329924Y42329D01*
X329827Y42294D01*
X329811Y42281D01*
X329793Y42273D01*
X329662Y42169D01*
X328252Y40759D01*
X313148Y40759D01*
X311659Y42248D01*
X311659Y53752D01*
X311645Y53842D01*
X311637Y53933D01*
X311625Y53963D01*
X311620Y53995D01*
X311577Y54075D01*
X311541Y54159D01*
X311515Y54191D01*
X311504Y54212D01*
X311481Y54234D01*
X311436Y54290D01*
X283190Y82536D01*
X283116Y82589D01*
X283047Y82649D01*
X283017Y82661D01*
X282991Y82680D01*
X282904Y82707D01*
X282819Y82741D01*
X282778Y82745D01*
X282755Y82752D01*
X282723Y82751D01*
X282652Y82759D01*
X281648Y82759D01*
X280159Y84248D01*
X280159Y85248D01*
X280148Y85319D01*
X280146Y85391D01*
X280128Y85440D01*
X280120Y85491D01*
X280086Y85554D01*
X280061Y85622D01*
X280029Y85662D01*
X280004Y85708D01*
X279953Y85758D01*
X279908Y85814D01*
X279864Y85842D01*
X279826Y85878D01*
X279761Y85908D01*
X279701Y85947D01*
X279650Y85959D01*
X279603Y85981D01*
X279532Y85989D01*
X279462Y86007D01*
X279410Y86003D01*
X279359Y86008D01*
X279288Y85993D01*
X279217Y85987D01*
X279169Y85967D01*
X279118Y85956D01*
X279057Y85919D01*
X278991Y85891D01*
X278935Y85846D01*
X278907Y85830D01*
X278892Y85812D01*
X278860Y85786D01*
X247364Y54290D01*
X247311Y54216D01*
X247251Y54147D01*
X247239Y54117D01*
X247220Y54091D01*
X247193Y54004D01*
X247159Y53919D01*
X247155Y53878D01*
X247148Y53856D01*
X247149Y53823D01*
X247141Y53752D01*
X247141Y42248D01*
X245652Y40759D01*
X230548Y40759D01*
X229138Y42169D01*
X229122Y42180D01*
X229110Y42196D01*
X229022Y42252D01*
X228939Y42312D01*
X228920Y42318D01*
X228903Y42329D01*
X228802Y42354D01*
X228703Y42384D01*
X228684Y42384D01*
X228664Y42389D01*
X228561Y42381D01*
X228458Y42378D01*
X228439Y42371D01*
X228419Y42370D01*
X228324Y42329D01*
X228227Y42294D01*
X228211Y42281D01*
X228193Y42273D01*
X228062Y42169D01*
X226652Y40759D01*
X211548Y40759D01*
X210059Y42248D01*
X210059Y53752D01*
X210045Y53842D01*
X210037Y53933D01*
X210025Y53963D01*
X210020Y53995D01*
X209977Y54075D01*
X209941Y54159D01*
X209915Y54191D01*
X209904Y54212D01*
X209881Y54234D01*
X209836Y54290D01*
X181590Y82536D01*
X181516Y82589D01*
X181447Y82649D01*
X181417Y82661D01*
X181391Y82680D01*
X181304Y82707D01*
X181219Y82741D01*
X181178Y82745D01*
X181155Y82752D01*
X181123Y82751D01*
X181052Y82759D01*
X174548Y82759D01*
X174458Y82745D01*
X174367Y82737D01*
X174337Y82725D01*
X174305Y82720D01*
X174225Y82677D01*
X174141Y82641D01*
X174109Y82615D01*
X174088Y82604D01*
X174066Y82581D01*
X174010Y82536D01*
X145764Y54290D01*
X145711Y54216D01*
X145651Y54147D01*
X145639Y54117D01*
X145620Y54091D01*
X145593Y54004D01*
X145559Y53919D01*
X145555Y53878D01*
X145548Y53855D01*
X145549Y53823D01*
X145541Y53752D01*
X145541Y42248D01*
X144052Y40759D01*
X128948Y40759D01*
X127538Y42169D01*
X127522Y42180D01*
X127510Y42196D01*
X127422Y42252D01*
X127339Y42312D01*
X127320Y42318D01*
X127303Y42329D01*
X127202Y42354D01*
X127103Y42384D01*
X127084Y42384D01*
X127064Y42389D01*
X126961Y42381D01*
X126858Y42378D01*
X126839Y42371D01*
X126819Y42370D01*
X126724Y42329D01*
X126627Y42294D01*
X126611Y42281D01*
X126593Y42273D01*
X126462Y42169D01*
X125052Y40759D01*
X109948Y40759D01*
X108459Y42248D01*
X108459Y53752D01*
X108445Y53842D01*
X108437Y53933D01*
X108425Y53963D01*
X108420Y53995D01*
X108377Y54075D01*
X108341Y54159D01*
X108315Y54191D01*
X108304Y54212D01*
X108281Y54234D01*
X108236Y54290D01*
X76327Y86200D01*
X76253Y86253D01*
X76183Y86312D01*
X76153Y86325D01*
X76127Y86343D01*
X76040Y86370D01*
X75955Y86404D01*
X75914Y86409D01*
X75892Y86416D01*
X75860Y86415D01*
X75789Y86423D01*
X72902Y86423D01*
X72882Y86420D01*
X72863Y86422D01*
X72761Y86400D01*
X72659Y86383D01*
X72642Y86374D01*
X72622Y86369D01*
X72533Y86316D01*
X72442Y86268D01*
X72428Y86254D01*
X72411Y86243D01*
X72344Y86165D01*
X72272Y86090D01*
X72264Y86072D01*
X72251Y86056D01*
X72212Y85960D01*
X72169Y85867D01*
X72167Y85847D01*
X72159Y85828D01*
X72141Y85662D01*
X72141Y84248D01*
X70652Y82759D01*
X53048Y82759D01*
X51559Y84248D01*
X51559Y99352D01*
X53048Y100841D01*
X70652Y100841D01*
X72141Y99352D01*
X72141Y95313D01*
X72144Y95294D01*
X72142Y95274D01*
X72164Y95173D01*
X72180Y95071D01*
X72190Y95053D01*
X72194Y95034D01*
X72247Y94945D01*
X72296Y94853D01*
X72310Y94840D01*
X72320Y94823D01*
X72399Y94755D01*
X72474Y94684D01*
X72492Y94676D01*
X72507Y94663D01*
X72603Y94624D01*
X72697Y94580D01*
X72717Y94578D01*
X72735Y94571D01*
X72902Y94552D01*
X79471Y94552D01*
X112960Y61064D01*
X113034Y61011D01*
X113103Y60951D01*
X113133Y60939D01*
X113159Y60920D01*
X113246Y60893D01*
X113331Y60859D01*
X113372Y60855D01*
X113395Y60848D01*
X113427Y60849D01*
X113498Y60841D01*
X125052Y60841D01*
X126462Y59431D01*
X126478Y59420D01*
X126490Y59404D01*
X126578Y59348D01*
X126661Y59288D01*
X126680Y59282D01*
X126697Y59271D01*
X126798Y59246D01*
X126897Y59216D01*
X126916Y59216D01*
X126936Y59211D01*
X127039Y59219D01*
X127142Y59222D01*
X127161Y59229D01*
X127181Y59230D01*
X127276Y59271D01*
X127373Y59306D01*
X127389Y59319D01*
X127407Y59327D01*
X127538Y59431D01*
X128948Y60841D01*
X140502Y60841D01*
X140592Y60855D01*
X140683Y60863D01*
X140713Y60875D01*
X140745Y60880D01*
X140825Y60923D01*
X140909Y60959D01*
X140941Y60985D01*
X140962Y60996D01*
X140984Y61019D01*
X141040Y61064D01*
X165636Y85660D01*
X165689Y85734D01*
X165749Y85803D01*
X165761Y85833D01*
X165780Y85859D01*
X165807Y85946D01*
X165841Y86031D01*
X165845Y86072D01*
X165852Y86095D01*
X165851Y86127D01*
X165859Y86198D01*
X165859Y99352D01*
X167348Y100841D01*
X184952Y100841D01*
X186441Y99352D01*
X186441Y89498D01*
X186455Y89408D01*
X186463Y89317D01*
X186475Y89287D01*
X186480Y89255D01*
X186523Y89175D01*
X186559Y89091D01*
X186585Y89059D01*
X186596Y89038D01*
X186619Y89016D01*
X186664Y88960D01*
X214560Y61064D01*
X214634Y61011D01*
X214703Y60951D01*
X214733Y60939D01*
X214759Y60920D01*
X214846Y60893D01*
X214931Y60859D01*
X214972Y60855D01*
X214995Y60848D01*
X215027Y60849D01*
X215098Y60841D01*
X226652Y60841D01*
X228062Y59431D01*
X228078Y59420D01*
X228090Y59404D01*
X228178Y59348D01*
X228261Y59288D01*
X228280Y59282D01*
X228297Y59271D01*
X228398Y59246D01*
X228497Y59216D01*
X228516Y59216D01*
X228536Y59211D01*
X228639Y59219D01*
X228742Y59222D01*
X228761Y59229D01*
X228781Y59230D01*
X228876Y59271D01*
X228973Y59306D01*
X228989Y59319D01*
X229007Y59327D01*
X229138Y59431D01*
X230548Y60841D01*
X242102Y60841D01*
X242192Y60855D01*
X242283Y60863D01*
X242313Y60875D01*
X242345Y60880D01*
X242425Y60923D01*
X242509Y60959D01*
X242541Y60985D01*
X242562Y60996D01*
X242584Y61019D01*
X242640Y61064D01*
X263036Y81460D01*
X263078Y81518D01*
X263128Y81570D01*
X263150Y81617D01*
X263180Y81659D01*
X263201Y81728D01*
X263231Y81793D01*
X263237Y81845D01*
X263252Y81895D01*
X263250Y81966D01*
X263258Y82037D01*
X263247Y82088D01*
X263246Y82140D01*
X263221Y82208D01*
X263206Y82278D01*
X263179Y82322D01*
X263161Y82371D01*
X263117Y82427D01*
X263080Y82489D01*
X263040Y82523D01*
X263008Y82563D01*
X262947Y82602D01*
X262893Y82649D01*
X262845Y82668D01*
X262801Y82696D01*
X262731Y82714D01*
X262665Y82741D01*
X262593Y82749D01*
X262562Y82757D01*
X262539Y82755D01*
X262498Y82759D01*
X246848Y82759D01*
X245359Y84248D01*
X245359Y99352D01*
X246848Y100841D01*
X264452Y100841D01*
X265941Y99352D01*
X265941Y86202D01*
X265952Y86131D01*
X265954Y86059D01*
X265972Y86011D01*
X265980Y85959D01*
X266014Y85896D01*
X266039Y85828D01*
X266071Y85788D01*
X266096Y85742D01*
X266148Y85692D01*
X266192Y85636D01*
X266236Y85608D01*
X266274Y85572D01*
X266339Y85542D01*
X266399Y85503D01*
X266450Y85491D01*
X266497Y85469D01*
X266568Y85461D01*
X266638Y85443D01*
X266690Y85447D01*
X266741Y85442D01*
X266812Y85457D01*
X266883Y85463D01*
X266931Y85483D01*
X266982Y85494D01*
X267043Y85531D01*
X267109Y85559D01*
X267165Y85604D01*
X267193Y85620D01*
X267208Y85638D01*
X267240Y85664D01*
X273525Y91948D01*
X276129Y94552D01*
X279398Y94552D01*
X279418Y94555D01*
X279437Y94553D01*
X279539Y94575D01*
X279641Y94592D01*
X279658Y94601D01*
X279678Y94606D01*
X279767Y94659D01*
X279858Y94707D01*
X279872Y94721D01*
X279889Y94732D01*
X279956Y94810D01*
X280028Y94885D01*
X280036Y94903D01*
X280049Y94919D01*
X280088Y95015D01*
X280131Y95108D01*
X280133Y95128D01*
X280141Y95147D01*
X280159Y95313D01*
X280159Y99352D01*
X281648Y100841D01*
X299252Y100841D01*
X300741Y99352D01*
X300741Y84248D01*
X299252Y82759D01*
X296302Y82759D01*
X296231Y82748D01*
X296159Y82746D01*
X296110Y82728D01*
X296059Y82720D01*
X295996Y82686D01*
X295928Y82661D01*
X295888Y82629D01*
X295842Y82604D01*
X295792Y82553D01*
X295736Y82508D01*
X295708Y82464D01*
X295672Y82426D01*
X295642Y82361D01*
X295603Y82301D01*
X295591Y82250D01*
X295569Y82203D01*
X295561Y82132D01*
X295543Y82062D01*
X295547Y82010D01*
X295542Y81959D01*
X295557Y81888D01*
X295563Y81817D01*
X295583Y81769D01*
X295594Y81718D01*
X295631Y81657D01*
X295659Y81591D01*
X295704Y81535D01*
X295720Y81507D01*
X295738Y81492D01*
X295764Y81460D01*
X316160Y61064D01*
X316234Y61011D01*
X316303Y60951D01*
X316333Y60939D01*
X316359Y60920D01*
X316446Y60893D01*
X316531Y60859D01*
X316572Y60855D01*
X316594Y60848D01*
X316627Y60849D01*
X316698Y60841D01*
X328252Y60841D01*
X329662Y59431D01*
X329678Y59420D01*
X329690Y59404D01*
X329778Y59348D01*
X329861Y59288D01*
X329880Y59282D01*
X329897Y59271D01*
X329998Y59246D01*
X330097Y59216D01*
X330116Y59216D01*
X330136Y59211D01*
X330239Y59219D01*
X330342Y59222D01*
X330361Y59229D01*
X330381Y59230D01*
X330476Y59271D01*
X330573Y59306D01*
X330589Y59319D01*
X330607Y59327D01*
X330738Y59431D01*
X332148Y60841D01*
X343702Y60841D01*
X343792Y60855D01*
X343883Y60863D01*
X343913Y60875D01*
X343945Y60880D01*
X344025Y60923D01*
X344109Y60959D01*
X344141Y60985D01*
X344162Y60996D01*
X344184Y61019D01*
X344240Y61064D01*
X363441Y80265D01*
X379001Y80265D01*
X379091Y80279D01*
X379182Y80287D01*
X379212Y80299D01*
X379244Y80304D01*
X379324Y80347D01*
X379408Y80383D01*
X379440Y80409D01*
X379461Y80420D01*
X379483Y80443D01*
X379539Y80488D01*
X390206Y91154D01*
X390206Y91155D01*
X393033Y93981D01*
X393604Y94552D01*
X393698Y94552D01*
X393718Y94555D01*
X393737Y94553D01*
X393839Y94575D01*
X393941Y94592D01*
X393958Y94601D01*
X393978Y94606D01*
X394067Y94659D01*
X394158Y94707D01*
X394172Y94721D01*
X394189Y94732D01*
X394256Y94810D01*
X394328Y94885D01*
X394336Y94903D01*
X394349Y94919D01*
X394388Y95015D01*
X394431Y95108D01*
X394433Y95128D01*
X394441Y95147D01*
X394459Y95313D01*
X394459Y99352D01*
X395948Y100841D01*
X413552Y100841D01*
X415041Y99352D01*
X415041Y84248D01*
X413552Y82759D01*
X410602Y82759D01*
X410531Y82748D01*
X410459Y82746D01*
X410411Y82728D01*
X410359Y82720D01*
X410296Y82686D01*
X410228Y82661D01*
X410188Y82629D01*
X410142Y82604D01*
X410092Y82552D01*
X410036Y82508D01*
X410008Y82464D01*
X409972Y82426D01*
X409942Y82361D01*
X409903Y82301D01*
X409891Y82250D01*
X409869Y82203D01*
X409861Y82132D01*
X409843Y82062D01*
X409847Y82010D01*
X409842Y81959D01*
X409857Y81888D01*
X409863Y81817D01*
X409883Y81769D01*
X409894Y81718D01*
X409931Y81657D01*
X409959Y81591D01*
X410004Y81535D01*
X410020Y81507D01*
X410038Y81492D01*
X410064Y81460D01*
X430460Y61064D01*
X430534Y61011D01*
X430603Y60951D01*
X430633Y60939D01*
X430659Y60920D01*
X430746Y60893D01*
X430831Y60859D01*
X430872Y60855D01*
X430895Y60848D01*
X430927Y60849D01*
X430998Y60841D01*
X442552Y60841D01*
X443962Y59431D01*
X443978Y59420D01*
X443990Y59404D01*
X444078Y59348D01*
X444161Y59288D01*
X444180Y59282D01*
X444197Y59271D01*
X444298Y59246D01*
X444397Y59216D01*
X444416Y59216D01*
X444436Y59211D01*
X444539Y59219D01*
X444642Y59222D01*
X444661Y59229D01*
X444681Y59230D01*
X444776Y59271D01*
X444873Y59306D01*
X444889Y59319D01*
X444907Y59327D01*
X445038Y59431D01*
X446448Y60841D01*
X458002Y60841D01*
X458092Y60855D01*
X458183Y60863D01*
X458213Y60875D01*
X458245Y60880D01*
X458325Y60923D01*
X458409Y60959D01*
X458441Y60985D01*
X458462Y60996D01*
X458484Y61019D01*
X458540Y61064D01*
X477741Y80265D01*
X493301Y80265D01*
X493391Y80279D01*
X493482Y80287D01*
X493512Y80299D01*
X493544Y80304D01*
X493624Y80347D01*
X493708Y80383D01*
X493740Y80409D01*
X493761Y80420D01*
X493783Y80443D01*
X493839Y80488D01*
X504506Y91154D01*
X504506Y91155D01*
X507904Y94552D01*
X507998Y94552D01*
X508018Y94555D01*
X508037Y94553D01*
X508139Y94575D01*
X508241Y94592D01*
X508258Y94601D01*
X508278Y94606D01*
X508367Y94659D01*
X508458Y94707D01*
X508472Y94721D01*
X508489Y94732D01*
X508556Y94810D01*
X508628Y94885D01*
X508636Y94903D01*
X508649Y94919D01*
X508688Y95015D01*
X508731Y95108D01*
X508733Y95128D01*
X508741Y95147D01*
X508759Y95313D01*
X508759Y99352D01*
X510248Y100841D01*
X527852Y100841D01*
X529341Y99352D01*
X529341Y84248D01*
X527852Y82759D01*
X524902Y82759D01*
X524831Y82748D01*
X524759Y82746D01*
X524711Y82728D01*
X524659Y82720D01*
X524596Y82686D01*
X524528Y82661D01*
X524488Y82629D01*
X524442Y82604D01*
X524392Y82552D01*
X524336Y82508D01*
X524308Y82464D01*
X524272Y82426D01*
X524242Y82361D01*
X524203Y82301D01*
X524191Y82250D01*
X524169Y82203D01*
X524161Y82132D01*
X524143Y82062D01*
X524147Y82010D01*
X524142Y81959D01*
X524157Y81888D01*
X524163Y81817D01*
X524183Y81769D01*
X524194Y81718D01*
X524231Y81657D01*
X524259Y81591D01*
X524304Y81535D01*
X524320Y81507D01*
X524338Y81492D01*
X524364Y81460D01*
X544760Y61064D01*
X544834Y61011D01*
X544903Y60951D01*
X544933Y60939D01*
X544959Y60920D01*
X545046Y60893D01*
X545131Y60859D01*
X545172Y60855D01*
X545195Y60848D01*
X545227Y60849D01*
X545298Y60841D01*
X556852Y60841D01*
X558262Y59431D01*
X558278Y59420D01*
X558290Y59404D01*
X558378Y59348D01*
X558461Y59288D01*
X558480Y59282D01*
X558497Y59271D01*
X558598Y59246D01*
X558697Y59216D01*
X558716Y59216D01*
X558736Y59211D01*
X558839Y59219D01*
X558942Y59222D01*
X558961Y59229D01*
X558981Y59230D01*
X559076Y59271D01*
X559173Y59306D01*
X559189Y59319D01*
X559207Y59327D01*
X559338Y59431D01*
X560748Y60841D01*
X572302Y60841D01*
X572392Y60855D01*
X572483Y60863D01*
X572513Y60875D01*
X572545Y60880D01*
X572625Y60923D01*
X572709Y60959D01*
X572741Y60985D01*
X572762Y60996D01*
X572784Y61019D01*
X572840Y61064D01*
X592041Y80265D01*
X607601Y80265D01*
X607691Y80279D01*
X607782Y80287D01*
X607812Y80299D01*
X607844Y80304D01*
X607924Y80347D01*
X608008Y80383D01*
X608040Y80409D01*
X608061Y80420D01*
X608083Y80443D01*
X608139Y80488D01*
X622204Y94552D01*
X622298Y94552D01*
X622318Y94555D01*
X622337Y94553D01*
X622439Y94575D01*
X622541Y94592D01*
X622558Y94601D01*
X622578Y94606D01*
X622667Y94659D01*
X622758Y94707D01*
X622772Y94721D01*
X622789Y94732D01*
X622856Y94810D01*
X622928Y94885D01*
X622936Y94903D01*
X622949Y94919D01*
X622988Y95015D01*
X623031Y95108D01*
X623033Y95128D01*
X623041Y95147D01*
X623059Y95313D01*
X623059Y99352D01*
X624548Y100841D01*
X642152Y100841D01*
X643641Y99352D01*
X643641Y84248D01*
X642152Y82759D01*
X639202Y82759D01*
X639131Y82748D01*
X639059Y82746D01*
X639011Y82728D01*
X638959Y82720D01*
X638896Y82686D01*
X638828Y82661D01*
X638788Y82629D01*
X638742Y82604D01*
X638692Y82552D01*
X638636Y82508D01*
X638608Y82464D01*
X638572Y82426D01*
X638542Y82361D01*
X638503Y82301D01*
X638491Y82250D01*
X638469Y82203D01*
X638461Y82132D01*
X638443Y82062D01*
X638447Y82010D01*
X638442Y81959D01*
X638457Y81888D01*
X638463Y81817D01*
X638483Y81769D01*
X638494Y81718D01*
X638531Y81657D01*
X638559Y81591D01*
X638604Y81535D01*
X638620Y81507D01*
X638638Y81492D01*
X638664Y81460D01*
X659060Y61064D01*
X659134Y61011D01*
X659203Y60951D01*
X659233Y60939D01*
X659259Y60920D01*
X659346Y60893D01*
X659431Y60859D01*
X659472Y60855D01*
X659495Y60848D01*
X659527Y60849D01*
X659598Y60841D01*
X671152Y60841D01*
X672562Y59431D01*
X672578Y59420D01*
X672590Y59404D01*
X672678Y59348D01*
X672761Y59288D01*
X672780Y59282D01*
X672797Y59271D01*
X672898Y59246D01*
X672997Y59216D01*
X673016Y59216D01*
X673036Y59211D01*
X673139Y59219D01*
X673242Y59222D01*
X673261Y59229D01*
X673281Y59230D01*
X673376Y59271D01*
X673473Y59306D01*
X673489Y59319D01*
X673507Y59327D01*
X673638Y59431D01*
X675048Y60841D01*
X690152Y60841D01*
X691641Y59352D01*
X691641Y55626D01*
X691644Y55606D01*
X691642Y55587D01*
X691664Y55485D01*
X691680Y55383D01*
X691690Y55366D01*
X691694Y55346D01*
X691747Y55257D01*
X691796Y55166D01*
X691810Y55152D01*
X691820Y55135D01*
X691899Y55068D01*
X691974Y54996D01*
X691992Y54988D01*
X692007Y54975D01*
X692103Y54936D01*
X692197Y54893D01*
X692217Y54891D01*
X692235Y54883D01*
X692402Y54865D01*
X742887Y54865D01*
X742906Y54868D01*
X742926Y54866D01*
X743027Y54888D01*
X743129Y54904D01*
X743147Y54914D01*
X743166Y54918D01*
X743255Y54971D01*
X743347Y55020D01*
X743360Y55034D01*
X743377Y55044D01*
X743445Y55123D01*
X743516Y55198D01*
X743524Y55216D01*
X743537Y55231D01*
X743576Y55327D01*
X743620Y55421D01*
X743622Y55441D01*
X743629Y55459D01*
X743648Y55626D01*
X743648Y81998D01*
X743645Y82018D01*
X743647Y82037D01*
X743625Y82139D01*
X743608Y82241D01*
X743599Y82258D01*
X743594Y82278D01*
X743541Y82367D01*
X743493Y82458D01*
X743479Y82472D01*
X743468Y82489D01*
X743390Y82556D01*
X743315Y82628D01*
X743297Y82636D01*
X743281Y82649D01*
X743185Y82688D01*
X743092Y82731D01*
X743072Y82733D01*
X743053Y82741D01*
X742887Y82759D01*
X738848Y82759D01*
X737359Y84248D01*
X737359Y99352D01*
X738848Y100841D01*
X756452Y100841D01*
X757941Y99352D01*
X757941Y84248D01*
X756452Y82759D01*
X752538Y82759D01*
X752519Y82756D01*
X752499Y82758D01*
X752398Y82736D01*
X752296Y82720D01*
X752278Y82710D01*
X752259Y82706D01*
X752170Y82653D01*
X752078Y82604D01*
X752065Y82590D01*
X752048Y82580D01*
X751980Y82501D01*
X751909Y82426D01*
X751901Y82408D01*
X751888Y82393D01*
X751849Y82297D01*
X751805Y82203D01*
X751803Y82183D01*
X751796Y82165D01*
X751777Y81998D01*
X751777Y55626D01*
X751780Y55606D01*
X751778Y55587D01*
X751800Y55485D01*
X751817Y55383D01*
X751826Y55366D01*
X751831Y55346D01*
X751884Y55257D01*
X751932Y55166D01*
X751946Y55152D01*
X751957Y55135D01*
X752035Y55068D01*
X752110Y54996D01*
X752128Y54988D01*
X752144Y54975D01*
X752240Y54936D01*
X752333Y54893D01*
X752353Y54891D01*
X752372Y54883D01*
X752538Y54865D01*
X755398Y54865D01*
X755418Y54868D01*
X755437Y54866D01*
X755539Y54888D01*
X755641Y54904D01*
X755658Y54914D01*
X755678Y54918D01*
X755767Y54971D01*
X755858Y55020D01*
X755872Y55034D01*
X755889Y55044D01*
X755956Y55123D01*
X756028Y55198D01*
X756036Y55216D01*
X756049Y55231D01*
X756088Y55327D01*
X756131Y55421D01*
X756133Y55441D01*
X756141Y55459D01*
X756159Y55626D01*
X756159Y59352D01*
X757648Y60841D01*
X772752Y60841D01*
X774162Y59431D01*
X774178Y59420D01*
X774190Y59404D01*
X774278Y59348D01*
X774361Y59288D01*
X774380Y59282D01*
X774397Y59271D01*
X774498Y59246D01*
X774597Y59216D01*
X774616Y59216D01*
X774636Y59211D01*
X774739Y59219D01*
X774842Y59222D01*
X774861Y59229D01*
X774881Y59230D01*
X774976Y59271D01*
X775073Y59306D01*
X775089Y59319D01*
X775107Y59327D01*
X775238Y59431D01*
X776648Y60841D01*
X788202Y60841D01*
X788292Y60855D01*
X788383Y60863D01*
X788413Y60875D01*
X788445Y60880D01*
X788525Y60923D01*
X788609Y60959D01*
X788641Y60985D01*
X788662Y60996D01*
X788684Y61019D01*
X788740Y61064D01*
X807941Y80265D01*
X836201Y80265D01*
X836291Y80279D01*
X836382Y80287D01*
X836412Y80299D01*
X836444Y80304D01*
X836524Y80347D01*
X836608Y80383D01*
X836640Y80409D01*
X836661Y80420D01*
X836683Y80443D01*
X836739Y80488D01*
X850804Y94552D01*
X850898Y94552D01*
X850918Y94555D01*
X850937Y94553D01*
X851039Y94575D01*
X851141Y94592D01*
X851158Y94601D01*
X851178Y94606D01*
X851267Y94659D01*
X851358Y94707D01*
X851372Y94721D01*
X851389Y94732D01*
X851456Y94810D01*
X851528Y94885D01*
X851536Y94903D01*
X851549Y94919D01*
X851588Y95015D01*
X851631Y95108D01*
X851633Y95128D01*
X851641Y95147D01*
X851659Y95313D01*
X851659Y99352D01*
X853148Y100841D01*
X870752Y100841D01*
X872241Y99352D01*
X872241Y95313D01*
X872244Y95294D01*
X872242Y95274D01*
X872264Y95173D01*
X872280Y95071D01*
X872290Y95053D01*
X872294Y95034D01*
X872347Y94945D01*
X872396Y94853D01*
X872410Y94840D01*
X872420Y94823D01*
X872499Y94755D01*
X872574Y94684D01*
X872592Y94676D01*
X872607Y94663D01*
X872703Y94624D01*
X872797Y94580D01*
X872817Y94578D01*
X872835Y94571D01*
X873002Y94552D01*
X885921Y94552D01*
X888302Y92171D01*
X888302Y61602D01*
X888305Y61582D01*
X888303Y61563D01*
X888325Y61461D01*
X888342Y61359D01*
X888351Y61342D01*
X888356Y61322D01*
X888409Y61233D01*
X888457Y61142D01*
X888471Y61128D01*
X888482Y61111D01*
X888560Y61044D01*
X888635Y60972D01*
X888653Y60964D01*
X888669Y60951D01*
X888765Y60912D01*
X888858Y60869D01*
X888878Y60867D01*
X888897Y60859D01*
X889063Y60841D01*
X893352Y60841D01*
X894841Y59352D01*
X894841Y42248D01*
X893352Y40759D01*
X878248Y40759D01*
X876838Y42169D01*
X876822Y42180D01*
X876810Y42196D01*
X876722Y42252D01*
X876639Y42312D01*
X876620Y42318D01*
X876603Y42329D01*
X876502Y42354D01*
X876403Y42384D01*
X876384Y42384D01*
X876364Y42389D01*
X876261Y42381D01*
X876158Y42378D01*
X876139Y42371D01*
X876119Y42370D01*
X876024Y42329D01*
X875927Y42294D01*
X875911Y42281D01*
X875893Y42273D01*
X875762Y42169D01*
X874352Y40759D01*
X873188Y40759D01*
X873169Y40756D01*
X873149Y40758D01*
X873048Y40736D01*
X872946Y40720D01*
X872928Y40710D01*
X872909Y40706D01*
X872820Y40653D01*
X872728Y40604D01*
X872715Y40590D01*
X872698Y40580D01*
X872630Y40501D01*
X872559Y40426D01*
X872551Y40408D01*
X872538Y40393D01*
X872499Y40297D01*
X872455Y40203D01*
X872453Y40183D01*
X872446Y40165D01*
X872427Y39998D01*
X872427Y39751D01*
X872430Y39731D01*
X872428Y39712D01*
X872450Y39610D01*
X872467Y39508D01*
X872476Y39491D01*
X872481Y39471D01*
X872534Y39382D01*
X872582Y39291D01*
X872596Y39277D01*
X872607Y39260D01*
X872685Y39193D01*
X872760Y39121D01*
X872778Y39113D01*
X872794Y39100D01*
X872890Y39061D01*
X872983Y39018D01*
X873003Y39016D01*
X873022Y39008D01*
X873188Y38990D01*
X896874Y38990D01*
X896894Y38993D01*
X896913Y38991D01*
X897015Y39013D01*
X897117Y39029D01*
X897134Y39039D01*
X897154Y39043D01*
X897243Y39096D01*
X897334Y39145D01*
X897348Y39159D01*
X897365Y39169D01*
X897432Y39248D01*
X897504Y39323D01*
X897512Y39341D01*
X897525Y39356D01*
X897564Y39452D01*
X897607Y39546D01*
X897609Y39566D01*
X897617Y39584D01*
X897635Y39751D01*
X897635Y121826D01*
X897621Y121916D01*
X897613Y122007D01*
X897601Y122037D01*
X897596Y122069D01*
X897553Y122149D01*
X897517Y122233D01*
X897491Y122265D01*
X897480Y122286D01*
X897457Y122308D01*
X897412Y122364D01*
X763714Y256062D01*
X763640Y256115D01*
X763571Y256175D01*
X763541Y256187D01*
X763515Y256206D01*
X763428Y256233D01*
X763343Y256267D01*
X763302Y256271D01*
X763279Y256278D01*
X763247Y256277D01*
X763176Y256285D01*
X687544Y256285D01*
X687454Y256271D01*
X687363Y256263D01*
X687333Y256251D01*
X687301Y256246D01*
X687220Y256203D01*
X687136Y256167D01*
X687104Y256141D01*
X687084Y256130D01*
X687061Y256107D01*
X687005Y256062D01*
X685752Y254809D01*
X661648Y254809D01*
X660159Y256298D01*
X660159Y264402D01*
X661648Y265891D01*
X685752Y265891D01*
X687005Y264638D01*
X687079Y264585D01*
X687149Y264525D01*
X687179Y264513D01*
X687205Y264494D01*
X687292Y264467D01*
X687377Y264433D01*
X687418Y264429D01*
X687440Y264422D01*
X687472Y264423D01*
X687544Y264415D01*
X766859Y264415D01*
X905765Y125509D01*
X905765Y39751D01*
X905768Y39731D01*
X905766Y39712D01*
X905788Y39610D01*
X905804Y39508D01*
X905814Y39491D01*
X905818Y39471D01*
X905871Y39382D01*
X905920Y39291D01*
X905934Y39277D01*
X905944Y39260D01*
X906023Y39193D01*
X906098Y39121D01*
X906116Y39113D01*
X906131Y39100D01*
X906227Y39061D01*
X906321Y39018D01*
X906341Y39016D01*
X906359Y39008D01*
X906526Y38990D01*
X933039Y38990D01*
X933129Y39004D01*
X933220Y39012D01*
X933249Y39024D01*
X933281Y39029D01*
X933362Y39072D01*
X933446Y39108D01*
X933478Y39134D01*
X933499Y39145D01*
X933521Y39168D01*
X933577Y39213D01*
X939704Y45340D01*
X941698Y45340D01*
X941718Y45343D01*
X941737Y45341D01*
X941839Y45363D01*
X941941Y45379D01*
X941958Y45389D01*
X941978Y45393D01*
X942067Y45446D01*
X942158Y45495D01*
X942172Y45509D01*
X942189Y45519D01*
X942256Y45598D01*
X942328Y45673D01*
X942336Y45691D01*
X942349Y45706D01*
X942388Y45802D01*
X942431Y45896D01*
X942433Y45916D01*
X942441Y45934D01*
X942459Y46101D01*
X942459Y48852D01*
X943964Y50358D01*
X944033Y50453D01*
X944104Y50550D01*
X944106Y50554D01*
X944108Y50557D01*
X944143Y50670D01*
X944179Y50784D01*
X944179Y50788D01*
X944180Y50792D01*
X944177Y50911D01*
X944175Y51030D01*
X944174Y51034D01*
X944174Y51038D01*
X944133Y51150D01*
X944094Y51262D01*
X944091Y51265D01*
X944090Y51269D01*
X944015Y51363D01*
X943942Y51456D01*
X943938Y51459D01*
X943936Y51461D01*
X943924Y51469D01*
X943807Y51555D01*
X943440Y51767D01*
X942967Y52240D01*
X942632Y52819D01*
X942459Y53466D01*
X942459Y58777D01*
X951738Y58777D01*
X951758Y58780D01*
X951777Y58778D01*
X951879Y58800D01*
X951981Y58817D01*
X951998Y58826D01*
X952018Y58830D01*
X952107Y58883D01*
X952198Y58932D01*
X952212Y58946D01*
X952229Y58956D01*
X952296Y59035D01*
X952367Y59110D01*
X952376Y59128D01*
X952389Y59143D01*
X952428Y59239D01*
X952471Y59333D01*
X952473Y59353D01*
X952481Y59371D01*
X952499Y59538D01*
X952499Y60301D01*
X952501Y60301D01*
X952501Y59538D01*
X952504Y59518D01*
X952502Y59499D01*
X952524Y59397D01*
X952541Y59295D01*
X952550Y59278D01*
X952554Y59258D01*
X952607Y59169D01*
X952656Y59078D01*
X952670Y59064D01*
X952680Y59047D01*
X952759Y58980D01*
X952834Y58909D01*
X952852Y58900D01*
X952867Y58887D01*
X952963Y58848D01*
X953057Y58805D01*
X953077Y58803D01*
X953095Y58795D01*
X953262Y58777D01*
X962541Y58777D01*
X962541Y53466D01*
X962368Y52819D01*
X962033Y52240D01*
X961560Y51767D01*
X961193Y51555D01*
X961100Y51479D01*
X961008Y51406D01*
X961006Y51402D01*
X961003Y51399D01*
X960939Y51298D01*
X960875Y51199D01*
X960874Y51195D01*
X960872Y51191D01*
X960844Y51075D01*
X960815Y50960D01*
X960816Y50956D01*
X960815Y50952D01*
X960825Y50833D01*
X960834Y50715D01*
X960836Y50711D01*
X960836Y50707D01*
X960884Y50597D01*
X960931Y50489D01*
X960934Y50485D01*
X960935Y50482D01*
X960945Y50471D01*
X961036Y50358D01*
X962541Y48852D01*
X962541Y33748D01*
X961052Y32259D01*
X943948Y32259D01*
X942459Y33748D01*
X942459Y34761D01*
X942448Y34831D01*
X942446Y34903D01*
X942428Y34952D01*
X942420Y35003D01*
X942386Y35067D01*
X942361Y35134D01*
X942329Y35175D01*
X942304Y35221D01*
X942252Y35270D01*
X942208Y35326D01*
X942164Y35354D01*
X942126Y35390D01*
X942061Y35420D01*
X942001Y35459D01*
X941950Y35472D01*
X941903Y35494D01*
X941832Y35502D01*
X941762Y35519D01*
X941710Y35515D01*
X941659Y35521D01*
X941588Y35506D01*
X941517Y35500D01*
X941469Y35480D01*
X941418Y35469D01*
X941357Y35432D01*
X941291Y35404D01*
X941235Y35359D01*
X941207Y35342D01*
X941192Y35325D01*
X941160Y35299D01*
X936721Y30860D01*
X866679Y30860D01*
G37*
%LPD*%
%LPC*%
G36*
X201516Y116585D02*
X201516Y116585D01*
X187740Y130361D01*
X187682Y130403D01*
X187630Y130453D01*
X187583Y130475D01*
X187541Y130505D01*
X187472Y130526D01*
X187407Y130556D01*
X187355Y130562D01*
X187305Y130577D01*
X187234Y130575D01*
X187163Y130583D01*
X187112Y130572D01*
X187060Y130571D01*
X186992Y130546D01*
X186922Y130531D01*
X186877Y130504D01*
X186829Y130486D01*
X186773Y130442D01*
X186711Y130405D01*
X186677Y130365D01*
X186637Y130333D01*
X186598Y130272D01*
X186551Y130218D01*
X186532Y130170D01*
X186504Y130126D01*
X186486Y130056D01*
X186459Y129990D01*
X186451Y129918D01*
X186443Y129887D01*
X186445Y129864D01*
X186441Y129823D01*
X186441Y129248D01*
X184952Y127759D01*
X167348Y127759D01*
X165859Y129248D01*
X165859Y133287D01*
X165856Y133306D01*
X165858Y133326D01*
X165836Y133427D01*
X165820Y133529D01*
X165810Y133547D01*
X165806Y133566D01*
X165753Y133655D01*
X165704Y133747D01*
X165690Y133760D01*
X165680Y133777D01*
X165601Y133845D01*
X165526Y133916D01*
X165508Y133924D01*
X165493Y133937D01*
X165397Y133976D01*
X165303Y134020D01*
X165283Y134022D01*
X165265Y134029D01*
X165098Y134048D01*
X165004Y134048D01*
X150939Y148112D01*
X150865Y148165D01*
X150796Y148225D01*
X150766Y148237D01*
X150740Y148256D01*
X150653Y148283D01*
X150568Y148317D01*
X150527Y148321D01*
X150504Y148328D01*
X150472Y148327D01*
X150401Y148335D01*
X78199Y148335D01*
X78109Y148321D01*
X78018Y148313D01*
X77988Y148301D01*
X77956Y148296D01*
X77876Y148253D01*
X77792Y148217D01*
X77760Y148191D01*
X77739Y148180D01*
X77717Y148157D01*
X77661Y148112D01*
X72364Y142815D01*
X72311Y142741D01*
X72251Y142672D01*
X72239Y142642D01*
X72220Y142616D01*
X72193Y142529D01*
X72159Y142444D01*
X72155Y142403D01*
X72148Y142380D01*
X72149Y142348D01*
X72141Y142277D01*
X72141Y129248D01*
X70652Y127759D01*
X53048Y127759D01*
X51559Y129248D01*
X51559Y144352D01*
X53048Y145841D01*
X63577Y145841D01*
X63667Y145855D01*
X63758Y145863D01*
X63788Y145875D01*
X63820Y145880D01*
X63900Y145923D01*
X63984Y145959D01*
X64016Y145985D01*
X64037Y145996D01*
X64059Y146019D01*
X64115Y146064D01*
X74516Y156465D01*
X154084Y156465D01*
X165489Y145059D01*
X165505Y145047D01*
X165518Y145032D01*
X165605Y144976D01*
X165689Y144916D01*
X165708Y144910D01*
X165725Y144899D01*
X165825Y144874D01*
X165924Y144843D01*
X165944Y144844D01*
X165963Y144839D01*
X166066Y144847D01*
X166170Y144850D01*
X166189Y144856D01*
X166209Y144858D01*
X166303Y144898D01*
X166401Y144934D01*
X166417Y144946D01*
X166435Y144954D01*
X166566Y145059D01*
X167348Y145841D01*
X184952Y145841D01*
X186441Y144352D01*
X186441Y141351D01*
X186444Y141331D01*
X186442Y141312D01*
X186464Y141210D01*
X186480Y141108D01*
X186490Y141091D01*
X186494Y141071D01*
X186547Y140982D01*
X186596Y140891D01*
X186610Y140877D01*
X186620Y140860D01*
X186699Y140793D01*
X186774Y140721D01*
X186792Y140713D01*
X186807Y140700D01*
X186903Y140661D01*
X186997Y140618D01*
X187017Y140616D01*
X187035Y140608D01*
X187202Y140590D01*
X189009Y140590D01*
X204661Y124938D01*
X204735Y124885D01*
X204804Y124825D01*
X204834Y124813D01*
X204860Y124794D01*
X204947Y124767D01*
X205032Y124733D01*
X205073Y124729D01*
X205096Y124722D01*
X205128Y124723D01*
X205199Y124715D01*
X271051Y124715D01*
X271141Y124729D01*
X271232Y124737D01*
X271262Y124749D01*
X271294Y124754D01*
X271374Y124797D01*
X271458Y124833D01*
X271490Y124859D01*
X271511Y124870D01*
X271533Y124893D01*
X271589Y124938D01*
X279936Y133285D01*
X279989Y133359D01*
X280049Y133428D01*
X280061Y133458D01*
X280080Y133484D01*
X280107Y133571D01*
X280141Y133656D01*
X280145Y133697D01*
X280152Y133720D01*
X280151Y133752D01*
X280159Y133823D01*
X280159Y144352D01*
X281648Y145841D01*
X299252Y145841D01*
X300741Y144352D01*
X300741Y139763D01*
X300744Y139744D01*
X300742Y139724D01*
X300764Y139623D01*
X300780Y139521D01*
X300790Y139503D01*
X300794Y139484D01*
X300847Y139395D01*
X300896Y139303D01*
X300910Y139290D01*
X300920Y139273D01*
X300999Y139205D01*
X301074Y139134D01*
X301092Y139126D01*
X301107Y139113D01*
X301203Y139074D01*
X301297Y139030D01*
X301317Y139028D01*
X301335Y139021D01*
X301502Y139002D01*
X304896Y139002D01*
X318961Y124938D01*
X319035Y124885D01*
X319104Y124825D01*
X319134Y124813D01*
X319160Y124794D01*
X319247Y124767D01*
X319332Y124733D01*
X319373Y124729D01*
X319396Y124722D01*
X319428Y124723D01*
X319499Y124715D01*
X385351Y124715D01*
X385441Y124729D01*
X385532Y124737D01*
X385562Y124749D01*
X385594Y124754D01*
X385674Y124797D01*
X385758Y124833D01*
X385790Y124859D01*
X385811Y124870D01*
X385833Y124893D01*
X385889Y124938D01*
X394236Y133285D01*
X394289Y133359D01*
X394349Y133428D01*
X394361Y133458D01*
X394380Y133484D01*
X394407Y133571D01*
X394441Y133656D01*
X394445Y133697D01*
X394452Y133720D01*
X394451Y133752D01*
X394459Y133823D01*
X394459Y144352D01*
X395948Y145841D01*
X413552Y145841D01*
X415041Y144352D01*
X415041Y139763D01*
X415044Y139744D01*
X415042Y139724D01*
X415064Y139623D01*
X415080Y139521D01*
X415090Y139503D01*
X415094Y139484D01*
X415147Y139395D01*
X415196Y139303D01*
X415210Y139290D01*
X415220Y139273D01*
X415299Y139205D01*
X415374Y139134D01*
X415392Y139126D01*
X415407Y139113D01*
X415503Y139074D01*
X415597Y139030D01*
X415617Y139028D01*
X415635Y139021D01*
X415802Y139002D01*
X419196Y139002D01*
X433261Y124938D01*
X433335Y124885D01*
X433404Y124825D01*
X433434Y124813D01*
X433460Y124794D01*
X433547Y124767D01*
X433632Y124733D01*
X433673Y124729D01*
X433696Y124722D01*
X433728Y124723D01*
X433799Y124715D01*
X499651Y124715D01*
X499741Y124729D01*
X499832Y124737D01*
X499862Y124749D01*
X499894Y124754D01*
X499974Y124797D01*
X500058Y124833D01*
X500090Y124859D01*
X500111Y124870D01*
X500133Y124893D01*
X500189Y124938D01*
X508536Y133285D01*
X508589Y133359D01*
X508649Y133428D01*
X508661Y133458D01*
X508680Y133484D01*
X508707Y133571D01*
X508741Y133656D01*
X508745Y133697D01*
X508752Y133720D01*
X508751Y133752D01*
X508759Y133823D01*
X508759Y144352D01*
X510248Y145841D01*
X527852Y145841D01*
X529341Y144352D01*
X529341Y139763D01*
X529344Y139744D01*
X529342Y139724D01*
X529364Y139623D01*
X529380Y139521D01*
X529390Y139503D01*
X529394Y139484D01*
X529447Y139395D01*
X529496Y139303D01*
X529510Y139290D01*
X529520Y139273D01*
X529599Y139205D01*
X529674Y139134D01*
X529692Y139126D01*
X529707Y139113D01*
X529803Y139074D01*
X529897Y139030D01*
X529917Y139028D01*
X529935Y139021D01*
X530102Y139002D01*
X533496Y139002D01*
X547561Y124938D01*
X547635Y124885D01*
X547704Y124825D01*
X547734Y124813D01*
X547760Y124794D01*
X547847Y124767D01*
X547932Y124733D01*
X547973Y124729D01*
X547996Y124722D01*
X548028Y124723D01*
X548099Y124715D01*
X613951Y124715D01*
X614041Y124729D01*
X614132Y124737D01*
X614162Y124749D01*
X614194Y124754D01*
X614274Y124797D01*
X614358Y124833D01*
X614390Y124859D01*
X614411Y124870D01*
X614433Y124893D01*
X614489Y124938D01*
X622836Y133285D01*
X622889Y133359D01*
X622949Y133428D01*
X622961Y133458D01*
X622980Y133484D01*
X623007Y133571D01*
X623041Y133656D01*
X623045Y133697D01*
X623052Y133719D01*
X623051Y133752D01*
X623059Y133823D01*
X623059Y144352D01*
X624548Y145841D01*
X635077Y145841D01*
X635167Y145855D01*
X635258Y145863D01*
X635288Y145875D01*
X635320Y145880D01*
X635400Y145923D01*
X635484Y145959D01*
X635516Y145985D01*
X635537Y145996D01*
X635559Y146019D01*
X635615Y146064D01*
X676750Y187198D01*
X679354Y189802D01*
X688912Y189802D01*
X688931Y189805D01*
X688951Y189803D01*
X689052Y189825D01*
X689154Y189842D01*
X689172Y189851D01*
X689191Y189856D01*
X689280Y189909D01*
X689372Y189957D01*
X689385Y189971D01*
X689402Y189982D01*
X689470Y190060D01*
X689541Y190135D01*
X689549Y190153D01*
X689562Y190169D01*
X689601Y190265D01*
X689645Y190358D01*
X689647Y190378D01*
X689654Y190397D01*
X689673Y190563D01*
X689673Y239301D01*
X689670Y239319D01*
X689672Y239336D01*
X689657Y239404D01*
X689651Y239482D01*
X689638Y239512D01*
X689633Y239544D01*
X689622Y239564D01*
X689619Y239577D01*
X689589Y239628D01*
X689555Y239708D01*
X689529Y239741D01*
X689518Y239761D01*
X689498Y239780D01*
X689493Y239788D01*
X689486Y239794D01*
X689450Y239839D01*
X687004Y242285D01*
X686988Y242296D01*
X686976Y242312D01*
X686889Y242368D01*
X686805Y242428D01*
X686786Y242434D01*
X686769Y242445D01*
X686668Y242470D01*
X686570Y242501D01*
X686550Y242500D01*
X686530Y242505D01*
X686427Y242497D01*
X686324Y242494D01*
X686305Y242487D01*
X686285Y242486D01*
X686190Y242445D01*
X686093Y242410D01*
X686077Y242397D01*
X686059Y242390D01*
X685928Y242285D01*
X685752Y242109D01*
X661648Y242109D01*
X660395Y243362D01*
X660321Y243415D01*
X660251Y243475D01*
X660221Y243487D01*
X660195Y243506D01*
X660108Y243533D01*
X660023Y243567D01*
X659982Y243571D01*
X659960Y243578D01*
X659928Y243577D01*
X659856Y243585D01*
X646016Y243585D01*
X634811Y254791D01*
X634794Y254803D01*
X634782Y254818D01*
X634695Y254874D01*
X634611Y254934D01*
X634592Y254940D01*
X634575Y254951D01*
X634475Y254976D01*
X634376Y255007D01*
X634356Y255006D01*
X634337Y255011D01*
X634234Y255003D01*
X634130Y255000D01*
X634111Y254994D01*
X634091Y254992D01*
X633996Y254952D01*
X633899Y254916D01*
X633883Y254904D01*
X633865Y254896D01*
X633757Y254809D01*
X609648Y254809D01*
X608159Y256298D01*
X608159Y264402D01*
X609648Y265891D01*
X633752Y265891D01*
X635005Y264638D01*
X635079Y264585D01*
X635149Y264525D01*
X635179Y264513D01*
X635205Y264494D01*
X635292Y264467D01*
X635377Y264433D01*
X635418Y264429D01*
X635440Y264422D01*
X635472Y264423D01*
X635544Y264415D01*
X636684Y264415D01*
X649161Y251938D01*
X649235Y251885D01*
X649304Y251825D01*
X649334Y251813D01*
X649360Y251794D01*
X649447Y251767D01*
X649532Y251733D01*
X649573Y251729D01*
X649596Y251722D01*
X649628Y251723D01*
X649699Y251715D01*
X659856Y251715D01*
X659946Y251729D01*
X660037Y251737D01*
X660067Y251749D01*
X660099Y251754D01*
X660180Y251797D01*
X660264Y251833D01*
X660296Y251859D01*
X660316Y251870D01*
X660339Y251893D01*
X660395Y251938D01*
X661648Y253191D01*
X685752Y253191D01*
X687005Y251938D01*
X687079Y251885D01*
X687149Y251825D01*
X687179Y251813D01*
X687205Y251794D01*
X687292Y251767D01*
X687377Y251733D01*
X687418Y251729D01*
X687440Y251722D01*
X687472Y251723D01*
X687544Y251715D01*
X689071Y251715D01*
X697802Y242984D01*
X697802Y190563D01*
X697805Y190549D01*
X697803Y190538D01*
X697804Y190533D01*
X697803Y190524D01*
X697825Y190423D01*
X697842Y190321D01*
X697851Y190303D01*
X697856Y190284D01*
X697909Y190195D01*
X697957Y190103D01*
X697971Y190090D01*
X697982Y190073D01*
X698060Y190005D01*
X698135Y189934D01*
X698153Y189926D01*
X698169Y189913D01*
X698265Y189874D01*
X698358Y189830D01*
X698378Y189828D01*
X698397Y189821D01*
X698563Y189802D01*
X738498Y189802D01*
X738518Y189805D01*
X738537Y189803D01*
X738639Y189825D01*
X738741Y189842D01*
X738758Y189851D01*
X738778Y189856D01*
X738867Y189909D01*
X738958Y189957D01*
X738972Y189971D01*
X738989Y189982D01*
X739056Y190060D01*
X739128Y190135D01*
X739136Y190153D01*
X739149Y190169D01*
X739188Y190265D01*
X739231Y190358D01*
X739233Y190378D01*
X739241Y190397D01*
X739259Y190563D01*
X739259Y194852D01*
X740748Y196341D01*
X757852Y196341D01*
X759341Y194852D01*
X759341Y184213D01*
X759344Y184194D01*
X759342Y184174D01*
X759364Y184073D01*
X759380Y183971D01*
X759390Y183953D01*
X759394Y183934D01*
X759447Y183845D01*
X759496Y183753D01*
X759510Y183740D01*
X759520Y183723D01*
X759599Y183655D01*
X759674Y183584D01*
X759692Y183576D01*
X759707Y183563D01*
X759803Y183524D01*
X759897Y183480D01*
X759917Y183478D01*
X759935Y183471D01*
X760102Y183452D01*
X760509Y183452D01*
X769240Y174721D01*
X769240Y157226D01*
X769243Y157206D01*
X769241Y157187D01*
X769263Y157085D01*
X769279Y156983D01*
X769289Y156966D01*
X769293Y156946D01*
X769346Y156857D01*
X769395Y156766D01*
X769409Y156752D01*
X769419Y156735D01*
X769498Y156668D01*
X769573Y156596D01*
X769591Y156588D01*
X769606Y156575D01*
X769702Y156536D01*
X769796Y156493D01*
X769816Y156491D01*
X769834Y156483D01*
X770001Y156465D01*
X847821Y156465D01*
X858222Y146064D01*
X858296Y146011D01*
X858366Y145951D01*
X858396Y145939D01*
X858422Y145920D01*
X858509Y145893D01*
X858594Y145859D01*
X858635Y145855D01*
X858657Y145848D01*
X858689Y145849D01*
X858760Y145841D01*
X870752Y145841D01*
X872241Y144352D01*
X872241Y129248D01*
X870752Y127759D01*
X853148Y127759D01*
X851659Y129248D01*
X851659Y140815D01*
X851645Y140905D01*
X851637Y140996D01*
X851625Y141025D01*
X851620Y141057D01*
X851577Y141138D01*
X851541Y141222D01*
X851515Y141254D01*
X851504Y141275D01*
X851481Y141297D01*
X851436Y141353D01*
X844677Y148112D01*
X844603Y148165D01*
X844533Y148225D01*
X844503Y148237D01*
X844477Y148256D01*
X844390Y148283D01*
X844305Y148317D01*
X844264Y148321D01*
X844242Y148328D01*
X844210Y148327D01*
X844139Y148335D01*
X770001Y148335D01*
X769981Y148332D01*
X769962Y148334D01*
X769860Y148312D01*
X769758Y148296D01*
X769741Y148286D01*
X769721Y148282D01*
X769632Y148229D01*
X769541Y148180D01*
X769527Y148166D01*
X769510Y148156D01*
X769443Y148077D01*
X769371Y148002D01*
X769363Y147984D01*
X769350Y147969D01*
X769311Y147873D01*
X769268Y147779D01*
X769266Y147759D01*
X769258Y147741D01*
X769240Y147574D01*
X769240Y136429D01*
X766859Y134048D01*
X758702Y134048D01*
X758682Y134045D01*
X758663Y134047D01*
X758561Y134025D01*
X758459Y134008D01*
X758442Y133999D01*
X758422Y133994D01*
X758333Y133941D01*
X758242Y133893D01*
X758228Y133879D01*
X758211Y133868D01*
X758144Y133790D01*
X758072Y133715D01*
X758064Y133697D01*
X758051Y133681D01*
X758012Y133585D01*
X757969Y133492D01*
X757967Y133472D01*
X757959Y133453D01*
X757941Y133287D01*
X757941Y129248D01*
X756452Y127759D01*
X738848Y127759D01*
X737359Y129248D01*
X737359Y144352D01*
X738848Y145841D01*
X746555Y145841D01*
X746651Y145856D01*
X746748Y145866D01*
X746772Y145876D01*
X746797Y145880D01*
X746883Y145926D01*
X746972Y145966D01*
X746992Y145983D01*
X747015Y145996D01*
X747082Y146066D01*
X747153Y146132D01*
X747166Y146155D01*
X747184Y146174D01*
X747225Y146262D01*
X747272Y146348D01*
X747277Y146373D01*
X747288Y146397D01*
X747298Y146494D01*
X747316Y146590D01*
X747312Y146616D01*
X747315Y146641D01*
X747294Y146737D01*
X747280Y146833D01*
X747268Y146856D01*
X747263Y146882D01*
X747213Y146965D01*
X747168Y147052D01*
X747150Y147071D01*
X747136Y147093D01*
X747062Y147156D01*
X746993Y147224D01*
X746964Y147240D01*
X746949Y147253D01*
X746919Y147265D01*
X746846Y147305D01*
X745271Y147958D01*
X743270Y149958D01*
X742187Y152573D01*
X742187Y155402D01*
X743283Y158047D01*
X743305Y158070D01*
X743326Y158117D01*
X743357Y158159D01*
X743378Y158228D01*
X743408Y158293D01*
X743414Y158345D01*
X743429Y158394D01*
X743427Y158466D01*
X743435Y158537D01*
X743424Y158588D01*
X743423Y158640D01*
X743398Y158708D01*
X743383Y158778D01*
X743356Y158823D01*
X743339Y158871D01*
X743294Y158927D01*
X743257Y158989D01*
X743217Y159023D01*
X743185Y159063D01*
X743124Y159102D01*
X743070Y159149D01*
X743022Y159168D01*
X742978Y159196D01*
X742908Y159214D01*
X742842Y159241D01*
X742771Y159249D01*
X742740Y159257D01*
X742716Y159255D01*
X742675Y159259D01*
X740748Y159259D01*
X739259Y160748D01*
X739259Y175852D01*
X740669Y177262D01*
X740680Y177278D01*
X740696Y177290D01*
X740752Y177378D01*
X740812Y177461D01*
X740818Y177480D01*
X740829Y177497D01*
X740854Y177598D01*
X740884Y177697D01*
X740884Y177716D01*
X740889Y177736D01*
X740881Y177839D01*
X740878Y177942D01*
X740871Y177961D01*
X740870Y177981D01*
X740829Y178076D01*
X740794Y178173D01*
X740781Y178189D01*
X740773Y178207D01*
X740669Y178338D01*
X739259Y179748D01*
X739259Y180912D01*
X739256Y180931D01*
X739258Y180951D01*
X739236Y181052D01*
X739220Y181154D01*
X739210Y181172D01*
X739206Y181191D01*
X739153Y181280D01*
X739104Y181372D01*
X739090Y181385D01*
X739080Y181402D01*
X739001Y181470D01*
X738926Y181541D01*
X738908Y181549D01*
X738893Y181562D01*
X738797Y181601D01*
X738703Y181645D01*
X738683Y181647D01*
X738665Y181654D01*
X738498Y181673D01*
X683036Y181673D01*
X682946Y181658D01*
X682855Y181651D01*
X682826Y181638D01*
X682794Y181633D01*
X682713Y181590D01*
X682629Y181555D01*
X682597Y181529D01*
X682576Y181518D01*
X682554Y181495D01*
X682498Y181450D01*
X643864Y142815D01*
X643811Y142741D01*
X643751Y142672D01*
X643739Y142642D01*
X643720Y142616D01*
X643693Y142529D01*
X643659Y142444D01*
X643655Y142403D01*
X643648Y142381D01*
X643649Y142348D01*
X643641Y142277D01*
X643641Y129248D01*
X642152Y127759D01*
X629123Y127759D01*
X629033Y127745D01*
X628942Y127737D01*
X628912Y127725D01*
X628880Y127720D01*
X628800Y127677D01*
X628716Y127641D01*
X628684Y127615D01*
X628663Y127604D01*
X628641Y127581D01*
X628585Y127536D01*
X620238Y119189D01*
X617634Y116585D01*
X544416Y116585D01*
X530640Y130361D01*
X530582Y130403D01*
X530530Y130453D01*
X530483Y130475D01*
X530441Y130505D01*
X530372Y130526D01*
X530307Y130556D01*
X530255Y130562D01*
X530205Y130577D01*
X530134Y130575D01*
X530063Y130583D01*
X530012Y130572D01*
X529960Y130571D01*
X529892Y130546D01*
X529822Y130531D01*
X529777Y130504D01*
X529729Y130486D01*
X529673Y130442D01*
X529611Y130405D01*
X529577Y130365D01*
X529537Y130333D01*
X529498Y130272D01*
X529451Y130218D01*
X529432Y130170D01*
X529404Y130126D01*
X529386Y130056D01*
X529359Y129990D01*
X529351Y129918D01*
X529343Y129887D01*
X529345Y129864D01*
X529341Y129823D01*
X529341Y129248D01*
X527852Y127759D01*
X514823Y127759D01*
X514733Y127745D01*
X514642Y127737D01*
X514612Y127725D01*
X514580Y127720D01*
X514500Y127677D01*
X514416Y127641D01*
X514384Y127615D01*
X514363Y127604D01*
X514341Y127581D01*
X514285Y127536D01*
X503334Y116585D01*
X430116Y116585D01*
X416340Y130361D01*
X416282Y130403D01*
X416230Y130453D01*
X416183Y130475D01*
X416141Y130505D01*
X416072Y130526D01*
X416007Y130556D01*
X415955Y130562D01*
X415905Y130577D01*
X415834Y130575D01*
X415763Y130583D01*
X415712Y130572D01*
X415660Y130571D01*
X415592Y130546D01*
X415522Y130531D01*
X415477Y130504D01*
X415429Y130486D01*
X415373Y130442D01*
X415311Y130405D01*
X415277Y130365D01*
X415237Y130333D01*
X415198Y130272D01*
X415151Y130218D01*
X415132Y130170D01*
X415104Y130126D01*
X415086Y130056D01*
X415059Y129990D01*
X415051Y129918D01*
X415043Y129887D01*
X415045Y129864D01*
X415041Y129823D01*
X415041Y129248D01*
X413552Y127759D01*
X400523Y127759D01*
X400433Y127745D01*
X400342Y127737D01*
X400312Y127725D01*
X400280Y127720D01*
X400200Y127677D01*
X400116Y127641D01*
X400084Y127615D01*
X400063Y127604D01*
X400041Y127581D01*
X399985Y127536D01*
X389034Y116585D01*
X315816Y116585D01*
X302040Y130361D01*
X301982Y130403D01*
X301930Y130453D01*
X301883Y130475D01*
X301841Y130505D01*
X301772Y130526D01*
X301707Y130556D01*
X301655Y130562D01*
X301605Y130577D01*
X301534Y130575D01*
X301463Y130583D01*
X301412Y130572D01*
X301360Y130571D01*
X301292Y130546D01*
X301222Y130531D01*
X301177Y130504D01*
X301129Y130486D01*
X301073Y130442D01*
X301011Y130405D01*
X300977Y130365D01*
X300937Y130333D01*
X300898Y130272D01*
X300851Y130218D01*
X300832Y130170D01*
X300804Y130126D01*
X300786Y130056D01*
X300759Y129990D01*
X300751Y129918D01*
X300743Y129887D01*
X300745Y129864D01*
X300741Y129823D01*
X300741Y129248D01*
X299252Y127759D01*
X286223Y127759D01*
X286133Y127745D01*
X286042Y127737D01*
X286012Y127725D01*
X285980Y127720D01*
X285900Y127677D01*
X285816Y127641D01*
X285784Y127615D01*
X285763Y127604D01*
X285741Y127581D01*
X285685Y127536D01*
X274734Y116585D01*
X201516Y116585D01*
G37*
%LPD*%
%LPC*%
G36*
X561879Y195960D02*
X561879Y195960D01*
X559498Y198341D01*
X559498Y205098D01*
X559495Y205118D01*
X559497Y205137D01*
X559475Y205239D01*
X559458Y205341D01*
X559449Y205358D01*
X559444Y205378D01*
X559391Y205467D01*
X559343Y205558D01*
X559329Y205572D01*
X559318Y205589D01*
X559240Y205656D01*
X559165Y205728D01*
X559147Y205736D01*
X559131Y205749D01*
X559035Y205788D01*
X558942Y205831D01*
X558922Y205833D01*
X558903Y205841D01*
X558737Y205859D01*
X554448Y205859D01*
X552959Y207348D01*
X552959Y224452D01*
X554448Y225941D01*
X564986Y225941D01*
X565056Y225952D01*
X565128Y225954D01*
X565177Y225972D01*
X565228Y225980D01*
X565292Y226014D01*
X565359Y226039D01*
X565400Y226071D01*
X565446Y226096D01*
X565495Y226147D01*
X565551Y226192D01*
X565579Y226236D01*
X565615Y226274D01*
X565645Y226339D01*
X565684Y226399D01*
X565697Y226450D01*
X565719Y226497D01*
X565727Y226568D01*
X565744Y226638D01*
X565740Y226690D01*
X565746Y226741D01*
X565731Y226812D01*
X565725Y226883D01*
X565705Y226931D01*
X565694Y226982D01*
X565657Y227043D01*
X565629Y227109D01*
X565584Y227165D01*
X565567Y227193D01*
X565550Y227208D01*
X565524Y227240D01*
X565277Y227487D01*
X565203Y227540D01*
X565133Y227600D01*
X565103Y227612D01*
X565077Y227631D01*
X564990Y227658D01*
X564905Y227692D01*
X564864Y227696D01*
X564842Y227703D01*
X564810Y227702D01*
X564739Y227710D01*
X552861Y227710D01*
X552771Y227696D01*
X552680Y227688D01*
X552651Y227676D01*
X552619Y227671D01*
X552538Y227628D01*
X552454Y227592D01*
X552422Y227566D01*
X552401Y227555D01*
X552379Y227532D01*
X552323Y227487D01*
X543021Y218185D01*
X529302Y218185D01*
X529282Y218182D01*
X529263Y218184D01*
X529161Y218162D01*
X529059Y218146D01*
X529042Y218136D01*
X529022Y218132D01*
X528933Y218079D01*
X528842Y218030D01*
X528828Y218016D01*
X528811Y218006D01*
X528744Y217927D01*
X528672Y217852D01*
X528664Y217834D01*
X528651Y217819D01*
X528612Y217723D01*
X528569Y217629D01*
X528567Y217609D01*
X528559Y217591D01*
X528541Y217424D01*
X528541Y213048D01*
X527052Y211559D01*
X510948Y211559D01*
X509459Y213048D01*
X509459Y225152D01*
X510948Y226641D01*
X527052Y226641D01*
X527155Y226538D01*
X527229Y226485D01*
X527299Y226425D01*
X527329Y226413D01*
X527355Y226394D01*
X527442Y226367D01*
X527527Y226333D01*
X527568Y226329D01*
X527590Y226322D01*
X527622Y226323D01*
X527694Y226315D01*
X539339Y226315D01*
X539429Y226329D01*
X539520Y226337D01*
X539549Y226349D01*
X539581Y226354D01*
X539662Y226397D01*
X539746Y226433D01*
X539778Y226459D01*
X539799Y226470D01*
X539821Y226493D01*
X539877Y226538D01*
X549179Y235840D01*
X568421Y235840D01*
X578097Y226164D01*
X578171Y226111D01*
X578241Y226051D01*
X578271Y226039D01*
X578297Y226020D01*
X578384Y225993D01*
X578469Y225959D01*
X578510Y225955D01*
X578532Y225948D01*
X578564Y225949D01*
X578635Y225941D01*
X588552Y225941D01*
X590041Y224452D01*
X590041Y211864D01*
X590042Y211856D01*
X590042Y211853D01*
X590046Y211835D01*
X590052Y211794D01*
X590054Y211722D01*
X590072Y211673D01*
X590080Y211622D01*
X590114Y211558D01*
X590139Y211491D01*
X590171Y211450D01*
X590196Y211404D01*
X590248Y211355D01*
X590292Y211299D01*
X590336Y211271D01*
X590374Y211235D01*
X590439Y211205D01*
X590499Y211166D01*
X590550Y211153D01*
X590597Y211131D01*
X590668Y211123D01*
X590738Y211106D01*
X590790Y211110D01*
X590841Y211104D01*
X590912Y211119D01*
X590983Y211125D01*
X591031Y211145D01*
X591082Y211156D01*
X591143Y211193D01*
X591209Y211221D01*
X591265Y211266D01*
X591293Y211283D01*
X591308Y211300D01*
X591340Y211326D01*
X597375Y217361D01*
X597428Y217435D01*
X597487Y217504D01*
X597500Y217534D01*
X597518Y217560D01*
X597545Y217647D01*
X597579Y217732D01*
X597584Y217773D01*
X597591Y217796D01*
X597590Y217828D01*
X597598Y217899D01*
X597598Y249334D01*
X599979Y251715D01*
X607856Y251715D01*
X607946Y251729D01*
X608037Y251737D01*
X608067Y251749D01*
X608099Y251754D01*
X608180Y251797D01*
X608264Y251833D01*
X608296Y251859D01*
X608316Y251870D01*
X608339Y251893D01*
X608395Y251938D01*
X609648Y253191D01*
X633752Y253191D01*
X635241Y251702D01*
X635241Y243598D01*
X633752Y242109D01*
X609648Y242109D01*
X608395Y243362D01*
X608321Y243415D01*
X608251Y243475D01*
X608221Y243487D01*
X608195Y243506D01*
X608108Y243533D01*
X608023Y243567D01*
X607982Y243571D01*
X607960Y243578D01*
X607928Y243577D01*
X607856Y243585D01*
X606488Y243585D01*
X606469Y243582D01*
X606449Y243584D01*
X606348Y243562D01*
X606246Y243546D01*
X606228Y243536D01*
X606209Y243532D01*
X606120Y243479D01*
X606028Y243430D01*
X606015Y243416D01*
X605998Y243406D01*
X605930Y243327D01*
X605859Y243252D01*
X605851Y243234D01*
X605838Y243219D01*
X605799Y243123D01*
X605755Y243029D01*
X605753Y243009D01*
X605746Y242991D01*
X605727Y242824D01*
X605727Y214216D01*
X587471Y195960D01*
X561879Y195960D01*
G37*
%LPD*%
%LPC*%
G36*
X488948Y221059D02*
X488948Y221059D01*
X487459Y222548D01*
X487459Y231965D01*
X487445Y232055D01*
X487437Y232146D01*
X487425Y232175D01*
X487420Y232207D01*
X487377Y232288D01*
X487341Y232372D01*
X487315Y232404D01*
X487304Y232425D01*
X487281Y232447D01*
X487236Y232503D01*
X482727Y237012D01*
X482653Y237065D01*
X482583Y237125D01*
X482553Y237137D01*
X482527Y237156D01*
X482440Y237183D01*
X482355Y237217D01*
X482314Y237221D01*
X482292Y237228D01*
X482260Y237227D01*
X482189Y237235D01*
X435102Y237235D01*
X435082Y237232D01*
X435063Y237234D01*
X434961Y237212D01*
X434859Y237196D01*
X434842Y237186D01*
X434822Y237182D01*
X434733Y237129D01*
X434642Y237080D01*
X434628Y237066D01*
X434611Y237056D01*
X434544Y236977D01*
X434472Y236902D01*
X434464Y236884D01*
X434451Y236869D01*
X434412Y236773D01*
X434369Y236679D01*
X434367Y236659D01*
X434359Y236641D01*
X434341Y236474D01*
X434341Y234987D01*
X425413Y226059D01*
X412787Y226059D01*
X403859Y234987D01*
X403859Y247613D01*
X412787Y256541D01*
X425413Y256541D01*
X434341Y247613D01*
X434341Y246126D01*
X434342Y246115D01*
X434342Y246109D01*
X434343Y246101D01*
X434342Y246087D01*
X434364Y245985D01*
X434380Y245883D01*
X434390Y245866D01*
X434394Y245846D01*
X434447Y245757D01*
X434496Y245666D01*
X434510Y245652D01*
X434520Y245635D01*
X434599Y245568D01*
X434674Y245496D01*
X434692Y245488D01*
X434707Y245475D01*
X434803Y245436D01*
X434897Y245393D01*
X434917Y245391D01*
X434935Y245383D01*
X435102Y245365D01*
X485871Y245365D01*
X488475Y242761D01*
X494872Y236364D01*
X494946Y236311D01*
X495016Y236251D01*
X495046Y236239D01*
X495072Y236220D01*
X495159Y236193D01*
X495244Y236159D01*
X495285Y236155D01*
X495307Y236148D01*
X495339Y236149D01*
X495410Y236141D01*
X505052Y236141D01*
X506541Y234652D01*
X506541Y222548D01*
X505052Y221059D01*
X488948Y221059D01*
G37*
%LPD*%
%LPC*%
G36*
X643348Y193159D02*
X643348Y193159D01*
X641859Y194648D01*
X641859Y196575D01*
X641848Y196646D01*
X641846Y196718D01*
X641828Y196767D01*
X641820Y196818D01*
X641786Y196881D01*
X641761Y196949D01*
X641729Y196989D01*
X641704Y197035D01*
X641652Y197085D01*
X641607Y197141D01*
X641564Y197169D01*
X641526Y197205D01*
X641461Y197235D01*
X641401Y197274D01*
X641350Y197286D01*
X641303Y197308D01*
X641232Y197316D01*
X641162Y197334D01*
X641110Y197330D01*
X641059Y197335D01*
X640988Y197320D01*
X640917Y197314D01*
X640869Y197294D01*
X640818Y197283D01*
X640757Y197246D01*
X640690Y197218D01*
X640646Y197182D01*
X638002Y196087D01*
X635173Y196087D01*
X632558Y197170D01*
X630558Y199171D01*
X629475Y201785D01*
X629475Y204615D01*
X630558Y207229D01*
X632558Y209230D01*
X635173Y210313D01*
X638002Y210313D01*
X640647Y209217D01*
X640670Y209195D01*
X640717Y209174D01*
X640759Y209143D01*
X640828Y209122D01*
X640893Y209092D01*
X640945Y209086D01*
X640994Y209071D01*
X641066Y209073D01*
X641137Y209065D01*
X641188Y209076D01*
X641240Y209077D01*
X641308Y209102D01*
X641378Y209117D01*
X641423Y209144D01*
X641471Y209161D01*
X641527Y209206D01*
X641589Y209243D01*
X641623Y209283D01*
X641663Y209315D01*
X641702Y209376D01*
X641749Y209430D01*
X641768Y209478D01*
X641796Y209522D01*
X641814Y209592D01*
X641841Y209658D01*
X641849Y209729D01*
X641857Y209760D01*
X641855Y209784D01*
X641859Y209825D01*
X641859Y211752D01*
X643348Y213241D01*
X658452Y213241D01*
X659862Y211831D01*
X659878Y211820D01*
X659890Y211804D01*
X659978Y211748D01*
X660061Y211688D01*
X660080Y211682D01*
X660097Y211671D01*
X660198Y211646D01*
X660297Y211616D01*
X660316Y211616D01*
X660336Y211611D01*
X660439Y211619D01*
X660542Y211622D01*
X660561Y211629D01*
X660581Y211630D01*
X660676Y211671D01*
X660773Y211706D01*
X660789Y211719D01*
X660807Y211727D01*
X660938Y211831D01*
X662348Y213241D01*
X665099Y213241D01*
X665119Y213244D01*
X665138Y213242D01*
X665240Y213264D01*
X665342Y213280D01*
X665359Y213290D01*
X665379Y213294D01*
X665468Y213347D01*
X665559Y213396D01*
X665573Y213410D01*
X665590Y213420D01*
X665657Y213499D01*
X665729Y213574D01*
X665737Y213592D01*
X665750Y213607D01*
X665789Y213703D01*
X665832Y213797D01*
X665834Y213817D01*
X665842Y213835D01*
X665860Y214002D01*
X665860Y228648D01*
X665858Y228664D01*
X665859Y228679D01*
X665859Y228682D01*
X665859Y228687D01*
X665837Y228789D01*
X665821Y228891D01*
X665811Y228908D01*
X665807Y228928D01*
X665754Y229017D01*
X665705Y229108D01*
X665691Y229122D01*
X665681Y229139D01*
X665602Y229206D01*
X665527Y229278D01*
X665509Y229286D01*
X665494Y229299D01*
X665398Y229338D01*
X665304Y229381D01*
X665284Y229383D01*
X665266Y229391D01*
X665099Y229409D01*
X661648Y229409D01*
X660159Y230898D01*
X660159Y239002D01*
X661648Y240491D01*
X685752Y240491D01*
X687241Y239002D01*
X687241Y230898D01*
X685752Y229409D01*
X674751Y229409D01*
X674731Y229406D01*
X674712Y229408D01*
X674610Y229386D01*
X674508Y229370D01*
X674491Y229360D01*
X674471Y229356D01*
X674382Y229303D01*
X674291Y229254D01*
X674277Y229240D01*
X674260Y229230D01*
X674193Y229151D01*
X674121Y229076D01*
X674113Y229058D01*
X674100Y229043D01*
X674061Y228947D01*
X674018Y228853D01*
X674016Y228833D01*
X674008Y228815D01*
X673990Y228648D01*
X673990Y214002D01*
X673993Y213982D01*
X673991Y213963D01*
X674013Y213861D01*
X674029Y213759D01*
X674039Y213742D01*
X674043Y213722D01*
X674096Y213633D01*
X674145Y213542D01*
X674159Y213528D01*
X674169Y213511D01*
X674248Y213444D01*
X674323Y213372D01*
X674341Y213364D01*
X674356Y213351D01*
X674452Y213312D01*
X674546Y213269D01*
X674566Y213267D01*
X674584Y213259D01*
X674751Y213241D01*
X677452Y213241D01*
X678941Y211752D01*
X678941Y194648D01*
X677452Y193159D01*
X662348Y193159D01*
X660938Y194569D01*
X660922Y194580D01*
X660910Y194596D01*
X660822Y194652D01*
X660739Y194712D01*
X660720Y194718D01*
X660703Y194729D01*
X660602Y194754D01*
X660503Y194784D01*
X660484Y194784D01*
X660464Y194789D01*
X660361Y194781D01*
X660258Y194778D01*
X660239Y194771D01*
X660219Y194770D01*
X660124Y194729D01*
X660027Y194694D01*
X660011Y194681D01*
X659993Y194673D01*
X659862Y194569D01*
X658452Y193159D01*
X643348Y193159D01*
G37*
%LPD*%
%LPC*%
G36*
X106725Y273811D02*
X106725Y273811D01*
X96011Y284525D01*
X96011Y299675D01*
X106725Y310389D01*
X121875Y310389D01*
X132589Y299675D01*
X132589Y284525D01*
X121875Y273811D01*
X106725Y273811D01*
G37*
%LPD*%
%LPC*%
G36*
X609648Y267509D02*
X609648Y267509D01*
X608159Y268998D01*
X608159Y277102D01*
X609648Y278591D01*
X614388Y278591D01*
X614458Y278602D01*
X614530Y278604D01*
X614579Y278622D01*
X614630Y278630D01*
X614694Y278664D01*
X614761Y278689D01*
X614802Y278721D01*
X614848Y278746D01*
X614897Y278797D01*
X614953Y278842D01*
X614981Y278886D01*
X615017Y278924D01*
X615047Y278989D01*
X615086Y279049D01*
X615099Y279100D01*
X615121Y279147D01*
X615129Y279218D01*
X615146Y279288D01*
X615142Y279340D01*
X615148Y279391D01*
X615133Y279462D01*
X615127Y279533D01*
X615107Y279581D01*
X615096Y279632D01*
X615059Y279693D01*
X615031Y279759D01*
X614986Y279815D01*
X614969Y279843D01*
X614952Y279858D01*
X614926Y279890D01*
X614683Y280133D01*
X613600Y282748D01*
X613600Y285577D01*
X614683Y288192D01*
X616683Y290192D01*
X619298Y291275D01*
X622127Y291275D01*
X624742Y290192D01*
X626742Y288192D01*
X627825Y285577D01*
X627825Y282748D01*
X626742Y280133D01*
X626499Y279890D01*
X626457Y279832D01*
X626408Y279780D01*
X626386Y279733D01*
X626356Y279691D01*
X626335Y279622D01*
X626304Y279557D01*
X626299Y279505D01*
X626283Y279455D01*
X626285Y279384D01*
X626277Y279313D01*
X626288Y279262D01*
X626290Y279210D01*
X626314Y279142D01*
X626329Y279072D01*
X626356Y279027D01*
X626374Y278979D01*
X626419Y278923D01*
X626456Y278861D01*
X626495Y278827D01*
X626528Y278787D01*
X626588Y278748D01*
X626643Y278701D01*
X626691Y278682D01*
X626735Y278654D01*
X626804Y278636D01*
X626871Y278609D01*
X626942Y278601D01*
X626973Y278593D01*
X626997Y278595D01*
X627037Y278591D01*
X633752Y278591D01*
X635241Y277102D01*
X635241Y268998D01*
X633752Y267509D01*
X609648Y267509D01*
G37*
%LPD*%
%LPC*%
G36*
X510948Y230559D02*
X510948Y230559D01*
X509459Y232048D01*
X509459Y244152D01*
X510948Y245641D01*
X512422Y245641D01*
X512467Y245648D01*
X512513Y245646D01*
X512588Y245668D01*
X512665Y245680D01*
X512705Y245702D01*
X512749Y245715D01*
X512813Y245759D01*
X512882Y245796D01*
X512914Y245829D01*
X512951Y245855D01*
X512998Y245917D01*
X513051Y245974D01*
X513071Y246016D01*
X513098Y246052D01*
X513122Y246126D01*
X513155Y246197D01*
X513160Y246243D01*
X513174Y246286D01*
X513174Y246364D01*
X513182Y246441D01*
X513172Y246486D01*
X513172Y246532D01*
X513134Y246664D01*
X513130Y246682D01*
X513127Y246686D01*
X513125Y246693D01*
X512000Y249410D01*
X512000Y252240D01*
X513083Y254854D01*
X515083Y256855D01*
X517698Y257938D01*
X520527Y257938D01*
X523142Y256855D01*
X525142Y254854D01*
X526225Y252240D01*
X526225Y249410D01*
X525100Y246693D01*
X525089Y246649D01*
X525070Y246607D01*
X525061Y246530D01*
X525044Y246454D01*
X525048Y246408D01*
X525043Y246363D01*
X525059Y246286D01*
X525067Y246209D01*
X525085Y246167D01*
X525095Y246122D01*
X525135Y246055D01*
X525167Y245984D01*
X525198Y245950D01*
X525221Y245911D01*
X525280Y245860D01*
X525333Y245803D01*
X525373Y245781D01*
X525408Y245751D01*
X525480Y245722D01*
X525549Y245685D01*
X525594Y245676D01*
X525636Y245659D01*
X525772Y245644D01*
X525791Y245641D01*
X525796Y245642D01*
X525803Y245641D01*
X527052Y245641D01*
X528541Y244152D01*
X528541Y232048D01*
X527052Y230559D01*
X510948Y230559D01*
G37*
%LPD*%
%LPC*%
G36*
X132548Y82759D02*
X132548Y82759D01*
X131059Y84248D01*
X131059Y99352D01*
X132548Y100841D01*
X150152Y100841D01*
X151641Y99352D01*
X151641Y84248D01*
X150152Y82759D01*
X132548Y82759D01*
G37*
%LPD*%
%LPC*%
G36*
X932648Y82759D02*
X932648Y82759D01*
X931159Y84248D01*
X931159Y99352D01*
X932648Y100841D01*
X950252Y100841D01*
X951741Y99352D01*
X951741Y84248D01*
X950252Y82759D01*
X932648Y82759D01*
G37*
%LPD*%
%LPC*%
G36*
X704048Y82759D02*
X704048Y82759D01*
X702559Y84248D01*
X702559Y99352D01*
X704048Y100841D01*
X721652Y100841D01*
X723141Y99352D01*
X723141Y84248D01*
X721652Y82759D01*
X704048Y82759D01*
G37*
%LPD*%
%LPC*%
G36*
X589748Y82759D02*
X589748Y82759D01*
X588259Y84248D01*
X588259Y99352D01*
X589748Y100841D01*
X607352Y100841D01*
X608841Y99352D01*
X608841Y84248D01*
X607352Y82759D01*
X589748Y82759D01*
G37*
%LPD*%
%LPC*%
G36*
X361148Y82759D02*
X361148Y82759D01*
X359659Y84248D01*
X359659Y99352D01*
X361148Y100841D01*
X378752Y100841D01*
X380241Y99352D01*
X380241Y84248D01*
X378752Y82759D01*
X361148Y82759D01*
G37*
%LPD*%
%LPC*%
G36*
X932648Y127759D02*
X932648Y127759D01*
X931159Y129248D01*
X931159Y144352D01*
X932648Y145841D01*
X950252Y145841D01*
X951741Y144352D01*
X951741Y129248D01*
X950252Y127759D01*
X932648Y127759D01*
G37*
%LPD*%
%LPC*%
G36*
X132548Y127759D02*
X132548Y127759D01*
X131059Y129248D01*
X131059Y144352D01*
X132548Y145841D01*
X150152Y145841D01*
X151641Y144352D01*
X151641Y129248D01*
X150152Y127759D01*
X132548Y127759D01*
G37*
%LPD*%
%LPC*%
G36*
X704048Y127759D02*
X704048Y127759D01*
X702559Y129248D01*
X702559Y144352D01*
X704048Y145841D01*
X721652Y145841D01*
X723141Y144352D01*
X723141Y129248D01*
X721652Y127759D01*
X704048Y127759D01*
G37*
%LPD*%
%LPC*%
G36*
X361148Y127759D02*
X361148Y127759D01*
X359659Y129248D01*
X359659Y144352D01*
X361148Y145841D01*
X378752Y145841D01*
X380241Y144352D01*
X380241Y129248D01*
X378752Y127759D01*
X361148Y127759D01*
G37*
%LPD*%
%LPC*%
G36*
X818348Y127759D02*
X818348Y127759D01*
X816859Y129248D01*
X816859Y144352D01*
X818348Y145841D01*
X835952Y145841D01*
X837441Y144352D01*
X837441Y129248D01*
X835952Y127759D01*
X818348Y127759D01*
G37*
%LPD*%
%LPC*%
G36*
X589748Y127759D02*
X589748Y127759D01*
X588259Y129248D01*
X588259Y144352D01*
X589748Y145841D01*
X607352Y145841D01*
X608841Y144352D01*
X608841Y129248D01*
X607352Y127759D01*
X589748Y127759D01*
G37*
%LPD*%
%LPC*%
G36*
X818348Y82759D02*
X818348Y82759D01*
X816859Y84248D01*
X816859Y99352D01*
X818348Y100841D01*
X835952Y100841D01*
X837441Y99352D01*
X837441Y84248D01*
X835952Y82759D01*
X818348Y82759D01*
G37*
%LPD*%
%LPC*%
G36*
X475448Y127759D02*
X475448Y127759D01*
X473959Y129248D01*
X473959Y144352D01*
X475448Y145841D01*
X493052Y145841D01*
X494541Y144352D01*
X494541Y129248D01*
X493052Y127759D01*
X475448Y127759D01*
G37*
%LPD*%
%LPC*%
G36*
X475448Y82759D02*
X475448Y82759D01*
X473959Y84248D01*
X473959Y99352D01*
X475448Y100841D01*
X493052Y100841D01*
X494541Y99352D01*
X494541Y84248D01*
X493052Y82759D01*
X475448Y82759D01*
G37*
%LPD*%
%LPC*%
G36*
X246848Y127759D02*
X246848Y127759D01*
X245359Y129248D01*
X245359Y144352D01*
X246848Y145841D01*
X264452Y145841D01*
X265941Y144352D01*
X265941Y129248D01*
X264452Y127759D01*
X246848Y127759D01*
G37*
%LPD*%
%LPC*%
G36*
X166623Y293623D02*
X166623Y293623D01*
X166623Y310389D01*
X172675Y310389D01*
X183389Y299675D01*
X183389Y293623D01*
X166623Y293623D01*
G37*
%LPD*%
%LPC*%
G36*
X146811Y293623D02*
X146811Y293623D01*
X146811Y299675D01*
X157525Y310389D01*
X163577Y310389D01*
X163577Y293623D01*
X146811Y293623D01*
G37*
%LPD*%
%LPC*%
G36*
X166623Y273811D02*
X166623Y273811D01*
X166623Y290577D01*
X183389Y290577D01*
X183389Y284525D01*
X172675Y273811D01*
X166623Y273811D01*
G37*
%LPD*%
%LPC*%
G36*
X157525Y273811D02*
X157525Y273811D01*
X146811Y284525D01*
X146811Y290577D01*
X163577Y290577D01*
X163577Y273811D01*
X157525Y273811D01*
G37*
%LPD*%
%LPC*%
G36*
X344423Y242823D02*
X344423Y242823D01*
X344423Y256541D01*
X349213Y256541D01*
X358141Y247613D01*
X358141Y242823D01*
X344423Y242823D01*
G37*
%LPD*%
%LPC*%
G36*
X344423Y226059D02*
X344423Y226059D01*
X344423Y239777D01*
X358141Y239777D01*
X358141Y234987D01*
X349213Y226059D01*
X344423Y226059D01*
G37*
%LPD*%
%LPC*%
G36*
X327659Y242823D02*
X327659Y242823D01*
X327659Y247613D01*
X336587Y256541D01*
X341377Y256541D01*
X341377Y242823D01*
X327659Y242823D01*
G37*
%LPD*%
%LPC*%
G36*
X336587Y226059D02*
X336587Y226059D01*
X327659Y234987D01*
X327659Y239777D01*
X341377Y239777D01*
X341377Y226059D01*
X336587Y226059D01*
G37*
%LPD*%
%LPC*%
G36*
X954023Y61823D02*
X954023Y61823D01*
X954023Y69341D01*
X960334Y69341D01*
X960981Y69168D01*
X961560Y68833D01*
X962033Y68360D01*
X962368Y67781D01*
X962541Y67134D01*
X962541Y61823D01*
X954023Y61823D01*
G37*
%LPD*%
%LPC*%
G36*
X942459Y61823D02*
X942459Y61823D01*
X942459Y67134D01*
X942632Y67781D01*
X942967Y68360D01*
X943440Y68833D01*
X944019Y69168D01*
X944666Y69341D01*
X950977Y69341D01*
X950977Y61823D01*
X942459Y61823D01*
G37*
%LPD*%
%LPC*%
G36*
X623199Y236449D02*
X623199Y236449D01*
X623199Y240491D01*
X633034Y240491D01*
X633681Y240318D01*
X634260Y239983D01*
X634733Y239510D01*
X635068Y238931D01*
X635241Y238284D01*
X635241Y236449D01*
X623199Y236449D01*
G37*
%LPD*%
%LPC*%
G36*
X675199Y274549D02*
X675199Y274549D01*
X675199Y278591D01*
X685034Y278591D01*
X685681Y278418D01*
X686260Y278083D01*
X686733Y277610D01*
X687068Y277031D01*
X687241Y276384D01*
X687241Y274549D01*
X675199Y274549D01*
G37*
%LPD*%
%LPC*%
G36*
X608159Y236449D02*
X608159Y236449D01*
X608159Y238284D01*
X608332Y238931D01*
X608667Y239510D01*
X609140Y239983D01*
X609719Y240318D01*
X610366Y240491D01*
X620201Y240491D01*
X620201Y236449D01*
X608159Y236449D01*
G37*
%LPD*%
%LPC*%
G36*
X660159Y274549D02*
X660159Y274549D01*
X660159Y276384D01*
X660332Y277031D01*
X660667Y277610D01*
X661140Y278083D01*
X661719Y278418D01*
X662366Y278591D01*
X672201Y278591D01*
X672201Y274549D01*
X660159Y274549D01*
G37*
%LPD*%
%LPC*%
G36*
X623199Y233451D02*
X623199Y233451D01*
X635241Y233451D01*
X635241Y231616D01*
X635068Y230969D01*
X634733Y230390D01*
X634260Y229917D01*
X633681Y229582D01*
X633034Y229409D01*
X623199Y229409D01*
X623199Y233451D01*
G37*
%LPD*%
%LPC*%
G36*
X675199Y271551D02*
X675199Y271551D01*
X687241Y271551D01*
X687241Y269716D01*
X687068Y269069D01*
X686733Y268490D01*
X686260Y268017D01*
X685681Y267682D01*
X685034Y267509D01*
X675199Y267509D01*
X675199Y271551D01*
G37*
%LPD*%
%LPC*%
G36*
X610366Y229409D02*
X610366Y229409D01*
X609719Y229582D01*
X609140Y229917D01*
X608667Y230390D01*
X608332Y230969D01*
X608159Y231616D01*
X608159Y233451D01*
X620201Y233451D01*
X620201Y229409D01*
X610366Y229409D01*
G37*
%LPD*%
%LPC*%
G36*
X662366Y267509D02*
X662366Y267509D01*
X661719Y267682D01*
X661140Y268017D01*
X660667Y268490D01*
X660332Y269069D01*
X660159Y269716D01*
X660159Y271551D01*
X672201Y271551D01*
X672201Y267509D01*
X662366Y267509D01*
G37*
%LPD*%
%LPC*%
G36*
X165099Y292099D02*
X165099Y292099D01*
X165099Y292101D01*
X165101Y292101D01*
X165101Y292099D01*
X165099Y292099D01*
G37*
%LPD*%
%LPC*%
G36*
X342899Y241299D02*
X342899Y241299D01*
X342899Y241301D01*
X342901Y241301D01*
X342901Y241299D01*
X342899Y241299D01*
G37*
%LPD*%
D10*
X114300Y292100D03*
X165100Y292100D03*
D11*
X749300Y187300D03*
X749300Y168300D03*
D12*
X419100Y241300D03*
X342900Y241300D03*
D13*
X497000Y228600D03*
X519000Y238100D03*
X519000Y219100D03*
D14*
X581000Y215900D03*
X562000Y215900D03*
D11*
X952500Y41300D03*
X952500Y60300D03*
D14*
X117500Y50800D03*
X136500Y50800D03*
X219100Y50800D03*
X238100Y50800D03*
X320700Y50800D03*
X339700Y50800D03*
X435000Y50800D03*
X454000Y50800D03*
X549300Y50800D03*
X568300Y50800D03*
X663600Y50800D03*
X682600Y50800D03*
X765200Y50800D03*
X784200Y50800D03*
X866800Y50800D03*
X885800Y50800D03*
D15*
X141350Y136800D03*
X61850Y136800D03*
X141350Y91800D03*
X61850Y91800D03*
X255650Y136800D03*
X176150Y136800D03*
X255650Y91800D03*
X176150Y91800D03*
X369950Y136800D03*
X290450Y136800D03*
X369950Y91800D03*
X290450Y91800D03*
X484250Y136800D03*
X404750Y136800D03*
X484250Y91800D03*
X404750Y91800D03*
X598550Y136800D03*
X519050Y136800D03*
X598550Y91800D03*
X519050Y91800D03*
X712850Y136800D03*
X633350Y136800D03*
X712850Y91800D03*
X633350Y91800D03*
X827150Y136800D03*
X747650Y136800D03*
X827150Y91800D03*
X747650Y91800D03*
X941450Y136800D03*
X861950Y136800D03*
X941450Y91800D03*
X861950Y91800D03*
D16*
X621700Y260350D03*
X673700Y260350D03*
X621700Y273050D03*
X621700Y247650D03*
X621700Y234950D03*
X673700Y273050D03*
X673700Y247650D03*
X673700Y234950D03*
D14*
X669900Y203200D03*
X650900Y203200D03*
D17*
X868363Y50800D02*
X868363Y34925D01*
X901700Y34925D02*
X935038Y34925D01*
X901700Y34925D02*
X868363Y34925D01*
X935038Y34925D02*
X941388Y41275D01*
X952500Y41275D01*
X868363Y50800D02*
X866800Y50800D01*
X952500Y41300D02*
X952500Y41275D01*
X765175Y260350D02*
X673700Y260350D01*
X765175Y260350D02*
X901700Y123825D01*
X901700Y34925D01*
X669925Y203200D02*
X669925Y234950D01*
X673700Y234950D01*
X669925Y203200D02*
X669900Y203200D01*
X496888Y228600D02*
X484188Y241300D01*
X419100Y241300D01*
X496888Y228600D02*
X497000Y228600D01*
X563563Y215900D02*
X563563Y200025D01*
X585788Y200025D01*
X601663Y215900D01*
X601663Y247650D01*
X621700Y247650D01*
X563563Y215900D02*
X562000Y215900D01*
X520700Y222250D02*
X519113Y220663D01*
X520700Y222250D02*
X541338Y222250D01*
X550863Y231775D01*
X566738Y231775D01*
X579438Y219075D01*
X579438Y215900D01*
X519113Y220663D02*
X519000Y219100D01*
X579438Y215900D02*
X581000Y215900D01*
X519113Y238125D02*
X519113Y250825D01*
X519113Y238125D02*
X519000Y238100D01*
X636588Y203200D02*
X650900Y203200D01*
X749300Y168300D02*
X749300Y153988D01*
X620713Y273050D02*
X620713Y284163D01*
X620713Y273050D02*
X621700Y273050D01*
D18*
X519113Y250825D03*
X636588Y203200D03*
X749300Y153988D03*
X620713Y284163D03*
D17*
X621700Y260350D02*
X635000Y260350D01*
X647700Y247650D01*
X673700Y247650D01*
X749300Y185738D02*
X755650Y179388D01*
X758825Y179388D01*
X765175Y173038D01*
X765175Y152400D02*
X765175Y138113D01*
X765175Y152400D02*
X765175Y173038D01*
X765175Y138113D02*
X747713Y138113D01*
X747650Y136800D01*
X681038Y185738D02*
X633413Y138113D01*
X693738Y185738D02*
X749300Y185738D01*
X693738Y185738D02*
X681038Y185738D01*
X633413Y138113D02*
X633350Y136800D01*
X749300Y185738D02*
X749300Y187300D01*
X846138Y152400D02*
X860425Y138113D01*
X846138Y152400D02*
X765175Y152400D01*
X860425Y138113D02*
X861950Y136800D01*
X687388Y247650D02*
X673700Y247650D01*
X687388Y247650D02*
X693738Y241300D01*
X693738Y185738D01*
X76200Y152400D02*
X61913Y138113D01*
X76200Y152400D02*
X152400Y152400D01*
X166688Y138113D01*
X174625Y138113D01*
X61913Y138113D02*
X61850Y136800D01*
X174625Y138113D02*
X176150Y136800D01*
X273050Y120650D02*
X288925Y136525D01*
X273050Y120650D02*
X203200Y120650D01*
X187325Y136525D01*
X176213Y136525D01*
X288925Y136525D02*
X290450Y136800D01*
X176213Y136525D02*
X176150Y136800D01*
X387350Y120650D02*
X403225Y136525D01*
X387350Y120650D02*
X317500Y120650D01*
X303213Y134938D01*
X288925Y134938D01*
X403225Y136525D02*
X404750Y136800D01*
X290450Y136800D02*
X288925Y134938D01*
X501650Y120650D02*
X517525Y136525D01*
X501650Y120650D02*
X431800Y120650D01*
X417513Y134938D01*
X403225Y134938D01*
X517525Y136525D02*
X519050Y136800D01*
X404750Y136800D02*
X403225Y134938D01*
X615950Y120650D02*
X631825Y136525D01*
X615950Y120650D02*
X546100Y120650D01*
X531813Y134938D01*
X517525Y134938D01*
X631825Y136525D02*
X633350Y136800D01*
X519050Y136800D02*
X517525Y134938D01*
X784225Y50800D02*
X809625Y76200D01*
X838200Y76200D01*
X852488Y90488D01*
X860425Y90488D01*
X784225Y50800D02*
X784200Y50800D01*
X860425Y90488D02*
X861950Y91800D01*
X884238Y90488D02*
X884238Y50800D01*
X884238Y90488D02*
X862013Y90488D01*
X884238Y50800D02*
X885800Y50800D01*
X862013Y90488D02*
X861950Y91800D01*
X765200Y50800D02*
X747713Y50800D01*
X682600Y50800D01*
X747713Y50800D02*
X747713Y90488D01*
X747650Y91800D01*
X593725Y76200D02*
X568325Y50800D01*
X593725Y76200D02*
X609600Y76200D01*
X623094Y89694D02*
X623888Y90488D01*
X623094Y89694D02*
X609600Y76200D01*
X623888Y90488D02*
X631825Y90488D01*
X568325Y50800D02*
X568300Y50800D01*
X631825Y90488D02*
X633350Y91800D01*
X625475Y88900D02*
X663575Y50800D01*
X625475Y88900D02*
X623888Y88900D01*
X663575Y50800D02*
X663600Y50800D01*
X623888Y88900D02*
X623094Y89694D01*
X479425Y76200D02*
X454025Y50800D01*
X479425Y76200D02*
X495300Y76200D01*
X508794Y89694D02*
X509588Y90488D01*
X508794Y89694D02*
X495300Y76200D01*
X509588Y90488D02*
X517525Y90488D01*
X454025Y50800D02*
X454000Y50800D01*
X517525Y90488D02*
X519050Y91800D01*
X511175Y88900D02*
X549275Y50800D01*
X511175Y88900D02*
X509588Y88900D01*
X549275Y50800D02*
X549300Y50800D01*
X509588Y88900D02*
X508794Y89694D01*
X365125Y76200D02*
X339725Y50800D01*
X365125Y76200D02*
X381000Y76200D01*
X394494Y89694D02*
X395288Y90488D01*
X394494Y89694D02*
X381000Y76200D01*
X395288Y90488D02*
X403225Y90488D01*
X339725Y50800D02*
X339700Y50800D01*
X403225Y90488D02*
X404750Y91800D01*
X396875Y88900D02*
X434975Y50800D01*
X396875Y88900D02*
X395288Y88900D01*
X434975Y50800D02*
X435000Y50800D01*
X395288Y88900D02*
X394494Y89694D01*
X277813Y90488D02*
X238125Y50800D01*
X280988Y90488D02*
X288925Y90488D01*
X280988Y90488D02*
X277813Y90488D01*
X238125Y50800D02*
X238100Y50800D01*
X288925Y90488D02*
X290450Y91800D01*
X280988Y90488D02*
X320675Y50800D01*
X320700Y50800D01*
X176213Y90488D02*
X136525Y50800D01*
X136500Y50800D01*
X176213Y90488D02*
X176150Y91800D01*
X180975Y88900D02*
X219075Y50800D01*
X180975Y88900D02*
X176213Y88900D01*
X219075Y50800D02*
X219100Y50800D01*
X176213Y88900D02*
X176150Y91800D01*
X117475Y50800D02*
X77788Y90488D01*
X61913Y90488D01*
X117475Y50800D02*
X117500Y50800D01*
X61913Y90488D02*
X61850Y91800D01*
M02*
